<svg xmlns="http://www.w3.org/2000/svg" width="627.51" height="377.526" viewBox="0 0 627.51 377.526">
  <g id="Group_11288" data-name="Group 11288" transform="translate(-997.469 -2535.405)">
    <path id="Path_16423" data-name="Path 16423" d="M-1889.913-3611.34s64.974,10.962,116.643-11.393,128.609,7.305,177.3,0,89.592,31.83,158.672-30.048,88.867-70.333,40.18-162.821c-19.28-36.625-73.413-29-92.5-46.821-28.886-26.974-28.167-72.266-106.353-103.154-129.447-51.138-273.059-2.71-304.834,97.082S-1889.913-3611.34-1889.913-3611.34Z" transform="translate(2995.202 6521.583)" fill="rgba(173,223,255,0.2)"/>
    <g id="Group_10948" data-name="Group 10948" transform="translate(779.083 2469.405)">
      <path id="Path_16292" data-name="Path 16292" d="M529.147,415.795c36.462-33.573,49.045-137.318,3.477-131.468,2.831-108.107-81.747-128.118-120.644-95.979-21.594-41.841-76.836-23.4-94.167,9.6-40.915-17.443-79.982,16.165-94.253,65C209.695,310.383,224.615,387.2,257.319,415.2,426.216,415.2,529.147,415.795,529.147,415.795Z" transform="translate(0 0)" fill="rgba(173,223,255,0.59)" opacity="0.72"/>
      <path id="Path_16293" data-name="Path 16293" d="M1150.607,1266.334s-48.453-64.36-78.944-74.231-1.753,29.334-1.753,29.334-47.789-57.875-68.088-54.657c-22.226,3.523-11.232,35.261-11.232,35.261s-15.084-22.545-39.631-18.661c-28.5,4.51,27.651,81.508,27.651,81.508Z" transform="translate(-614.671 -850.539)" fill="rgba(153,153,153,0.2)"/>
      <path id="Path_16294" data-name="Path 16294" d="M482.745,1466.821s-27.974-59.483-56.423-62.048c-26.7-2.408-10.3,36.584-12,34.559s-24.477-40.957-46.193-30.32c-24.79,12.143,12.791,38.869,12.791,38.869s-51.52-19.193-55.554.961c-3.348,16.727,15.376,17.978,15.376,17.978Z" transform="translate(-90.423 -1052.473)" fill="rgba(153,153,153,0.2)"/>
      <g id="Group_10922" data-name="Group 10922" transform="translate(499.38 338.251)">
        <g id="Group_10920" data-name="Group 10920" transform="translate(24.339 4.572)">
          <path id="Path_16295" data-name="Path 16295" d="M2238.869,1354.778a175.4,175.4,0,0,1,8.079,60.039h.772a176.514,176.514,0,0,0-8.114-59.56c-1.416-4.462-2.836-9.686-7-12.4-.08-.052-.149.073-.074.127C2236.277,1345.676,2237.543,1350.6,2238.869,1354.778Z" transform="translate(-2232.498 -1342.849)" fill="rgba(74,74,74,0.21)"/>
        </g>
        <g id="Group_10921" data-name="Group 10921" transform="translate(4.431 21.409)">
          <path id="Path_16296" data-name="Path 16296" d="M2132.818,1509.047a219.192,219.192,0,0,0-31.3-55.069c-.135-.174-.443.06-.307.237a218.97,218.97,0,0,1,30.654,54.832Z" transform="translate(-2101.174 -1453.917)" fill="rgba(74,74,74,0.21)"/>
        </g>
        <path id="Path_16297" data-name="Path 16297" d="M2263.6,1333.22a7.732,7.732,0,0,0-2.36,2.366,5.968,5.968,0,0,0-.816,2.84,6.443,6.443,0,0,1-.856-3.19,6.314,6.314,0,0,1,1.743-4.554c1.567-1.412,3.55-1.066,3.7-.136C2265.191,1331.477,2264.385,1332.461,2263.6,1333.22Z" transform="translate(-2231.12 -1327.151)" fill="rgba(74,74,74,0.21)"/>
        <path id="Path_16298" data-name="Path 16298" d="M2225.132,1425.49a7.74,7.74,0,0,1,3.211-.923,5.97,5.97,0,0,1,2.882.658,6.443,6.443,0,0,0-2.38-2.29,6.314,6.314,0,0,0-4.829-.674c-1.994.69-2.648,2.593-1.909,3.177C2222.836,1426.043,2224.088,1425.812,2225.132,1425.49Z" transform="translate(-2199.094 -1405.451)" fill="rgba(74,74,74,0.21)"/>
        <path id="Path_16299" data-name="Path 16299" d="M2238.8,1474.534a7.728,7.728,0,0,1,3.212-.923,5.963,5.963,0,0,1,2.882.657,6.445,6.445,0,0,0-2.38-2.291,6.311,6.311,0,0,0-4.829-.674c-1.994.69-2.648,2.593-1.909,3.177C2236.5,1475.086,2237.755,1474.855,2238.8,1474.534Z" transform="translate(-2210.689 -1447.059)" fill="rgba(74,74,74,0.21)"/>
        <path id="Path_16300" data-name="Path 16300" d="M2123.239,1548.811a7.732,7.732,0,0,1,3.211-.923,5.97,5.97,0,0,1,2.882.657,6.449,6.449,0,0,0-2.38-2.29,6.313,6.313,0,0,0-4.829-.674c-1.993.69-2.649,2.593-1.909,3.177C2120.943,1549.363,2122.195,1549.133,2123.239,1548.811Z" transform="translate(-2112.647 -1510.076)" fill="rgba(74,74,74,0.21)"/>
        <path id="Path_16301" data-name="Path 16301" d="M2088.418,1496.426a7.739,7.739,0,0,1,3.212-.923,5.962,5.962,0,0,1,2.882.657,6.44,6.44,0,0,0-2.38-2.29,6.311,6.311,0,0,0-4.829-.674c-1.994.69-2.648,2.593-1.909,3.177C2086.122,1496.979,2087.374,1496.748,2088.418,1496.426Z" transform="translate(-2083.105 -1465.633)" fill="rgba(74,74,74,0.21)"/>
        <path id="Path_16302" data-name="Path 16302" d="M2283.767,1390.557a7.731,7.731,0,0,0-2.7,1.964,5.966,5.966,0,0,0-1.254,2.676,6.44,6.44,0,0,1-.342-3.285,6.313,6.313,0,0,1,2.439-4.222c1.77-1.147,3.674-.493,3.679.449C2285.615,1389.087,2284.663,1389.932,2283.767,1390.557Z" transform="translate(-2247.929 -1375.803)" fill="rgba(74,74,74,0.21)"/>
        <path id="Path_16303" data-name="Path 16303" d="M2301.227,1443.166a6.74,6.74,0,0,0-3.45,1.141,5.154,5.154,0,0,0-1.773,2.656,8.542,8.542,0,0,1-.092-4.114c.423-2.043,2.193-3.866,3.353-3.981,2.245-.58,4.476,1.072,4.39,2.21C2303.6,1442.233,2302.368,1442.819,2301.227,1443.166Z" transform="translate(-2261.764 -1419.638)" fill="rgba(74,74,74,0.21)"/>
        <path id="Path_16304" data-name="Path 16304" d="M2318.9,1525.36a6.746,6.746,0,0,0-3.593.544,5.157,5.157,0,0,0-2.195,2.32,8.541,8.541,0,0,1,.6-4.071c.761-1.942,2.812-3.443,3.974-3.36,2.311-.194,4.232,1.81,3.957,2.917C2321.4,1524.838,2320.087,1525.21,2318.9,1525.36Z" transform="translate(-2276.528 -1489.234)" fill="rgba(74,74,74,0.21)"/>
        <path id="Path_16305" data-name="Path 16305" d="M2198.453,1551.1a5.494,5.494,0,0,0-2.742,1.124,4.2,4.2,0,0,0-1.291,2.261,6.964,6.964,0,0,1-.309-3.341c.228-1.686,1.563-3.27,2.5-3.429,1.794-.6,3.7.618,3.7,1.548C2200.328,1550.2,2199.362,1550.751,2198.453,1551.1Z" transform="translate(-2175.504 -1511.949)" fill="rgba(74,74,74,0.21)"/>
        <path id="Path_16306" data-name="Path 16306" d="M2206.726,1341.085a4.59,4.59,0,0,1,1.859-.686,3.543,3.543,0,0,1,1.734.263,3.82,3.82,0,0,0-1.508-1.251,3.746,3.746,0,0,0-2.886-.187c-1.149.5-1.453,1.65-.99,1.963A2.034,2.034,0,0,0,2206.726,1341.085Z" transform="translate(-2184.598 -1335.025)" fill="rgba(74,74,74,0.21)"/>
        <path id="Path_16307" data-name="Path 16307" d="M2228.623,1314.633a4.588,4.588,0,0,0-.434,1.934,3.539,3.539,0,0,0,.49,1.683,3.813,3.813,0,0,1-1.439-1.329,3.743,3.743,0,0,1-.568-2.836c.338-1.2,1.443-1.659,1.814-1.241A2.033,2.033,0,0,1,2228.623,1314.633Z" transform="translate(-2203.134 -1312.692)" fill="rgba(74,74,74,0.21)"/>
        <path id="Path_16308" data-name="Path 16308" d="M2073.947,1454.517a4.59,4.59,0,0,1,1.859-.687,3.544,3.544,0,0,1,1.733.263,3.824,3.824,0,0,0-1.508-1.251,3.746,3.746,0,0,0-2.886-.187c-1.149.5-1.453,1.65-.99,1.963A2.033,2.033,0,0,0,2073.947,1454.517Z" transform="translate(-2071.948 -1431.26)" fill="rgba(74,74,74,0.21)"/>
        <path id="Path_16309" data-name="Path 16309" d="M2098.726,1428.352a4.594,4.594,0,0,0-.591,1.892,3.537,3.537,0,0,0,.351,1.718,3.819,3.819,0,0,1-1.326-1.442,3.746,3.746,0,0,1-.333-2.873c.436-1.173,1.574-1.535,1.91-1.088A2.032,2.032,0,0,1,2098.726,1428.352Z" transform="translate(-2092.92 -1409.139)" fill="rgba(74,74,74,0.21)"/>
      </g>
      <g id="Group_10926" data-name="Group 10926" transform="translate(400.033 363.823)">
        <g id="Group_10923" data-name="Group 10923" transform="translate(4.947 5.137)">
          <path id="Path_16310" data-name="Path 16310" d="M1449.325,1515.37a143.3,143.3,0,0,1,26.391,35.247c1.913,3.675,3.532,7.456,5.2,11.243.221.5,1.079.145.893-.376l-.558-1.557c-.109-.3-.662-.289-.613.083q.106.8.211,1.6l.96-.13a113.374,113.374,0,0,0-10.061-19.635c-11.6-18.568-23.619-27.665-22.424-26.478Z" transform="translate(-1449.243 -1515.267)" fill="#777"/>
        </g>
        <path id="Path_16311" data-name="Path 16311" d="M1515.374,1534.788a7.285,7.285,0,0,0-1.89,2.519,5.623,5.623,0,0,0-.388,2.759,6.071,6.071,0,0,1-1.219-2.865,5.949,5.949,0,0,1,1.026-4.48c1.276-1.525,3.173-1.463,3.438-.615C1516.631,1532.951,1516.008,1533.976,1515.374,1534.788Z" transform="translate(-1497.367 -1523.912)" fill="#777"/>
        <path id="Path_16312" data-name="Path 16312" d="M1468.536,1484.656a7.292,7.292,0,0,0-1.89,2.52,5.629,5.629,0,0,0-.388,2.759,6.075,6.075,0,0,1-1.219-2.865,5.95,5.95,0,0,1,1.026-4.48c1.276-1.524,3.173-1.463,3.439-.615C1469.792,1482.819,1469.169,1483.844,1468.536,1484.656Z" transform="translate(-1457.629 -1481.38)" fill="#777"/>
        <path id="Path_16313" data-name="Path 16313" d="M1419.841,1527.9a7.3,7.3,0,0,1,2.81-1.422,5.627,5.627,0,0,1,2.784.1,6.069,6.069,0,0,0-2.608-1.7,5.947,5.947,0,0,0-4.59.23c-1.724.991-1.994,2.869-1.206,3.279C1417.813,1528.813,1418.931,1528.379,1419.841,1527.9Z" transform="translate(-1416.609 -1517.989)" fill="#777"/>
        <path id="Path_16314" data-name="Path 16314" d="M1469.535,1582.3a7.285,7.285,0,0,1,2.811-1.422,5.618,5.618,0,0,1,2.784.1,6.073,6.073,0,0,0-2.609-1.7,5.951,5.951,0,0,0-4.59.23c-1.724.99-1.994,2.869-1.205,3.279C1467.507,1583.215,1468.625,1582.78,1469.535,1582.3Z" transform="translate(-1458.771 -1564.143)" fill="#777"/>
        <path id="Path_16315" data-name="Path 16315" d="M1505.883,1628.765a7.288,7.288,0,0,1,2.81-1.423,5.626,5.626,0,0,1,2.784.1,6.069,6.069,0,0,0-2.608-1.7,5.951,5.951,0,0,0-4.59.23c-1.724.991-1.994,2.869-1.206,3.279C1503.855,1629.682,1504.973,1629.247,1505.883,1628.765Z" transform="translate(-1489.608 -1603.566)" fill="#777"/>
        <path id="Path_16316" data-name="Path 16316" d="M1536.133,1675.231a7.3,7.3,0,0,1,2.81-1.422,5.625,5.625,0,0,1,2.784.1,6.075,6.075,0,0,0-2.608-1.7,5.951,5.951,0,0,0-4.59.23c-1.724.991-1.994,2.869-1.206,3.279C1534.1,1676.148,1535.223,1675.714,1536.133,1675.231Z" transform="translate(-1515.272 -1642.988)" fill="#777"/>
        <path id="Path_16317" data-name="Path 16317" d="M1554.158,1585.524a7.293,7.293,0,0,0-1.891,2.52,5.626,5.626,0,0,0-.388,2.759,6.071,6.071,0,0,1-1.219-2.865,5.949,5.949,0,0,1,1.026-4.48c1.276-1.524,3.173-1.463,3.439-.616C1555.415,1583.687,1554.792,1584.712,1554.158,1585.524Z" transform="translate(-1530.271 -1566.957)" fill="#777"/>
        <path id="Path_16318" data-name="Path 16318" d="M1588.555,1636.575a7.284,7.284,0,0,0-1.891,2.52,5.627,5.627,0,0,0-.388,2.759,6.077,6.077,0,0,1-1.219-2.865,5.95,5.95,0,0,1,1.026-4.48c1.276-1.525,3.173-1.463,3.439-.615C1589.812,1634.738,1589.189,1635.763,1588.555,1636.575Z" transform="translate(-1559.453 -1610.269)" fill="#777"/>
        <g id="Group_10925" data-name="Group 10925" transform="translate(5.307 33.332)">
          <g id="Group_10924" data-name="Group 10924" transform="translate(4.675 5.534)">
            <path id="Path_16319" data-name="Path 16319" d="M1482.46,1737.778a23.615,23.615,0,0,1,2.923,2.458,21.849,21.849,0,0,1,5.169,8.809c.068.223.09.428.3.558a.114.114,0,0,0,.154-.04c.126-.235.021-.452-.049-.7a20.556,20.556,0,0,0-3.077-6.127,14.555,14.555,0,0,0-5.4-4.981.012.012,0,0,0-.012.021Z" transform="translate(-1482.454 -1737.756)" fill="#777"/>
          </g>
          <path id="Path_16320" data-name="Path 16320" d="M1454.165,1737.453a5.846,5.846,0,0,1,2.371-.875,4.505,4.505,0,0,1,2.21.335,4.866,4.866,0,0,0-1.923-1.595,4.775,4.775,0,0,0-3.68-.239c-1.466.632-1.853,2.1-1.262,2.5A2.593,2.593,0,0,0,1454.165,1737.453Z" transform="translate(-1451.616 -1729.725)" fill="#777"/>
          <path id="Path_16321" data-name="Path 16321" d="M1482.084,1703.724a5.854,5.854,0,0,0-.554,2.466,4.511,4.511,0,0,0,.625,2.146,4.87,4.87,0,0,1-1.835-1.695,4.772,4.772,0,0,1-.724-3.616c.432-1.536,1.84-2.115,2.313-1.583A2.593,2.593,0,0,1,1482.084,1703.724Z" transform="translate(-1475.249 -1701.25)" fill="#777"/>
        </g>
      </g>
      <g id="Group_10931" data-name="Group 10931" transform="translate(219.941 327.25)">
        <g id="Group_10927" data-name="Group 10927" transform="translate(3.647 4.608)">
          <path id="Path_16322" data-name="Path 16322" d="M252.7,1270.523a42.45,42.45,0,0,1,4.313,3.26c7.57,6.014,15.251,11.832,25.693,24.066a157.282,157.282,0,0,1,30.751,55.218c.228.726,1.375.415,1.143-.315a156.659,156.659,0,0,0-17.386-37.061c-19.938-31.149-44.784-45.329-44.515-45.167Z" transform="translate(-252.701 -1270.522)" fill="rgba(74,74,74,0.22)"/>
        </g>
        <g id="Group_10928" data-name="Group 10928" transform="translate(41.346 8.126)">
          <path id="Path_16323" data-name="Path 16323" d="M501.379,1293.963c1.669,10.989,7.4,20.87,11.355,31.125,10.572,27.432,12.288,48.162,13.239,50.477a.22.22,0,0,0,.429-.058c.263-2.149-2.048-17.033-6.641-32.681-7.637-26.017-15.631-36.179-18.021-48.963-.045-.239-.4-.134-.361.1Z" transform="translate(-501.376 -1293.727)" fill="rgba(74,74,74,0.22)"/>
        </g>
        <path id="Path_16324" data-name="Path 16324" d="M310.442,1249.944a9.9,9.9,0,0,0-1.621,3.958,7.633,7.633,0,0,0,.435,3.758,8.243,8.243,0,0,1-2.583-3.346c-.967-2.07-.9-5.132-.186-6.238,1.155-2.441,3.668-3.009,4.308-1.987C311.465,1247.1,311,1248.66,310.442,1249.944Z" transform="translate(-294.231 -1244.774)" fill="rgba(74,74,74,0.22)"/>
        <path id="Path_16325" data-name="Path 16325" d="M425.157,1365.35a9.866,9.866,0,0,0-1.136,4.106,7.608,7.608,0,0,0,.875,3.666,8.216,8.216,0,0,1-2.951-3c-1.2-1.934-1.492-4.97-.921-6.148.854-2.55,3.272-3.41,4.026-2.474C425.832,1362.416,425.554,1364.014,425.157,1365.35Z" transform="translate(-391.621 -1342.783)" fill="rgba(74,74,74,0.22)"/>
        <path id="Path_16326" data-name="Path 16326" d="M569.24,1427.3a7.29,7.29,0,0,0-2.895,1.243,5.622,5.622,0,0,0-1.711,2.2,6.068,6.068,0,0,1,.37-3.092,5.95,5.95,0,0,1,3.122-3.372c1.866-.686,3.48.312,3.288,1.179C571.245,1426.333,570.194,1426.912,569.24,1427.3Z" transform="translate(-513.649 -1396.167)" fill="rgba(74,74,74,0.22)"/>
        <path id="Path_16327" data-name="Path 16327" d="M583.694,1462.667a7.291,7.291,0,0,0-2.894,1.242,5.624,5.624,0,0,0-1.711,2.2,6.071,6.071,0,0,1,.37-3.091,5.949,5.949,0,0,1,3.122-3.373c1.866-.686,3.48.312,3.288,1.179C585.7,1461.7,584.648,1462.279,583.694,1462.667Z" transform="translate(-525.912 -1426.172)" fill="rgba(74,74,74,0.22)"/>
        <path id="Path_16328" data-name="Path 16328" d="M264.163,1322.221a9.121,9.121,0,0,1,2.7-2.872,7.031,7.031,0,0,1,3.314-1.073,7.59,7.59,0,0,0-3.791-.884c-2.1-.019-4.641,1.213-5.3,2.23-1.6,1.9-1.118,4.224-.016,4.368C262.171,1324.166,263.3,1323.177,264.163,1322.221Z" transform="translate(-255.293 -1305.669)" fill="rgba(74,74,74,0.22)"/>
        <path id="Path_16329" data-name="Path 16329" d="M334.115,1386.807a9.113,9.113,0,0,1,2.7-2.872,7.03,7.03,0,0,1,3.315-1.073,7.591,7.591,0,0,0-3.792-.884c-2.1-.019-4.641,1.213-5.3,2.231-1.6,1.9-1.118,4.223-.017,4.368C332.124,1388.751,333.252,1387.763,334.115,1386.807Z" transform="translate(-314.641 -1360.463)" fill="rgba(74,74,74,0.22)"/>
        <path id="Path_16330" data-name="Path 16330" d="M462.476,1333.443a9.127,9.127,0,0,1,3.907.5,7.033,7.033,0,0,1,2.814,2.054,7.591,7.591,0,0,0-1.51-3.588c-1.22-1.714-3.706-3.045-4.915-2.978-2.479-.182-4.075,1.574-3.546,2.551C459.733,1332.972,461.2,1333.305,462.476,1333.443Z" transform="translate(-424.184 -1315.877)" fill="rgba(74,74,74,0.22)"/>
        <path id="Path_16331" data-name="Path 16331" d="M482.968,1383.016a9.119,9.119,0,0,1,3.907.5,7.033,7.033,0,0,1,2.814,2.054,7.6,7.6,0,0,0-1.51-3.588c-1.22-1.714-3.706-3.045-4.915-2.978-2.479-.182-4.075,1.574-3.546,2.551C480.225,1382.545,481.688,1382.878,482.968,1383.016Z" transform="translate(-441.57 -1357.935)" fill="rgba(74,74,74,0.22)"/>
        <path id="Path_16332" data-name="Path 16332" d="M423.177,1486.339a9.117,9.117,0,0,1,2.7-2.872,7.031,7.031,0,0,1,3.314-1.072,7.591,7.591,0,0,0-3.791-.884c-2.1-.019-4.641,1.213-5.3,2.23-1.6,1.9-1.118,4.224-.016,4.368C421.185,1488.283,422.313,1487.294,423.177,1486.339Z" transform="translate(-390.201 -1444.906)" fill="rgba(74,74,74,0.22)"/>
        <path id="Path_16333" data-name="Path 16333" d="M231.267,1279.836a5.849,5.849,0,0,1,2.072-1.448,4.518,4.518,0,0,1,2.223-.236,4.872,4.872,0,0,0-2.264-1.056,4.774,4.774,0,0,0-3.621.7c-1.257.982-1.26,2.5-.587,2.741C229.759,1280.794,230.6,1280.322,231.267,1279.836Z" transform="translate(-228.642 -1271.414)" fill="rgba(74,74,74,0.22)"/>
        <path id="Path_16334" data-name="Path 16334" d="M250,1242.379a5.851,5.851,0,0,0,.089,2.526,4.512,4.512,0,0,0,1.148,1.918,4.876,4.876,0,0,1-2.2-1.174,4.775,4.775,0,0,1-1.616-3.315c.029-1.6,1.244-2.512,1.837-2.117S249.988,1241.553,250,1242.379Z" transform="translate(-244.561 -1240.125)" fill="rgba(74,74,74,0.22)"/>
        <g id="Group_10930" data-name="Group 10930" transform="translate(0.87 50.646)">
          <g id="Group_10929" data-name="Group 10929" transform="translate(3.986 6.186)">
            <path id="Path_16335" data-name="Path 16335" d="M260.716,1615.134c14.7,4.5,27.431,13.781,39.668,22.8,8.251,6.082,7.558,7.238,9.284,8.238a.379.379,0,0,0,.55-.423c-.444-1.544-2.128-2.851-3.272-3.908a51.228,51.228,0,0,0-4.205-3.445c-3.111-2.314-6.343-4.479-9.548-6.66a154.043,154.043,0,0,0-20.325-12.1,78.064,78.064,0,0,0-12.118-4.618.062.062,0,0,0-.033.12Z" transform="translate(-260.672 -1615.011)" fill="rgba(74,74,74,0.22)"/>
          </g>
          <path id="Path_16336" data-name="Path 16336" d="M331.362,1578.431a9.858,9.858,0,0,0-1.136,4.106,7.609,7.609,0,0,0,.875,3.666,8.21,8.21,0,0,1-2.951-3c-1.2-1.933-1.492-4.97-.921-6.148.854-2.55,3.272-3.41,4.026-2.474C332.037,1575.5,331.759,1577.095,331.362,1578.431Z" transform="translate(-312.914 -1574.208)" fill="rgba(74,74,74,0.22)"/>
          <path id="Path_16337" data-name="Path 16337" d="M412.7,1626.243a9.861,9.861,0,0,0-1.136,4.106,7.606,7.606,0,0,0,.875,3.666,8.214,8.214,0,0,1-2.951-3c-1.2-1.933-1.492-4.97-.921-6.148.853-2.55,3.272-3.41,4.026-2.474C413.37,1623.309,413.092,1624.908,412.7,1626.243Z" transform="translate(-381.918 -1614.772)" fill="rgba(74,74,74,0.22)"/>
          <path id="Path_16338" data-name="Path 16338" d="M493.861,1682.6a9.862,9.862,0,0,0-1.136,4.107,7.6,7.6,0,0,0,.875,3.665,8.206,8.206,0,0,1-2.951-3c-1.2-1.933-1.492-4.97-.921-6.148.854-2.55,3.272-3.41,4.026-2.474C494.536,1679.668,494.258,1681.267,493.861,1682.6Z" transform="translate(-450.779 -1662.588)" fill="rgba(74,74,74,0.22)"/>
          <path id="Path_16339" data-name="Path 16339" d="M291.549,1651.555a9.113,9.113,0,0,1,2.7-2.872,7.029,7.029,0,0,1,3.314-1.073,7.592,7.592,0,0,0-3.791-.884c-2.1-.019-4.641,1.213-5.3,2.231-1.6,1.9-1.118,4.223-.016,4.368C289.557,1653.5,290.686,1652.51,291.549,1651.555Z" transform="translate(-279.397 -1635.722)" fill="rgba(74,74,74,0.22)"/>
          <path id="Path_16340" data-name="Path 16340" d="M376.219,1700.917a9.114,9.114,0,0,1,2.7-2.872,7.031,7.031,0,0,1,3.314-1.073,7.6,7.6,0,0,0-3.791-.884c-2.1-.018-4.641,1.213-5.3,2.231-1.6,1.9-1.118,4.223-.016,4.368C374.228,1702.861,375.356,1701.873,376.219,1700.917Z" transform="translate(-351.232 -1677.601)" fill="rgba(74,74,74,0.22)"/>
          <path id="Path_16341" data-name="Path 16341" d="M237,1616.608a5.851,5.851,0,0,1,2.072-1.447,4.5,4.5,0,0,1,2.223-.236,4.863,4.863,0,0,0-2.264-1.056,4.773,4.773,0,0,0-3.62.7c-1.257.982-1.26,2.5-.587,2.741C235.5,1617.566,236.334,1617.094,237,1616.608Z" transform="translate(-234.379 -1607.779)" fill="rgba(74,74,74,0.22)"/>
          <path id="Path_16342" data-name="Path 16342" d="M255.738,1579.151a5.849,5.849,0,0,0,.089,2.526,4.513,4.513,0,0,0,1.148,1.918,4.87,4.87,0,0,1-2.2-1.174,4.774,4.774,0,0,1-1.616-3.315c.029-1.6,1.244-2.512,1.837-2.117S255.725,1578.324,255.738,1579.151Z" transform="translate(-250.298 -1576.489)" fill="rgba(74,74,74,0.22)"/>
        </g>
      </g>
      <path id="Path_16343" data-name="Path 16343" d="M572.5,1811.516H239.566c-.727,0-1.316.826-1.316,1.846s.589,1.846,1.316,1.846H572.5c.727,0,1.316-.826,1.316-1.846S573.224,1811.516,572.5,1811.516Z" transform="translate(-16.853 -1397.645)" fill="#f7cc7f"/>
      <g id="Group_10933" data-name="Group 10933" transform="translate(422.218 250.116)">
        <g id="Group_10932" data-name="Group 10932" transform="translate(0 47.397)">
          <path id="Path_16344" data-name="Path 16344" d="M1591.746,1061.34c-1.751,2.569-16.631,10.695-16.631,10.695a10.45,10.45,0,0,0-4.545.459c-1.822.52-5.287.038-4.7,1.127s3.805.35,3.484,1.172-6.908,2.808-6.375,3.8,6.6-1.29,6.313-.554-6.091,2.215-5.337,3.611,6.62-2.354,7.024-1.6-4.027,3.655-3.42,4.778,5.188-3.89,5.359-3.437c.092.244-1.428,3.383-.794,3.676.717.332,3.031-3.589,5.636-6.4a8.28,8.28,0,0,1,1.728-1.765c4.918-2.417,17.788-8.342,20.262-11.219,3.03-3.524,10.839-21.7,10.839-21.7L1598,1045.254S1593.805,1058.318,1591.746,1061.34Z" transform="translate(-1562.949 -1043.967)" fill="#f7a491"/>
          <path id="Path_16345" data-name="Path 16345" d="M1615.5,1251.633a4.041,4.041,0,0,0,1.233.888,3.851,3.851,0,0,0,3.167.13A6.694,6.694,0,0,1,1615.5,1251.633Z" transform="translate(-1607.535 -1220.151)" fill="#f48c7f"/>
        </g>
        <path id="Path_16346" data-name="Path 16346" d="M1959.569,1025.433s2.527,31.177,2.527,33.885-10.758,3.474-10.758,3.474l-3.289-31.994Z" transform="translate(-1889.669 -980.846)" fill="#466eb6"/>
        <path id="Path_16347" data-name="Path 16347" d="M1918.193,965.533s6.98-3.737,12.735-.312,7.321,23.547,7.321,23.547l-18.433,2.209Z" transform="translate(-1864.339 -928.535)" fill="#466eb6"/>
        <path id="Path_16348" data-name="Path 16348" d="M1774.97,985.292a13.4,13.4,0,0,0-5.223,5.485c-1.665,3.207-6.064,16.61-6.064,16.61l7.239,2.652Z" transform="translate(-1733.252 -946.79)" fill="#9456c8"/>
        <path id="Path_16349" data-name="Path 16349" d="M1993.168,1712.9s1.193,4.235,2.138,5.181,4.081,4.615,3.31,6.435-19.876,4.425-20.6,3.7,3.3-3.793,5.582-5.674,3.917-4.193,2.961-7-.956-2.529-.956-2.807S1993.168,1712.9,1993.168,1712.9Z" transform="translate(-1915.02 -1563.875)" fill="#f7a491"/>
        <path id="Path_16350" data-name="Path 16350" d="M1977.648,1757.289c-.828-.7,1.82-3.546,5.709-5.78a24.733,24.733,0,0,0,5.639-.572,11.968,11.968,0,0,0,5.742-4.024c.06.084,4.691,4.544,3.787,6.676C1997.755,1755.408,1978.468,1757.977,1977.648,1757.289Z" transform="translate(-1914.652 -1592.95)" fill="#b75742"/>
        <path id="Path_16351" data-name="Path 16351" d="M1773.174,1717.382s-.353,4.35.364,5.479,3.224,5.6,1.826,7c-1.26,1.26-18.76.45-19.309-.415s2.446-3.449,5.083-4.787,4.737-3.239,4.416-6.186-.382-2.677-.321-2.947S1773.174,1717.382,1773.174,1717.382Z" transform="translate(-1726.724 -1566.304)" fill="#f7a491"/>
        <path id="Path_16352" data-name="Path 16352" d="M1741.355,1769.757c-.913-.579,3.121-4.228,7.4-5.559a24.766,24.766,0,0,0,5.628.672,11.971,11.971,0,0,0,6.481-2.675c.04.094,4.027,5.868,2.239,7.342C1761.714,1770.687,1742.742,1770.637,1741.355,1769.757Z" transform="translate(-1714.199 -1605.916)" fill="#b75742"/>
        <path id="Path_16353" data-name="Path 16353" d="M1860.918,1316.325l11.3,32.739,12.961,30.308,10.855-2.727s-3.918-21.009-7.6-27.609c-2.785-4.994-4.729-33.651-4.729-33.651Z" transform="translate(-1815.747 -1226.842)" fill="#4a4a4a"/>
        <path id="Path_16354" data-name="Path 16354" d="M1806.871,1284.919l-3.915,57.538H1793.7s-4.041-60.282-2.561-66.018,16.893-4.44,16.893-4.44Z" transform="translate(-1756.274 -1189.926)" fill="#2f2f2f"/>
        <path id="Path_16355" data-name="Path 16355" d="M1793.183,966.53s11.923-3.573,13.759-3.342c2.01.252,6.9,2.84,6.9,2.84s-.3,20.7.563,26.551,6.908,24.6,6.908,24.6-8.511,4.934-22.82,3.331-13.322-5.058-13.322-5.058,1.357-20.724,2.714-29.852A101.2,101.2,0,0,1,1793.183,966.53Z" transform="translate(-1751.465 -928.028)" fill="#9456c8"/>
        <path id="Path_16356" data-name="Path 16356" d="M1981.811,740.779a3.413,3.413,0,0,1-2.41,3.935c-3.038,1.024-4.923-9.665-6.652-11.776s-6.966-2.688-9.69,1.529a17.485,17.485,0,0,0-2.084,3.767c-.1.359.041.336.041.336l.821,1.536s2.636-1.6,3.631,1.322-1.938,7.7.576,11.671,7.124,1.162,7.124,1.162c3.824,2.57,8.223-1.353,9.637-5.066S1981.811,740.779,1981.811,740.779Z" transform="translate(-1900.607 -731.315)" fill="#184655"/>
        <path id="Path_16357" data-name="Path 16357" d="M1858.85,891.327l.415,4.3,3.842,6.607s-7.575,9.17-9.915,6.979c-.522-.49-1.841-10.2-1.841-10.2Z" transform="translate(-1807.63 -867.07)" fill="#f7a491"/>
        <path id="Path_16358" data-name="Path 16358" d="M1859.265,895.623l.8,1.466a27.989,27.989,0,0,1-8.256,5.125c-.268-1.781-.461-3.2-.461-3.2l7.5-7.686Z" transform="translate(-1807.63 -867.07)" fill="#f48c7f"/>
        <path id="Path_16359" data-name="Path 16359" d="M1822.384,798.058a27,27,0,0,0-2.739,2.842c-4.38,6.1-.832,18.138,1.455,19.139,3.462,1.515,7.969-.522,13.047-3.966s6.683-9.023,2.033-13.872S1822.384,798.058,1822.384,798.058Z" transform="translate(-1778.966 -787.909)" fill="#f7a491"/>
        <path id="Path_16360" data-name="Path 16360" d="M1848.993,775.65l-1.384-1.325c-5.425,0-9.75-3.27-15.838.018-4.018,2.17-2.367,5.224-2.367,5.224,14.881,0,9.513,11.728,11.336,16.394S1853.942,790.536,1848.993,775.65Z" transform="translate(-1788.725 -766.576)" fill="#184655"/>
        <path id="Path_16361" data-name="Path 16361" d="M1890.869,860.455s.21-3.849,2.57-3.086.521,6.562-1.438,6.359S1890.869,860.455,1890.869,860.455Z" transform="translate(-1841.01 -838.174)" fill="#f7a491"/>
        <path id="Path_16362" data-name="Path 16362" d="M1944.313,772.031s-2.242,1.39-3.146,1.274,1.384,2.816,2.6,3.12.786-.864,1.042-1.264,1.2-.089,1.418-.384C1946.721,774.1,1945.373,772.159,1944.313,772.031Z" transform="translate(-1883.656 -765.859)" fill="#50bfa5"/>
        <path id="Path_16363" data-name="Path 16363" d="M1905.106,966.425s-2.682-.405-4.983,8.3c-2.607,9.866.2,20.083,4.514,22.672s6.091,2.089,6.091,2.089l-.677,6.084s-12.745-2.853-14.48-13.746c-2.844-17.854,5.547-27.05,5.547-27.05a10.333,10.333,0,0,1,2.068.453A14.1,14.1,0,0,1,1905.106,966.425Z" transform="translate(-1844.647 -929.382)" fill="#466eb6"/>
        <path id="Path_16364" data-name="Path 16364" d="M1872.21,1082.427c-.717,3.186-6.287,12.695-7.726,15.6a8.015,8.015,0,0,0-2.974,3.364c-.91,1.693-3.661,3.861-2.5,4.213s2.9-2.51,3.242-1.689-2.875,7.016-1.82,7.335,3.711-5.708,4.02-4.974-2.715,6-1.223,6.451,2.988-6.483,3.789-6.24-.258,4.595.943,4.958,1.159-6,1.341-5.564,1.342,3.612,1.987,3.361c.73-.283-1.323-8.739-.467-10.252h0c2.66-3.585,8.4-12.839,9.086-16.094,1.073-5.114,2.419-14.368,2.167-18.736-.462-8.007-3.7-8.466-3.7-8.466s-5.2-2.9-5.6,3.689C1872.429,1065.2,1873.059,1078.649,1872.21,1082.427Z" transform="translate(-1813.89 -1005.983)" fill="#f7a491"/>
        <path id="Path_16365" data-name="Path 16365" d="M1939,978.471a6.659,6.659,0,0,1,5.169,4.809c1.056,3.574,3.838,13.727,3.35,18.682,0,0-11.859,1.543-11.859,1.056s-2.594-13.2-1.3-18.763C1935.493,979.4,1937.078,978.231,1939,978.471Z" transform="translate(-1877.751 -940.978)" fill="#9456c8"/>
        <path id="Path_16366" data-name="Path 16366" d="M1803.74,981.681l-8.346,30h0c.368-3.917.771-7.66,1.176-10.376a101.2,101.2,0,0,1,5.3-19.073S1802.608,982.008,1803.74,981.681Z" transform="translate(-1760.156 -943.726)" fill="#466eb6"/>
      </g>
      <g id="Group_10947" data-name="Group 10947" transform="translate(264.156 255.724)">
        <g id="Group_10945" data-name="Group 10945" transform="translate(0 0)">
          <path id="Rectangle_1300" data-name="Rectangle 1300" d="M8.7,0h4.039a8.7,8.7,0,0,1,8.7,8.7v0a0,0,0,0,1,0,0H0a0,0,0,0,1,0,0v0A8.7,8.7,0,0,1,8.7,0Z" transform="translate(44.348 80.898)" fill="#13375b"/>
          <path id="Path_16367" data-name="Path 16367" d="M782.324,1114.444c0,3.549-2.574,6.426-5.75,6.426s-5.75-2.877-5.75-6.426,2.574-6.426,5.75-6.426S782.324,1110.9,782.324,1114.444Z" transform="translate(-731.181 -1023.25)" fill="#13375b"/>
          <path id="Path_16368" data-name="Path 16368" d="M989.788,1388.939c0,3.549-2.574,6.426-5.75,6.426s-5.75-2.877-5.75-6.426,2.574-6.426,5.75-6.426S989.788,1385.39,989.788,1388.939Z" transform="translate(-915.906 -1267.659)" fill="#13375b"/>
          <path id="Path_16369" data-name="Path 16369" d="M987.4,1684.755c0,3.549-2.575,6.426-5.75,6.426s-5.75-2.877-5.75-6.426,2.574-6.426,5.75-6.426S987.4,1681.206,987.4,1684.755Z" transform="translate(-913.782 -1531.053)" fill="#13375b"/>
          <path id="Path_16370" data-name="Path 16370" d="M957.993,1114.444c0,3.549-2.574,6.426-5.75,6.426s-5.75-2.877-5.75-6.426,2.574-6.426,5.75-6.426S957.993,1110.9,957.993,1114.444Z" transform="translate(-887.596 -1023.25)" fill="#13375b"/>
          <path id="Path_16371" data-name="Path 16371" d="M864.728,1086.707l-9.993.182-1.263-14.181h13.68Z" transform="translate(-804.77 -991.81)" fill="#355389"/>
          <path id="Path_16372" data-name="Path 16372" d="M869.388,997.872l-6.608,2.364-6.034-4.625.985-7.543,7.019-2.917,7.207,5.8Z" transform="translate(-807.685 -913.849)" fill="#355389"/>
          <path id="Path_16373" data-name="Path 16373" d="M963.246,1212.145a74.207,74.207,0,0,1-9.968-.171,2.965,2.965,0,0,1-2.519-3.321l1.661-19.639a2.847,2.847,0,0,1,2.8-2.751,53.526,53.526,0,0,0,6.022-.132,2.834,2.834,0,0,1,2.915,2.745q.843,9.971,1.687,19.942A2.952,2.952,0,0,1,963.246,1212.145Z" transform="translate(-891.382 -1092.794)" fill="#466eb6"/>
          <path id="Path_16374" data-name="Path 16374" d="M961.035,1503.512l-4.375-22.72a3.778,3.778,0,0,0-3.576-3.228H947a3.778,3.778,0,0,0-3.576,3.228l-4.376,22.72h0v7.807a2.95,2.95,0,0,0,2.5,2.983c.21.033,3.2-1.379,3.2-3.045v-3.945a3.617,3.617,0,0,1,3.4-3.8h8.411a2.428,2.428,0,0,1,2.283,2.551v8.239s2.178-.77,2.178-1.974v-8.816Z" transform="translate(-880.968 -1352.292)" fill="#466eb6"/>
          <path id="Path_16375" data-name="Path 16375" d="M766.368,1388.918c-.052,3.549-2.669,6.387-5.844,6.34s-5.707-2.962-5.654-6.51,2.669-6.387,5.844-6.341S766.421,1385.369,766.368,1388.918Z" transform="translate(-716.974 -1267.565)" fill="#13375b"/>
          <path id="Path_16376" data-name="Path 16376" d="M746.42,1683.722c-.052,3.549-2.669,6.387-5.844,6.34s-5.707-2.962-5.655-6.51,2.669-6.387,5.844-6.34S746.473,1680.173,746.42,1683.722Z" transform="translate(-699.212 -1530.057)" fill="#13375b"/>
          <path id="Path_16377" data-name="Path 16377" d="M750.453,1212.145a74.208,74.208,0,0,1-9.968-.171,2.965,2.965,0,0,1-2.519-3.321l1.661-19.639a2.847,2.847,0,0,1,2.8-2.751,53.529,53.529,0,0,0,6.022-.132,2.834,2.834,0,0,1,2.914,2.745l1.687,19.942A2.952,2.952,0,0,1,750.453,1212.145Z" transform="translate(-701.912 -1092.794)" fill="#466eb6"/>
          <path id="Path_16378" data-name="Path 16378" d="M719.494,1502.378l-4.04-22.782a3.778,3.778,0,0,0-3.528-3.28l-6.083-.09a3.778,3.778,0,0,0-3.623,3.174l-4.71,22.653h0l-.115,7.807a3.1,3.1,0,0,0,2.4,3.193,2.62,2.62,0,0,0,.649.03,3.117,3.117,0,0,0,2.655-3.2l.058-3.944a3.617,3.617,0,0,1,3.456-3.749l8.41.124a2.429,2.429,0,0,1,2.245,2.585l-.121,8.213s2.189-.713,2.206-1.917l.13-8.815Z" transform="translate(-665.803 -1351.101)" fill="#466eb6"/>
          <g id="Group_10944" data-name="Group 10944">
            <path id="Path_16379" data-name="Path 16379" d="M1189.05,363.852l-.459.99c9.624,3.785,15.058,14.15,8.87,27.482.312.145,2.813,1.191,3.126,1.336C1207.08,379.663,1199.141,367.851,1189.05,363.852Z" transform="translate(-1103.159 -360.647)" fill="#b75742"/>
            <path id="Path_16380" data-name="Path 16380" d="M1225.8,607.962c-2.295-1-5.685,1.826-7.549,6.251-1.775,4.215-1.591,8.5.427,9.73h0c3.255,1.058,8.22-.014,9.693-3.5l1.237-2.665C1231.265,614.211,1229.2,609.442,1225.8,607.962Z" transform="translate(-1128.483 -577.823)" fill="#f47458"/>
            <path id="Path_16381" data-name="Path 16381" d="M669.682,810.931c-2.784-1.515-6.57.07-8.457,3.54s-1.159,7.511,1.624,9.026,6.57-.07,8.457-3.54S672.466,812.446,669.682,810.931Z" transform="translate(-632.66 -758.213)" fill="#13375b"/>
            <path id="Path_16382" data-name="Path 16382" d="M990.386,383.2c11.872-25.575-23.168-41.869-35.042-16.29l-.894-.416c12.478-26.9,49.328-9.771,36.849,17.13Z" transform="translate(-894.68 -350.948)" fill="#b75742"/>
            <path id="Path_16383" data-name="Path 16383" d="M1087.051,923.263l-7.49-15.324-9.636,7.024,5.385,13.709Z" transform="translate(-997.5 -845.1)" fill="#13375b"/>
            <path id="Path_16384" data-name="Path 16384" d="M1116.688,1017.735a6.446,6.446,0,1,0,9.095.311A6.444,6.444,0,0,0,1116.688,1017.735Z" transform="translate(-1037.329 -941.319)" fill="#13375b"/>
            <path id="Path_16385" data-name="Path 16385" d="M684.56,758.732l12.082-13.01-1.748-2.453c-2.687-3.772-8.106-3.6-11.861.386l-7.281,7.724Z" transform="translate(-646.529 -696.058)" fill="#13375b"/>
            <g id="Group_10938" data-name="Group 10938" transform="translate(0 57.944)">
              <g id="Group_10934" data-name="Group 10934" transform="translate(2.796 31.075)">
                <path id="Path_16386" data-name="Path 16386" d="M453.058,1147.653q-.525-.376-1.054-.748a.6.6,0,0,0-.83.142q-.71,1.017-1.332,2.081a.594.594,0,0,0,.235.819q.565.305,1.126.616a.6.6,0,0,0,.8-.222q.558-.949,1.192-1.859A.6.6,0,0,0,453.058,1147.653Z" transform="translate(-448.104 -1146.797)" fill="#355389"/>
                <path id="Path_16387" data-name="Path 16387" d="M437.168,1181.012l-.51-.255a.6.6,0,0,0-.8.268,30.218,30.218,0,0,0-1.186,2.78.593.593,0,0,0,.372.763l.54.183a.593.593,0,0,0,.748-.359q.486-1.313,1.1-2.58A.6.6,0,0,0,437.168,1181.012Z" transform="translate(-434.636 -1176.979)" fill="#355389"/>
              </g>
              <path id="Path_16388" data-name="Path 16388" d="M532.546,865.79a23.335,23.335,0,0,1-2.291-1.5,5.259,5.259,0,0,0-6.814.53l-10.766,10.651a5.268,5.268,0,0,0,.221,7.675,43.1,43.1,0,0,0,8.461,5.924,5.265,5.265,0,0,0,7.332-2.551l6.046-14.114A5.246,5.246,0,0,0,532.546,865.79Z" transform="translate(-499.943 -863.276)" fill="#466eb6"/>
              <path id="Path_16389" data-name="Path 16389" d="M478.777,1056.363l-1.94-1.481a4.438,4.438,0,0,0-6.221.826l-1.576,2.062,8.223,6.28,2.168-2.837A3.46,3.46,0,0,0,478.777,1056.363Z" transform="translate(-462.473 -1033.068)" fill="#355389"/>
              <path id="Path_16390" data-name="Path 16390" d="M473.164,1113.512l-1.593-1.216a.6.6,0,0,0-.834.111l-1.688,2.21a.6.6,0,0,0,.112.833l1.593,1.216a.6.6,0,0,0,.834-.11l1.688-2.21A.6.6,0,0,0,473.164,1113.512Z" transform="translate(-462.373 -1084.894)" fill="#355389"/>
              <g id="Group_10935" data-name="Group 10935" transform="translate(0 28.839)">
                <path id="Path_16391" data-name="Path 16391" d="M427.548,1127.251q-.526-.376-1.054-.748a.6.6,0,0,0-.83.142q-.71,1.017-1.332,2.081a.594.594,0,0,0,.235.819q.565.306,1.126.616a.6.6,0,0,0,.8-.222q.558-.949,1.192-1.859A.6.6,0,0,0,427.548,1127.251Z" transform="translate(-422.594 -1126.394)" fill="#355389"/>
                <path id="Path_16392" data-name="Path 16392" d="M411.657,1160.61l-.51-.255a.6.6,0,0,0-.8.268q-.663,1.362-1.186,2.78a.593.593,0,0,0,.372.763l.54.183a.593.593,0,0,0,.748-.36q.486-1.313,1.1-2.58A.6.6,0,0,0,411.657,1160.61Z" transform="translate(-409.124 -1156.577)" fill="#355389"/>
              </g>
              <path id="Path_16393" data-name="Path 16393" d="M447.653,1093.11l-1.593-1.216a.6.6,0,0,0-.834.111l-1.688,2.21a.594.594,0,0,0,.113.833l1.593,1.217a.6.6,0,0,0,.834-.111l1.688-2.209A.6.6,0,0,0,447.653,1093.11Z" transform="translate(-439.657 -1066.728)" fill="#355389"/>
              <g id="Group_10936" data-name="Group 10936" transform="translate(5.577 33.344)">
                <path id="Path_16394" data-name="Path 16394" d="M478.428,1168.361q-.525-.376-1.054-.748a.6.6,0,0,0-.83.142q-.71,1.017-1.332,2.081a.594.594,0,0,0,.235.819q.564.306,1.126.616a.6.6,0,0,0,.8-.223q.558-.949,1.192-1.859A.6.6,0,0,0,478.428,1168.361Z" transform="translate(-473.474 -1167.504)" fill="#355389"/>
                <path id="Path_16395" data-name="Path 16395" d="M462.537,1201.72l-.51-.255a.6.6,0,0,0-.8.268q-.663,1.362-1.186,2.78a.593.593,0,0,0,.372.763l.54.183a.593.593,0,0,0,.748-.359q.485-1.313,1.1-2.58A.6.6,0,0,0,462.537,1201.72Z" transform="translate(-460.004 -1197.687)" fill="#355389"/>
              </g>
              <path id="Path_16396" data-name="Path 16396" d="M498.533,1134.221,496.941,1133a.6.6,0,0,0-.834.111l-1.688,2.209a.6.6,0,0,0,.112.834l1.593,1.216a.6.6,0,0,0,.834-.111l1.688-2.209A.6.6,0,0,0,498.533,1134.221Z" transform="translate(-484.961 -1103.332)" fill="#355389"/>
              <g id="Group_10937" data-name="Group 10937" transform="translate(12.312 32.651)">
                <path id="Path_16397" data-name="Path 16397" d="M537.234,1161.2q.626.159,1.251.324a.6.6,0,0,1,.427.726q-.318,1.2-.729,2.362a.593.593,0,0,1-.777.349q-.6-.234-1.2-.464a.6.6,0,0,1-.348-.757q.365-1.039.651-2.111A.6.6,0,0,1,537.234,1161.2Z" transform="translate(-534.252 -1161.182)" fill="#355389"/>
                <path id="Path_16398" data-name="Path 16398" d="M523.575,1196.554l.523.225a.6.6,0,0,1,.312.786,30.207,30.207,0,0,1-1.357,2.7.592.592,0,0,1-.823.208l-.488-.3a.594.594,0,0,1-.209-.8q.69-1.219,1.259-2.507A.6.6,0,0,1,523.575,1196.554Z" transform="translate(-521.456 -1192.635)" fill="#355389"/>
              </g>
              <path id="Path_16399" data-name="Path 16399" d="M546.565,1123.4q.038-.05.074-.1l.577.128a.574.574,0,0,1,.437.683l-.611,2.778a.572.572,0,0,1-.682.435l-1.754-.389a.574.574,0,0,1-.429-.408Z" transform="translate(-529.373 -1094.798)" fill="#355389"/>
            </g>
            <path id="Path_16400" data-name="Path 16400" d="M829.193,780.612q7.233-8.718,14.816-17.183a2.535,2.535,0,0,0-.427-3.76,95.4,95.4,0,0,0-32.48-14.893,2.527,2.527,0,0,0-3.134,2.326q-.542,11.113-2,22.122a2.816,2.816,0,0,0,1.742,2.755c2.271,1.242,3.091,1.3,17.08,8.579a6.232,6.232,0,0,1,1.372.738A2.538,2.538,0,0,0,829.193,780.612Z" transform="translate(-762.457 -699.754)" fill="#466eb6"/>
            <path id="Path_16401" data-name="Path 16401" d="M969.663,741.009l-.9-.416a3.558,3.558,0,0,1-1.727-4.724l3.417-7.364,7.348,3.416-3.415,7.359A3.558,3.558,0,0,1,969.663,741.009Z" transform="translate(-905.595 -685.333)" fill="#13375b"/>
            <ellipse id="Ellipse_127" data-name="Ellipse 127" cx="21.129" cy="21.958" rx="21.129" ry="21.958" transform="translate(46.802 38.172) rotate(-64.594)" fill="#466eb6"/>
            <path id="Path_16402" data-name="Path 16402" d="M1008.982,537.843a55.409,55.409,0,0,0-20.808-9.579,2.95,2.95,0,0,1-1.948-3.782l1.122-4.452a3.426,3.426,0,0,1,3.814-2.748,63.634,63.634,0,0,1,24.168,11.339,3.435,3.435,0,0,1,.349,4.68l-2.568,3.581A2.948,2.948,0,0,1,1008.982,537.843Z" transform="translate(-922.869 -497.202)" fill="#13375b"/>
            <path id="Path_16403" data-name="Path 16403" d="M1181.742,622.825a2.551,2.551,0,1,1-1.286-3.283A2.492,2.492,0,0,1,1181.742,622.825Z" transform="translate(-1092.751 -588.091)" fill="#9bc1f9"/>
            <path id="Path_16404" data-name="Path 16404" d="M1050.153,557.408a2.551,2.551,0,1,1-1.286-3.283A2.492,2.492,0,0,1,1050.153,557.408Z" transform="translate(-975.585 -529.845)" fill="#9bc1f9"/>
            <path id="Path_16405" data-name="Path 16405" d="M940.915,364.713c.3.139,2.57,1.585,2.868,1.724,5.579-12.018,15.781-15.334,24.319-12.246a5.638,5.638,0,0,0,.372-1.024C959.5,349.926,946.776,352.08,940.915,364.713Z" transform="translate(-882.629 -349.935)" fill="#b75742"/>
            <path id="Path_16406" data-name="Path 16406" d="M859.157,448.5c2.57,1.273,2.606,6.333.112,11.239-2.375,4.673-6.262,7.68-8.829,6.82h0c-3.333-2.071-6.065-7.215-4.1-11.083l1.417-3.054C849.649,448.334,855.346,446.615,859.157,448.5Z" transform="translate(-797.829 -435.339)" fill="#f47458"/>
            <g id="Group_10943" data-name="Group 10943" transform="translate(81.317 79.765)">
              <g id="Group_10939" data-name="Group 10939" transform="translate(29.84 28.194)">
                <path id="Path_16407" data-name="Path 16407" d="M1424.192,1319.847q-.387.517-.77,1.038a.6.6,0,0,0,.124.833q1,.733,2.05,1.379a.593.593,0,0,0,.823-.218q.318-.558.64-1.113a.6.6,0,0,0-.2-.807q-.936-.579-1.831-1.233A.6.6,0,0,0,1424.192,1319.847Z" transform="translate(-1423.306 -1319.61)" fill="#355389"/>
                <path id="Path_16408" data-name="Path 16408" d="M1457.142,1341.952l-.266.5a.6.6,0,0,0,.25.807,30.078,30.078,0,0,0,2.751,1.247.592.592,0,0,0,.771-.356l.194-.536a.594.594,0,0,0-.343-.757q-1.3-.515-2.553-1.158A.6.6,0,0,0,1457.142,1341.952Z" transform="translate(-1453.135 -1339.222)" fill="#355389"/>
              </g>
              <path id="Path_16409" data-name="Path 16409" d="M1154.261,1064.435a23.4,23.4,0,0,1-1.779,2.085,5.27,5.27,0,0,0-.336,6.832l9.2,12.035a5.258,5.258,0,0,0,7.635.75,43.118,43.118,0,0,0,6.941-7.652,5.274,5.274,0,0,0-1.6-7.6l-13.224-7.786A5.235,5.235,0,0,0,1154.261,1064.435Z" transform="translate(-1151.05 -1062.37)" fill="#466eb6"/>
              <path id="Path_16410" data-name="Path 16410" d="M1334.128,1231.36l-1.522,1.909a4.447,4.447,0,0,0,.689,6.243l2.025,1.622,6.453-8.091-2.787-2.232A3.453,3.453,0,0,0,1334.128,1231.36Z" transform="translate(-1311.84 -1211.676)" fill="#355389"/>
              <path id="Path_16411" data-name="Path 16411" d="M1390.6,1291.521l-1.25,1.567a.6.6,0,0,0,.093.837l2.17,1.738a.594.594,0,0,0,.835-.095l1.25-1.567a.6.6,0,0,0-.092-.837l-2.17-1.738A.594.594,0,0,0,1390.6,1291.521Z" transform="translate(-1363.114 -1266.206)" fill="#355389"/>
              <g id="Group_10940" data-name="Group 10940" transform="translate(27.545 30.943)">
                <path id="Path_16412" data-name="Path 16412" d="M1403.254,1344.928q-.387.518-.77,1.038a.6.6,0,0,0,.124.834q1,.732,2.049,1.379a.593.593,0,0,0,.823-.218q.318-.558.64-1.113a.6.6,0,0,0-.2-.807q-.936-.579-1.831-1.233A.6.6,0,0,0,1403.254,1344.928Z" transform="translate(-1402.367 -1344.691)" fill="#355389"/>
                <path id="Path_16413" data-name="Path 16413" d="M1436.2,1367.033l-.266.5a.6.6,0,0,0,.25.807,30.123,30.123,0,0,0,2.751,1.247.592.592,0,0,0,.771-.356l.194-.536a.594.594,0,0,0-.343-.757q-1.3-.514-2.553-1.158A.6.6,0,0,0,1436.2,1367.033Z" transform="translate(-1432.197 -1364.303)" fill="#355389"/>
              </g>
              <path id="Path_16414" data-name="Path 16414" d="M1369.66,1316.6l-1.25,1.567a.6.6,0,0,0,.092.837l2.17,1.738a.594.594,0,0,0,.835-.094l1.25-1.567a.6.6,0,0,0-.093-.837l-2.17-1.738A.594.594,0,0,0,1369.66,1316.6Z" transform="translate(-1344.47 -1288.538)" fill="#355389"/>
              <g id="Group_10941" data-name="Group 10941" transform="translate(32.168 25.462)">
                <path id="Path_16415" data-name="Path 16415" d="M1445.433,1294.914q-.387.517-.77,1.038a.6.6,0,0,0,.124.834q1,.732,2.05,1.379a.593.593,0,0,0,.823-.217q.318-.558.64-1.113a.6.6,0,0,0-.2-.807q-.936-.579-1.831-1.233A.6.6,0,0,0,1445.433,1294.914Z" transform="translate(-1444.547 -1294.677)" fill="#355389"/>
                <path id="Path_16416" data-name="Path 16416" d="M1478.382,1317.02q-.134.252-.266.5a.6.6,0,0,0,.25.807q1.346.693,2.751,1.247a.592.592,0,0,0,.771-.356q.1-.269.194-.536a.594.594,0,0,0-.343-.757q-1.3-.515-2.553-1.158A.6.6,0,0,0,1478.382,1317.02Z" transform="translate(-1474.375 -1314.29)" fill="#355389"/>
              </g>
              <path id="Path_16417" data-name="Path 16417" d="M1411.838,1266.589l-1.25,1.567a.6.6,0,0,0,.092.837l2.17,1.738a.593.593,0,0,0,.835-.094l1.25-1.567a.6.6,0,0,0-.092-.837l-2.17-1.738A.593.593,0,0,0,1411.838,1266.589Z" transform="translate(-1382.025 -1244.006)" fill="#355389"/>
              <g id="Group_10942" data-name="Group 10942" transform="translate(31.607 19.22)">
                <path id="Path_16418" data-name="Path 16418" d="M1439.452,1239.409q.173-.623.351-1.245a.6.6,0,0,1,.735-.411q1.191.345,2.343.781a.593.593,0,0,1,.332.785q-.248.593-.49,1.187a.6.6,0,0,1-.763.331q-1.03-.388-2.094-.7A.6.6,0,0,1,1439.452,1239.409Z" transform="translate(-1439.43 -1237.73)" fill="#355389"/>
                <path id="Path_16419" data-name="Path 16419" d="M1474.58,1254.642l.236-.519a.6.6,0,0,1,.792-.3,30.175,30.175,0,0,1,2.667,1.417.593.593,0,0,1,.189.828q-.153.241-.305.482a.593.593,0,0,1-.808.191q-1.2-.717-2.476-1.315A.6.6,0,0,1,1474.58,1254.642Z" transform="translate(-1470.681 -1252.015)" fill="#355389"/>
              </g>
              <path id="Path_16420" data-name="Path 16420" d="M1402.112,1226.065l-.1-.076.14-.575a.574.574,0,0,1,.692-.422l2.761.672a.572.572,0,0,1,.419.692l-.427,1.747a.573.573,0,0,1-.416.421Z" transform="translate(-1374.508 -1207.154)" fill="#355389"/>
            </g>
          </g>
          <path id="Path_16421" data-name="Path 16421" d="M744.707,1704.343a10.152,10.152,0,1,0-19.283,0Z" transform="translate(-690.302 -1542.333)" fill="#184655"/>
          <path id="Path_16422" data-name="Path 16422" d="M977.048,1704.343a10.152,10.152,0,1,0-19.283,0Z" transform="translate(-897.177 -1542.333)" fill="#184655"/>
        </g>
      </g>
    </g>
  </g>
</svg>
