<svg xmlns="http://www.w3.org/2000/svg" width="558.661" height="432.303" viewBox="0 0 558.661 432.303">
  <g id="Group_11291" data-name="Group 11291" transform="translate(65.662 -4196.999)">
    <path id="Path_17034" data-name="Path 17034" d="M-2468.154-1587.38c101.423,23.031,117.433,45.733,181.393,92.125s94.633,49.009,74.446,93.442c-16.837,37.058-42.738,47.889-106.7,75.143-11.449,4.878-53.728,29.856-63.049,33.873-41.878,18.047-32.958,5.482-86.092,0-64.719-6.678-148.4-54.508-148.4-54.508s-83.9-242.651-75.9-240.076S-2569.577-1610.411-2468.154-1587.38Z" transform="translate(2627.331 5912.714)" fill="rgba(173,223,255,0.2)"/>
    <path id="Path_17033" data-name="Path 17033" d="M-2468.154-1587.38c101.423,23.031,117.433,45.733,181.393,92.125s94.633,49.009,74.446,93.442c-16.837,37.058-42.738,47.889-106.7,75.143-11.449,4.878-53.728,29.856-63.049,33.873-41.878,18.047-32.958,5.482-86.092,0-64.719-6.678-148.4-54.508-148.4-54.508s-83.9-242.651-75.9-240.076S-2569.577-1610.411-2468.154-1587.38Z" transform="translate(2651.915 5890.535)" fill="rgba(173,223,255,0.2)"/>
    <g id="undraw_team_collaboration_re_ow29" transform="translate(23.729 4197)">
      <path id="Path_16923" data-name="Path 16923" d="M171.617,615.791l-1.464,7.344c-.11.561-.226,1.133-.351,1.7a7.162,7.162,0,0,0-3.679.206,34.345,34.345,0,0,1,2.526,4.226,15.553,15.553,0,0,1-4.542,7.369,11.389,11.389,0,0,1-11,1.935l.065-.291c-2.436-4.727-1.113-10.687,1.915-15.053a29.265,29.265,0,0,1,5.439-5.75c2.045-1.7,4.256-3.233,6.446-4.742a3,3,0,0,1,4.647,3.058Z" transform="translate(-141.892 -404.246)" fill="#e4e4e4"/>
      <path id="a4b268fa-75d0-4ac1-9d87-14bdca948464-2189" d="M154.384,671.043c-.616-4.488-1.25-9.033-.818-13.569a21.341,21.341,0,0,1,4.115-11.189,18.612,18.612,0,0,1,4.776-4.328c.478-.3.917.456.442.755a17.7,17.7,0,0,0-7,8.445,28.331,28.331,0,0,0-1.5,12.218c.159,2.49.5,4.963.835,7.434a.451.451,0,0,1-.306.538.44.44,0,0,1-.538-.306Z" transform="translate(-142.649 -419.05)" fill="#f2f2f2"/>
      <path id="Path_16924" data-name="Path 16924" d="M165.165,249.163q32.21-.56,64.428-.161t64.4,1.767q18.064.766,36.113,1.835c.967.057.963-1.447,0-1.5q-32.159-1.9-64.365-2.848t-64.421-.921q-18.08.012-36.158.328a.752.752,0,0,0,0,1.5Z" transform="translate(-148.143 -222.278)" fill="#e6e6e6"/>
      <path id="Path_16925" data-name="Path 16925" d="M463.7,229.981l9.39-.7c.959-.071.967-1.576,0-1.5l-9.39.7C462.744,228.549,462.736,230.053,463.7,229.981Z" transform="translate(-297.031 -212.525)" fill="#e6e6e6"/>
      <path id="Path_16926" data-name="Path 16926" d="M463.7,247.981l9.39-.7c.959-.071.967-1.576,0-1.5l-9.39.7C462.744,246.549,462.736,248.053,463.7,247.981Z" transform="translate(-297.031 -221.502)" fill="#e6e6e6"/>
      <path id="Path_16927" data-name="Path 16927" d="M462.3,240.455l13.35,1.213c.964.088.958-1.417,0-1.5l-13.35-1.213C461.333,238.864,461.339,240.368,462.3,240.455Z" transform="translate(-296.33 -218.097)" fill="#e6e6e6"/>
      <path id="Path_16928" data-name="Path 16928" d="M173.606,228.141a3.326,3.326,0,0,0-3.074,2.008,3,3,0,0,0,.689,3.557,3.56,3.56,0,0,0,3.373.685,3.009,3.009,0,0,0,2.017-2.829,3.362,3.362,0,0,0-2.095-3.243.755.755,0,0,0-.925.525.773.773,0,0,0,.525.925c.131.051-.12-.064,0,0,.05.027.1.052.151.081s.082.052.123.079c.14.092-.069-.067.021.015s.155.141.226.22c.027.03.132.113.05.055-.062-.044-.024-.034,0,0s.037.053.055.08a2.684,2.684,0,0,1,.16.276c.011.022.021.044.032.066.021.041.052.052,0,0s-.017-.046,0,0c.011.031.023.062.034.093a2.891,2.891,0,0,1,.089.309c.011.048.02.1.029.146.034.173,0-.107,0,.021.007.107.015.213.013.321q0,.074-.006.147c0,.024,0,.049-.006.073-.008.118-.008-.043.008-.054a1.387,1.387,0,0,0-.068.309c-.013.047-.029.092-.044.139-.052.161.049-.088-.007.022a2.753,2.753,0,0,1-.154.276c-.024.037-.117.121-.041.063s-.043.046-.07.074-.07.071-.107.1a.851.851,0,0,1-.075.065s.126-.087.055-.042c-.089.057-.174.118-.268.168-.011.006-.131.062-.131.064-.005-.02.155-.056.045-.021l-.069.024a2.461,2.461,0,0,1-.305.081c-.024,0-.049.007-.072.013-.078.02.074-.012.079-.009a.655.655,0,0,0-.171.015,2.8,2.8,0,0,1-.32,0l-.074-.005c-.057,0-.1-.045-.023,0,.059.035.054.009,0,0l-.073-.013a2.917,2.917,0,0,1-.313-.077c-.055-.017-.109-.036-.164-.056a.435.435,0,0,1-.069-.027c0-.006.141.067.066.027-.094-.051-.191-.093-.283-.148-.049-.03-.1-.062-.144-.093a.464.464,0,0,1-.06-.043c0-.006.117.1.056.043-.076-.073-.158-.138-.23-.215l-.049-.054-.016-.018q-.061-.075,0,0c.04.012.038.055,0,0l-.041-.06a1.572,1.572,0,0,1-.155-.278s.065.181.018.042c-.009-.026-.019-.052-.028-.078q-.026-.078-.046-.158c-.013-.053-.02-.107-.033-.16-.022-.089.013.07.009.066s-.007-.089-.008-.108c-.006-.118.007-.232.01-.35,0-.091-.008.071-.009.066a.254.254,0,0,1,.014-.08c.014-.062.026-.124.043-.185s.041-.139.066-.208c.009-.026.021-.051.029-.077.032-.094-.063.114-.011.029.072-.117.125-.244.2-.36.018-.027.127-.18.069-.1s.059-.069.082-.094c.092-.1.2-.187.3-.285.057-.058-.039.029-.045.033l.088-.064q.078-.054.16-.1c.062-.036.131-.063.191-.1s-.054.02-.056.021a.56.56,0,0,1,.1-.038c.058-.021.311-.13.365-.1,0,0-.192.015-.039.005l.109-.007c.073,0,.147,0,.22,0a.757.757,0,0,0,.752-.752.769.769,0,0,0-.752-.752Z" transform="translate(-151.027 -212.707)" fill="#e6e6e6"/>
      <path id="Path_16929" data-name="Path 16929" d="M194.606,228.141a3.326,3.326,0,0,0-3.074,2.008,3,3,0,0,0,.689,3.557,3.56,3.56,0,0,0,3.373.685,3.009,3.009,0,0,0,2.017-2.829,3.362,3.362,0,0,0-2.095-3.243.755.755,0,0,0-.925.525.773.773,0,0,0,.525.925c.131.051-.12-.064,0,0,.05.027.1.052.151.081s.082.052.123.079c.14.092-.069-.067.021.015s.155.141.226.22c.027.03.132.113.05.055-.062-.044-.024-.034,0,0s.037.053.055.08a2.678,2.678,0,0,1,.16.276c.011.022.021.044.032.066.021.041.052.052,0,0s-.017-.046,0,0c.011.031.023.062.034.093a2.9,2.9,0,0,1,.089.309c.011.048.02.1.029.146.034.173,0-.107,0,.021.007.107.015.213.013.321q0,.074-.006.147c0,.024,0,.049-.006.073-.008.118-.008-.043.008-.054a1.387,1.387,0,0,0-.068.309c-.013.047-.029.092-.044.139-.052.161.049-.088-.007.022a2.756,2.756,0,0,1-.154.276c-.025.037-.117.121-.041.063s-.043.046-.07.074-.07.071-.107.1a.851.851,0,0,1-.075.065s.126-.087.055-.042c-.089.057-.174.118-.268.168-.011.006-.131.062-.131.064-.005-.02.155-.056.045-.021l-.069.024a2.46,2.46,0,0,1-.305.081c-.024,0-.049.007-.072.013-.078.02.074-.012.079-.009a.655.655,0,0,0-.171.015,2.8,2.8,0,0,1-.32,0l-.074-.005c-.057,0-.1-.045-.023,0,.059.035.054.009,0,0l-.073-.013a2.916,2.916,0,0,1-.313-.077c-.055-.017-.109-.036-.164-.056a.435.435,0,0,1-.069-.027c0-.006.141.067.066.027-.094-.051-.191-.093-.283-.148-.049-.03-.1-.062-.144-.093a.462.462,0,0,1-.06-.043c0-.006.117.1.056.043-.076-.073-.158-.138-.23-.215l-.049-.054-.016-.018q-.061-.075,0,0c.04.012.038.055,0,0l-.041-.06a1.572,1.572,0,0,1-.155-.278s.065.181.018.042c-.009-.026-.019-.052-.028-.078q-.026-.078-.046-.158c-.013-.053-.02-.107-.033-.16-.022-.089.013.07.009.066s-.007-.089-.008-.108c-.006-.118.007-.232.01-.35,0-.091-.008.071-.009.066a.254.254,0,0,1,.014-.08c.014-.062.026-.124.043-.185s.041-.139.066-.208c.009-.026.021-.051.029-.077.032-.094-.063.114-.011.029.072-.117.125-.244.2-.36.018-.027.127-.18.069-.1s.059-.069.082-.094c.092-.1.2-.187.3-.285.057-.058-.039.029-.045.033l.088-.064q.078-.054.16-.1c.062-.036.131-.063.191-.1s-.054.02-.056.021a.56.56,0,0,1,.1-.038c.058-.021.311-.13.365-.1,0,0-.192.015-.039.005l.109-.007c.073,0,.147,0,.22,0a.757.757,0,0,0,.752-.752.769.769,0,0,0-.752-.752Z" transform="translate(-161.5 -212.707)" fill="#e6e6e6"/>
      <path id="Path_16930" data-name="Path 16930" d="M215.606,228.141a3.326,3.326,0,0,0-3.074,2.008,3,3,0,0,0,.689,3.557,3.56,3.56,0,0,0,3.373.685,3.009,3.009,0,0,0,2.017-2.829,3.362,3.362,0,0,0-2.095-3.243.755.755,0,0,0-.925.525.773.773,0,0,0,.525.925c.131.051-.12-.064,0,0,.05.027.1.052.151.081s.082.052.123.079c.14.092-.069-.067.021.015s.155.141.226.22c.027.03.132.113.05.055-.062-.044-.024-.034,0,0s.037.053.055.08a2.671,2.671,0,0,1,.16.276c.011.022.021.044.032.066.021.041.052.052,0,0s-.017-.046,0,0c.011.031.023.062.034.093a2.894,2.894,0,0,1,.089.309c.011.048.02.1.029.146.034.173,0-.107,0,.021.007.107.015.213.013.321q0,.074-.006.147c0,.024,0,.049-.006.073-.008.118-.008-.043.008-.054a1.387,1.387,0,0,0-.068.309c-.013.047-.029.092-.044.139-.052.161.049-.088-.007.022a2.756,2.756,0,0,1-.154.276c-.024.037-.117.121-.041.063s-.043.046-.07.074-.07.071-.107.1a.853.853,0,0,1-.075.065s.126-.087.055-.042c-.089.057-.174.118-.268.168-.011.006-.131.062-.131.064-.005-.02.155-.056.045-.021l-.069.024a2.461,2.461,0,0,1-.305.081c-.024,0-.049.007-.072.013-.078.02.074-.012.079-.009a.655.655,0,0,0-.171.015,2.8,2.8,0,0,1-.32,0l-.074-.005c-.057,0-.1-.045-.023,0,.059.035.054.009,0,0l-.073-.013a2.917,2.917,0,0,1-.313-.077c-.055-.017-.109-.036-.164-.056a.435.435,0,0,1-.069-.027c0-.006.141.067.066.027-.094-.051-.191-.093-.283-.148-.049-.03-.1-.062-.144-.093a.463.463,0,0,1-.06-.043c0-.006.117.1.056.043-.076-.073-.158-.138-.23-.215l-.049-.054-.016-.018q-.061-.075,0,0c.04.012.038.055,0,0l-.041-.06a1.571,1.571,0,0,1-.155-.278s.065.181.018.042c-.009-.026-.019-.052-.028-.078q-.026-.078-.046-.158c-.013-.053-.02-.107-.033-.16-.022-.089.013.07.009.066s-.007-.089-.008-.108c-.006-.118.007-.232.01-.35,0-.091-.007.071-.009.066a.255.255,0,0,1,.014-.08c.014-.062.026-.124.043-.185s.041-.139.066-.208c.009-.026.021-.051.029-.077.032-.094-.063.114-.011.029.072-.117.125-.244.2-.36.018-.027.127-.18.069-.1s.059-.069.082-.094c.092-.1.2-.187.3-.285.057-.058-.039.029-.045.033l.088-.064q.078-.054.16-.1c.062-.036.131-.063.191-.1s-.054.02-.056.021a.56.56,0,0,1,.1-.038c.058-.021.311-.13.365-.1,0,0-.192.015-.039.005l.109-.007c.073,0,.147,0,.22,0a.757.757,0,0,0,.752-.752.769.769,0,0,0-.752-.752Z" transform="translate(-171.973 -212.707)" fill="#e6e6e6"/>
      <path id="Path_16931" data-name="Path 16931" d="M330.114,379.317H145.689a8.806,8.806,0,0,1-8.8-8.8V206.148a8.806,8.806,0,0,1,8.8-8.8H330.114a8.806,8.806,0,0,1,8.8,8.8V370.521A8.806,8.806,0,0,1,330.114,379.317ZM145.689,198.354a7.8,7.8,0,0,0-7.794,7.794V370.521a7.8,7.8,0,0,0,7.794,7.793H330.114a7.8,7.8,0,0,0,7.794-7.793V206.148a7.8,7.8,0,0,0-7.794-7.794Z" transform="translate(-134.405 -197.352)" fill="#e6e6e6"/>
      <path id="Path_16932" data-name="Path 16932" d="M153.108,418.46l64.855-.2,64.525-.2,36.4-.111a.752.752,0,0,0,0-1.5l-64.855.2-64.525.2-36.4.111a.752.752,0,0,0,0,1.5Z" transform="translate(-142.129 -306.621)" fill="#e6e6e6"/>
      <path id="Path_16933" data-name="Path 16933" d="M217.6,393.746l.4-23.679a.752.752,0,0,0-1.5,0l-.4,23.679A.752.752,0,0,0,217.6,393.746Z" transform="translate(-173.907 -283.126)" fill="#e6e6e6"/>
      <path id="Path_16934" data-name="Path 16934" d="M279.439,379.744l.977-29.763.279-8.5c.032-.968-1.472-.967-1.5,0l-.977,29.763-.279,8.5C277.9,380.712,279.408,380.711,279.439,379.744Z" transform="translate(-204.745 -268.868)" fill="#e6e6e6"/>
      <path id="Path_16935" data-name="Path 16935" d="M340.344,313.333c-.589,10.542-1.68,41.637-2.27,52.178-.054.967,1.45.964,1.5,0,.589-10.542,1.68-41.636,2.27-52.178C341.9,312.366,340.4,312.369,340.344,313.333Z" transform="translate(-234.737 -254.833)" fill="#e6e6e6"/>
      <path id="Path_16936" data-name="Path 16936" d="M403.792,390.138l-.184,10.133a.752.752,0,0,0,1.5,0c.218-11.967.776-11.577.838-14.955a.752.752,0,0,0-1.5,0S404.01,378.171,403.792,390.138Z" transform="translate(-267.42 -290.038)" fill="#e6e6e6"/>
      <path id="Path_16937" data-name="Path 16937" d="M464.088,343.218l.17,28.427.049,8.14a.752.752,0,0,0,1.5,0l-.17-28.427-.049-8.14a.752.752,0,0,0-1.5,0Z" transform="translate(-297.583 -269.736)" fill="#e6e6e6"/>
      <path id="Path_16938" data-name="Path 16938" d="M152.269,368.481c-1.245-3.421,1.561-6.711,4.445-8.189,3.454-1.771,7.428-2.173,10.919-3.88,5.2-2.546,9-7.114,12.368-11.687,3.472-4.707,6.648-9.758,11.06-13.669a22.154,22.154,0,0,1,8.055-4.661,27.76,27.76,0,0,1,11.635-.781c8.03.977,15.474,4.294,23.221,6.4,7.3,1.987,15.353,3.1,22.523.014,3.643-1.57,6.622-4.2,9.821-6.482a32.731,32.731,0,0,1,10.23-4.935,30.423,30.423,0,0,1,21.758,1.916,29.2,29.2,0,0,1,13.77,14.533c3.177,7.589,2.763,16.069,1.725,24.057-.268,2.065-.587,4.122-.91,6.179-.149.947,1.3,1.355,1.45.4,1.292-8.236,2.58-16.734.973-25.022a30.305,30.305,0,0,0-11.194-18.235,31.1,31.1,0,0,0-20.508-6.472,33.626,33.626,0,0,0-11.266,2.506,46.59,46.59,0,0,0-10.068,6.218c-3.289,2.467-6.68,4.507-10.763,5.312a32.067,32.067,0,0,1-12.025-.249c-8.137-1.52-15.722-5.005-23.789-6.791-7.475-1.654-15.541-1.82-22.235,2.4-5.149,3.248-8.787,8.291-12.279,13.161-3.461,4.827-6.966,9.988-12.027,13.285-3.087,2.011-6.558,2.754-10.011,3.885s-6.787,3.047-8.2,6.595a6.413,6.413,0,0,0-.131,4.589c.328.9,1.782.513,1.45-.4Z" transform="translate(-141.17 -257.489)" fill="#e6e6e6"/>
      <path id="Path_16939" data-name="Path 16939" d="M86.169,166.9h0Z" transform="translate(-42.971 -83.239)" fill="#e6e6e6"/>
      <path id="Path_16940" data-name="Path 16940" d="M217.729,359.986a2.989,2.989,0,0,0-3.621-1.34,2.63,2.63,0,0,0-1.5,1.4c-.029.068-.046.14-.069.21-.033.053-.072.1-.1.155a2.986,2.986,0,0,0,4.657,3.568,3.216,3.216,0,0,0,.632-3.988Zm-1.883,1.277C215.852,361.3,215.849,361.336,215.846,361.263Zm-.191-.435Zm-.844.339C214.8,361.15,214.8,361.147,214.81,361.167Zm.2.17C215.058,361.353,215.039,361.35,215.01,361.337Zm.089.043.02-.009a.025.025,0,0,1-.014,0h0l.016,0h0l-.009,0c.008,0,.009,0,.009,0,.089-.041.029-.021-.023-.005h0a.343.343,0,0,0-.1-.033l-.01-.005c-.029-.021-.174-.134-.039-.015-.029-.026-.058-.051-.086-.079a.392.392,0,0,1-.044-.054q-.027-.046-.052-.092l0-.017c0-.014,0-.02-.006-.028s0-.018,0-.027a.325.325,0,0,0,.019-.084l.006-.007c.022-.03.041-.065.061-.1-.109.166.043-.018.054-.042,0,0,0,0,0,0l.008,0c.034-.02.066-.042.1-.061s.2-.068.035-.021c.038-.011.074-.024.113-.034l.093-.015h.055l.037,0c-.028,0,.1.03.131.036l.015.012c.031.023.068.043.1.064-.145-.094,0,.007.03.035s.032.034.048.052a.4.4,0,0,1,.039.053c.024.044.049.088.074.131l.007.011a.039.039,0,0,0,0,0,1.188,1.188,0,0,0,.058.2.161.161,0,0,1,0,.017c0,.038.006.076.006.115v.008a.824.824,0,0,0-.751-.005Z" transform="translate(-171.923 -277.703)" fill="#e6e6e6"/>
      <path id="Path_16941" data-name="Path 16941" d="M218.115,364.255s0,0,0,0Z" transform="translate(-174.911 -280.59)" fill="#e6e6e6"/>
      <path id="Path_16942" data-name="Path 16942" d="M218.113,364.255h0Z" transform="translate(-174.911 -280.59)" fill="#e6e6e6"/>
      <path id="Path_16943" data-name="Path 16943" d="M218.112,364.257h0Z" transform="translate(-174.909 -280.591)" fill="#e6e6e6"/>
      <path id="Path_16944" data-name="Path 16944" d="M86.177,166.9Z" transform="translate(-42.975 -83.237)" fill="#e6e6e6"/>
      <path id="Path_16945" data-name="Path 16945" d="M150.169,138.9h0Z" transform="translate(-74.888 -69.275)" fill="#e6e6e6"/>
      <path id="Path_16946" data-name="Path 16946" d="M281.729,331.986a2.988,2.988,0,0,0-3.621-1.34,2.63,2.63,0,0,0-1.5,1.4c-.029.068-.046.14-.069.21-.033.053-.072.1-.1.155a2.986,2.986,0,0,0,4.657,3.568A3.216,3.216,0,0,0,281.729,331.986Zm-1.883,1.277C279.852,333.3,279.849,333.336,279.846,333.263Zm-.191-.435Zm-.844.339C278.8,333.15,278.8,333.147,278.81,333.167Zm.2.17C279.058,333.353,279.039,333.35,279.01,333.337Zm.089.043.02-.009a.025.025,0,0,1-.014,0h0l.016,0h0l-.009,0c.008,0,.009,0,.009,0,.089-.041.029-.021-.023-.005h0a.343.343,0,0,0-.1-.033l-.01-.005c-.029-.02-.174-.134-.039-.015-.029-.026-.058-.051-.086-.079a.4.4,0,0,1-.044-.054q-.027-.046-.052-.092l0-.017c0-.014,0-.02-.006-.028s0-.018,0-.027a.325.325,0,0,0,.019-.084l.006-.007c.022-.03.041-.065.061-.1-.109.166.043-.018.054-.042,0,0,0,0,0,0l.008,0c.034-.02.066-.042.1-.061s.2-.068.035-.021c.038-.011.074-.025.113-.035l.093-.015h.055l.037,0c-.028,0,.1.03.131.036l.015.012c.031.023.068.043.1.064-.145-.094,0,.007.03.035s.032.034.048.052a.408.408,0,0,1,.039.053c.024.044.049.088.074.131l.007.011a.04.04,0,0,0,0,0,1.2,1.2,0,0,0,.058.2c0,.006,0,.011,0,.017,0,.038.005.076.006.115v.008a.824.824,0,0,0-.751-.005Z" transform="translate(-203.841 -263.739)" fill="#e6e6e6"/>
      <path id="Path_16947" data-name="Path 16947" d="M282.112,336.257h0Z" transform="translate(-206.827 -266.627)" fill="#e6e6e6"/>
      <path id="Path_16948" data-name="Path 16948" d="M150.177,138.9Z" transform="translate(-74.893 -69.273)" fill="#e6e6e6"/>
      <path id="Path_16949" data-name="Path 16949" d="M282.115,336.255s0,0,0,0Z" transform="translate(-206.829 -266.626)" fill="#e6e6e6"/>
      <path id="Path_16950" data-name="Path 16950" d="M282.113,336.255h0Z" transform="translate(-206.829 -266.626)" fill="#e6e6e6"/>
      <path id="Path_16951" data-name="Path 16951" d="M212.177,152.9Z" transform="translate(-105.814 -76.255)" fill="#e6e6e6"/>
      <path id="Path_16952" data-name="Path 16952" d="M343.729,303.986a2.988,2.988,0,0,0-3.621-1.34,2.63,2.63,0,0,0-1.5,1.4c-.029.068-.046.14-.069.21-.033.053-.072.1-.1.155a2.986,2.986,0,0,0,4.657,3.568A3.216,3.216,0,0,0,343.729,303.986Zm-1.883,1.277C341.852,305.3,341.849,305.336,341.846,305.263Zm-.191-.435Zm-.844.339C340.8,305.15,340.8,305.147,340.81,305.167Zm.2.17C341.058,305.353,341.039,305.35,341.01,305.337Zm.089.043.02-.009a.025.025,0,0,1-.014,0h0l.016,0h0l-.009,0c.008,0,.009,0,.009,0,.089-.041.029-.021-.023-.005h0a.342.342,0,0,0-.1-.033l-.01-.005c-.029-.02-.174-.134-.039-.015-.029-.026-.058-.051-.086-.079a.394.394,0,0,1-.044-.054q-.027-.046-.052-.092l0-.017c0-.014,0-.02-.006-.028s0-.018,0-.027a.324.324,0,0,0,.019-.084l.006-.007c.022-.03.04-.065.061-.1-.109.166.043-.018.054-.042,0,0,0,0,0,0l.008,0c.034-.02.066-.042.1-.061s.2-.068.035-.021c.038-.011.074-.024.113-.034l.093-.015h.055l.037,0c-.028,0,.1.03.131.036l.015.012c.031.023.068.043.1.064-.145-.094,0,.007.03.035s.032.034.048.052a.4.4,0,0,1,.039.053c.024.044.049.088.074.131l.007.011a.034.034,0,0,0,0,0,1.186,1.186,0,0,0,.058.2.159.159,0,0,1,0,.017c0,.038.006.076.006.115v.008a.824.824,0,0,0-.751-.005Z" transform="translate(-234.761 -249.775)" fill="#e6e6e6"/>
      <path id="Path_16953" data-name="Path 16953" d="M212.169,152.9h0Z" transform="translate(-105.809 -76.257)" fill="#e6e6e6"/>
      <path id="Path_16954" data-name="Path 16954" d="M344.113,350.255h0Z" transform="translate(-237.749 -273.608)" fill="#e6e6e6"/>
      <path id="Path_16955" data-name="Path 16955" d="M344.112,350.257h0Z" transform="translate(-237.747 -273.609)" fill="#e6e6e6"/>
      <path id="Path_16956" data-name="Path 16956" d="M344.115,350.255s0,0,0,0Z" transform="translate(-237.75 -273.608)" fill="#e6e6e6"/>
      <path id="Path_16957" data-name="Path 16957" d="M406.729,380.986a2.989,2.989,0,0,0-3.621-1.34,2.63,2.63,0,0,0-1.5,1.4c-.029.068-.046.14-.069.21-.033.053-.072.1-.1.155a2.986,2.986,0,0,0,4.657,3.568A3.216,3.216,0,0,0,406.729,380.986Zm-1.883,1.277C404.852,382.3,404.849,382.336,404.846,382.263Zm-.191-.435Zm-.844.339C403.8,382.15,403.8,382.147,403.81,382.167Zm.2.17C404.058,382.353,404.039,382.35,404.01,382.337Zm.089.043.02-.009a.025.025,0,0,1-.014,0h0l.016,0h0l-.009,0c.008,0,.009,0,.009,0,.089-.041.029-.021-.023-.005h0a.343.343,0,0,0-.1-.033l-.01-.005c-.029-.021-.174-.134-.039-.015-.029-.026-.058-.051-.086-.079a.4.4,0,0,1-.044-.054q-.027-.046-.051-.092l0-.017c0-.014,0-.02-.006-.028s0-.018,0-.027a.325.325,0,0,0,.019-.084l.006-.007c.022-.03.041-.065.061-.1-.109.166.043-.018.054-.042,0,0,0,0,0,0l.008,0c.034-.02.066-.042.1-.061s.2-.068.035-.021c.038-.011.074-.025.113-.035l.093-.015h.055l.037,0c-.028,0,.1.03.131.036l.015.012c.031.023.068.043.1.064-.145-.094,0,.007.03.035s.032.034.048.052a.407.407,0,0,1,.039.053c.024.044.049.088.074.131l.007.011a.025.025,0,0,0,0,0,1.183,1.183,0,0,0,.058.2c0,.006,0,.011,0,.017,0,.038.005.076.006.115v.008a.824.824,0,0,0-.751-.005Z" transform="translate(-266.181 -288.176)" fill="#e6e6e6"/>
      <path id="Path_16958" data-name="Path 16958" d="M275.169,121.905h0Z" transform="translate(-137.228 -60.796)" fill="#e6e6e6"/>
      <path id="Path_16959" data-name="Path 16959" d="M407.113,319.255h0Z" transform="translate(-269.168 -258.147)" fill="#e6e6e6"/>
      <path id="Path_16960" data-name="Path 16960" d="M407.112,319.257h0Z" transform="translate(-269.167 -258.148)" fill="#e6e6e6"/>
      <path id="Path_16961" data-name="Path 16961" d="M407.115,319.255s0,0,0,0Z" transform="translate(-269.169 -258.147)" fill="#e6e6e6"/>
      <path id="Path_16962" data-name="Path 16962" d="M275.177,121.9Z" transform="translate(-137.233 -60.795)" fill="#e6e6e6"/>
      <path id="Path_16963" data-name="Path 16963" d="M466.113,339.255h0Z" transform="translate(-298.593 -268.122)" fill="#e6e6e6"/>
      <path id="Path_16964" data-name="Path 16964" d="M465.729,334.986a2.988,2.988,0,0,0-3.621-1.34,2.63,2.63,0,0,0-1.5,1.4c-.029.068-.046.14-.069.21-.033.053-.072.1-.1.155a2.986,2.986,0,0,0,4.657,3.568A3.216,3.216,0,0,0,465.729,334.986Zm-1.883,1.277C463.852,336.3,463.849,336.336,463.846,336.263Zm-.191-.435Zm-.844.339C462.8,336.15,462.8,336.147,462.81,336.167Zm.2.17C463.058,336.353,463.039,336.35,463.01,336.337Zm.089.043.02-.009a.025.025,0,0,1-.014,0h0l.016,0h0l-.009,0c.008,0,.009,0,.009,0,.089-.041.029-.021-.023-.005h0a.343.343,0,0,0-.1-.033l-.01-.005c-.029-.02-.174-.134-.039-.015-.029-.026-.058-.051-.086-.079a.394.394,0,0,1-.044-.054q-.027-.046-.052-.092l0-.017c0-.014,0-.02-.006-.028s0-.018,0-.027a.326.326,0,0,0,.019-.084l.006-.007c.022-.03.041-.065.061-.1-.109.166.043-.018.054-.042,0,0,0,0,0,0l.008,0c.034-.02.066-.042.1-.061s.2-.068.035-.021c.038-.011.074-.025.113-.035l.093-.015h.055l.037,0c-.028,0,.1.03.131.036l.015.012c.031.023.068.043.1.064-.145-.094,0,.007.03.035s.032.034.048.052a.408.408,0,0,1,.039.053c.024.044.049.088.074.131l.007.011s0,0,0,0a1.19,1.19,0,0,0,.058.2.168.168,0,0,1,0,.017c0,.038.006.076.006.115v.008a.824.824,0,0,0-.751-.005Z" transform="translate(-295.605 -265.235)" fill="#e6e6e6"/>
      <path id="Path_16965" data-name="Path 16965" d="M334.169,141.9h0Z" transform="translate(-166.652 -70.771)" fill="#e6e6e6"/>
      <path id="Path_16966" data-name="Path 16966" d="M334.177,141.9Z" transform="translate(-166.657 -70.769)" fill="#e6e6e6"/>
      <path id="Path_16967" data-name="Path 16967" d="M466.115,339.255s0,0,0,0Z" transform="translate(-298.593 -268.122)" fill="#e6e6e6"/>
      <path id="Path_16968" data-name="Path 16968" d="M466.112,339.257h0Z" transform="translate(-298.591 -268.123)" fill="#e6e6e6"/>
      <path id="Path_16969" data-name="Path 16969" d="M426.21,381.5,402.9,382.8a.514.514,0,0,1-.111-1.02l23.823-3.877Z" transform="translate(-266.797 -287.395)" fill="#3f3d56"/>
      <path id="Path_16970" data-name="Path 16970" d="M505.985,473.9l8.783-14.777,6.492,3.066s-11.186,13.972-11.543,14.374a3.437,3.437,0,1,1-3.733-2.663Z" transform="translate(-316.952 -327.902)" fill="#ffb6b6"/>
      <path id="Path_16971" data-name="Path 16971" d="M514.721,420.126l14.23,7.424a7.878,7.878,0,0,1,1.334,11.569l-9.81,11.253-4.274-5.791,3.294-6.888-6.378-1.682Z" transform="translate(-322.034 -308.454)" fill="#6c63ff"/>
      <path id="Path_16972" data-name="Path 16972" d="M426.682,379.238l-1.6,17.115-7.18.012s4.119-17.418,4.269-17.933a3.437,3.437,0,1,1,4.513.806Z" transform="translate(-274.548 -284.889)" fill="#ffb6b6"/>
      <path id="Path_16973" data-name="Path 16973" d="M438.688,428.245l-16.525-3.03c-6.958-.837-9.814-5.415-8.559-9.881l4.041-14.372,6.343,3.4L423.964,412l8.879-1.214Z" transform="translate(-272.262 -298.896)" fill="#6c63ff"/>
      <path id="Path_16974" data-name="Path 16974" d="M311.83,476.556h-4.544l-2.162-17.526h6.706Z" transform="translate(-152.169 -228.927)" fill="#ffb6b6"/>
      <path id="Path_16975" data-name="Path 16975" d="M436.854,693.287H422.882v-.177a5.439,5.439,0,0,1,5.438-5.438h0l2.552-1.936,4.762,1.937h1.22Z" transform="translate(-277.032 -440.917)" fill="#2f2e41"/>
      <path id="Path_16976" data-name="Path 16976" d="M382.635,476.556h4.544l2.162-17.526h-6.706Z" transform="translate(-190.824 -228.927)" fill="#ffb6b6"/>
      <path id="Path_16977" data-name="Path 16977" d="M514.251,693.287h13.972v-.177a5.438,5.438,0,0,0-5.438-5.438h0l-2.552-1.936-4.762,1.937h-1.22Z" transform="translate(-322.6 -440.917)" fill="#2f2e41"/>
      <path id="Path_16978" data-name="Path 16978" d="M436.652,573.463c.067-1,.6-6.531.6-6.531l1.278-11.729,2.252-31.09,2.008-8.172,9.938,3.872,8.064-3.866,9.585,3.064,7.463,2.8s.013,1.2.07,2.645a19.807,19.807,0,0,0,.53,4.821c.534,1.067.4,6.8.4,6.8s.53,11.655,1.2,12.933a8.877,8.877,0,0,1,.6,4.473c-.2.534.668,14.531.668,14.531s2.23,24.77.831,28.5-6.687,1.288-6.687,1.288.256-1-1.278-1.467-6.2-35.592-6.2-35.592-.869-7.2-1.668-9.265a52.808,52.808,0,0,1-1.534-7.863s-4.933-9.6-5-11.732c0,0-.645-2-1.256.2s-2.409,7.464-2.409,7.464l-1.754,6.467-2.064,9.662-1.336,8.134s-2,10.8-2.32,11.262,0,10.329,0,10.329-1.546,8.4-3.732,9.866-7.975.023-7.975.023S436.585,574.463,436.652,573.463Z" transform="translate(-283.896 -356.238)" fill="#2f2e41"/>
      <path id="Path_16979" data-name="Path 16979" d="M445.179,436.51l-1.27,16.451L442,454.936a1.84,1.84,0,0,0,.1,2.65h0l-1.051,1.8-.372,5.68a3.087,3.087,0,0,0,2.857,3.8l32.9,1.546a3.087,3.087,0,0,0,3.205-3.49l-2.8-21.061v-1.575l-1.252-3.041.644-10.188,1.5-16.171-8.7-2.248L464.3,409.4l-8.2.131-4.975,4.086-6.633,1.039-5.016,1-.639,1.389,1.278-.278,4.632,18.067Z" transform="translate(-284.993 -303.103)" fill="#6c63ff"/>
      <circle id="Ellipse_132" data-name="Ellipse 132" cx="9.658" cy="9.658" r="9.658" transform="translate(165.372 84.775)" fill="#ffb6b6"/>
      <path id="Path_16980" data-name="Path 16980" d="M465.482,383.1l6.978-.356a2.879,2.879,0,0,0,3.311-2.054c.645-1.5,1.29-3,1.919-4.5.869-2.082,1.723-4.281,1.5-6.527a4.153,4.153,0,0,0-1.207-2.722,2.306,2.306,0,0,0-2.8-.284,4.738,4.738,0,0,0-2.352-3.415,7.262,7.262,0,0,0-4.142-.878,10,10,0,0,0-5.693,2.244,12.358,12.358,0,0,1-1.452,1.151,2.28,2.28,0,0,1-1.772.328,1.283,1.283,0,0,1-.942-1.4,2.468,2.468,0,0,0-.631,3.258,2.277,2.277,0,0,1-2.226-.263,2.721,2.721,0,1,0,2.854,4.606,3.2,3.2,0,0,1,.211,2.126c-.055.727.14,1.63.84,1.831.947.272,1.714-1,2.7-.99a1.482,1.482,0,0,1,1.175.757,4.374,4.374,0,0,1,.47,1.373l1.261,5.677" transform="translate(-292.781 -279.631)" fill="#2f2e41"/>
      <path id="Path_16981" data-name="Path 16981" d="M846.666,566.255c0-1.5-.5-2.709-1.119-2.712h-168.1c-.619,0-1.119,1.216-1.122,2.712v61.562a.559.559,0,0,1-.5.556q-.677.065-1.354.121l-.034,0c-.245.022-.491.039-.737.059h0q-.19-.35-.375-.707a.561.561,0,0,1-.064-.259V562.736c0-.413.017-.829.045-1.239a15.872,15.872,0,0,1,.209-1.68c.472-2.592,1.537-4.347,2.748-4.353H846.734a1.307,1.307,0,0,1,.513.109,2,2,0,0,1,.633.444,3.926,3.926,0,0,1,.622.851,11.2,11.2,0,0,1,1.175,4.445c0,.017,0,.033,0,.05.039.452.059.912.056,1.373l.039,5.979.025,3.566.075,11.188.028,3.973.123,40.792h0a.558.558,0,0,1-.558.558h-2.243a.558.558,0,0,1-.558-.558Z" transform="translate(-401.898 -375.95)" fill="#e6e6e6"/>
      <path id="Path_16982" data-name="Path 16982" d="M909.087,499.652H890.974a.967.967,0,0,0-.965.967v28.614h20.046V500.619a.967.967,0,0,0-.968-.967Zm-9,16.258a2.149,2.149,0,0,1-2.139-2.139v-3.3a2.139,2.139,0,0,1,4.278,0v3.3A2.149,2.149,0,0,1,900.091,515.91Z" transform="translate(-509.997 -348.115)" fill="#ccc"/>
      <path id="Path_16983" data-name="Path 16983" d="M889.884,556.837V559.6a.541.541,0,0,0,.54.54h19.091a.542.542,0,0,0,.54-.54v-2.761Z" transform="translate(-509.935 -376.634)" fill="#3f3d56"/>
      <path id="Path_16984" data-name="Path 16984" d="M908.374,410.571H830.946a2.513,2.513,0,0,0-2.509,2.509v52.248a2.512,2.512,0,0,0,2.51,2.509h77.428a2.512,2.512,0,0,0,2.509-2.509V413.08A2.513,2.513,0,0,0,908.374,410.571Z" transform="translate(-479.29 -303.688)" fill="#e6e6e6"/>
      <path id="Path_16985" data-name="Path 16985" d="M909.533,414.186H833.4a1.345,1.345,0,0,0-1.342,1.345v50.953a1.344,1.344,0,0,0,1.342,1.342h76.134a1.344,1.344,0,0,0,1.342-1.342V415.531A1.345,1.345,0,0,0,909.533,414.186Z" transform="translate(-481.095 -305.491)" fill="#fff"/>
      <path id="Path_16986" data-name="Path 16986" d="M911.136,560.358h-45.3a.833.833,0,0,1-.815-1l.7-3.338a.837.837,0,0,1,.815-.662h43.89a.837.837,0,0,1,.815.662l.7,3.338a.833.833,0,0,1-.815,1Z" transform="translate(-497.528 -375.894)" fill="#ccc"/>
      <rect id="Rectangle_1407" data-name="Rectangle 1407" width="1.395" height="0.837" rx="0.419" transform="translate(369.337 180.061)" fill="#e6e6e6"/>
      <rect id="Rectangle_1408" data-name="Rectangle 1408" width="1.395" height="0.837" rx="0.419" transform="translate(372.127 180.061)" fill="#e6e6e6"/>
      <rect id="Rectangle_1409" data-name="Rectangle 1409" width="1.395" height="0.837" rx="0.419" transform="translate(374.917 180.061)" fill="#e6e6e6"/>
      <rect id="Rectangle_1410" data-name="Rectangle 1410" width="1.395" height="0.837" rx="0.419" transform="translate(377.707 180.061)" fill="#e6e6e6"/>
      <rect id="Rectangle_1411" data-name="Rectangle 1411" width="1.395" height="0.837" rx="0.419" transform="translate(380.497 180.061)" fill="#e6e6e6"/>
      <rect id="Rectangle_1412" data-name="Rectangle 1412" width="1.395" height="0.837" rx="0.419" transform="translate(383.288 180.061)" fill="#e6e6e6"/>
      <rect id="Rectangle_1413" data-name="Rectangle 1413" width="1.395" height="0.837" rx="0.419" transform="translate(386.078 180.061)" fill="#e6e6e6"/>
      <rect id="Rectangle_1414" data-name="Rectangle 1414" width="1.395" height="0.837" rx="0.419" transform="translate(388.868 180.061)" fill="#e6e6e6"/>
      <rect id="Rectangle_1415" data-name="Rectangle 1415" width="1.395" height="0.837" rx="0.419" transform="translate(391.658 180.061)" fill="#e6e6e6"/>
      <rect id="Rectangle_1416" data-name="Rectangle 1416" width="1.395" height="0.837" rx="0.419" transform="translate(394.448 180.061)" fill="#e6e6e6"/>
      <rect id="Rectangle_1417" data-name="Rectangle 1417" width="1.395" height="0.837" rx="0.419" transform="translate(397.238 180.061)" fill="#e6e6e6"/>
      <rect id="Rectangle_1418" data-name="Rectangle 1418" width="1.395" height="0.837" rx="0.419" transform="translate(400.028 180.061)" fill="#e6e6e6"/>
      <rect id="Rectangle_1419" data-name="Rectangle 1419" width="1.395" height="0.837" rx="0.419" transform="translate(402.819 180.061)" fill="#e6e6e6"/>
      <rect id="Rectangle_1420" data-name="Rectangle 1420" width="1.395" height="0.837" rx="0.419" transform="translate(405.609 180.061)" fill="#e6e6e6"/>
      <rect id="Rectangle_1421" data-name="Rectangle 1421" width="1.395" height="0.837" rx="0.419" transform="translate(408.399 180.061)" fill="#e6e6e6"/>
      <rect id="Rectangle_1422" data-name="Rectangle 1422" width="1.395" height="0.837" rx="0.419" transform="translate(411.189 180.061)" fill="#e6e6e6"/>
      <rect id="Rectangle_1423" data-name="Rectangle 1423" width="1.395" height="0.837" rx="0.419" transform="translate(369.304 181.456)" fill="#e6e6e6"/>
      <rect id="Rectangle_1424" data-name="Rectangle 1424" width="1.395" height="0.837" rx="0.419" transform="translate(372.094 181.456)" fill="#e6e6e6"/>
      <rect id="Rectangle_1425" data-name="Rectangle 1425" width="1.395" height="0.837" rx="0.419" transform="translate(374.884 181.456)" fill="#e6e6e6"/>
      <rect id="Rectangle_1426" data-name="Rectangle 1426" width="1.395" height="0.837" rx="0.419" transform="translate(377.674 181.456)" fill="#e6e6e6"/>
      <rect id="Rectangle_1427" data-name="Rectangle 1427" width="1.395" height="0.837" rx="0.419" transform="translate(380.464 181.456)" fill="#e6e6e6"/>
      <rect id="Rectangle_1428" data-name="Rectangle 1428" width="1.395" height="0.837" rx="0.419" transform="translate(383.255 181.456)" fill="#e6e6e6"/>
      <rect id="Rectangle_1429" data-name="Rectangle 1429" width="1.395" height="0.837" rx="0.419" transform="translate(386.045 181.456)" fill="#e6e6e6"/>
      <rect id="Rectangle_1430" data-name="Rectangle 1430" width="1.395" height="0.837" rx="0.419" transform="translate(388.835 181.456)" fill="#e6e6e6"/>
      <rect id="Rectangle_1431" data-name="Rectangle 1431" width="1.395" height="0.837" rx="0.419" transform="translate(391.625 181.456)" fill="#e6e6e6"/>
      <rect id="Rectangle_1432" data-name="Rectangle 1432" width="1.395" height="0.837" rx="0.419" transform="translate(394.415 181.456)" fill="#e6e6e6"/>
      <rect id="Rectangle_1433" data-name="Rectangle 1433" width="1.395" height="0.837" rx="0.419" transform="translate(397.205 181.456)" fill="#e6e6e6"/>
      <rect id="Rectangle_1434" data-name="Rectangle 1434" width="1.395" height="0.837" rx="0.419" transform="translate(399.995 181.456)" fill="#e6e6e6"/>
      <rect id="Rectangle_1435" data-name="Rectangle 1435" width="1.395" height="0.837" rx="0.419" transform="translate(402.785 181.456)" fill="#e6e6e6"/>
      <rect id="Rectangle_1436" data-name="Rectangle 1436" width="1.395" height="0.837" rx="0.419" transform="translate(405.576 181.456)" fill="#e6e6e6"/>
      <rect id="Rectangle_1437" data-name="Rectangle 1437" width="1.395" height="0.837" rx="0.419" transform="translate(408.366 181.456)" fill="#e6e6e6"/>
      <rect id="Rectangle_1438" data-name="Rectangle 1438" width="1.395" height="0.837" rx="0.419" transform="translate(411.156 181.456)" fill="#e6e6e6"/>
      <rect id="Rectangle_1439" data-name="Rectangle 1439" width="11.161" height="0.837" rx="0.419" transform="translate(382.697 183.13)" fill="#e6e6e6"/>
      <path id="Path_16987" data-name="Path 16987" d="M907.822,427.627H836.584a.283.283,0,1,1,0-.567h71.238a.283.283,0,1,1,0,.567Z" transform="translate(-483.212 -311.912)" fill="#cacaca"/>
      <ellipse id="Ellipse_133" data-name="Ellipse 133" cx="1.66" cy="1.697" rx="1.66" ry="1.697" transform="translate(356.561 110.308)" fill="#ccc"/>
      <ellipse id="Ellipse_134" data-name="Ellipse 134" cx="1.66" cy="1.697" rx="1.66" ry="1.697" transform="translate(362.297 110.308)" fill="#ccc"/>
      <ellipse id="Ellipse_135" data-name="Ellipse 135" cx="1.66" cy="1.697" rx="1.66" ry="1.697" transform="translate(368.032 110.308)" fill="#ccc"/>
      <path id="Path_16988" data-name="Path 16988" d="M967.729,418.243h-4.074a.309.309,0,1,0,0,.617h4.074a.309.309,0,1,0,0-.617Z" transform="translate(-546.572 -307.514)" fill="#ccc"/>
      <path id="Path_16989" data-name="Path 16989" d="M967.729,420.553h-4.074a.309.309,0,1,0,0,.617h4.074a.309.309,0,1,0,0-.617Z" transform="translate(-546.572 -308.666)" fill="#ccc"/>
      <path id="Path_16990" data-name="Path 16990" d="M967.729,422.86h-4.074a.309.309,0,1,0,0,.617h4.074a.309.309,0,1,0,0-.617Z" transform="translate(-546.572 -309.817)" fill="#ccc"/>
      <rect id="Rectangle_1440" data-name="Rectangle 1440" width="11.323" height="2.421" rx="1.211" transform="translate(384.631 131.15)" fill="#6c63ff"/>
      <rect id="Rectangle_1441" data-name="Rectangle 1441" width="22.824" height="2.421" rx="1.211" transform="translate(378.88 135.992)" fill="#e6e6e6"/>
      <rect id="Rectangle_1442" data-name="Rectangle 1442" width="22.824" height="2.421" rx="1.211" transform="translate(378.88 140.835)" fill="#e6e6e6"/>
      <path id="Path_16991" data-name="Path 16991" d="M520.644,412.429l-4.1-1.963,5.637-17.152,6.056,2.9Z" transform="translate(-257.605 -196.153)" fill="#ffb6b6"/>
      <path id="Path_16992" data-name="Path 16992" d="M701.089,607.175c-.3.187-.6.371-.9.555-.6.368-1.206.729-1.812,1.085-.3.178-.612.356-.916.531v.009l-.018,0-.006,0-.464.115-.666-1.76L696,606.9l-.434-1.148-.8-2.1-4.19-11.062,6.514-1.607.244,1h0l.12.494,2.276,9.23.464,1.887.015.057.28,1.127.241.977.268,1.091Z" transform="translate(-410.539 -393.664)" fill="#ffb6b6"/>
      <path id="Path_16993" data-name="Path 16993" d="M735.125,526.1c-.413.663-.835,1.323-1.26,1.977q-1.185,1.826-2.432,3.6s0,0-.006.006a8.508,8.508,0,0,1-1.6,1.167c-.024.018-.051.03-.075.045a5.889,5.889,0,0,1-1.344.54l-.509.127c-.609.145-1.212.268-1.812.377q-1.6.285-3.171.41c-.084.009-.169.015-.253.021a49.036,49.036,0,0,1-12.9-1.028c-2.164-.41-4.374-.9-6.661-1.411-.747-.169-1.5-.335-2.258-.5-.057-.012-.118-.027-.178-.039-1.085-.238-2.188-.473-3.319-.705-1.423-.292-2.891-.576-4.416-.844l.108,2.149a16.178,16.178,0,0,0,1.019,4.832,8.339,8.339,0,0,1,.078,6.55l-.525,1.519a5.189,5.189,0,0,1-.534,4.591l-.106.16,4.374,11.065.283.717H695.4l-2.755,0h-4.669l-6.737-13.516-.323-.645v-.033l.7-25.974c.009-.229.027-.461.057-.69a7.9,7.9,0,0,1,3.005-5.317,7.6,7.6,0,0,1,5.664-1.549l2.306.3,4.711.609,3.319.431.066.009,9.787,1.266.7-2.864.13-.048,4.12-1.51,14.251-5.224.036-.012.937-.344.112.181c.033.054.066.109.1.163a27.93,27.93,0,0,1,2.252,5.227,82.037,82.037,0,0,1,2.366,9.034q.041.2.072.362l.009.033c.009.051.015.084.018.093A8.431,8.431,0,0,1,735.125,526.1Z" transform="translate(-405.717 -351.437)" fill="#2f2e41"/>
      <path id="Path_16994" data-name="Path 16994" d="M722.83,512.481c-.045-.193-.1-.389-.163-.579a41.2,41.2,0,0,0-1.67-4.226c-.711-1.567-1.564-3.246-2.58-5.064q-.737-1.32-1.586-2.746-.425-.714-.883-1.456-.018-.034-.039-.066l-.087-.145-14.1,1.887-5.251.7-.313,2.616-.075.648s0,0,0,0l-.211,1.766v0l-.28,2.333-.024,0-7.792-1.01-8.03-1.04-4.313-.558a7.6,7.6,0,0,0-5.664,1.549,7.9,7.9,0,0,0-3.005,5.317c-.027.211-.045.428-.054.642l-4.069,9.643a62.215,62.215,0,0,0-4.6,18.1l-2.984,9.54.425.039,6.324.588,1.67.157,3.677-5.368c.419-.612.817-1.242,1.188-1.887a28.663,28.663,0,0,0,1.625-3.267l7.955-18.93q.922.158,1.827.3,4.182.678,8.03,1.106a94.621,94.621,0,0,0,21.992.214q2.708-.33,5.236-.868.927-.194,1.83-.419c.142-.033.28-.066.419-.1a7.692,7.692,0,0,0,5.38-5.028,7.848,7.848,0,0,0,.2-4.392Z" transform="translate(-392.821 -347.39)" fill="#2f2e41"/>
      <path id="Path_16995" data-name="Path 16995" d="M643.894,620.761l-4.44-2.128-.7-.335-1.112,2.731-7.765,1.709a1.842,1.842,0,0,0-.3,3.506l7.587,3.1,2.408-2.167-.591,2.909,2.857,1.167,3.132-9.968Z" transform="translate(-379.544 -407.286)" fill="#2f2e41"/>
      <path id="Path_16996" data-name="Path 16996" d="M581.774,417.469l.284.717h-.284Z" transform="translate(-290.138 -208.199)" fill="#2f2e41"/>
      <path id="Path_16997" data-name="Path 16997" d="M701.807,616.169l-4.652,1.612-.73.252,1.131,2.723-4.315,6.678a1.842,1.842,0,0,0,2.252,2.7L703.063,627l.186-3.235,1.627,2.483,2.851-1.182-4.788-9.287Z" transform="translate(-411.718 -406.029)" fill="#2f2e41"/>
      <path id="Path_16998" data-name="Path 16998" d="M653.919,412.768a3.3,3.3,0,0,0,4.941,1.12l9.783,6.494.019-6.1-9.293-5.232a3.322,3.322,0,0,0-5.45,3.719Z" transform="translate(-392.067 -302.361)" fill="#ffb6b6"/>
      <path id="Path_16999" data-name="Path 16999" d="M668.874,418.061l4.564-5.193L692.023,423.9l24.636-2.256a8.331,8.331,0,0,1,9.055,9.064h0a8.34,8.34,0,0,1-9.063,7.527L688.9,435.668Z" transform="translate(-399.713 -304.834)" fill="#9456c8"/>
      <path id="Path_17000" data-name="Path 17000" d="M759.6,423.247l-.043-.054h0a18,18,0,0,0-17.421,9.026L740.05,435.9c-6.763,8.268-1.849,13.969-1.554,14.817l-2.347,10.823.526,3.622-.526,6.918,27.584,8.159c1.526-7.33.05-13.576-5.507-18.348l5.378-16.732A23.57,23.57,0,0,0,759.6,423.247Z" transform="translate(-433.264 -309.94)" fill="#9456c8"/>
      <path id="Path_17001" data-name="Path 17001" d="M729.558,569.572h-8.6a1.964,1.964,0,0,1-1.943-1.688,43.7,43.7,0,0,1,0-11.77,1.963,1.963,0,0,1,1.91-1.687,10.753,10.753,0,0,1,8.658,0,1.941,1.941,0,0,1,1.477.712,1.986,1.986,0,0,1,.41,1.655,26.422,26.422,0,0,0,0,10.411,1.986,1.986,0,0,1-.41,1.655,1.941,1.941,0,0,1-1.506.712Z" transform="translate(-424.524 -374.978)" fill="#6c63ff"/>
      <path id="Path_17002" data-name="Path 17002" d="M731,563.382h-7.234a.452.452,0,1,1,0-.9H731a.452.452,0,0,1,0,.9Z" transform="translate(-426.861 -379.447)" fill="#fff"/>
      <path id="Path_17003" data-name="Path 17003" d="M731,570.6h-7.234a.452.452,0,0,1,0-.9H731a.452.452,0,0,1,0,.9Z" transform="translate(-426.861 -383.046)" fill="#fff"/>
      <path id="Path_17004" data-name="Path 17004" d="M731,577.814h-7.234a.452.452,0,1,1,0-.9H731a.452.452,0,0,1,0,.9Z" transform="translate(-426.861 -386.645)" fill="#fff"/>
      <path id="Path_17005" data-name="Path 17005" d="M646.558,407.572h-8.6a1.963,1.963,0,0,1-1.943-1.688,43.7,43.7,0,0,1,0-11.77,1.964,1.964,0,0,1,1.91-1.688,10.753,10.753,0,0,1,8.658,0,1.941,1.941,0,0,1,1.477.712,1.986,1.986,0,0,1,.41,1.655,26.422,26.422,0,0,0,0,10.411,1.985,1.985,0,0,1-.41,1.655A1.941,1.941,0,0,1,646.558,407.572Z" transform="translate(-383.13 -294.186)" fill="#6c63ff"/>
      <path id="Path_17006" data-name="Path 17006" d="M648,401.382h-7.234a.452.452,0,0,1,0-.9H648a.452.452,0,0,1,0,.9Z" transform="translate(-385.467 -298.655)" fill="#fff"/>
      <path id="Path_17007" data-name="Path 17007" d="M648,408.6h-7.234a.452.452,0,0,1,0-.9H648a.452.452,0,0,1,0,.9Z" transform="translate(-385.467 -302.254)" fill="#fff"/>
      <path id="Path_17008" data-name="Path 17008" d="M648,415.814h-7.234a.452.452,0,0,1,0-.9H648a.452.452,0,0,1,0,.9Z" transform="translate(-385.467 -305.852)" fill="#fff"/>
      <path id="Path_17009" data-name="Path 17009" d="M345.558,451.572h-8.6a1.964,1.964,0,0,1-1.943-1.688,43.7,43.7,0,0,1,0-11.77,1.964,1.964,0,0,1,1.91-1.688,10.753,10.753,0,0,1,8.658,0,1.941,1.941,0,0,1,1.477.712,1.986,1.986,0,0,1,.41,1.655,26.422,26.422,0,0,0,0,10.411,1.985,1.985,0,0,1-.41,1.655A1.94,1.94,0,0,1,345.558,451.572Z" transform="translate(-233.016 -316.13)" fill="#6c63ff"/>
      <path id="Path_17010" data-name="Path 17010" d="M346.995,445.382h-7.234a.452.452,0,1,1,0-.9h7.234a.452.452,0,0,1,0,.9Z" transform="translate(-235.353 -320.598)" fill="#fff"/>
      <path id="Path_17011" data-name="Path 17011" d="M346.995,452.6h-7.234a.452.452,0,1,1,0-.9h7.234a.452.452,0,0,1,0,.9Z" transform="translate(-235.353 -324.197)" fill="#fff"/>
      <path id="Path_17012" data-name="Path 17012" d="M346.995,459.814h-7.234a.452.452,0,1,1,0-.9h7.234a.452.452,0,0,1,0,.9Z" transform="translate(-235.353 -327.796)" fill="#fff"/>
      <path id="Path_17013" data-name="Path 17013" d="M740.457,548.554a3.3,3.3,0,0,0,.825-5l5.9-10.151-6.092.343-4.671,9.587a3.322,3.322,0,0,0,4.036,5.22Z" transform="translate(-432.904 -364.947)" fill="#ffb6b6"/>
      <path id="Path_17014" data-name="Path 17014" d="M744.787,491.538l-5.454-4.248,9.911-19.206-3.714-24.459a8.331,8.331,0,0,1,8.51-9.577h0a8.34,8.34,0,0,1,8.052,8.6l-.918,27.849Z" transform="translate(-434.852 -315.394)" fill="#9456c8"/>
      <path id="Path_17015" data-name="Path 17015" d="M218.61,507a3.332,3.332,0,0,0-.463-5.088l5.3-26.347-5.858,1.881-4.246,25.485A3.35,3.35,0,0,0,218.61,507Z" transform="translate(-172.296 -336.1)" fill="#9e616a"/>
      <path id="Path_17016" data-name="Path 17016" d="M225.316,424.335l-3.635-2.744s-3.206-.227-3.774,5.555-1.734,17.05-1.734,17.05l-5.562,25.759,7.7,1.69,5.957-27.8,3.574-8.255Z" transform="translate(-171.17 -309.184)" fill="#9a58d2"/>
      <path id="Path_17017" data-name="Path 17017" d="M96.057,299.36l20.481-.341,1.707-14H96.057Z" transform="translate(-47.903 -142.146)" fill="#9e616a"/>
      <path id="Path_17018" data-name="Path 17018" d="M132.827,467.283h4.728l2.249-18.237h-6.978Z" transform="translate(-66.24 -223.947)" fill="#9e616a"/>
      <path id="Path_17019" data-name="Path 17019" d="M73.738,468.109l4.728-.034,2.121-18.252-6.149,1.411Z" transform="translate(-36.772 -224.335)" fill="#9e616a"/>
      <path id="Path_17020" data-name="Path 17020" d="M102.172,258.848l-1.071,2.785.214,2.786,20.967,7.262-1.04-12.19-2.357-2.786Z" transform="translate(-50.418 -128.024)" fill="#ffb6b6"/>
      <circle id="Ellipse_136" data-name="Ellipse 136" cx="7.489" cy="7.489" r="7.489" transform="translate(53.26 90.781)" fill="#9e616a"/>
      <path id="Path_17021" data-name="Path 17021" d="M261.485,677.682l7.474-.446v3.2l7.106,4.908a2,2,0,0,1-1.137,3.646h-8.9l-1.534-3.167-.6,3.167h-3.355Z" transform="translate(-196.071 -436.679)" fill="#2f2e41"/>
      <path id="Path_17022" data-name="Path 17022" d="M201.587,678.526l7.471-.5.022,3.2,7.14,4.858a2,2,0,0,1-1.111,3.654l-8.9.062-1.556-3.157-.577,3.172-3.355.023Z" transform="translate(-166.238 -437.074)" fill="#2f2e41"/>
      <path id="Path_17023" data-name="Path 17023" d="M201.665,576.761l3.443-27.519,4.1-29.015c-3-5.571,3.755-22.87,3.755-22.87l.953.046,21.58,4.071,0-.021c4.414,12.039,5.876,17.986,5.634,30.806l-.87,46.085h.273a1.707,1.707,0,0,1,0,3.414h-8.533a1.707,1.707,0,0,1,0-3.414h.22l-7.833-54.874-6.641,23.04-7.51,30.039c2.731-.683,2.307.9,2.307,1.795a1.707,1.707,0,0,1-1.707,1.707h-8.534a1.7,1.7,0,0,1-.629-3.29Z" transform="translate(-166.171 -346.97)" fill="#2f2e41"/>
      <path id="Path_17024" data-name="Path 17024" d="M221.91,457.571l.683-6.827a1.361,1.361,0,0,1,1.231-1.022c.284-3.252,1.481-17.282,1.553-17.894l0-.026.544-11.626a1.719,1.719,0,0,1,1.605-1.635l2.874-.188a.152.152,0,0,0,.147-.152,2.417,2.417,0,0,1,2.417-2.417h8.51a2.263,2.263,0,0,1,2.245,1.981.15.15,0,0,0,.153.135h0a4.043,4.043,0,0,1,4.067,3.353c1.163,6.769,2.179,21.436,1.026,29.977-.4,2.973-.152-.064,0,2.424.03.486.322-.364,0,0,.68.247.24.7,0,1.38v1.328c-.184.731-.3,9.679-1.026,9.494l-20.476-3.846C226.735,461.826,221.726,458.3,221.91,457.571Z" transform="translate(-176.802 -306.288)" fill="#9a58d2"/>
      <path id="Path_17025" data-name="Path 17025" d="M326.231,439.464a3.332,3.332,0,0,1-4.692,2.021l-8.607,7.855-1.143-6.045,8.354-6.513a3.35,3.35,0,0,1,6.088,2.682Z" transform="translate(-221.629 -315.938)" fill="#9e616a"/>
      <path id="Path_17026" data-name="Path 17026" d="M271.752,426.211s-3-6.783-6.792-5.434-1.833,7.929-1.833,7.929l14.242,21.461s20.542-13.177,18.044-13.271-3.245-4.636-3.245-4.636l-10.857,5.425-.367-1.931-.589.589-1.519-1.2Z" transform="translate(-197.108 -308.69)" fill="#9a58d2"/>
      <circle id="Ellipse_137" data-name="Ellipse 137" cx="10.455" cy="10.455" r="10.455" transform="translate(309.708 89.16)" fill="#ffb6b6"/>
      <path id="Path_17027" data-name="Path 17027" d="M791.829,396.785a9.067,9.067,0,0,1-4.984,3.509,10.426,10.426,0,0,1-2.481.421,9.381,9.381,0,0,0-.738-2.757,7.741,7.741,0,0,1-.383,2.75,9.218,9.218,0,0,1-3.627-.972A7.993,7.993,0,0,1,775.34,394c-.443-2.86.854-5.668,1.322-8.523s-.413-6.472-3.208-7.222c-2.129-.572-1.89-.325-3.66.989,1.841,2.722-4.958,12.7-7.74,11.826-1.573-.492-2.58-1.935-2.9-1.935-2.187,3.767,1.931,10.114-2.219,11.432l.342-.342c2.5-3.081-2.731-9.6-.226-12.684.7-.862,1.443-1.884,1.236-2.974-.2-1.036-1.841-1.585-2.322-.733a3.914,3.914,0,0,0-2.531-5.143c-1.881-.454-1.847.105-3.735.348a9.369,9.369,0,0,0-.686-2.367,7.681,7.681,0,0,1-.282,2.413,3.029,3.029,0,0,1-1.832-.662c-1.539-1.241-1.228-3.847.146-5.268s3.421-1.933,5.371-2.264c.567-3.948,11.459-4.36,12.9-.415.615-2.946,4.3-4.474,7.169-3.561s4.855,3.591,5.9,6.412,1.339,5.853,1.985,8.79,1.735,5.928,3.98,7.93,5.9,2.662,8.267.8A6.621,6.621,0,0,1,791.829,396.785Z" transform="translate(-438.112 -281.785)" fill="#2f2e41"/>
      <path id="Path_17028" data-name="Path 17028" d="M1013.618,470.791l-1.464,7.344c-.11.561-.226,1.133-.351,1.7a7.162,7.162,0,0,0-3.679.206,34.353,34.353,0,0,1,2.526,4.226,15.552,15.552,0,0,1-4.542,7.369,11.389,11.389,0,0,1-11,1.935l.065-.291c-2.436-4.727-1.113-10.687,1.915-15.054a29.271,29.271,0,0,1,5.439-5.75c2.045-1.7,4.256-3.233,6.446-4.742a3,3,0,0,1,4.647,3.058Z" transform="translate(-561.812 -331.932)" fill="#e4e4e4"/>
      <path id="a4b268fa-75d0-4ac1-9d87-14bdca948464-2189-2" data-name="a4b268fa-75d0-4ac1-9d87-14bdca948464-2189" d="M996.384,526.043c-.616-4.488-1.25-9.033-.818-13.569a21.341,21.341,0,0,1,4.115-11.189,18.613,18.613,0,0,1,4.776-4.328c.478-.3.917.456.442.755a17.7,17.7,0,0,0-7,8.445,28.33,28.33,0,0,0-1.5,12.218c.159,2.49.5,4.963.835,7.434a.451.451,0,0,1-.306.538.44.44,0,0,1-.538-.306Z" transform="translate(-562.569 -346.736)" fill="#f2f2f2"/>
      <path id="Path_17029" data-name="Path 17029" d="M600.609,701.153l-468.073.154a.6.6,0,0,1,0-1.194l468.073-.154a.6.6,0,0,1,0,1.194Z" transform="translate(-131.934 -448.012)" fill="#cacaca"/>
      <path id="Path_17030" data-name="Path 17030" d="M203,374.989c-1.149.551-2.434-.278-3.426-1.1l.355.306a11.663,11.663,0,0,0-2.972,6.573c-.4,2.412-.445,4.879-.95,7.274a10.31,10.31,0,0,1-3.509,6.262c-2.621,1.963-6.236,1.837-9.453,1.235l-.126-.024a19.638,19.638,0,0,0,1.034-7.785,17.856,17.856,0,0,1-4.287,7.026,40.989,40.989,0,0,1-6.225-2.268c-1.3-.6-2.7-1.417-3.062-2.8a3.735,3.735,0,0,1,1.6-3.687,20.573,20.573,0,0,1,3.783-1.941,5.726,5.726,0,0,0,3.055-2.82c1.18-3.05-2.182-6.549-.872-9.547.646-1.474,2.229-2.276,3.717-2.894a54.553,54.553,0,0,1,6.981-2.355,15.261,15.261,0,0,1,6.392-.617,6.349,6.349,0,0,1,4.974,3.673,6.884,6.884,0,0,1,3.451,1.992C204.278,372.561,204.212,374.407,203,374.989Z" transform="translate(-151.061 -281.306)" fill="#2f2e41"/>
      <path id="Path_17031" data-name="Path 17031" d="M242.347,375.353c-3.286-2.594-5.942-2.151-7.992-.54-.345-.383-1.811.671-2.307.52l-1.8,3.371a7.486,7.486,0,0,0-1.154,4.231c-1.7,4.766,2.331,7.985,7.1,9.684a9.094,9.094,0,0,0,5.9.085l.059-.812.361.666s4.357,8.972,5.387,9.375c-.625-1.621-2.272-9.323-2.732-10.929-.631-2.185-.2-5.655.171-7.783a12.06,12.06,0,0,0,.036-3.969l-.009-.057,1.019,2.058,2.287-1.438C247.8,377.269,247.78,374.223,242.347,375.353Z" transform="translate(-180.192 -285.204)" fill="#2f2e41"/>
    </g>
  </g>
</svg>
