<svg xmlns="http://www.w3.org/2000/svg" width="794.186" height="377.526" viewBox="0 0 794.186 377.526"><g id="Group_11290" data-name="Group 11290" transform="translate(-810.856 -3666.491)"><path id="Path_17032" fill="rgba(173,223,255,0.2)" d="M-1889.913-3611.34s64.974,10.962,116.643-11.393,128.609,7.305,177.3,0,89.592,31.83,158.672-30.048,88.867-70.333,40.18-162.821c-19.28-36.625-73.413-29-92.5-46.821-28.886-26.974-28.167-72.266-106.353-103.154-129.447-51.138-273.059-2.71-304.834,97.082S-1889.913-3611.34-1889.913-3611.34Z" data-name="Path 17032" transform="translate(2975.266 7652.669)"/><path id="Path_16424" fill="rgba(173,223,255,0.51)" fill-rule="evenodd" d="M105.782,57.44c-103.931,47.841-20.424,103.162,0,124s48.064,32.6,10.62,30.61c-14.079-.746-34.9-4.689-43.034,0-13.009,7.5-5.95,27.565,14.441,43.666,32.678,25.8-54.463,15.878-66.037,46.642s-3.4,50.116-3.4,50.116H456.8s18.381-9.427-6.127-31.757-57.187-56.565-19.061-48.627,111.651,6.45,119.139-45.154c2.784-19.2-8.588-39.192-29.4-58.58,1.091.061,1.686.093,1.686.093s-44.931-32.154-13.07-30.368,61.271-10.122-35.945-61.329S313.083,31.5,322.069,49.365c5.979,11.882,7.253,19.283-2.419,19.578-4.477.136-64.73-13.733-66.081-13.982C192.659,43.793,137.509,42.835,105.782,57.44Z" data-name="Path 16424" transform="translate(805.287 3650.833)"/><g id="Group_10954" data-name="Group 10954" transform="translate(869.787 3515.778)"><g id="Group_10949" data-name="Group 10949" transform="translate(99.909 261.399)"><rect id="Rectangle_1302" width="228.993" height="6.749" fill="#2c1021" data-name="Rectangle 1302" transform="translate(15.869 180.154)"/><rect id="Rectangle_1303" width="238.126" height="6.749" fill="#260b1e" data-name="Rectangle 1303" transform="translate(11.302 186.904)"/><path id="Path_16427" fill="#9456c8" fill-rule="evenodd" d="M277.575,306.315H177.5q-.556,25.5-1.115,51-.559,25.473-1.116,50.962h87.95q3.6-25.471,7.148-50.962Q273.953,331.839,277.575,306.315Z" data-name="Path 16427" transform="translate(-21.419 -228.199)"/><path id="Path_16428" fill="#312430" fill-rule="evenodd" d="M198.507,299.909h67.162c1.572,4.3,3.118,8.589,4.69,12.874H196.876Q197.692,306.355,198.507,299.909Z" data-name="Path 16428" transform="translate(-9.627 -231.695)"/><path id="Path_16429" fill="#641fed" fill-rule="evenodd" d="M204.818,310.6h13.21a1.03,1.03,0,0,1,.972,1.206c-.8,8.57-1.49,17.146-2.26,25.716a1.29,1.29,0,0,1-1.229,1.206H202.789a1.053,1.053,0,0,1-.972-1.206c.637-8.572,1.193-17.145,1.83-25.716A1.258,1.258,0,0,1,204.818,310.6Z" data-name="Path 16429" transform="translate(-6.933 -225.859)"/><path id="Path_16430" fill="#641fed" fill-rule="evenodd" d="M217.249,310.6h13.209a.989.989,0,0,1,.917,1.206c-.957,8.572-1.877,17.145-2.832,25.716a1.327,1.327,0,0,1-1.229,1.206H214.563a1.025,1.025,0,0,1-.944-1.206c.822-8.573,1.606-17.143,2.4-25.716A1.319,1.319,0,0,1,217.249,310.6Z" data-name="Path 16430" transform="translate(-0.493 -225.859)"/><path id="Path_16431" fill="#641fed" fill-rule="evenodd" d="M229.346,310.6h13.209a.975.975,0,0,1,.887,1.206c-1.167,8.568-2.235,17.148-3.4,25.716a1.362,1.362,0,0,1-1.23,1.206H226.058a.983.983,0,0,1-.915-1.206c1.008-8.568,1.937-17.145,2.945-25.716A1.336,1.336,0,0,1,229.346,310.6Z" data-name="Path 16431" transform="translate(5.795 -225.859)"/><path id="Path_16432" fill="#641fed" fill-rule="evenodd" d="M203.31,331.455h12.666a1.031,1.031,0,0,1,.972,1.206c-.77,8.572-1.574,17.142-2.316,25.715a1.241,1.241,0,0,1-1.116,1.207H201.281a1.04,1.04,0,0,1-.944-1.207c.584-8.571,1.247-17.141,1.83-25.715A1.229,1.229,0,0,1,203.31,331.455Z" data-name="Path 16432" transform="translate(-7.741 -214.477)"/><path id="Path_16433" fill="#641fed" fill-rule="evenodd" d="M215.221,331.455h12.724a1,1,0,0,1,.915,1.206q-1.433,12.86-2.888,25.715a1.3,1.3,0,0,1-1.144,1.207H212.562a1.009,1.009,0,0,1-.886-1.207q1.192-12.857,2.4-25.715A1.263,1.263,0,0,1,215.221,331.455Z" data-name="Path 16433" transform="translate(-1.553 -214.477)"/><path id="Path_16434" fill="#641fed" fill-rule="evenodd" d="M226.895,331.455h12.694a.978.978,0,0,1,.886,1.206c-1.115,8.576-2.317,17.14-3.46,25.715a1.314,1.314,0,0,1-1.142,1.207H223.634a.989.989,0,0,1-.915-1.207c.983-8.573,1.993-17.14,2.974-25.715A1.3,1.3,0,0,1,226.895,331.455Z" data-name="Path 16434" transform="translate(4.473 -214.477)"/><path id="Path_16435" fill="#641fed" fill-rule="evenodd" d="M201.82,351.969H214a1.011,1.011,0,0,1,.915,1.206c-.77,8.572-1.574,17.14-2.317,25.715a1.237,1.237,0,0,1-1.085,1.207H199.79a1.035,1.035,0,0,1-.915-1.207q.916-12.86,1.83-25.715A1.251,1.251,0,0,1,201.82,351.969Z" data-name="Path 16435" transform="translate(-8.538 -203.281)"/><path id="Path_16436" fill="#641fed" fill-rule="evenodd" d="M213.3,351.969h12.207c.544,0,.907.535.83,1.206q-1.472,12.853-2.86,25.715a1.27,1.27,0,0,1-1.115,1.207H210.61c-.543,0-.92-.541-.858-1.207.8-8.572,1.58-17.143,2.4-25.715A1.286,1.286,0,0,1,213.3,351.969Z" data-name="Path 16436" transform="translate(-2.603 -203.281)"/><path id="Path_16437" fill="#641fed" fill-rule="evenodd" d="M224.5,351.969h12.181c.572,0,.92.536.829,1.206-1.167,8.57-2.289,17.143-3.43,25.715a1.312,1.312,0,0,1-1.144,1.207H221.209c-.572,0-.931-.543-.856-1.207.955-8.573,1.965-17.143,2.973-25.715A1.3,1.3,0,0,1,224.5,351.969Z" data-name="Path 16437" transform="translate(3.181 -203.281)"/><path id="Path_16438" fill="#9456c8" fill-rule="evenodd" d="M78.647,306.315H178.72q.985,25.5,2,51,1.006,25.471,2,50.962H94.773Q90.741,382.8,86.71,357.313,82.678,331.842,78.647,306.315Z" data-name="Path 16438" transform="translate(-74.158 -228.199)"/><path id="Path_16439" fill="#312430" fill-rule="evenodd" d="M147.309,299.909H80.145c-1.486,4.3-2.943,8.589-4.4,12.874h73.424C148.568,308.5,147.937,304.211,147.309,299.909Z" data-name="Path 16439" transform="translate(-75.743 -231.695)"/><path id="Path_16440" fill="#2b42bc" fill-rule="evenodd" d="M121.427,310.6H108.246a1.03,1.03,0,0,0-1,1.206q1.394,12.855,2.745,25.716a1.3,1.3,0,0,0,1.2,1.206h12.724a1.032,1.032,0,0,0,.972-1.206c-.77-8.572-1.49-17.146-2.26-25.716A1.287,1.287,0,0,0,121.427,310.6Z" data-name="Path 16440" transform="translate(-58.553 -225.859)"/><path id="Path_16441" fill="#2b42bc" fill-rule="evenodd" d="M109.229,310.6H95.991a1,1,0,0,0-.915,1.206q1.63,12.857,3.316,25.716a1.336,1.336,0,0,0,1.2,1.206h12.753a1.007,1.007,0,0,0,.943-1.206c-.929-8.573-1.931-17.143-2.86-25.716A1.324,1.324,0,0,0,109.229,310.6Z" data-name="Path 16441" transform="translate(-65.197 -225.859)"/><path id="Path_16442" fill="#2b42bc" fill-rule="evenodd" d="M97.3,310.6H84.118a.972.972,0,0,0-.915,1.206c1.3,8.57,2.561,17.146,3.86,25.716a1.377,1.377,0,0,0,1.258,1.206h12.724a.977.977,0,0,0,.915-1.206q-1.711-12.853-3.4-25.716A1.346,1.346,0,0,0,97.3,310.6Z" data-name="Path 16442" transform="translate(-71.68 -225.859)"/><path id="Path_16443" fill="#2b42bc" fill-rule="evenodd" d="M123.1,331.455h-12.7a1.008,1.008,0,0,0-.943,1.206c.9,8.573,1.843,17.142,2.745,25.715a1.271,1.271,0,0,0,1.144,1.207h12.237a1.013,1.013,0,0,0,.915-1.207c-.744-8.571-1.516-17.143-2.258-25.715A1.261,1.261,0,0,0,123.1,331.455Z" data-name="Path 16443" transform="translate(-57.342 -214.477)"/><path id="Path_16444" fill="#2b42bc" fill-rule="evenodd" d="M111.367,331.455H98.673a.98.98,0,0,0-.915,1.206q1.672,12.857,3.316,25.715a1.336,1.336,0,0,0,1.173,1.207h12.266a.982.982,0,0,0,.856-1.207c-.954-8.57-1.874-17.145-2.83-25.715A1.3,1.3,0,0,0,111.367,331.455Z" data-name="Path 16444" transform="translate(-63.733 -214.477)"/><path id="Path_16445" fill="#2b42bc" fill-rule="evenodd" d="M99.9,331.455H87.233a.956.956,0,0,0-.886,1.206c1.274,8.573,2.589,17.146,3.888,25.715a1.349,1.349,0,0,0,1.2,1.207h12.237a.96.96,0,0,0,.858-1.207q-1.711-12.857-3.4-25.715A1.339,1.339,0,0,0,99.9,331.455Z" data-name="Path 16445" transform="translate(-69.964 -214.477)"/><path id="Path_16446" fill="#2b42bc" fill-rule="evenodd" d="M124.742,351.969H112.561a1,1,0,0,0-.914,1.206q1.354,12.86,2.744,25.715a1.27,1.27,0,0,0,1.116,1.207h11.751a1.01,1.01,0,0,0,.858-1.207q-1.155-12.857-2.26-25.715A1.257,1.257,0,0,0,124.742,351.969Z" data-name="Path 16446" transform="translate(-56.15 -203.281)"/><path id="Path_16447" fill="#2b42bc" fill-rule="evenodd" d="M113.46,351.969H101.279a.962.962,0,0,0-.858,1.206q1.632,12.857,3.288,25.715a1.308,1.308,0,0,0,1.144,1.207H116.6c.544,0,.9-.539.83-1.207-.955-8.57-1.877-17.143-2.83-25.715A1.274,1.274,0,0,0,113.46,351.969Z" data-name="Path 16447" transform="translate(-62.28 -203.281)"/><path id="Path_16448" fill="#2b42bc" fill-rule="evenodd" d="M102.464,351.969H90.283a.95.95,0,0,0-.829,1.206q1.95,12.857,3.888,25.715a1.325,1.325,0,0,0,1.144,1.207H106.21c.572,0,.918-.536.829-1.207q-1.711-12.853-3.4-25.715A1.313,1.313,0,0,0,102.464,351.969Z" data-name="Path 16448" transform="translate(-68.268 -203.281)"/><path id="Path_16449" fill="#9456c8" fill-rule="evenodd" d="M119.247,308.025h0c9.921-8.068,20-16.2,30.336-24.22,10.456-8.116,21.215-16.154,32.137-24.238,11.008,8.085,21.879,16.123,32.481,24.238,10.473,8.018,20.7,16.152,30.793,24.22h0q-2.057,31.442-4.031,62.882-2.015,31.442-4,62.884H129.482q-2.615-31.444-5.117-62.884-2.553-31.442-5.118-62.882Z" data-name="Path 16449" transform="translate(-51.998 -253.715)"/><path id="Path_16450" fill="#9456c8" fill-rule="evenodd" d="M119.247,308.025h0c9.921-8.068,20-16.2,30.336-24.22,10.456-8.116,21.215-16.154,32.137-24.238,11.008,8.085,21.879,16.123,32.481,24.238,10.473,8.018,20.7,16.152,30.793,24.22h0c-.229,3.277-.428,6.554-.657,9.833-9.95-8.069-20.068-16.2-30.422-24.221-10.462-8.108-21.216-16.171-32.11-24.255-10.779,8.085-21.448,16.148-31.766,24.255-10.21,8.026-20.185,16.152-29.992,24.221-.286-3.279-.515-6.556-.8-9.833Z" data-name="Path 16450" transform="translate(-51.998 -253.715)"/><path id="Path_16451" fill="#312430" fill-rule="evenodd" d="M112.421,312.576c11.495-9.453,23.2-18.987,35.255-28.378,12.217-9.518,24.874-18.944,37.741-28.417,12.923,9.454,25.66,18.871,38.027,28.361,12.223,9.382,24.074,18.89,35.741,28.327-2.288,2.268-4.576,4.518-6.834,6.769-10.578-8.626-21.389-17.319-32.423-25.877-11.212-8.7-22.759-17.25-34.425-25.894-11.608,8.661-23.036,17.243-34.11,25.948C140.479,302,129.805,310.7,119.369,319.348Q115.9,315.972,112.421,312.576Z" data-name="Path 16451" transform="translate(-55.724 -255.781)"/><path id="Path_16452" fill="#fff" fill-rule="evenodd" d="M162.965,270.645a9.177,9.177,0,0,0-9.092,9.491,9.53,9.53,0,0,0,9.264,9.507,9.506,9.506,0,0,0-.172-19Z" data-name="Path 16452" transform="translate(-33.1 -247.668)"/><path id="Path_16453" fill="#312430" fill-rule="evenodd" d="M170.082,279.983h-1a7.454,7.454,0,0,0,0-.81h1v.81Zm-7.148,6.448v1.045h-.771v-1.045Zm-.114-14.749v1.045h-.8c0-.343,0-.685-.028-1.045Zm-6.919,8.3h-1c-.029-.27,0-.539-.029-.81h1A7.876,7.876,0,0,0,155.9,279.983Z" data-name="Path 16453" transform="translate(-32.554 -247.102)"/><path id="Path_16454" fill="#312430" fill-rule="evenodd" d="M168.62,283.569a7.693,7.693,0,0,1-.859-.5c.114-.237.258-.468.372-.722.286.181.572.36.886.523-.142.235-.257.468-.4.7Zm-9.293,1.835a9.89,9.89,0,0,1-.487.9,6.882,6.882,0,0,1-.685-.414c.17-.288.314-.575.485-.883a6.808,6.808,0,0,0,.686.4Zm7.033-12.748c-.2.306-.343.594-.515.883-.257-.125-.458-.252-.714-.4.2-.289.342-.6.515-.9a7.912,7.912,0,0,0,.714.414ZM156.267,276.2c-.315-.162-.629-.343-.915-.522.142-.233.286-.467.428-.7a7.571,7.571,0,0,0,.858.5C156.5,275.735,156.382,275.97,156.267,276.2Z" data-name="Path 16454" transform="translate(-32.292 -246.797)"/><path id="Path_16455" fill="#312430" fill-rule="evenodd" d="M165.69,286.3c-.2-.287-.343-.594-.515-.9.229-.125.43-.252.686-.4a10.2,10.2,0,0,0,.515.883,7.387,7.387,0,0,0-.686.414Zm-9.006-3.24c-.286.179-.544.34-.83.5-.142-.235-.257-.468-.428-.7.286-.162.572-.342.886-.523.114.254.258.485.373.722Zm12.294-7.384c-.314.179-.629.36-.886.522a6.54,6.54,0,0,1-.4-.72c.286-.162.57-.325.858-.5.142.235.286.468.428.7Zm-10.521-2.143c-.173-.289-.343-.577-.515-.883.229-.127.428-.271.686-.414.17.306.343.612.513.9C158.886,273.286,158.685,273.413,158.457,273.538Z" data-name="Path 16455" transform="translate(-32.251 -246.797)"/><path id="Path_16456" fill="#312430" fill-rule="evenodd" d="M160.093,276.26a.806.806,0,0,0-.8.812.83.83,0,0,0,.8.827.807.807,0,0,0,.771-.827A.783.783,0,0,0,160.093,276.26Z" data-name="Path 16456" transform="translate(-30.141 -244.603)"/><path id="Path_16457" fill="#312430" fill-rule="evenodd" d="M159.961,273.61a.6.6,0,1,1,1.2,0c0,1.747.029,3.5.029,5.242a.72.72,0,0,1-.087.359c-.544,1.026-1.144,2.034-1.686,3.044a.59.59,0,0,1-.83.233.645.645,0,0,1-.172-.846c.515-.971,1.059-1.963,1.6-2.954C159.989,276.995,159.961,275.3,159.961,273.61Z" data-name="Path 16457" transform="translate(-30.668 -246.383)"/><path id="Path_16458" fill="#9456c8" fill-rule="evenodd" d="M123.279,340.483h114.6c-.087,1.549-.2,3.1-.286,4.627H123.652C123.536,343.581,123.393,342.032,123.279,340.483Z" data-name="Path 16458" transform="translate(-49.797 -209.55)"/><path id="Path_16459" fill="#3613c4" fill-rule="evenodd" d="M125.656,290.915h16.069a1.474,1.474,0,0,1,1.4,1.424q.756,15.1,1.544,30.2a1.3,1.3,0,0,1-1.229,1.422H127.972a1.464,1.464,0,0,1-1.371-1.422c-.742-10.068-1.431-20.136-2.173-30.2A1.256,1.256,0,0,1,125.656,290.915Z" data-name="Path 16459" transform="translate(-49.173 -236.605)"/><path id="Path_16460" fill="#3613c4" fill-rule="evenodd" d="M140.529,290.915H156.6a1.414,1.414,0,0,1,1.371,1.424c.24,10.065.45,20.131.716,30.2a1.318,1.318,0,0,1-1.258,1.422H141.959a1.446,1.446,0,0,1-1.345-1.422c-.478-10.066-.9-20.136-1.373-30.2A1.313,1.313,0,0,1,140.529,290.915Z" data-name="Path 16460" transform="translate(-41.086 -236.605)"/><path id="Path_16461" fill="#3613c4" fill-rule="evenodd" d="M155.012,290.915H171.08a1.38,1.38,0,0,1,1.343,1.424c0,10.065-.085,20.131-.085,30.2a1.35,1.35,0,0,1-1.258,1.422h-15.5a1.384,1.384,0,0,1-1.288-1.422c-.212-10.068-.36-20.134-.572-30.2A1.326,1.326,0,0,1,155.012,290.915Z" data-name="Path 16461" transform="translate(-33.18 -236.605)"/><path id="Path_16462" fill="#3613c4" fill-rule="evenodd" d="M169.584,290.915h16.041a1.345,1.345,0,0,1,1.315,1.424q-.438,15.1-.83,30.2a1.433,1.433,0,0,1-1.343,1.422H169.3a1.328,1.328,0,0,1-1.257-1.422q.079-15.1.17-30.2A1.389,1.389,0,0,1,169.584,290.915Z" data-name="Path 16462" transform="translate(-25.366 -236.605)"/><path id="Path_16463" fill="#2b42bc" fill-rule="evenodd" d="M185.073,290.915h16.069a1.3,1.3,0,0,1,1.258,1.424c-.556,10.063-1.128,20.131-1.659,30.2a1.474,1.474,0,0,1-1.373,1.422H183.93a1.316,1.316,0,0,1-1.258-1.422c.318-10.068.711-20.133,1.03-30.2A1.442,1.442,0,0,1,185.073,290.915Z" data-name="Path 16463" transform="translate(-17.381 -236.605)"/><path id="Path_16464" fill="#1331c4" fill-rule="evenodd" d="M127.395,315.938h15.353a1.485,1.485,0,0,1,1.373,1.422q.756,15.1,1.515,30.2a1.261,1.261,0,0,1-1.172,1.422H129.738a1.457,1.457,0,0,1-1.343-1.422q-1.074-15.1-2.173-30.2A1.245,1.245,0,0,1,127.395,315.938Z" data-name="Path 16464" transform="translate(-48.194 -222.947)"/><path id="Path_16465" fill="#3613c4" fill-rule="evenodd" d="M141.59,315.938h15.325a1.4,1.4,0,0,1,1.343,1.422q.359,15.1.716,30.2a1.276,1.276,0,0,1-1.2,1.422H143.047a1.418,1.418,0,0,1-1.286-1.422q-.677-15.1-1.373-30.2A1.277,1.277,0,0,1,141.59,315.938Z" data-name="Path 16465" transform="translate(-40.46 -222.947)"/><path id="Path_16466" fill="#1331c4" fill-rule="evenodd" d="M155.434,315.938h15.355a1.363,1.363,0,0,1,1.288,1.422q-.042,15.1-.057,30.2a1.33,1.33,0,0,1-1.23,1.422H156.035a1.356,1.356,0,0,1-1.229-1.422q-.278-15.1-.6-30.2A1.309,1.309,0,0,1,155.434,315.938Z" data-name="Path 16466" transform="translate(-32.918 -222.947)"/><path id="Path_16467" fill="#1331c4" fill-rule="evenodd" d="M169.361,315.938h15.325a1.328,1.328,0,0,1,1.258,1.422c-.292,10.066-.538,20.131-.83,30.2a1.383,1.383,0,0,1-1.257,1.422H169.1a1.323,1.323,0,0,1-1.229-1.422c.08-10.068.121-20.133.2-30.2A1.37,1.37,0,0,1,169.361,315.938Z" data-name="Path 16467" transform="translate(-25.457 -222.947)"/><path id="Path_16468" fill="#1331c4" fill-rule="evenodd" d="M184.183,315.938H199.51a1.31,1.31,0,0,1,1.229,1.422q-.837,15.1-1.659,30.2a1.445,1.445,0,0,1-1.314,1.422H183.04a1.306,1.306,0,0,1-1.2-1.422c.345-10.068.655-20.133,1-30.2A1.429,1.429,0,0,1,184.183,315.938Z" data-name="Path 16468" transform="translate(-17.835 -222.947)"/><path id="Path_16469" fill="#8a92c1" fill-rule="evenodd" d="M216.362,291.836h7.519c-.142,3.007-.286,6.013-.4,9h-7.463c.116-2.99.2-6,.345-9Zm-91.067,0h7.52c.172,3.007.343,6.013.543,9h-7.434c-.229-2.99-.428-6-.629-9Zm8.521,0h7.52c.142,3.007.284,6.013.458,9h-7.435c-.172-2.99-.371-6-.543-9Zm8.035,10.065c.17,3.368.343,6.717.513,10.066h-7.318c-.2-3.35-.4-6.7-.6-10.066Zm.572,11.128c.142,3.008.314,6.015.456,9.006h-7.233c-.172-2.991-.343-6-.543-9.006Zm-7.749,9.006h-7.262c-.2-2.991-.43-6-.659-9.006H134.1c.2,3.008.371,6.015.572,9.006ZM126.7,311.967c-.227-3.35-.458-6.7-.685-10.066h7.432c.2,3.368.4,6.717.6,10.066Zm21.5-20.131h7.548c.085,3.007.2,6.013.314,9H148.6c-.144-2.99-.286-6-.4-9Zm8.548,0h7.491c.057,3.007.144,6.013.229,9h-7.434c-.085-2.99-.2-6-.286-9ZM164.5,301.9c.085,3.368.142,6.717.229,10.066H157.4c-.113-3.35-.2-6.7-.314-10.066Zm.257,11.128q.13,4.512.258,9.006h-7.234c-.114-2.991-.2-6-.314-9.006Zm-7.949,9.006h-7.29c-.114-2.991-.258-6-.4-9.006h7.377c.114,3.008.2,6.015.314,9.006Zm-7.72-10.068c-.172-3.35-.286-6.7-.428-10.066h7.434c.144,3.368.229,6.717.342,10.066Zm-21.073,18.548h7.177c.2,3.007.373,6.015.543,9H128.64c-.2-2.988-.428-6-.629-9Zm8.15,0h7.176c.144,3.007.286,6.015.458,9H136.7c-.172-2.988-.343-6-.543-9Zm7.69,10.066q.257,5.05.515,10.065h-6.976c-.2-3.348-.4-6.7-.629-10.065Zm.572,11.128c.144,3.007.315,6.013.485,9h-6.918c-.173-2.991-.373-6-.544-9Zm-7.347,9h-6.948c-.2-2.991-.428-6-.629-9H136.5c.172,3.007.371,6.013.572,9Zm-7.635-10.068c-.257-3.348-.485-6.7-.744-10.065h7.12c.2,3.367.428,6.717.629,10.065Zm20.473-20.131h7.205c.085,3.007.2,6.015.314,9h-7.148c-.144-2.988-.258-6-.371-9Zm8.148,0h7.148c.087,3.007.144,6.015.229,9h-7.091c-.085-2.988-.172-6-.286-9Zm7.406,10.066q.128,5.05.257,10.065h-6.976c-.114-3.348-.229-6.7-.373-10.065Zm.286,11.128c.085,3.007.142,6.013.229,9h-6.891c-.114-2.991-.2-6-.314-9Zm-7.578,9h-6.948c-.142-2.991-.284-6-.4-9h7.033c.087,3.007.2,6.013.315,9Zm-7.406-10.068q-.213-5.022-.428-10.065h7.12q.172,5.05.343,10.065Zm20.473-20.131h7.205c.028,3.007.057,6.015.085,9h-7.118c-.057-2.988-.114-6-.172-9Zm8.177,0H186.6c0,3.007-.029,6.015,0,9h-7.12c-.029-2.988-.029-6-.057-9Zm7.148,10.066c.029,3.367.029,6.717.029,10.065h-7.035q-.042-5.022-.085-10.065Zm0,11.128v9h-6.919c-.029-2.991-.057-6-.087-9Zm-7.834,9h-6.948c-.057-2.991-.114-6-.172-9h7.035c.028,3.007.057,6.013.085,9Zm-7.12-10.068c-.056-3.348-.113-6.7-.2-10.065h7.118c.057,3.367.087,6.717.116,10.065Zm-1.057-58.81H178.1c0,3.007.029,6.013.057,9H170.7c-.056-2.99-.113-6-.142-9Zm8.521,0h7.548c-.028,3.007-.028,6.013-.028,9h-7.434c-.029-2.99-.059-6-.087-9ZM186.6,301.9v10.066h-7.349c-.028-3.35-.057-6.7-.085-10.066Zm0,11.128v9.006h-7.264q-.042-4.487-.085-9.006Zm-8.207,9.006H171.1q-.086-4.487-.173-9.006h7.349c.029,3.008.087,6.015.114,9.006ZM170.9,311.967c-.057-3.35-.114-6.7-.172-10.066h7.463c.028,3.368.057,6.717.085,10.066Zm21.988-20.131h7.519c-.056,3.007-.085,6.013-.142,9H192.83c0-2.99.028-6,.057-9Zm8.548,0h7.491c-.085,3.007-.172,6.013-.229,9h-7.434c.059-2.99.114-6,.172-9ZM208.67,301.9c-.087,3.368-.2,6.717-.286,10.066h-7.319c.057-3.35.142-6.7.2-10.066Zm-.315,11.128c-.057,3.008-.142,6.015-.2,9.006h-7.234c.029-2.991.087-6,.144-9.006Zm-8.434,9.006h-7.262c.029-2.991.057-6,.057-9.006h7.347c-.057,3.008-.085,6.015-.142,9.006Zm-7.205-10.068c.028-3.35.085-6.7.114-10.066h7.434c-.057,3.368-.144,6.717-.2,10.066Zm-.114,18.548h7.177c-.029,3.007-.116,6.015-.144,9h-7.12c.029-2.988.057-6,.087-9Zm8.148,0h7.177c-.087,3.007-.172,6.015-.258,9h-7.061c.028-2.988.114-6,.142-9Zm6.891,10.066q-.128,5.05-.258,10.065h-6.976q.086-5.022.172-10.065Zm-.286,11.128c-.087,3.007-.172,6.013-.229,9h-6.891c.029-2.991.087-6,.144-9Zm-8.063,9h-6.919c0-2.991.028-6,.057-9h7c-.056,3.007-.113,6.013-.142,9Zm-6.862-10.068q.042-5.022.085-10.065h7.091c-.056,3.367-.114,6.717-.142,10.065Zm22.558-20.131h7.205c-.142,3.007-.284,6.015-.4,9h-7.12c.114-2.988.229-6,.314-9Zm8.177,0h7.148c-.142,3.007-.314,6.015-.485,9h-7.061c.114-2.988.257-6,.4-9Zm6.605,10.066q-.255,5.05-.515,10.065h-7c.142-3.348.314-6.7.428-10.065Zm-.6,11.128c-.144,3.007-.315,6.013-.458,9h-6.919c.142-2.991.286-6,.4-9Zm-8.292,9H213.93c.114-2.991.229-6,.315-9h7c-.114,3.007-.257,6.013-.371,9ZM214.3,350.646q.172-5.022.343-10.065h7.091q-.216,5.05-.43,10.065Zm10.578-58.81h7.491c-.172,3.007-.314,6.013-.485,9H224.48c.144-2.99.258-6,.4-9Zm6.976,10.065c-.2,3.368-.4,6.717-.572,10.066h-7.319c.144-3.35.315-6.7.458-10.066Zm-.6,11.128c-.172,3.008-.343,6.015-.487,9.006h-7.233c.142-2.991.258-6,.4-9.006Zm-8.692,9.006H215.3c.087-2.991.2-6,.286-9.006h7.349c-.144,3.008-.258,6.015-.373,9.006Zm-6.947-10.068c.114-3.35.257-6.7.371-10.066h7.434c-.142,3.368-.315,6.717-.458,10.066Z" data-name="Path 16469" transform="translate(-48.697 -236.102)"/><path id="Path_16470" fill="#99d9e8" fill-rule="evenodd" d="M179.973,293l-4.525,7.837h-2.928l-.008-.829,4.718-8.174h2.752L179.973,293Zm-5.138,8.9-2.282,3.951-.032-3.951Zm-3.24,5.611-2.572,4.455h-3.415L171.42,301.9h.128l.046,5.611Zm-3.186,5.517-3.993,6.916-.108-5.726.686-1.19Zm-10.094,17.486-5.2,9h-1.411q-.046-1.649-.1-3.3l3.291-5.7ZM152.5,340.582l-.717,1.243q-.025-.621-.053-1.243Zm-1.591,2.755-4.22,7.31h-2.564l-.059-1.373,5.019-8.692h1.731l.093,2.755Zm-4.834,8.374-1.767,3.061q-.067-1.53-.127-3.061Zm-8.613,9,.73-1.265.071,1.265Zm12.237-21.2,1.022-1.768q.032.886.066,1.768Zm52.272-35.625-4.661,8.074h-2.891c0-.312.011-.623.015-.937l5.271-9.13h2.319q-.025,1-.054,1.993Zm-5.274,9.136-2.351,4.075q.032-2.036.074-4.075Zm-3.37,5.835-1.829,3.17h-3.415l5.2-9.006h.136c-.036,1.946-.062,3.894-.091,5.835ZM186.6,330.515l-.655,1.136.011-1.136Zm-6.667,11.549-4.956,8.582H172.92l-.019-2.311,4.477-7.754h2.548c0,.495.008.988.011,1.482Zm-5.57,9.646-1.422,2.466-.025-2.466Zm-2.323,4.024-2.874,4.981h-3.415l5.2-9h1.054l.037,4.024Zm-.478-5.087.434-.75.006.75Zm6.426-11.128,1.949-3.378c0,1.128,0,2.255.014,3.378Zm22.331-38.679,1.8-3.121q-.039,1.563-.07,3.121Zm-2-9-3.645,6.312q.06-3.149.119-6.312Zm-4.681,8.106-.518.9h-6.933q0-2.882.028-5.783l1.858-3.22h5.69c-.051,2.707-.079,5.412-.125,8.106Zm-1.132,1.959-5.812,10.066h-.621c.028-3.35.085-6.7.114-10.066Zm-6.426,11.128-.008.015v-.015Zm-10.094,17.486-3.175,5.5c-.009-1.832-.017-3.667-.034-5.5Zm-4.113,7.123-1.087,1.88h-6.015q-.067-3.531-.136-7.089l1.107-1.914h6.063l.068,7.123Zm-1.7,2.943-5.22,9.041c-.051-3.008-.105-6.018-.182-9.041ZM159.3,359.409l-.754,1.3h-6.1c-.085-2.249-.156-4.508-.233-6.769l1.289-2.235h5.607c.073,2.571.125,5.141.193,7.7Zm-11,1.3,3.031-5.251c.06,1.753.128,3.5.195,5.251Zm5.811-10.068,4.753-8.232q.1,4.127.21,8.232Zm16.52-28.611,1.088-1.886q.014.944.022,1.886Zm2.02-3.5,3.178-5.506h4.118v9.006h-7.264l-.032-3.5Zm3.792-6.568,3.5-6.069v6.069Z" data-name="Path 16470" transform="translate(-42.054 -236.102)"/><path id="Path_16471" fill="#8c93ef" fill-rule="evenodd" d="M176.038,328.449c6.281.053,43.941,26.455,43.941,26.467-.473,13.651-.923,25.988-1.348,41.278H133.366c-.762-15.147-1.36-27.2-2.008-40.5C131.346,355.4,166.689,328.369,176.038,328.449Z" data-name="Path 16471" transform="translate(-45.388 -216.118)"/><path id="Path_16472" fill="#8c93ef" fill-rule="evenodd" d="M173.39,328.449c4.5.037,25.119,13.608,36.441,21.3l-1.883,46.445H137.675l-1.465-46.252C147.116,341.932,166.769,328.393,173.39,328.449Z" data-name="Path 16472" transform="translate(-42.74 -216.118)"/><path id="Path_16473" fill="#312430" fill-rule="evenodd" d="M127.02,358.229l50.738-34.03,50.978,34.3-2.884,6.067-48.014-31-47.39,31.291Z" data-name="Path 16473" transform="translate(-47.755 -218.438)"/><path id="Path_16474" fill="#fff" fill-rule="evenodd" d="M162,336.646a6.387,6.387,0,0,0-6.327,6.605,6.631,6.631,0,0,0,6.446,6.614,6.615,6.615,0,0,0-.119-13.22Z" data-name="Path 16474" transform="translate(-32.116 -211.644)"/><path id="Path_16475" fill="#312430" fill-rule="evenodd" d="M166.954,343.143h-.7a5.256,5.256,0,0,0,0-.563h.7v.563Zm-4.973,4.486v.728h-.538v-.728Zm-.08-10.261v.725h-.556c0-.237,0-.475-.02-.725Zm-4.815,5.775h-.7c-.02-.187,0-.374-.02-.563h.7A5.255,5.255,0,0,0,157.086,343.143Z" data-name="Path 16475" transform="translate(-31.736 -211.25)"/><path id="Path_16476" fill="#312430" fill-rule="evenodd" d="M165.937,345.64a5.016,5.016,0,0,1-.6-.352c.079-.162.178-.325.258-.5.2.125.4.25.617.365-.1.162-.179.325-.278.488Zm-6.466,1.277c-.1.213-.219.425-.339.626a4.648,4.648,0,0,1-.478-.288c.119-.2.218-.4.339-.614a4.869,4.869,0,0,0,.478.275Zm4.894-8.871c-.139.213-.24.414-.359.614-.179-.087-.317-.175-.5-.275a6.937,6.937,0,0,0,.359-.628,4.993,4.993,0,0,0,.5.289Zm-7.023,2.469c-.22-.113-.439-.238-.637-.363l.3-.488a5.2,5.2,0,0,0,.6.349C157.5,340.189,157.421,340.351,157.342,340.514Z" data-name="Path 16476" transform="translate(-31.553 -211.038)"/><path id="Path_16477" fill="#312430" fill-rule="evenodd" d="M163.9,347.543c-.139-.2-.238-.413-.359-.626.159-.088.3-.175.478-.275a6.929,6.929,0,0,0,.359.614,5.386,5.386,0,0,0-.478.288Zm-6.268-2.255c-.2.125-.377.24-.577.352-.1-.164-.179-.326-.3-.488.2-.114.4-.24.617-.365.08.176.179.339.258.5Zm8.556-5.137c-.219.125-.437.25-.617.363a4.384,4.384,0,0,1-.278-.5c.2-.111.4-.224.6-.349.1.162.2.326.3.488Zm-7.321-1.492c-.121-.2-.24-.4-.359-.614.159-.088.3-.187.478-.289.119.215.238.428.359.628C159.163,338.484,159.025,338.572,158.866,338.659Z" data-name="Path 16477" transform="translate(-31.525 -211.038)"/><path id="Path_16478" fill="#312430" fill-rule="evenodd" d="M160,340.553a.562.562,0,0,0-.558.566.581.581,0,0,0,.558.577.564.564,0,0,0,.536-.577A.546.546,0,0,0,160,340.553Z" data-name="Path 16478" transform="translate(-30.057 -209.512)"/><path id="Path_16479" fill="#312430" fill-rule="evenodd" d="M159.913,338.709a.417.417,0,1,1,.835,0c0,1.215.02,2.43.02,3.648a.5.5,0,0,1-.06.25c-.377.714-.795,1.416-1.173,2.116a.41.41,0,0,1-.577.162.449.449,0,0,1-.121-.589c.359-.676.737-1.363,1.115-2.054C159.931,341.065,159.913,339.887,159.913,338.709Z" data-name="Path 16479" transform="translate(-30.423 -210.75)"/><path id="Path_16480" fill="#341fed" fill-rule="evenodd" d="M140.8,347.47h16.067a1.415,1.415,0,0,1,1.373,1.422c.238,10.066.45,20.134.716,30.2a1.317,1.317,0,0,1-1.258,1.422H142.229a1.442,1.442,0,0,1-1.345-1.422c-.478-10.065-.9-20.133-1.373-30.2A1.311,1.311,0,0,1,140.8,347.47Z" data-name="Path 16480" transform="translate(-40.938 -205.736)"/><path id="Path_16481" fill="#341fed" fill-rule="evenodd" d="M155.28,347.47h16.069a1.38,1.38,0,0,1,1.345,1.422c0,10.068-.087,20.134-.087,30.2a1.349,1.349,0,0,1-1.258,1.422h-15.5a1.382,1.382,0,0,1-1.286-1.422c-.212-10.065-.36-20.133-.572-30.2A1.323,1.323,0,0,1,155.28,347.47Z" data-name="Path 16481" transform="translate(-33.033 -205.736)"/><path id="Path_16482" fill="#341fed" fill-rule="evenodd" d="M169.854,347.47H185.9a1.341,1.341,0,0,1,1.314,1.422q-.436,15.1-.829,30.2a1.433,1.433,0,0,1-1.343,1.422H169.568a1.329,1.329,0,0,1-1.258-1.422q.081-15.1.172-30.2A1.388,1.388,0,0,1,169.854,347.47Z" data-name="Path 16482" transform="translate(-25.219 -205.736)"/><path id="Path_16483" fill="#8a92c1" fill-rule="evenodd" d="M185.071,348.39h7.519c-.057,3.01-.085,6.016-.144,9h-7.434c0-2.988.029-5.995.059-9Zm-22.331,0h7.548c0,3.01.028,6.016.057,9h-7.463c-.057-2.988-.114-5.995-.142-9Zm8.519,0h7.55c-.029,3.01-.029,6.016-.029,9h-7.434c-.028-2.988-.057-5.995-.087-9Zm7.52,10.068v10.066h-7.347c-.029-3.35-.057-6.7-.087-10.066Zm0,11.128v9h-7.262c-.028-2.988-.057-6-.085-9Zm-8.205,9h-7.292c-.057-2.988-.114-6-.172-9h7.349c.028,3.007.087,6.015.114,9Zm-7.493-10.065q-.086-5.025-.17-10.066h7.462c.029,3.367.057,6.717.087,10.066Zm-22.7-20.134h7.55c.085,3.01.2,6.016.314,9h-7.462c-.144-2.988-.288-5.995-.4-9Zm8.55,0h7.491c.057,3.01.144,6.016.229,9h-7.434c-.087-2.988-.2-5.995-.286-9Zm7.748,10.068c.087,3.367.144,6.717.229,10.066h-7.319c-.114-3.35-.2-6.7-.314-10.066Zm.258,11.128c.087,3.007.172,6.015.257,9h-7.233c-.114-2.988-.2-6-.315-9Zm-7.949,9H141.7c-.114-2.988-.258-6-.4-9h7.375c.114,3.007.2,6.015.315,9Zm-7.72-10.065c-.172-3.35-.286-6.7-.43-10.066h7.434c.144,3.367.229,6.717.345,10.066Zm52.352-20.134h7.491c-.087,3.01-.172,6.016-.229,9h-7.434c.057-2.988.114-5.995.172-9Zm7.233,10.068c-.085,3.367-.2,6.717-.286,10.066h-7.318c.056-3.35.142-6.7.2-10.066Zm-.314,11.128c-.057,3.007-.142,6.015-.2,9H193.1c.028-2.988.085-6,.144-9Zm-8.434,9h-7.262c.028-2.988.057-6,.057-9h7.347c-.057,3.007-.085,6.015-.142,9ZM184.9,368.524c.028-3.35.085-6.7.113-10.066h7.434c-.057,3.367-.142,6.717-.2,10.066Z" data-name="Path 16483" transform="translate(-40.463 -205.234)"/><path id="Path_16484" fill="#99d9e8" fill-rule="evenodd" d="M189.118,348.39h1.826q-.026,1.417-.046,2.835l-3.563,6.169H183.92l5.2-9Zm-24.875,0-3.075,5.328c-.031-1.775-.059-3.551-.074-5.328Zm-9.083,15.735-2.54,4.4h-3.415l5.812-10.066h.014c.049,1.892.088,3.781.128,5.667Zm-3.153,5.461-3.781,6.55c-.063-1.858-.124-3.721-.192-5.583l.558-.966Zm-4.7,8.137-.5.866H143.4l3.724-6.451c.063,1.864.122,3.728.19,5.585Zm45.224-29.333-.578,1,.019-1Zm-5.812,10.068-3.422,5.928c.026-1.972.053-3.948.068-5.928Zm-9.587,16.605-2.036,3.526h-3.415l5.2-9h.252v5.477Zm0-18.391-.417.722H169.7l-.053-5.5,2.023-3.506h5.492c-.026,2.765-.029,5.531-.029,8.282Zm-1.03,1.785-5.812,10.066h-.505c-.029-3.35-.057-6.7-.087-10.066Zm-7.275,12.6-4.35,7.534h-2.843c-.057-2.988-.114-6-.172-9h7.349q.007.735.015,1.469Zm-14.594,7.534,1.249-2.163.062,2.163Zm7.162-12.4,4.463-7.729h2.868c.029,3.367.057,6.717.087,10.066h-7.378l-.039-2.337Zm5.075-8.793,2.193-3.8q.014,1.9.034,3.8Z" data-name="Path 16484" transform="translate(-38.818 -205.234)"/><rect id="Rectangle_1304" width="109.352" height="6.749" fill="#312430" data-name="Rectangle 1304" transform="translate(75.69 180.154)"/><rect id="Rectangle_1305" width="122.102" height="6.749" fill="#281928" data-name="Rectangle 1305" transform="translate(69.314 186.904)"/><path id="Path_16489" fill="#8a92c1" fill-rule="evenodd" d="M140,375.328h-5.718c.229,2.558.485,5.114.744,7.672h5.661c-.229-2.558-.487-5.114-.686-7.672ZM97.052,311.382H90.906c.371,2.558.714,5.115,1.087,7.672h6.089c-.342-2.557-.659-5.114-1.03-7.672Zm-6.976,0c.373,2.558.714,5.115,1.087,7.672H85.044c-.4-2.557-.744-5.114-1.144-7.672Zm-4.889,8.573c.43,2.863.858,5.726,1.258,8.572h6.061c-.4-2.846-.8-5.709-1.229-8.572Zm1.4,9.471c.4,2.557.771,5.115,1.142,7.672h5.976c-.343-2.557-.714-5.115-1.087-7.672Zm7.947,7.672c-.371-2.557-.714-5.115-1.085-7.672h6.032l1.03,7.672Zm4.832-8.571H93.306c-.4-2.846-.771-5.709-1.2-8.572H98.2c.43,2.863.8,5.726,1.172,8.572Zm16.07-17.145h-6.176c.314,2.558.6,5.115.914,7.672h6.118c-.286-2.557-.543-5.114-.856-7.672Zm-7.006,0c.315,2.558.6,5.115.915,7.672h-6.12c-.342-2.557-.628-5.114-.972-7.672Zm-5.089,8.573c.371,2.863.742,5.726,1.087,8.572h6.061c-.343-2.846-.686-5.709-1.03-8.572Zm1.2,9.471c.345,2.557.686,5.115.972,7.672h6.005q-.473-3.835-.944-7.672Zm7.777,7.672c-.284-2.557-.6-5.115-.915-7.672h6.063l.858,7.672Zm5.033-8.571h-6.061c-.345-2.846-.659-5.709-1.03-8.572h6.148c.314,2.863.628,5.726.943,8.572Zm16.9-17.145h-6.176c.258,2.558.487,5.115.744,7.672h6.148c-.258-2.557-.458-5.114-.716-7.672Zm-7.006,0H121.1c.286,2.558.515,5.115.8,7.672h6.09c-.257-2.557-.485-5.114-.744-7.672Zm-5.26,8.573c.315,2.863.629,5.726.915,8.572H128.9c-.258-2.846-.544-5.709-.83-8.572Zm1,9.471c.286,2.557.543,5.115.8,7.672h5.975l-.771-7.672Zm7.576,7.672h6.005q-.345-3.835-.688-7.672h-6.061c.257,2.557.515,5.115.744,7.672Zm5.233-8.571h-6.061c-.286-2.846-.544-5.709-.829-8.572h6.118c.286,2.863.515,5.726.771,8.572Zm1.343,15.09h-5.947c.229,2.557.487,5.115.744,7.672h5.919c-.258-2.557-.487-5.115-.716-7.672Zm-6.747,0H124.5c.258,2.557.515,5.115.8,7.672h5.862q-.387-3.835-.773-7.672Zm-5,8.572c.286,2.863.6,5.727.915,8.572h5.775c-.284-2.844-.572-5.709-.856-8.572Zm1,9.473c.257,2.557.543,5.112.8,7.67h5.719c-.229-2.558-.485-5.114-.744-7.67Zm7.292,7.67h5.775c-.23-2.558-.458-5.114-.716-7.67h-5.8c.258,2.557.515,5.112.745,7.67Zm5-8.571H132.85c-.258-2.844-.572-5.709-.83-8.572h5.891c.257,2.863.515,5.727.771,8.572Zm-19.615-17.143h-5.975c.314,2.557.6,5.115.915,7.672h5.919q-.473-3.835-.859-7.672Zm-6.775,0q.473,3.835.943,7.672h-5.89c-.315-2.557-.657-5.115-.972-7.672Zm-4.832,8.572c.373,2.863.744,5.727,1.087,8.572h5.8c-.314-2.844-.686-5.709-1.03-8.572Zm1.2,9.473c.343,2.557.686,5.112,1,7.67h5.719c-.286-2.558-.6-5.114-.915-7.67Zm7.491,7.67c-.286-2.558-.6-5.114-.915-7.67h5.832c.286,2.557.6,5.112.858,7.67Zm4.832-8.571h-5.832c-.343-2.844-.686-5.709-1.03-8.572h5.89c.314,2.863.658,5.727.972,8.572ZM101.4,343.617H95.452c.343,2.557.714,5.115,1.085,7.672h5.891q-.557-3.835-1.03-7.672Zm-6.749,0q.559,3.835,1.116,7.672h-5.89c-.4-2.557-.771-5.115-1.144-7.672Zm-4.631,8.572c.4,2.863.858,5.727,1.258,8.572h5.8c-.371-2.844-.8-5.709-1.2-8.572Zm1.4,9.473c.4,2.557.771,5.112,1.142,7.67H98.31c-.343-2.558-.714-5.114-1.085-7.67Zm7.663,7.67c-.343-2.558-.716-5.114-1.087-7.67h5.8q.515,3.835,1.03,7.67Zm4.6-8.571h-5.8c-.4-2.844-.83-5.709-1.2-8.572h5.862c.371,2.863.771,5.727,1.142,8.572Zm1.945,14.568h-5.69c.345,2.558.716,5.114,1.087,7.672h5.633q-.515-3.838-1.03-7.672Zm-6.461,0q.559,3.837,1.116,7.672H94.622c-.371-2.558-.771-5.114-1.144-7.672Zm-4.4,8.572c.428,2.864.829,5.727,1.286,8.572h5.576c-.43-2.844-.83-5.707-1.23-8.572Zm1.4,9.471c.4,2.558.771,5.115,1.144,7.672h5.519c-.373-2.557-.716-5.114-1.088-7.672Zm7.4,7.672c-.371-2.557-.714-5.114-1.085-7.672h5.574c.343,2.558.659,5.115,1.03,7.672Zm4.376-8.571h-5.576c-.43-2.844-.83-5.707-1.23-8.572h5.633c.4,2.864.771,5.727,1.173,8.572Zm14.667-17.143H116.9c.286,2.558.6,5.114.915,7.672h5.661c-.286-2.558-.6-5.114-.858-7.672Zm-6.489,0c.286,2.558.6,5.114.914,7.672H111.4c-.342-2.558-.657-5.114-.972-7.672Zm-4.6,8.572c.371,2.864.714,5.727,1.087,8.572h5.574c-.343-2.844-.686-5.707-1.03-8.572Zm1.2,9.471c.345,2.558.659,5.115.972,7.672h5.519c-.314-2.557-.6-5.114-.915-7.672Zm7.234,7.672c-.314-2.557-.6-5.114-.915-7.672h5.576c.314,2.558.572,5.115.858,7.672Zm4.576-8.571h-5.605c-.343-2.844-.686-5.707-1-8.572h5.633c.314,2.864.628,5.727.972,8.572Zm8.977-17.143h-5.689c.257,2.558.543,5.114.829,7.672h5.6c-.257-2.558-.515-5.114-.744-7.672Zm-4.775,8.572c.286,2.864.572,5.727.887,8.572h5.546c-.286-2.844-.543-5.707-.829-8.572Zm1,9.471c.257,2.558.515,5.115.8,7.672H136c-.229-2.557-.487-5.114-.744-7.672Zm7.006,7.672h5.546q-.345-3.835-.686-7.672h-5.576c.229,2.558.487,5.115.716,7.672Zm4.773-8.571h-5.6c-.286-2.844-.544-5.707-.8-8.572h5.633C141,386.763,141.256,389.626,141.512,392.471Z" data-name="Path 16489" transform="translate(-71.291 -225.433)"/><path id="Path_16490" fill="#99d9e8" fill-rule="evenodd" d="M121.409,311.382l-2.527,4.376c-.147-1.458-.292-2.915-.454-4.376Zm-7.236,12.533-2.662,4.611h-2.891c-.031-.25-.06-.5-.09-.751l4.514-7.82h.694q.216,1.98.434,3.96Zm-3.183,5.511-1.861,3.226q-.195-1.614-.4-3.226Zm-2.543,4.407-1.886,3.265h-3.415l4.429-7.672h.329l.543,4.407Zm-8.966,15.529-1.113,1.926H94.954l3.889-6.737q.3,2.4.638,4.811Zm-1.632,2.826-3.1,5.364c-.227-1.584-.453-3.174-.663-4.763l.346-.6Zm-3.725,6.454c-.218-1.58-.448-3.163-.674-4.749l-3.963,6.867H92.9l1.223-2.118Zm-1.744,3.019-2.88,4.987q-.343-2.344-.706-4.692l.172-.3Zm21.184-42.607.051-.085.008.085Zm17.523,24.563-2.207,3.823q-.185-1.911-.36-3.823Zm-2.867,4.968-1.561,2.7h-3.415l4.429-7.672h.046l.5,4.968Zm-2.081,3.6-2.9,5.019q-.271-2.5-.524-5.007l.008-.012Zm-7.366,12.756-2.532,4.387h-2.761q-.053-.473-.108-.948l3.883-6.723H118.4c.122,1.094.25,2.189.376,3.283Zm-5.993,10.383-4.118,7.131c-.215-1.614-.417-3.229-.618-4.843l1.32-2.288Zm-7.966,13.795-1.934,3.348H99.7l-.049-.318,4.512-7.816q.334,2.4.652,4.786Zm-2.453,4.248-2.045,3.545q-.248-1.771-.5-3.545Zm-2.645,4.58-1.784,3.092H94.639l-.025-.165,4.333-7.506h.122c.223,1.529.434,3.055.648,4.58Zm18.058-37.191.451-.779c.029.26.057.519.087.779ZM131.437,337.1l2.129-3.688.331,3.688Zm1.166-14.5-3.419,5.924h-2.121c-.286-2.846-.544-5.709-.829-8.572h6.118q.132,1.324.25,2.648Zm-3.94,6.823-1.291,2.235c-.074-.745-.148-1.489-.224-2.235Zm-2,3.458-2.433,4.214h-3.118c-.258-2.557-.515-5.115-.8-7.672h6l.348,3.458Zm-9.621,16.665-1,1.739h-4.7c-.315-2.557-.6-5.115-.915-7.672H116.4q.3,2.966.649,5.933Zm-1.524,2.639-3.37,5.837q-.35-2.912-.7-5.837Zm-4.025,6.97c-.269-2.317-.567-4.644-.846-6.97h-5.373l-.4.691c.342,2.633.682,5.263,1,7.881h4.7l.923-1.6Zm-1.444,2.5-3.306,5.726c-.244-1.909-.5-3.818-.756-5.726Zm-7.891,13.667-3.931,6.809c-.329-2.269-.655-4.54-.962-6.809ZM97.212,383.9l-4.072,7.052c-.362-2.343-.694-4.7-1.047-7.052Zm-6.18-7.038c.3,2.045.621,4.092.918,6.138h5.662q-.559-3.838-1.116-7.672h-4.58l-.884,1.533Zm4.347-7.53.21-.365.049.365Zm.835-1.447,3.594-6.223h1.32q.515,3.835,1.03,7.67H96.412c-.065-.482-.131-.963-.2-1.447Zm4.113-7.125.56-.968q.065.484.127.968Zm5.469-9.471h4.767l-.836-6.808-3.931,6.808Zm8.193-14.191,1.394-2.415.271,2.415Zm6.044-10.47q.1.951.195,1.9h6.005c-.258-2.846-.544-5.709-.83-8.572h-1.516l-3.854,6.673Zm4.373-7.574.778-1.346c.043.448.09.9.133,1.346Zm1.489-2.577,2.94-5.095h2.744c.258,2.558.458,5.115.716,7.672h-6.148Q126.017,317.767,125.895,316.477Z" data-name="Path 16490" transform="translate(-68.62 -225.433)"/><path id="Path_16491" fill="#8a92c1" fill-rule="evenodd" d="M201.361,375.328h5.747c-.229,2.558-.428,5.114-.629,7.672h-5.661c.2-2.558.371-5.114.543-7.672Zm41.831-63.945h6.146q-.471,3.837-.943,7.672H242.3c.286-2.557.572-5.114.887-7.672Zm6.976,0q-.473,3.837-.944,7.672h6.12c.343-2.557.657-5.114,1-7.672Zm5.032,8.573c-.343,2.863-.744,5.726-1.087,8.572h-6.061c.343-2.846.716-5.709,1.059-8.572Zm-1.229,9.471c-.343,2.557-.659,5.115-1,7.672h-5.976q.471-3.835.943-7.672Zm-7.777,7.672q.471-3.835.943-7.672h-6.061c-.286,2.557-.572,5.115-.887,7.672Zm-5-8.571h6.061c.343-2.846.686-5.709,1.03-8.572h-6.09c-.314,2.863-.657,5.726-1,8.572Zm-16.383-17.145h6.2c-.257,2.558-.543,5.115-.8,7.672h-6.118c.229-2.557.487-5.114.716-7.672Zm7.033,0h6.146c-.257,2.558-.543,5.115-.829,7.672h-6.118c.257-2.557.513-5.114.8-7.672Zm5.2,8.573c-.286,2.863-.629,5.726-.915,8.572h-6.061c.286-2.846.6-5.709.886-8.572Zm-1.029,9.471c-.286,2.557-.544,5.115-.829,7.672H229.21q.387-3.835.771-7.672Zm-7.633,7.672h-6.005c.258-2.557.487-5.115.716-7.672h6.089c-.257,2.557-.515,5.115-.8,7.672Zm-5.175-8.571h6.061c.286-2.846.572-5.709.856-8.572h-6.146c-.229,2.863-.515,5.726-.771,8.572Zm-17.213-17.145h6.176q-.3,3.837-.6,7.672h-6.118c.17-2.557.342-5.114.543-7.672Zm7,0h6.148c-.2,2.558-.428,5.115-.657,7.672H212.4q.3-3.835.6-7.672Zm5.4,8.573c-.229,2.863-.485,5.726-.744,8.572h-6c.2-2.846.458-5.709.659-8.572Zm-.829,9.471c-.229,2.557-.43,5.115-.657,7.672h-5.948q.3-3.835.6-7.672ZM210.14,337.1h-6c.2-2.557.371-5.115.543-7.672h6.061q-.257,3.835-.6,7.672Zm-5.376-8.571c.2-2.846.4-5.709.6-8.572h6.118c-.2,2.863-.428,5.726-.657,8.572Zm-1.085,15.09h5.947q-.3,3.835-.6,7.672h-5.89c.172-2.557.343-5.115.544-7.672Zm6.746,0h5.891c-.2,2.557-.428,5.115-.657,7.672h-5.834q.3-3.835.6-7.672Zm5.148,8.572c-.258,2.863-.485,5.727-.744,8.572h-5.8c.258-2.844.458-5.709.716-8.572Zm-.83,9.473q-.341,3.835-.685,7.67h-5.718c.227-2.558.428-5.114.628-7.67Zm-7.176,7.67h-5.747c.172-2.558.343-5.114.544-7.67h5.8q-.3,3.835-.6,7.67Zm-5.146-8.571c.229-2.844.4-5.709.629-8.572h5.89c-.229,2.863-.458,5.727-.686,8.572Zm19.329-17.143h5.975q-.385,3.835-.771,7.672h-5.919c.258-2.557.485-5.115.716-7.672Zm6.775,0c-.286,2.557-.543,5.115-.8,7.672h5.89c.258-2.557.544-5.115.829-7.672Zm4.974,8.572c-.314,2.863-.629,5.727-.943,8.572h-5.8c.286-2.844.572-5.709.887-8.572Zm-1.057,9.473c-.286,2.557-.572,5.112-.83,7.67h-5.746q.385-3.837.771-7.67Zm-7.347,7.67q.385-3.837.771-7.67h-5.834c-.227,2.557-.458,5.112-.714,7.67Zm-4.948-8.571h5.8c.314-2.844.6-5.709.887-8.572h-5.891c-.286,2.863-.543,5.727-.8,8.572Zm19.272-17.143h5.947q-.471,3.835-.943,7.672h-5.89c.314-2.557.6-5.115.886-7.672Zm6.747,0q-.471,3.835-.943,7.672h5.862c.343-2.557.657-5.115,1-7.672Zm4.775,8.572c-.371,2.863-.744,5.727-1.114,8.572h-5.8c.371-2.844.686-5.709,1.057-8.572Zm-1.258,9.473c-.343,2.557-.657,5.112-1,7.67h-5.747q.473-3.837.943-7.67Zm-7.519,7.67q.471-3.837.943-7.67h-5.8c-.284,2.557-.572,5.112-.886,7.67Zm-4.747-8.571h5.8c.371-2.844.716-5.709,1.087-8.572h-5.889c-.343,2.863-.659,5.727-1,8.572Zm-1.686,14.568h5.69q-.471,3.837-.943,7.672h-5.633c.286-2.558.57-5.114.886-7.672Zm6.461,0c-.314,2.558-.629,5.114-.972,7.672h5.661c.315-2.558.659-5.114,1-7.672Zm4.548,8.572c-.345,2.864-.745,5.727-1.145,8.572h-5.546c.343-2.844.714-5.707,1.059-8.572Zm-1.23,9.471q-.515,3.838-1.03,7.672H238.96c.343-2.557.659-5.114.972-7.672Zm-7.292,7.672c.345-2.557.659-5.114.972-7.672h-5.546c-.315,2.558-.6,5.115-.915,7.672Zm-4.487-8.571h5.545c.373-2.844.745-5.707,1.088-8.572h-5.633c-.315,2.864-.658,5.727-1,8.572Zm-14.984-17.143h5.718q-.385,3.837-.771,7.672h-5.661c.229-2.558.485-5.114.714-7.672Zm6.491,0q-.387,3.837-.773,7.672H230.1c.286-2.558.544-5.114.83-7.672Zm4.746,8.572c-.286,2.864-.629,5.727-.943,8.572h-5.576c.315-2.844.6-5.707.886-8.572Zm-1.028,9.471q-.431,3.838-.858,7.672h-5.519c.286-2.557.543-5.114.8-7.672Zm-7.12,7.672c.286-2.557.543-5.114.8-7.672h-5.576c-.229,2.558-.487,5.115-.744,7.672Zm-4.718-8.571h5.6c.286-2.844.6-5.707.887-8.572h-5.661c-.258,2.864-.544,5.727-.83,8.572Zm-9.264-17.143h5.69q-.343,3.837-.686,7.672h-5.6q.3-3.838.6-7.672Zm4.917,8.572c-.229,2.864-.485,5.727-.744,8.572h-5.546c.229-2.844.487-5.707.686-8.572Zm-.8,9.471c-.229,2.558-.458,5.115-.714,7.672h-5.461c.229-2.557.43-5.114.629-7.672Zm-6.919,7.672H199.5c.2-2.557.4-5.114.572-7.672h5.6c-.2,2.558-.4,5.115-.629,7.672Zm-4.917-8.571c.2-2.844.428-5.707.629-8.572h5.661c-.229,2.864-.458,5.727-.686,8.572Z" data-name="Path 16491" transform="translate(-8.194 -225.433)"/><path id="Path_16492" fill="#99d9e8" fill-rule="evenodd" d="M201.361,375.328h.72l-.815,1.411q.049-.707.094-1.411Zm5.339,4.863q-.111,1.4-.221,2.809h-1.4l1.622-2.809Zm31.068-66.674-3.2,5.537h-3.415l4.43-7.672h2.4q-.107,1.069-.219,2.135Zm-3.718,6.438-3.775,6.537c.227-2.175.461-4.356.679-6.537ZM229.3,328.18l-.2.346h-3.415l4.333-7.5q-.359,3.585-.717,7.156Zm-.72,1.246-4.429,7.672h-1.776q.172-1.7.329-3.407l2.461-4.265ZM215.44,352.188l-4.95,8.572h-1.467c.119-1.312.226-2.628.331-3.946l2.671-4.625Zm-5.469,9.473-1.162,2.014c.054-.672.105-1.343.158-2.014Zm-2.088,3.617-2.34,4.053h-3.415l4.429-7.67h1.609l-.283,3.617Zm-.807-4.518,1.367-2.365q-.1,1.185-.19,2.365Zm5.469-9.471,3.665-6.347c-.175,2.118-.363,4.232-.552,6.347Zm40.582-15.379-.685,1.189h-3.415l4.429-7.672h.515c-.291,2.163-.56,4.324-.844,6.483Zm-4.449,7.707-3.194,5.531.68-5.531Zm-4.211,7.295-.218.377h-3.415l4.429-7.672h.1l-.9,7.295Zm-.737,1.277-4.95,8.572h-1.365c.179-1.479.349-2.965.521-4.452l2.379-4.12Zm-5.469,9.473-1.19,2.062q.116-1.034.23-2.062Zm-7.891,13.667L225.941,383h-1.478l.41-4.065,2.082-3.606Zm-4.948,8.572-1.3,2.246q.111-1.122.224-2.246Zm-2.209,3.827-2.741,4.744h-3.356l.012-.122,4.879-8.449h1.6q-.192,1.915-.394,3.827Zm-3.26,5.644-3.47,6.013c.2-2,.4-4.008.577-6.013ZM222.526,383l1.413-2.445L223.692,383Zm7.891-13.668,1.456-2.523q-.135,1.261-.263,2.523Zm23.558-40.8.175-.3-.037.3Zm2.271-16.407-4.005,6.935h-3.017q.473-3.835.944-7.672h6.176c-.032.247-.066.492-.1.737Zm-4.525,7.836-3.323,5.757c.238-1.915.481-3.837.713-5.757Zm-4.344,7.524-.6,1.048H241.19c.343-2.846.686-5.709,1-8.572h6.09l-.9,7.524Zm-1.125,1.948-4.429,7.672h-1.635c.315-2.557.6-5.115.887-7.672Zm-13.141,22.762-4.95,8.572h-1.411c.286-2.844.572-5.709.887-8.572Zm-5.469,9.473-1.218,2.11.212-2.11Zm-2.153,3.73-2.275,3.94h-3.9c.257-2.558.487-5.114.714-7.67h5.834l-.376,3.73Zm-5.736,9.936-1.2,2.073q.1-1.034.19-2.073Zm-7.33,12.694-2.569,4.449h-3.374c.229-2.844.487-5.707.686-8.572h5.6q-.162,2.064-.346,4.123Zm-3.089,5.348-3.384,5.862c.165-1.952.318-3.906.471-5.862Zm-4.259,7.378-.17.294h-5.4c.2-2.557.4-5.114.572-7.672h5.6c-.192,2.459-.385,4.919-.6,7.378Zm-4.869-9.309,4.353-7.54h1.863c-.229,2.864-.458,5.727-.686,8.572h-5.6c.025-.342.048-.686.074-1.031Zm7.386-12.793,1.917-3.319h4.033q-.343,3.837-.686,7.672h-5.6l.34-4.353Zm5.378-9.315,1.286-2.226-.2,2.226Zm7.595-13.153q-.213,2.3-.419,4.582h5.8c.314-2.844.6-5.709.887-8.572h-3.97l-2.3,3.99Zm2.823-4.889,4.316-7.477-.751,7.477ZM231.58,337.1l4.429-7.672h.006c-.286,2.557-.544,5.115-.829,7.672Zm10.8-18.7-.074.66H248.4q.471-3.835.943-7.672h-2.912l-4.047,7.012Zm-13.855,25.223h5.917c-.284,2.557-.57,5.115-.829,7.672h-5.89C227.981,348.732,228.238,346.174,228.524,343.617Z" data-name="Path 16492" transform="translate(-8.194 -225.433)"/></g><g id="Group_10950" data-name="Group 10950" transform="translate(51.161 385.518)"><path id="Path_16493" fill="rgba(192,192,192,0.48)" fill-rule="evenodd" d="M61.031,336.437c5.075,6.1,9.1,15.413,11.638,23.9a86.956,86.956,0,0,1,3.764,22.008c.173,6.35-.618,13.248-3.664,18.281a13.726,13.726,0,0,1-12.438,6.914,13.727,13.727,0,0,1-12.439-6.914c-3.045-5.033-3.837-11.931-3.664-18.281a87.025,87.025,0,0,1,3.764-22.008c2.535-8.485,6.564-17.8,11.638-23.9A.857.857,0,0,1,61.031,336.437Z" data-name="Path 16493" transform="translate(-44.207 -336.075)"/><path id="Path_16494" fill="rgba(192,192,192,0.48)" fill-rule="evenodd" d="M60.268,414.593a.754.754,0,0,1-1.507,0V395.58L45.853,382.672a.5.5,0,1,1,.71-.711l12.2,12.2V383.048l-12.09-12.167a.5.5,0,0,1,.711-.71L58.76,381.628v-11.11L49.04,360.8a.5.5,0,1,1,.71-.709l9.011,9.01V357.984l-5.4-5.4a.5.5,0,1,1,.71-.709l4.693,4.693v-11.2a.754.754,0,0,1,1.507,0v11.2l4.693-4.693a.5.5,0,1,1,.71.709l-5.4,5.4V369.1l8.545-8.7a.5.5,0,1,1,.71.711l-9.255,9.411v11.11L71.26,370.714a.5.5,0,1,1,.71.709l-11.7,11.625v11.113l12.2-12.2a.5.5,0,1,1,.711.711L60.268,395.58Z" data-name="Path 16494" transform="translate(-43.39 -331.417)"/></g><g id="Group_10951" data-name="Group 10951" transform="translate(375.107 390.337)"><path id="Path_16495" fill="rgba(192,192,192,0.48)" fill-rule="evenodd" d="M270.6,339.554c5.075,6.1,9.106,15.412,11.64,23.9A87.038,87.038,0,0,1,286,385.461c.172,6.349-.618,13.245-3.665,18.281a14.647,14.647,0,0,1-24.875,0c-3.045-5.036-3.837-11.932-3.665-18.281a87.178,87.178,0,0,1,3.766-22.009c2.535-8.486,6.564-17.8,11.638-23.9A.856.856,0,0,1,270.6,339.554Z" data-name="Path 16495" transform="translate(-253.772 -339.192)"/><path id="Path_16496" fill="rgba(192,192,192,0.48)" fill-rule="evenodd" d="M269.831,417.709a.753.753,0,1,1-1.506,0V398.7l-12.908-12.911a.5.5,0,0,1,.71-.71l12.2,12.2V386.166L256.237,374a.5.5,0,0,1,.708-.711l11.38,11.458V373.634l-9.722-9.72a.5.5,0,0,1,.713-.711l9.009,9.01V361.1l-5.4-5.4a.5.5,0,1,1,.71-.71l4.692,4.692v-11.2a.753.753,0,1,1,1.506,0v11.2l4.693-4.692a.5.5,0,1,1,.713.71l-5.406,5.4v11.113l8.548-8.7a.5.5,0,1,1,.71.71l-9.258,9.411v11.111l10.994-10.913a.5.5,0,0,1,.71.71l-11.7,11.624v11.113l12.2-12.2a.5.5,0,0,1,.713.71L269.831,398.7Z" data-name="Path 16496" transform="translate(-252.954 -334.534)"/></g><g id="Group_10952" data-name="Group 10952" transform="translate(72.611 360.667)"><path id="Path_16497" fill="rgba(192,192,192,0.48)" fill-rule="evenodd" d="M79.078,320.452c6.333,7.605,11.362,19.232,14.524,29.82a108.562,108.562,0,0,1,4.7,27.466c.216,7.922-.77,16.529-4.571,22.811-3.888,6.424-9.618,8.627-15.521,8.627s-11.637-2.2-15.521-8.627c-3.8-6.282-4.789-14.889-4.573-22.811a108.562,108.562,0,0,1,4.7-27.466c3.164-10.589,8.191-22.215,14.524-29.82A1.067,1.067,0,0,1,79.078,320.452Z" data-name="Path 16497" transform="translate(-58.084 -319.999)"/><path id="Path_16498" fill="rgba(192,192,192,0.48)" fill-rule="evenodd" d="M78.124,417.983a.94.94,0,0,1-1.88,0V394.256L60.136,378.147a.627.627,0,0,1,.887-.886l15.222,15.223V378.617L61.157,363.434a.627.627,0,1,1,.887-.886l14.2,14.3V362.978l-12.13-12.13a.626.626,0,1,1,.886-.886l11.244,11.244V347.339L69.5,340.6a.626.626,0,0,1,.886-.886l5.856,5.856V331.589a.94.94,0,0,1,1.88,0v13.977l5.857-5.856a.626.626,0,0,1,.886.886l-6.743,6.743v13.867l10.665-10.858a.627.627,0,0,1,.887.886L78.124,362.978v13.867l13.718-13.622a.627.627,0,0,1,.887.886l-14.6,14.507v13.868l15.223-15.223a.626.626,0,1,1,.886.886L78.124,394.256Z" data-name="Path 16498" transform="translate(-57.064 -314.186)"/></g><g id="Group_10953" data-name="Group 10953" transform="translate(347.226 366.855)"><path id="Path_16499" fill="rgba(192,192,192,0.48)" fill-rule="evenodd" d="M256.729,324.454c6.333,7.607,11.363,19.233,14.524,29.823a108.539,108.539,0,0,1,4.7,27.464c.218,7.924-.77,16.529-4.571,22.813-3.889,6.423-9.62,8.627-15.523,8.627s-11.635-2.2-15.521-8.627c-3.8-6.284-4.789-14.889-4.573-22.813a108.541,108.541,0,0,1,4.7-27.464c3.163-10.59,8.191-22.216,14.523-29.823A1.068,1.068,0,0,1,256.729,324.454Z" data-name="Path 16499" transform="translate(-235.735 -324.001)"/><path id="Path_16500" fill="rgba(192,192,192,0.48)" fill-rule="evenodd" d="M255.777,421.985a.94.94,0,0,1-1.88,0V398.26l-16.109-16.11a.626.626,0,1,1,.886-.886L253.9,396.488V382.621L238.81,367.437a.626.626,0,1,1,.886-.886l14.2,14.3V366.982l-12.132-12.131a.627.627,0,1,1,.887-.886L253.9,365.209V351.343l-6.743-6.744a.626.626,0,0,1,.886-.886l5.857,5.857V335.591a.94.94,0,0,1,1.88,0V349.57l5.857-5.857a.626.626,0,0,1,.886.886l-6.743,6.744v13.866l10.665-10.856a.626.626,0,0,1,.887.884l-11.552,11.745v13.867l13.716-13.622a.627.627,0,0,1,.889.886l-14.6,14.507v13.867L271,381.264a.626.626,0,0,1,.884.886l-16.107,16.11Z" data-name="Path 16500" transform="translate(-234.715 -318.188)"/></g><path id="Path_16501" fill="rgba(138,202,54,0.29)" fill-rule="evenodd" d="M230.275,377.047c109.8,0,198.807,8.658,198.807,19.338s-89.009,19.34-198.807,19.34-198.807-8.658-198.807-19.34S120.477,377.047,230.275,377.047Z" data-name="Path 16501" transform="translate(0 71.806)"/><path id="Path_16502" fill="#a6d85f" fill-rule="evenodd" d="M65.59,382.814C101.918,378.979,65.337,383.122,65.59,382.814Z" data-name="Path 16502" transform="translate(18.472 72.276)"/></g><path id="Path_16643" fill="#fff" fill-rule="evenodd" d="M456.429,187.749a9.985,9.985,0,0,1,14.908,5.75,6.458,6.458,0,0,1,8.137,6.233c0,.177-.006.352-.02.526a4.132,4.132,0,0,1,.768-.07,4.207,4.207,0,1,1,0,8.415h-113.2a5.551,5.551,0,1,1,3.871-9.528,2.922,2.922,0,0,1,2.162-1.2,5.921,5.921,0,0,1,5.914-5.692,6.063,6.063,0,0,1,.969.08,11.294,11.294,0,0,1,19.5-5.183,9.278,9.278,0,0,1,7.8-4.243,9.392,9.392,0,0,1,1.52.123,17.73,17.73,0,0,1,34.418-1.181,11.47,11.47,0,0,1,13.256,5.971Z" data-name="Path 16643" transform="translate(796.785 3600.099)"/><path id="Path_16425" fill="#fff" fill-rule="evenodd" d="M105.7,253.3a7.216,7.216,0,0,1,10.774,4.156,4.666,4.666,0,0,1,5.881,4.505c0,.127-.005.254-.015.379a3.084,3.084,0,0,1,.556-.05,3.041,3.041,0,1,1,0,6.082H41.082a4.012,4.012,0,1,1,2.8-6.886,2.12,2.12,0,0,1,1.563-.869,4.275,4.275,0,0,1,4.974-4.055,8.165,8.165,0,0,1,14.1-3.747,6.726,6.726,0,0,1,6.733-2.976,12.814,12.814,0,0,1,24.874-.854A8.293,8.293,0,0,1,105.7,253.3Z" data-name="Path 16425" transform="translate(773.785 3601.241)"/><g id="Group_10974" data-name="Group 10974" transform="translate(773.785 3601.241)"><path id="Path_16644" fill="#fff" fill-rule="evenodd" d="M329.12,72.756a1.218,1.218,0,0,1,2.436,0V77a1.218,1.218,0,0,1-2.436,0V72.756Zm-1.035,5.277h-4.24a1.218,1.218,0,1,0,0,2.435h4.24a1.218,1.218,0,1,0,0-2.435Zm1.035,3.47a1.218,1.218,0,0,1,2.436,0v4.242a1.218,1.218,0,0,1-2.436,0V81.5Zm7.713-3.47h-4.242a1.218,1.218,0,0,0,0,2.435h4.242a1.218,1.218,0,0,0,0-2.435Z" data-name="Path 16644"/><path id="Path_16645" fill="#fff" fill-rule="evenodd" d="M306.065,106.243a.853.853,0,1,1,1.706,0v2.968a.853.853,0,1,1-1.706,0v-2.968Zm-.724,3.694h-2.969a.852.852,0,0,0,0,1.7h2.969a.852.852,0,0,0,0-1.7Zm.724,2.429a.853.853,0,0,1,1.706,0v2.97a.853.853,0,0,1-1.706,0v-2.97Zm5.4-2.429h-2.969a.852.852,0,0,0,0,1.7h2.969a.852.852,0,1,0,0-1.7Z" data-name="Path 16645"/><path id="Path_16646" fill="#fff" fill-rule="evenodd" d="M366.464,165.991a.853.853,0,0,1,1.705,0v2.97a.853.853,0,0,1-1.705,0v-2.97Zm-.725,3.694h-2.968a.852.852,0,1,0,0,1.7h2.968a.852.852,0,0,0,0-1.7Zm.725,2.43a.853.853,0,1,1,1.705,0v2.968a.853.853,0,1,1-1.705,0v-2.968Zm5.4-2.43h-2.968a.852.852,0,1,0,0,1.7h2.968a.852.852,0,0,0,0-1.7Z" data-name="Path 16646"/><path id="Path_16647" fill="#fff" fill-rule="evenodd" d="M132.016,67.926a.852.852,0,0,1,1.7,0v2.969a.852.852,0,1,1-1.7,0V67.926Zm-.725,3.694h-2.969a.852.852,0,0,0,0,1.7h2.969a.852.852,0,1,0,0-1.7Zm.725,2.429a.852.852,0,0,1,1.7,0v2.969a.852.852,0,1,1-1.7,0V74.049Zm5.4-2.429h-2.97a.852.852,0,0,0,0,1.7h2.97a.852.852,0,0,0,0-1.7Z" data-name="Path 16647"/></g><path id="Path_16426" fill="#fff" fill-rule="evenodd" d="M443.071,109.465a7.217,7.217,0,0,1,10.774,4.157,4.666,4.666,0,0,1,5.881,4.5c0,.128,0,.255-.014.38a3.072,3.072,0,0,1,.555-.05,3.041,3.041,0,1,1,0,6.082H378.45a4.012,4.012,0,1,1,2.8-6.886,2.115,2.115,0,0,1,1.563-.869,4.276,4.276,0,0,1,4.273-4.113,4.338,4.338,0,0,1,.7.057,8.164,8.164,0,0,1,14.1-3.746,6.705,6.705,0,0,1,5.637-3.066,6.842,6.842,0,0,1,1.1.089,12.813,12.813,0,0,1,24.873-.853,8.3,8.3,0,0,1,9.582,4.314Z" data-name="Path 16426" transform="translate(562.337 3644.424)"/></g></svg>