<svg xmlns="http://www.w3.org/2000/svg" width="645.039" height="402.592" viewBox="0 0 645.039 402.592"><g id="Group_11287" data-name="Group 11287" transform="translate(151.368 -2003.171)"><path id="Path_17052" fill="rgba(173,223,255,0.2)" d="M-1891.177-3611.34s61.349,10.962,110.135-11.393,121.433,7.305,167.4,0,84.593,31.83,149.819-30.048,83.909-70.333,37.938-162.821c-18.2-36.625-69.317-29-87.338-46.821-27.274-26.974-26.6-72.266-100.419-103.154-122.224-51.138-257.823-2.71-287.825,97.082S-1891.177-3611.34-1891.177-3611.34Z" data-name="Path 17052" transform="translate(1761.202 6014.416)"/><path id="Path_17051" fill="rgba(173,223,255,0.2)" d="M-2468.154-1585c101.423,28.689,117.433,56.968,181.393,114.756s94.633,61.048,74.446,116.4c-16.837,46.161-42.738,59.654-106.7,93.6-11.449,6.077-53.728,37.19-63.049,42.194-41.878,22.481-32.958,6.829-86.092,0-64.719-8.318-190.936,0-190.936,0s-41.367-370.159-33.365-366.95S-2569.577-1613.689-2468.154-1585Z" data-name="Path 17051" transform="translate(2622.888 3600.238)"/><g id="undraw_success_factors_re_ce93" transform="translate(173.067 2101)"><rect id="Rectangle_1443" width="235.962" height="151.121" fill="#e6e6e6" data-name="Rectangle 1443" transform="translate(0.101 0.134)"/><rect id="Rectangle_1444" width="222.468" height="57.608" fill="#fff" data-name="Rectangle 1444" transform="translate(6.848 19.088)"/><rect id="Rectangle_1445" width="47.047" height="2.701" fill="#e6e6e6" data-name="Rectangle 1445" transform="translate(62.185 27.409)"/><rect id="Rectangle_1446" width="72.651" height="2.701" fill="#6c63ff" data-name="Rectangle 1446" transform="translate(62.185 37.261)"/><rect id="Rectangle_1447" width="59.209" height="2.701" fill="#e6e6e6" data-name="Rectangle 1447" transform="translate(62.185 46.542)"/><rect id="Rectangle_1448" width="34.565" height="2.701" fill="#e6e6e6" data-name="Rectangle 1448" transform="translate(62.185 55.788)"/><rect id="Rectangle_1449" width="52.168" height="2.701" fill="#e6e6e6" data-name="Rectangle 1449" transform="translate(62.185 65.034)"/><rect id="Rectangle_1450" width="5.761" height="5.761" fill="#e6e6e6" data-name="Rectangle 1450" transform="translate(40.741 26.449)"/><rect id="Rectangle_1451" width="5.761" height="5.761" fill="#6c63ff" data-name="Rectangle 1451" transform="translate(40.741 35.731)"/><rect id="Rectangle_1452" width="5.761" height="5.761" fill="#e6e6e6" data-name="Rectangle 1452" transform="translate(40.741 45.012)"/><rect id="Rectangle_1453" width="5.761" height="5.761" fill="#e6e6e6" data-name="Rectangle 1453" transform="translate(40.741 54.293)"/><rect id="Rectangle_1454" width="5.761" height="5.761" fill="#e6e6e6" data-name="Rectangle 1454" transform="translate(40.741 63.574)"/><rect id="Rectangle_1455" width="19.203" height="19.203" fill="#e6e6e6" data-name="Rectangle 1455" transform="translate(179.002 39.571)"/><rect id="Rectangle_1456" width="222.468" height="57.608" fill="#fff" data-name="Rectangle 1456" transform="translate(6.848 84.698)"/><rect id="Rectangle_1457" width="5.761" height="5.761" fill="#e6e6e6" data-name="Rectangle 1457" transform="translate(50.663 89.818)"/><rect id="Rectangle_1458" width="5.761" height="5.761" fill="#6c63ff" data-name="Rectangle 1458" transform="translate(40.741 89.818)"/><path id="Path_17035" fill="#e6e6e6" d="M462.178,410.818a21.815,21.815,0,0,0-35.215-3.253l-1.4-1.227a23.675,23.675,0,0,1,38.224,3.53Z" data-name="Path 17035" transform="translate(-323.761 -308.403)"/><path id="Path_17036" fill="#6c63ff" d="M534.3,458.169l-1.547-1.04a21.825,21.825,0,0,0,.669-23.247l1.6-.95A23.69,23.69,0,0,1,534.3,458.169Z" data-name="Path 17036" transform="translate(-395.005 -331.466)"/><path id="Path_17037" fill="#6c63ff" d="M414.174,453.77a23.674,23.674,0,0,1-.194-31.365l1.4,1.227a21.81,21.81,0,0,0,.179,28.894Z" data-name="Path 17037" transform="translate(-312.182 -324.47)"/><path id="Path_17038" fill="#6c63ff" d="M443.779,516.6a23.714,23.714,0,0,1-17.641-7.886l1.389-1.244a21.814,21.814,0,0,0,34.368-2.394l1.547,1.04A23.662,23.662,0,0,1,443.779,516.6Z" data-name="Path 17038" transform="translate(-324.145 -379.417)"/><rect id="Rectangle_1459" width="19.203" height="19.203" fill="#e6e6e6" data-name="Rectangle 1459" transform="translate(179.002 102.3)"/><rect id="Rectangle_1460" width="19.203" height="19.203" fill="#e6e6e6" data-name="Rectangle 1460" transform="translate(39.942 114.782)"/><rect id="Rectangle_1461" width="235.962" height="10.025" fill="#6c63ff" data-name="Rectangle 1461"/><circle id="Ellipse_138" cx="1.858" cy="1.858" r="1.858" fill="#fff" data-name="Ellipse 138" transform="translate(5.591 3.267)"/><circle id="Ellipse_139" cx="1.858" cy="1.858" r="1.858" fill="#fff" data-name="Ellipse 139" transform="translate(12.644 3.267)"/><circle id="Ellipse_140" cx="1.858" cy="1.858" r="1.858" fill="#fff" data-name="Ellipse 140" transform="translate(19.696 3.267)"/><path id="Path_17039" fill="#ffb8b8" d="M817.166,587.189h4.777l2.273-18.425h-7.051Z" data-name="Path 17039" transform="translate(-543.108 -378.014)"/><path id="Path_17040" fill="#2f2e41" d="M935.558,749.441h9.408a6,6,0,0,1,6,5.995v.2h-15.4Z" data-name="Path 17040" transform="translate(-662.718 -541.826)"/><path id="Path_17041" fill="#ffb8b8" d="M781.694,542.821l3.525,3.224,14.112-12.063-5.2-4.758Z" data-name="Path 17041" transform="translate(-519.533 -351.735)"/><path id="Path_17042" fill="#2f2e41" d="M895.9,694.271l6.942,6.349h0a6,6,0,0,1,.378,8.47l-.131.144-11.367-10.395Z" data-name="Path 17042" transform="translate(-633.582 -505.158)"/><path id="Path_17043" fill="#2f2e41" d="M806.687,421.381l-1.354,27.078,3.385,29.448-10.154,1.354-6.431-37.232L790.1,416.642Z" data-name="Path 17043" transform="translate(-525.121 -276.91)"/><path id="Path_17044" fill="#2f2e41" d="M944.618,504.39s4.062,26.74-4.4,35.54-19.97,24.37-19.97,24.37l-8.122-10.155,20.647-22-4.062-14.893-16.585-7.785,2.708-18.616,24.37-.339Z" data-name="Path 17044" transform="translate(-647.145 -369.735)"/><circle id="Ellipse_141" cx="8.29" cy="8.29" r="8.29" fill="#ffb8b8" data-name="Ellipse 141" transform="translate(270.547 56.134)"/><path id="Path_17045" fill="#9456c8" d="M820.224,227.224l1.27,1.924,3.385,9.477-2.708,36.894-15.909.339-2.031-42.31,4.254-5.318Z" data-name="Path 17045" transform="translate(-534.512 -151.019)"/><path id="Path_17046" fill="#2f2e41" d="M890.982,378.825l-2.708-.339s-.677.339-1.015,2.708-4.4,23.355-4.4,23.355l5.416,25.724,6.093-8.123-3.723-14.216,3.723-14.216Z" data-name="Path 17046" transform="translate(-627.693 -295.28)"/><path id="Path_17047" fill="#2f2e41" d="M879.95,248.1h2.031l5.077,27.416-4.738,21.324-4.739-7.785,1.354-8.462-.677-7.446-2.369-4.4Z" data-name="Path 17047" transform="translate(-582.137 -164.893)"/><path id="Path_17048" fill="#2f2e41" d="M938.923,297.022l-1.507-.377s-1.13-6.406-3.768-5.652-9.42,1.507-9.42-1.507,6.406-5.652,10.174-5.275,8.58,1.627,9.8,7.159c1.95,8.869-4.024,11.109-4.024,11.109l.1-.323A5.029,5.029,0,0,0,938.923,297.022Z" data-name="Path 17048" transform="translate(-655.188 -232.599)"/><path id="Path_17049" fill="#2f2e41" d="M900.015,364.065l10.831-4.4,2.539-1.862L921,391.481l5.077-15.231-1.523-19.462,14.047,7.277-4.739,23.016-.677,8.8,2.031,7.108s7.108,5.077,4.739,10.493-5.077,5.754-5.077,5.754S923.37,408.4,922.693,405.7,921,398.251,921,398.251s-5.754,21.663-12.524,21.324-6.77-7.446-6.77-7.446l1.692-7.446,2.708-7.785-1.354-12.862Z" data-name="Path 17049" transform="translate(-639.096 -280.858)"/><path id="Path_17050" fill="#ccc" d="M898.2,768.283H808.315a.335.335,0,0,1,0-.671H898.2a.335.335,0,1,1,0,.671Z" data-name="Path 17050" transform="translate(-577.927 -553.903)"/></g></g></svg>