<svg xmlns="http://www.w3.org/2000/svg" xmlns:xlink="http://www.w3.org/1999/xlink" width="646.999" height="458.469" viewBox="0 0 646.999 458.469"><defs><linearGradient id="linear-gradient" x1="-.396" x2=".482" y1="1.801" y2="1.801" gradientUnits="objectBoundingBox"><stop offset="0" stop-color="#ffe2c4"/><stop offset="1" stop-color="#ffb870"/></linearGradient><linearGradient id="linear-gradient-2" x1=".035" x2=".977" y1=".421" y2=".632" gradientUnits="objectBoundingBox"><stop offset="0" stop-color="#ffb870"/><stop offset="1" stop-color="#ffe2c4"/></linearGradient><linearGradient id="linear-gradient-3" x1=".028" x2="1.004" y1=".454" y2=".549" xlink:href="#linear-gradient-2"/><linearGradient id="linear-gradient-4" x1="1" x2="0" y1=".5" y2=".5" xlink:href="#linear-gradient-2"/><linearGradient id="linear-gradient-5" x1="1" x2="0" y1=".5" y2=".5" xlink:href="#linear-gradient"/><linearGradient id="linear-gradient-7" x1="-3.401" x2="-2.523" y1="1.137" y2="1.137" xlink:href="#linear-gradient"/><linearGradient id="linear-gradient-8" x1="5.645" x2="6.621" y1=".454" y2=".549" xlink:href="#linear-gradient-2"/></defs><g id="Group_11289" data-name="Group 11289" transform="translate(184.999 -3107.163)"><path id="Path_16290" fill="rgba(173,223,255,0.2)" d="M-2485.067-1585.659c93.794,27.123,108.6,53.857,167.748,108.491s87.515,57.715,68.846,110.042c-15.57,43.641-39.523,56.4-98.671,88.492-10.588,5.745-49.686,35.16-58.306,39.89-38.728,21.254-30.479,6.456-79.616,0-59.851-7.864-137.237-64.191-137.237-64.191s-77.591-285.757-70.191-282.724S-2578.861-1612.781-2485.067-1585.659Z" data-name="Path 16290" transform="translate(2507.994 4763.181)"/><path id="Path_16291" fill="rgba(173,223,255,0.2)" d="M-2477.138-1585.644c97.371,27.158,112.741,53.927,174.145,108.631s90.852,57.789,71.471,110.184c-16.164,43.7-41.03,56.469-102.434,88.606-10.991,5.753-51.581,35.205-60.529,39.942-40.205,21.281-31.641,6.465-82.652,0-62.133-7.874-142.47-64.274-142.47-64.274s-80.55-286.127-72.868-283.089S-2574.509-1612.8-2477.138-1585.644Z" data-name="Path 16291" transform="translate(2507.994 4792.848)"/><g id="OBJECTS" transform="translate(83.423 3107.163)"><g id="Group_10915" data-name="Group 10915" transform="translate(0 0)"><path id="Path_16008" fill="#d6eaf2" d="M101.792,234.9l117.579,70.265-73.048,42.251L53.464,310.188l47.945-72.067" data-name="Path 16008" transform="translate(159.206 -52.757)" style="mix-blend-mode:multiply;isolation:isolate"/><g id="Group_10914" data-name="Group 10914" transform="translate(0 0)"><g id="Group_10882" data-name="Group 10882" transform="translate(18.99 45.768)"><g id="Group_10780" data-name="Group 10780" transform="translate(154.469 0.551)"><g id="Group_10777" data-name="Group 10777"><g id="Group_10775" data-name="Group 10775" transform="translate(27.337 149.67)"><path id="Path_16009" fill="#55c3fe" d="M145.986,291.134h0v-5.686l4.085,2.056,7.173-4.144a9.358,9.358,0,0,1,8.462,0l72.1,41.627,4.106-2V328.6a2.859,2.859,0,0,1-1.736,2.637l-9.519,5.5a9.36,9.36,0,0,1-8.461,0l-74.465-43A2.873,2.873,0,0,1,145.986,291.134Z" data-name="Path 16009" transform="translate(-145.972 -276.346)"/><path id="Path_16010" fill="#179ecc" d="M157.241,329.7l4.106-2v5.618a2.859,2.859,0,0,1-1.736,2.637l-9.519,5.5a8.631,8.631,0,0,1-4.113,1V323.2Z" data-name="Path 16010" transform="translate(-65.414 -281.059)"/><path id="Path_16011" fill="#97dfff" d="M230.649,329.947a9.349,9.349,0,0,1-8.461,0l-74.465-42.993c-2.336-1.352-2.336-3.537,0-4.884l9.516-5.5a9.353,9.353,0,0,1,8.462,0l74.466,42.993c2.335,1.349,2.335,3.536,0,4.885Z" data-name="Path 16011" transform="translate(-145.972 -275.563)"/></g><g id="Group_10776" data-name="Group 10776" transform="translate(55.972 140.387)"><path id="Path_16012" fill="#179ecc" d="M206.638,313.9l5.191-2.937V284.4l-33.488-19.332Z" data-name="Path 16012" transform="translate(-173.151 -265.069)"/><path id="Path_16013" fill="#35afe5" d="M184.209,294.947,217.7,314.28V287.723L184.209,268.39Z" data-name="Path 16013" transform="translate(-184.209 -265.452)"/></g><path id="Path_16014" fill="#a05ed7" d="M115.07,109.435l4.873-2.779a1.254,1.254,0,0,1,.332-.189l0,0h0a2.045,2.045,0,0,1,1.738.28l140.142,80.911a6.014,6.014,0,0,1,2.719,4.712v107.62a1.91,1.91,0,0,1-.8,1.761,1.423,1.423,0,0,1-.228.1l-4.846,2.786L258,299.392l1.447.6L122.016,220.647a6.014,6.014,0,0,1-2.724-4.714V112.369Z" data-name="Path 16014" transform="translate(-114.256 -106.372)"/><path id="Path_16015" fill="#97afff" d="M121.081,106.655a1.253,1.253,0,0,1,.332-.189l0,0h0a2.045,2.045,0,0,1,1.738.28L263.3,187.654a5.376,5.376,0,0,1,1.713,1.709l-93.683,59.1-48.171-27.813a6.014,6.014,0,0,1-2.724-4.714V112.369l-4.222-2.934Z" data-name="Path 16015" transform="translate(-115.394 -106.372)"/><path id="Path_16016" fill="#d6a6ff" d="M120.765,219.184a6.018,6.018,0,0,0,2.719,4.714l140.144,80.91c1.5.865,2.719.164,2.719-1.57V195.618a6.012,6.012,0,0,0-2.719-4.713L123.484,109.993c-1.5-.868-2.719-.165-2.719,1.57Z" data-name="Path 16016" transform="translate(-120.765 -106.747)"/><path id="Path_16017" fill="#e6f7ff" d="M123.75,211.928l140.3,81V196.053l-140.3-81Z" data-name="Path 16017" transform="translate(-121.107 -107.373)"/><path id="Path_16018" fill="#fff" d="M125.124,115.845V210.86l138.925,80.207v1.862l-140.3-81V115.053Z" data-name="Path 16018" transform="translate(-121.107 -107.373)"/></g><g id="Group_10779" data-name="Group 10779" transform="translate(15.771 28.278)"><g id="Group_10778" data-name="Group 10778"><path id="Path_16019" fill="#cbe9f4" d="M204.288,141.542l55.926,32.289v-3.205l-55.926-32.289Z" data-name="Path 16019" transform="translate(-204.288 -138.337)"/><path id="Path_16020" fill="#cbe9f4" d="M168.781,148.012l87.336,50.424v-3.2l-87.336-50.423Z" data-name="Path 16020" transform="translate(-168.781 -139.084)"/><path id="Path_16021" fill="#cbe9f4" d="M168.781,154.482l87.336,50.423v-3.2l-87.336-50.423Z" data-name="Path 16021" transform="translate(-168.781 -139.83)"/><path id="Path_16022" fill="#cbe9f4" d="M168.781,160.952l87.336,50.423v-3.2l-87.336-50.424Z" data-name="Path 16022" transform="translate(-168.781 -140.577)"/><path id="Path_16023" fill="#cbe9f4" d="M168.781,167.423l87.336,50.423v-3.2l-87.336-50.423Z" data-name="Path 16023" transform="translate(-168.781 -141.324)"/><path id="Path_16024" fill="#cbe9f4" d="M168.781,173.893l87.336,50.424v-3.2l-87.336-50.423Z" data-name="Path 16024" transform="translate(-168.781 -142.07)"/><path id="Path_16025" fill="#cbe9f4" d="M204.288,186.833l55.926,32.289v-3.2l-55.926-32.289Z" data-name="Path 16025" transform="translate(-204.288 -143.563)"/><path id="Path_16026" fill="#cbe9f4" d="M168.781,193.3l87.336,50.423v-3.2L168.781,190.1Z" data-name="Path 16026" transform="translate(-168.781 -144.31)"/><path id="Path_16027" fill="#cbe9f4" d="M168.781,199.773,256.117,250.2v-3.2l-87.336-50.424Z" data-name="Path 16027" transform="translate(-168.781 -145.056)"/><path id="Path_16028" fill="#cbe9f4" d="M168.781,206.244l87.336,50.424v-3.2L168.781,203.04Z" data-name="Path 16028" transform="translate(-168.781 -145.803)"/><path id="Path_16029" fill="#cbe9f4" d="M168.781,212.714l87.336,50.424v-3.205l-87.336-50.424Z" data-name="Path 16029" transform="translate(-168.781 -146.549)"/><path id="Path_16030" fill="#cbe9f4" d="M168.781,248.851l41.88,24.18v-3.207l-41.88-24.178Z" data-name="Path 16030" transform="translate(-123.325 -150.719)"/></g></g></g><g id="Group_10790" data-name="Group 10790" transform="translate(0 42.183)"><g id="Group_10785" data-name="Group 10785" transform="translate(0)"><g id="Group_10782" data-name="Group 10782" transform="translate(0)"><g id="Group_10781" data-name="Group 10781"><path id="Path_16031" fill="#144682" d="M319.139,307.491l75.144-43.384,14.525-102.372-14.525-8.3-75.144,43.384Z" data-name="Path 16031" transform="translate(-319.139 -153.434)"/><path id="Path_16032" fill="#fff" d="M319.508,306.1l12.606,6.439,73-146.52L391.243,158.1l-71.736,41.416Z" data-name="Path 16032" transform="translate(-315.767 -153.972)"/><path id="Path_16033" fill="#2d5ca0" d="M319.139,316.874l75.144-43.384V162.817L319.139,206.2Z" data-name="Path 16033" transform="translate(-304.613 -154.517)"/></g></g><g id="Group_10784" data-name="Group 10784" transform="translate(16.932 5.617)"><g id="Group_10783" data-name="Group 10783" transform="translate(0 4.177)"><path id="Path_16034" fill="#1890c6" d="M300,318.563l75.146-43.384,14.525-102.372-14.525-8.3L300,207.891Z" data-name="Path 16034" transform="translate(-299.996 -164.506)"/><path id="Path_16035" fill="#fff" d="M300.367,317.174l12.606,6.44,73-146.52L372.1,169.169l-71.736,41.417Z" data-name="Path 16035" transform="translate(-296.627 -165.044)"/><path id="Path_16036" fill="#55c3fe" d="M300,327.947l75.144-43.384V173.89L300,217.274Z" data-name="Path 16036" transform="translate(-285.469 -165.589)"/><path id="Path_16037" fill="#c4dde8" d="M375.14,284.562V173.89L300,217.274Z" data-name="Path 16037" transform="translate(-285.469 -165.589)" style="mix-blend-mode:multiply;isolation:isolate"/></g><path id="Path_16038" fill="#ea4266" d="M314.449,176.994l6.391-3.611v-13.6l-3.195,4.538-3.2-2.1Z" data-name="Path 16038" transform="translate(-243.954 -159.784)"/></g></g><g id="Group_10789" data-name="Group 10789" transform="translate(111.912 159.967)"><g id="Group_10786" data-name="Group 10786" transform="translate(0 15.698)"><path id="Path_16039" fill="#d6eaf2" d="M262.561,393.972l59.777-34.512,26.089-14.1-93.313-51.83-106.163,46.1,93.991,54.347Z" data-name="Path 16039" transform="translate(-148.95 -283.317)" style="mix-blend-mode:multiply;isolation:isolate"/><path id="Path_16040" fill="#144682" d="M281.98,393.709l69.6-40.185v-15.6l-93.373-38.309-69.6,40.184Z" data-name="Path 16040" transform="translate(-187.191 -284.019)"/><path id="Path_16041" fill="#e5e5e5" d="M262.122,293.949l89.911,41.718v14.189l-66.141,38.186-93.369-53.909Z" data-name="Path 16041" transform="translate(-191.104 -283.365)"/><path id="Path_16042" fill="#f4f4f4" d="M262.122,289.851l14.907,6.917v44.671h75v4.318l-66.141,38.186-93.369-53.909Z" data-name="Path 16042" transform="translate(-191.104 -282.892)"/><path id="Path_16043" fill="#fff" d="M262.122,286.093l14.907,6.917V341h75V342l-66.141,38.186-93.369-53.909Z" data-name="Path 16043" transform="translate(-191.104 -282.458)"/><path id="Path_16044" fill="#2d5ca0" d="M281.98,376.076l69.6-40.184-93.373-53.907-69.6,40.182Z" data-name="Path 16044" transform="translate(-187.191 -281.984)"/></g><g id="Group_10787" data-name="Group 10787" transform="translate(5.859)"><path id="Path_16045" fill="#1890c6" d="M281.5,370.388l66.128-38.18V317.389l-88.712-36.4L192.788,319.17Z" data-name="Path 16045" transform="translate(-192.788 -266.172)"/><path id="Path_16046" fill="#e5e5e5" d="M262.63,275.607l85.424,39.635v13.481L285.214,365,196.5,313.785Z" data-name="Path 16046" transform="translate(-196.504 -265.551)"/><path id="Path_16047" fill="#f4f4f4" d="M262.63,271.713l14.163,6.572v42.442h71.262v4.1l-62.84,36.281L196.5,309.891Z" data-name="Path 16047" transform="translate(-196.504 -265.102)"/><path id="Path_16048" fill="#fff" d="M262.63,268.143l14.163,6.572v45.6h71.262v.945l-62.84,36.28L196.5,306.321Z" data-name="Path 16048" transform="translate(-196.504 -264.69)"/><path id="Path_16049" fill="#55c3fe" d="M281.5,353.634l66.128-38.178-88.712-51.217-66.125,38.177Z" data-name="Path 16049" transform="translate(-192.788 -264.239)"/></g></g></g><g id="Group_10800" data-name="Group 10800" transform="translate(22.107)"><path id="Path_16057" fill="#e2e2e2" d="M325.584,167c2.188-3.191-.446-25.313,2.7-27.291a8.615,8.615,0,0,1,.053-1.612c-.749-.161,14.991-18.627,18.14-15.746s.689,7.767.689,7.767-.187.824,1.062,1.361a4.353,4.353,0,0,1-2.006.259c-.024.191-.047.381-.076.58l.009,0-.009,0a33.621,33.621,0,0,1-.718,3.554c-.351,1.354-.647,2.6-.916,3.736.134.133.27.258.4.4.044,0,.051.057.051.057.083.095.149.193.228.287.165.2.335.4.493.618,5.624,7.264,3.784,15.791,7.244,18.661a27.725,27.725,0,0,0,7.055,4.4l4.547,1.06,6.421-12.239-.127,3.8.127-.172-.385,9.833h0c1.632.155,2.91,5.327.2,6.886-.167.1-5.954.508-6.106.557l-.885,6.531.265,6.314c3.546,3.215,6.61,6.825,7.44,10.216,2.259,9.255,1.446,30.7,1.446,30.7s-.038.068-.094.159c1.12.86,5.121,3.978,6.091,5.383a1.591,1.591,0,0,1,.205.428h0l0,0a1.186,1.186,0,0,1-.6,1.417h0a2.192,2.192,0,0,1-.214.107c-.038.019-.072.036-.112.052-.064.026-.134.046-.205.067s-.118.035-.181.05-.137.027-.208.037-.153.025-.234.032-.142.011-.216.013c-.092,0-.185.005-.28,0-.076,0-.152,0-.23-.009-.1-.007-.211-.019-.319-.033-.08-.01-.159-.019-.241-.034-.118-.019-.237-.045-.36-.073-.082-.019-.164-.036-.25-.058-.129-.034-.266-.077-.4-.12-.085-.027-.165-.052-.254-.082-.152-.053-.31-.118-.468-.182-.078-.032-.152-.058-.23-.094-.241-.1-.486-.222-.738-.356-4.209-2.221-5.106-2.806-5.924-3.274a1.371,1.371,0,0,1-.33-.262c-.021-.022-.042-.044-.059-.065a1.007,1.007,0,0,1-.174-.311l0-.019a1.436,1.436,0,0,1-.057-.371c0-.027,0-.052,0-.079a4.547,4.547,0,0,1,.033-.533c-.111-.047-.185-.082-.185-.082l-3.544-31.392s-5.7,9.362-9.881,7.669c2.675,3.31,2.061-.906,2.547,2.6,1.307,9.436,1.331,29.967,1.331,29.967s-.056.06-.14.142c1.37,1.06,4.942,3.881,5.848,5.2a1.536,1.536,0,0,1,.207.429h0v0a1.18,1.18,0,0,1-.594,1.416h0a1.672,1.672,0,0,1-.215.107c-.038.019-.074.038-.114.054a1.824,1.824,0,0,1-.2.065c-.06.017-.119.036-.181.05a2.048,2.048,0,0,1-.208.038c-.077.013-.155.024-.236.033s-.141.01-.216.011c-.092,0-.183.005-.28,0-.076,0-.15-.005-.227-.01-.1-.007-.211-.018-.322-.033-.08-.011-.157-.019-.24-.035-.118-.019-.239-.044-.359-.071-.083-.02-.165-.036-.253-.058-.129-.035-.264-.078-.4-.121-.084-.026-.167-.05-.254-.081-.154-.053-.309-.117-.468-.183-.078-.031-.152-.058-.23-.091-.24-.107-.487-.225-.74-.358-4.209-2.221-5.1-2.805-5.923-3.274a1.415,1.415,0,0,1-.332-.26c-.019-.023-.04-.045-.059-.066a1.021,1.021,0,0,1-.173-.312l-.005-.018a1.554,1.554,0,0,1-.057-.372c0-.026,0-.051,0-.078a9.674,9.674,0,0,1,.121-1.231.54.54,0,0,1,.216-.334c-.208-.156-4.28-40.437-4.28-40.437s-16.715-7.483-19.019-8.736C316.827,183.5,325.584,167,325.584,167Z" data-name="Path 16057" transform="translate(-314.398 -107.629)" style="mix-blend-mode:multiply;isolation:isolate"/><g id="Group_10799" data-name="Group 10799"><path id="Path_16058" fill="#c7ebf9" d="M330.621,130.909s-.092-.9-2.516,4.482,3.4,22.564,4.779,24.451,18.705,7.192,22.514,1.311c-2.378-1.221-.081-2.978-.548-5.726-7.075,2.476-14.1-3.158-16.263-4.952C334.979,147.486,337.152,138.352,330.621,130.909Z" data-name="Path 16058" transform="translate(-295.249 -108.646)"/><g id="Group_10796" data-name="Group 10796" transform="translate(4.735)"><g id="Group_10794" data-name="Group 10794" transform="translate(2.745 58.855)"><g id="Group_10791" data-name="Group 10791" transform="translate(49.762 50.785)"><path id="Path_16059" fill="#fff" d="M322.529,229.69s5.261,3.975,6.391,5.613-1.325,3.391-5.533,1.169-5.106-2.806-5.925-3.273-.662-1.131-.506-2.339S322.529,229.69,322.529,229.69Z" data-name="Path 16059" transform="translate(-316.83 -229.69)"/><path id="Path_16060" fill="#4c4c4c" d="M317.469,232.7c.819.467,1.716,1.052,5.925,3.273,3.163,1.669,5.333,1.094,5.739.011.473,1.484-1.9,2.769-5.739.741-4.209-2.221-5.106-2.806-5.925-3.273-.625-.358-.68-.831-.6-1.573A1.092,1.092,0,0,0,317.469,232.7Z" data-name="Path 16060" transform="translate(-316.839 -229.942)"/></g><path id="Path_16061" fill="#112f5b" d="M323.759,172.527s.193,11.888,10.694,14.472a129.74,129.74,0,0,1,21.6,7.934l6.892,29.919a5.428,5.428,0,0,0,2.964.474,4.517,4.517,0,0,0,3.277-2.19s.812-21.446-1.446-30.7-21.165-20.155-21.165-20.155Z" data-name="Path 16061" transform="translate(-313.334 -172.281)"/><g id="Group_10793" data-name="Group 10793" transform="translate(0 7.267)"><g id="Group_10792" data-name="Group 10792" transform="translate(33.685 53.872)"><path id="Path_16062" fill="#fff" d="M340.7,241.394s5.261,3.975,6.391,5.612-1.323,3.391-5.534,1.169-5.1-2.806-5.923-3.274-.663-1.131-.506-2.338S340.7,241.394,340.7,241.394Z" data-name="Path 16062" transform="translate(-335.003 -241.394)"/><path id="Path_16063" fill="#4c4c4c" d="M335.642,244.4c.819.467,1.714,1.052,5.923,3.273,3.164,1.668,5.335,1.093,5.741.011.473,1.483-1.9,2.77-5.741.741-4.209-2.221-5.1-2.806-5.923-3.274-.625-.358-.68-.83-.6-1.572A1.09,1.09,0,0,0,335.642,244.4Z" data-name="Path 16063" transform="translate(-335.011 -241.646)"/></g><path id="Path_16064" fill="#164072" d="M340.155,180.5s-1.015,11.846,9.171,15.484a129.857,129.857,0,0,1,20.682,10.087l3.822,28.86a4.252,4.252,0,0,0,3.06,1.131,4.585,4.585,0,0,0,3.3-1.415s2.364-21.845,1.058-31.281-15.626-20.541-15.626-20.541Z" data-name="Path 16064" transform="translate(-340.127 -180.496)"/></g></g><path id="Path_16065" fill="#e6f7ff" d="M385.236,168.1s1.134-35.515-9.7-39.664-20.759,5.723-24.994,15.285-3.119,26.206,0,32.388C365.4,186.334,385.66,173.006,385.236,168.1Z" data-name="Path 16065" transform="translate(-347.769 -108.254)"/><path id="Path_16066" fill="#fff" d="M360.386,143.717c4.235-9.562,14.161-19.433,24.994-15.285a6.335,6.335,0,0,1,1.026.511c-7.978,1.013-14.761,8.674-18.071,16.145-4.233,9.562-3.116,26.207,0,32.387a20.986,20.986,0,0,0,4.589,2.382,21.6,21.6,0,0,1-12.539-3.753C357.266,169.923,356.153,153.279,360.386,143.717Z" data-name="Path 16066" transform="translate(-357.613 -108.254)"/><g id="Group_10795" data-name="Group 10795" transform="translate(11.712)"><path id="Path_16067" fill="url(#linear-gradient)" d="M372.6,110.611s2.7,4.329.28,13.724c-1.967,7.611-2.259,11.823-5.437,12.145s-12.691-2-11.652-9.925c-.947-.2-2.884-3.829-1.356-6.711s2.6.267,2.6.267-.062-6.282,4.378-8.571S372.6,110.611,372.6,110.611Z" data-name="Path 16067" transform="translate(-353.491 -106.264)"/><path id="Path_16068" fill="#112f5b" d="M358.035,117.644c.018-.364,3.39,4.45,8.81,2.894a3.338,3.338,0,0,1-2.295-1.877,4.792,4.792,0,0,0,4.931,1.6,7.184,7.184,0,0,1-1.971-1.141,5.371,5.371,0,0,0,4.044.3c-1.247-.539-1.061-1.361-1.061-1.361s1.1,1.1,3.248-.767c-.872-.111-.786-4.116-3.937-7s-5.71-3.555-9.933-2.844a3.9,3.9,0,0,1,3.62-1.43c-1.686-.941-5.251.747-6.3,2.305-3.277-1.258-9.454.924-7.416,12.868.033-.3.315-2.243,1.472-2.611s2.134,1.91,1.87,2.486a25.692,25.692,0,0,0-.389,3.983l1.5.785s-.465-2.963.6-3.854S357.831,122.195,358.035,117.644Z" data-name="Path 16068" transform="translate(-349.367 -105.749)"/></g></g><g id="Group_10798" data-name="Group 10798" transform="translate(29.046 35.048)"><g id="Group_10797" data-name="Group 10797" transform="translate(5.154)"><path id="Path_16069" fill="#fff" d="M353.311,149.466l-6.42,8.614-20.738-4.833,1.19,26.806,18.864-.229,6.211-7.559Z" data-name="Path 16069" transform="translate(-326.152 -145.841)"/><path id="Path_16070" fill="#e6f7ff" d="M333.257,145.369l-6.42,12.238-.684,21.743,6.211-7.559Z" data-name="Path 16070" transform="translate(-306.098 -145.369)"/></g><path id="Path_16071" fill="url(#linear-gradient-2)" d="M347.07,169.724s.638.982,1.99,0,1.861-2.65,2.7-3.271c.1,2.139.005,3.634,2.656,3.585s4.363-.414,5.871-.309-.29,6.765-8.043,6.916c-4.273-.264-6.091-2.655-6.091-2.655Z" data-name="Path 16071" transform="translate(-346.151 -147.801)"/><path id="Path_16072" fill="url(#linear-gradient-3)" d="M327.254,160.582s-1.425,2.917-2.308,3.251-.2,5.194,2.509,3.635S328.887,160.736,327.254,160.582Z" data-name="Path 16072" transform="translate(-295.327 -147.124)"/></g><path id="Path_16073" fill="#c7ebf9" d="M377.334,143.918s-.457-7.3-5.591-4.393-10.592,20.212-10.592,22.55S384.949,176,391.5,173.507a9.2,9.2,0,0,1,.052-8c-7.171-2.182-16.367-4.988-17.926-7.326S378.206,153.78,377.334,143.918Z" data-name="Path 16073" transform="translate(-361.152 -109.567)"/></g></g><g id="Group_10879" data-name="Group 10879" transform="translate(137.729 192.72)"><g id="Group_10876" data-name="Group 10876" transform="translate(0 0)"><path id="Path_16209" fill="#0a253f" d="M268.655,271.666v19.746c0,4.061-2.685,8.123-8.052,11.222-10.734,6.2-28.138,6.2-38.875,0-5.369-3.1-8.052-7.162-8.05-11.226V271.666Z" data-name="Path 16209" transform="translate(-195.111 -241.69)"/><g id="Group_10875" data-name="Group 10875"><path id="Path_16210" fill="#0b2d4f" d="M232.206,296.339l47.114-27.2v-1.3H185.092v1.3Z" data-name="Path 16210" transform="translate(-185.092 -240.63)"/><path id="Path_16211" fill="#164072" d="M232.206,284.644l47.114-27.2-47.114-27.2-47.114,27.2Z" data-name="Path 16211" transform="translate(-185.092 -230.24)"/></g></g><g id="Group_10878" data-name="Group 10878" transform="translate(19.947 25.868)"><g id="Group_10877" data-name="Group 10877" transform="translate(1.128 0.606)"><path id="Path_16212" fill="#ffd629" d="M249.7,297.447h1.63V280.7L276.1,268.283l-.731-1.457L249.7,279.689Z" data-name="Path 16212" transform="translate(-249.698 -266.826)"/></g><path id="Path_16213" fill="#ffd629" d="M247.425,267.618c0,.9,1.2,1.63,2.687,1.63s2.689-.73,2.689-1.63-1.2-1.63-2.689-1.63S247.425,266.72,247.425,267.618Z" data-name="Path 16213" transform="translate(-223.625 -265.989)"/><path id="Path_16214" fill="#fff42c" d="M282.512,315.609v-8.29a1.894,1.894,0,1,1,3.787,0v8.29Z" data-name="Path 16214" transform="translate(-282.512 -276.888)"/></g></g><path id="Path_16215" fill="#d6eaf2" d="M164.183,373.371s-5-.114-11.153-5.8a62.114,62.114,0,0,0-11.041-8.355v-1.732l-17.24-10.117-4.33-2.883.126-26.853,6.631,6.041.47,16.6,20.8,13.552Z" data-name="Path 16215" transform="translate(111.589 -44.264)" style="mix-blend-mode:multiply;isolation:isolate"/><g id="Group_10881" data-name="Group 10881" transform="translate(225.862 271.591)"><g id="Group_10880" data-name="Group 10880" transform="translate(0 0)"><path id="Path_16216" fill="#1d6baa" d="M147.9,352.2c.931,1.324,6.111,6.062,7.64,4.988h0c1.529-1.075-1.171-7.555-2.1-8.879L124.762,307.5a3.183,3.183,0,0,0-4.454-.452h0a3.182,3.182,0,0,0-1.084,4.343Z" data-name="Path 16216" transform="translate(-118.751 -306.354)"/><path id="Path_16217" fill="#155a93" d="M120.309,307.382a3.854,3.854,0,0,1,.979-.5,2.932,2.932,0,0,0-.067,3.283l28.674,40.812a19.957,19.957,0,0,0,6.092,4.913c.049.767-.07,1.364-.448,1.63-1.53,1.074-6.71-3.663-7.64-4.988l-28.673-40.812A3.182,3.182,0,0,1,120.309,307.382Z" data-name="Path 16217" transform="translate(-118.753 -306.692)"/><path id="Path_16218" fill="#227cc6" d="M124.29,417.345l1,1.423c.931,1.324,3.631,7.8,2.1,8.879s-6.71-3.663-7.64-4.988l-1-1.423Z" data-name="Path 16218" transform="translate(-90.605 -376.814)"/><path id="Path_16219" fill="#1d76b2" d="M120.815,424.756l.723,1.029c.93,1.324,5.023,7.209,6.552,6.135a.941.941,0,0,1-.322.432c-1.53,1.074-6.71-3.663-7.64-4.988l-1-1.423Z" data-name="Path 16219" transform="translate(-90.982 -381.519)"/><path id="Path_16220" fill="#164072" d="M178.474,334.645l4.306-3.025,2.281-1.6L172.549,312.21l-6.587,4.628Z" data-name="Path 16220" transform="translate(-165.055 -310.072)"/><path id="Path_16221" fill="#11385e" d="M168.8,319.418,181.3,337.2l3.747-2.632.018.025-2.281,1.6-4.306,3.025-12.511-17.808Z" data-name="Path 16221" transform="translate(-165.055 -314.647)"/><rect id="Rectangle_1298" width="1.261" height="8.05" fill="#0f2c49" data-name="Rectangle 1298" transform="translate(2.176 8.572) rotate(-125.09)"/></g><path id="Path_16222" fill="#227cc6" d="M187.649,320.765s-3.211,1.246-.913,4.916,7.911,9.59,8.465,11.894,2.742,2.059,2.8.386-1.975-3.469-3.847-5.949-7.593-9.479-5.433-12Z" data-name="Path 16222" transform="translate(-185.285 -315.022)"/></g></g><g id="Group_10883" data-name="Group 10883" transform="translate(82.597)"><path id="Path_16223" fill="#fff" d="M291.719,54.012,352.64,77.856l-26.267,3.129Z" data-name="Path 16223" transform="translate(-291.719 -54.012)"/><path id="Path_16224" fill="#97dfff" d="M356.01,80.934,351.943,92.3,320.93,54.012Z" data-name="Path 16224" transform="translate(-320.93 -54.012)"/><path id="Path_16225" fill="#55c3fe" d="M351.9,83.549l4.644,8.753L325.527,54.012Z" data-name="Path 16225" transform="translate(-325.527 -54.012)"/><path id="Path_16226" fill="#fff" d="M330.777,54.012l8.2,40.165,18.168-10.627Z" data-name="Path 16226" transform="translate(-330.777 -54.012)"/></g><g id="Group_10888" data-name="Group 10888" transform="translate(0 34.84)"><g id="Group_10887" data-name="Group 10887"><g id="Group_10884" data-name="Group 10884" transform="translate(106.404)"><path id="Path_16227" fill="#35afe5" d="M319.862,97.238l1.353-1.141c-1.47-1.742-2.291-2.7-2.291-2.7l-1.344,1.149S318.4,95.5,319.862,97.238Z" data-name="Path 16227" transform="translate(-317.58 -93.396)"/></g><g id="Group_10885" data-name="Group 10885" transform="translate(0 8.122)"><path id="Path_16228" fill="#35afe5" d="M322.4,290.965q1.357,0,2.731-.023l-.029-1.769c-2.362.04-4.69.029-7.03-.037l-.049,1.769C319.473,290.945,320.947,290.965,322.4,290.965Zm9.834-.295c2.063-.121,4.186-.283,6.312-.485l.772-.074-.173-1.76-.765.074c-2.1.2-4.207.359-6.249.479Zm-21.314-.134.134-1.764c-2.358-.18-4.708-.421-6.985-.715l-.226,1.755C306.145,290.11,308.526,290.354,310.915,290.536Zm35.454-1.266c2.373-.333,4.733-.721,7.013-1.152l-.328-1.738c-2.255.426-4.586.809-6.932,1.139Zm-49.561-.561.323-1.739c-2.31-.43-4.617-.93-6.856-1.487l-.426,1.717C292.121,287.765,294.461,288.273,296.808,288.709Zm63.525-2.089c2.336-.57,4.644-1.2,6.863-1.889l-.522-1.691c-2.183.674-4.459,1.3-6.76,1.861Zm-77.34-1.364.539-1.684c-2.251-.72-4.468-1.515-6.593-2.365l-.656,1.643C278.445,283.714,280.7,284.524,282.993,285.256Zm90.937-2.85c2.251-.865,4.457-1.811,6.554-2.81l-.761-1.6c-2.056.979-4.219,1.906-6.429,2.756Zm-104.168-2.455.781-1.588c-2.116-1.042-4.183-2.167-6.14-3.345l-.912,1.515C265.492,277.737,267.6,278.886,269.763,279.951Zm117.029-3.7c2.082-1.225,4.095-2.544,5.978-3.919l-1.041-1.43c-1.839,1.341-3.8,2.627-5.833,3.823Zm-129.251-3.677,1.049-1.425a68.755,68.755,0,0,1-5.409-4.408L252,268.052A70.318,70.318,0,0,0,257.541,272.574Zm140.781-4.762a61.8,61.8,0,0,0,5.008-5.122L402,261.529a59.957,59.957,0,0,1-4.865,4.975Zm-151.366-4.851,1.325-1.171a56.833,56.833,0,0,1-4.28-5.483l-1.46,1A58.607,58.607,0,0,0,246.956,262.961ZM407.693,257a57.817,57.817,0,0,0,3.63-6.186l-1.578-.8a56.264,56.264,0,0,1-3.518,6Zm-168.805-5.878,1.583-.793a46.89,46.89,0,0,1-2.643-6.407l-1.681.551A48.824,48.824,0,0,0,238.888,251.123Zm175.277-6.892a61.951,61.951,0,0,0,2.039-6.871l-1.722-.405a60.421,60.421,0,0,1-1.981,6.674Zm-179.707-6.758,1.749-.272a40.958,40.958,0,0,1-.5-6.314l.005-.58-1.769-.023-.005.6A42.816,42.816,0,0,0,234.458,237.473Zm183-7.161c.286-2.329.459-4.731.511-7.137l-1.769-.039a69.61,69.61,0,0,1-.5,6.959Zm-181.042-6.874a40.325,40.325,0,0,1,1.876-6.648l-1.655-.625a42.214,42.214,0,0,0-1.959,6.94Zm179.607-7.283,1.765-.126c-.166-2.342-.443-4.729-.823-7.1l-1.746.279C415.589,211.528,415.859,213.864,416.022,216.154Zm-174.76-5.613a46.445,46.445,0,0,1,3.92-5.716l-1.382-1.1a47.968,47.968,0,0,0-4.069,5.936Zm172.565-8.187,1.719-.424c-.566-2.3-1.234-4.6-1.984-6.857l-1.679.559C412.618,197.841,413.274,200.1,413.827,202.354ZM409.4,189.09l1.627-.694c-.943-2.212-1.979-4.381-3.078-6.449l-1.562.831C407.463,184.8,408.478,186.926,409.4,189.09Zm-6.578-12.33,1.486-.962c-1.217-1.88-2.537-3.868-3.924-5.911l-1.464.993C400.3,172.913,401.613,174.891,402.823,176.76Zm-7.917-11.688,1.448-1.016q-2.009-2.86-4.115-5.771l-1.434,1.037Q392.9,162.219,394.906,165.072Zm-8.272-11.455,1.422-1.052q-2.1-2.838-4.238-5.676l-1.413,1.065Q384.537,150.781,386.634,153.617Zm-8.507-11.289,1.4-1.077q-2.17-2.826-4.33-5.6l-1.4,1.086Q375.954,139.5,378.126,142.328Zm-8.684-11.159,1.389-1.1q-2.233-2.833-4.4-5.547l-1.383,1.1Q367.2,128.336,369.442,131.17Zm-8.822-11.053L362,119.005c-1.541-1.91-3.034-3.748-4.463-5.5l-1.37,1.119Q358.305,117.248,360.62,120.116Zm-8.942-10.96,1.365-1.124c-1.652-2.005-3.169-3.834-4.519-5.455l-1.36,1.132C348.514,105.328,350.029,107.154,351.679,109.156Z" data-name="Path 16228" transform="translate(-233.941 -102.577)"/></g><g id="Group_10886" data-name="Group 10886" transform="translate(14.832 101.481)"><path id="Path_16229" fill="#35afe5" d="M422.105,211.786c.832-.788,1.707-1.568,2.6-2.318l-1.137-1.355c-.923.772-1.824,1.576-2.681,2.388Z" data-name="Path 16229" transform="translate(-420.889 -208.113)"/></g></g></g><g id="Group_10892" data-name="Group 10892" transform="translate(206.504 48.837)"><g id="Group_10889" data-name="Group 10889" transform="translate(117.576 123.601)"><path id="Path_16230" fill="#1d6baa" d="M113.145,254.08l1.628-.694a47.464,47.464,0,0,0-2.281-4.444v3.606C112.683,252.993,112.536,252.651,113.145,254.08Z" data-name="Path 16230" transform="translate(-112.492 -248.941)"/></g><g id="Group_10890" data-name="Group 10890" transform="translate(9.508)"><path id="Path_16231" fill="#1d6baa" d="M184.763,296.023c1.1,0,2.247-.034,3.4-.1l-.1-1.766a53.961,53.961,0,0,1-7.033-.038l-.131,1.764C182.145,295.977,183.446,296.023,184.763,296.023Zm10.607-.909a47.146,47.146,0,0,0,7.071-1.741l-.563-1.678a45.338,45.338,0,0,1-6.8,1.675Zm-21.673-.349.422-1.718a34.283,34.283,0,0,1-6.559-2.318l-.762,1.6A35.98,35.98,0,0,0,173.7,294.765Zm35.417-4.423a26.373,26.373,0,0,0,5.747-4.619l-1.3-1.2a24.567,24.567,0,0,1-5.363,4.306Zm-48.536-1.9,1.1-1.382a30.752,30.752,0,0,1-4.889-4.917l-1.385,1.1A32.448,32.448,0,0,0,160.577,288.442Zm58.443-8.825a29.037,29.037,0,0,0,2.291-6.995l-1.736-.341a27.243,27.243,0,0,1-2.15,6.567Zm-67.555-2.537,1.576-.8a43.246,43.246,0,0,1-2.644-6.483l-1.686.538A44.987,44.987,0,0,0,151.466,277.08ZM222,265.342v-.21a53.174,53.174,0,0,0-.5-7.05l-1.753.235a51.435,51.435,0,0,1,.479,6.814v.2Zm-75.023-2.07,1.742-.312a66.929,66.929,0,0,1-.863-7.006l-1.765.126A68.6,68.6,0,0,0,146.979,263.272Zm71.453-11.89,1.719-.418c-.552-2.27-1.231-4.607-2.013-6.945l-1.678.563C217.227,246.872,217.891,249.16,218.431,251.382Zm-70.76-2.5c.036-2.293.166-4.675.385-7.08l-1.762-.159c-.222,2.449-.355,4.875-.392,7.21Zm1.259-14.125c.358-2.288.8-4.637,1.3-6.985L148.5,227.4c-.514,2.381-.958,4.764-1.321,7.085Zm2.986-13.891c.612-2.255,1.294-4.548,2.029-6.815l-1.683-.546c-.744,2.294-1.435,4.615-2.054,6.9Zm4.3-13.608c.722-2.274,1.393-4.6,1.995-6.923l-1.712-.445c-.594,2.289-1.257,4.589-1.97,6.832Zm3.617-13.943c.476-2.347.9-4.734,1.245-7.1l-1.751-.258c-.345,2.332-.757,4.688-1.228,7Zm2.1-14.255c.22-2.4.373-4.823.454-7.195l-1.768-.061c-.08,2.339-.23,4.726-.447,7.094ZM160.652,164.7l1.768-.047c-.065-2.432-.208-4.856-.427-7.2l-1.761.164C160.447,159.922,160.589,162.306,160.652,164.7Zm-1.33-14.119,1.745-.292c-.406-2.425-.906-4.806-1.485-7.076l-1.714.438C158.435,145.871,158.924,148.2,159.322,150.579ZM155.8,136.893l1.663-.6a60.934,60.934,0,0,0-2.865-6.668l-1.58.8A58.984,58.984,0,0,1,155.8,136.893Zm-6.386-12.5,1.444-1.023a39.106,39.106,0,0,0-4.747-5.556l-1.228,1.274A37.388,37.388,0,0,1,149.411,124.4ZM106,115.916a57.026,57.026,0,0,1,6.507-2.695l-.571-1.675a59.081,59.081,0,0,0-6.709,2.778Zm33.39-1.049.907-1.52a29.011,29.011,0,0,0-6.737-2.94l-.5,1.7A27.285,27.285,0,0,1,139.385,114.867Zm-20.1-3.385a33.758,33.758,0,0,1,6.945-.471l.07-1.767a35.722,35.722,0,0,0-7.309.493Z" data-name="Path 16231" transform="translate(-105.223 -109.219)"/></g><g id="Group_10891" data-name="Group 10891" transform="translate(0 8.68)"><path id="Path_16232" fill="#1d6baa" d="M244.518,122.43c.985-.657,1.977-1.293,2.95-1.89l-.924-1.508c-.993.61-2.005,1.258-3.009,1.928Z" data-name="Path 16232" transform="translate(-243.535 -119.031)"/></g></g><g id="Group_10913" data-name="Group 10913" transform="translate(168.251 256.401)"><path id="Path_16243" fill="#112f5b" d="M125.081,113.784s.127,6.347-3.191,7.731c-2.672-.533.313-7.369.313-7.369Z" data-name="Path 16243" transform="translate(-71.302 -99.309)"/><g id="Group_10912" data-name="Group 10912" transform="translate(0)"><g id="Group_10910" data-name="Group 10910"><path id="Path_16244" fill="#e2e2e2" d="M166.37,171.392a2.844,2.844,0,0,1-1.076-1.119l2.237,1.253A10.7,10.7,0,0,1,166.37,171.392Z" data-name="Path 16244" transform="translate(-153.132 -105.826)" style="mix-blend-mode:multiply;isolation:isolate"/><path id="Path_16245" fill="#e2e2e2" d="M126.089,232.233v0a1.584,1.584,0,0,1,.205-.427c.97-1.4,4.972-4.523,6.092-5.384-.056-.091-.094-.159-.094-.159s-.811-21.445,1.446-30.7c.829-3.39,3.893-7,7.441-10.215l.264-6.315-.541-3.989,29.445,16.5c-5.452,2.495-11.949,5.4-11.949,5.4s-4.071,40.282-4.279,40.438a.549.549,0,0,1,.217.333,9.987,9.987,0,0,1,.12,1.231c0,.026,0,.052,0,.078a1.472,1.472,0,0,1-.057.372l0,.018a1.006,1.006,0,0,1-.173.312l-.059.065a1.374,1.374,0,0,1-.331.261c-.818.468-1.714,1.053-5.923,3.274-.252.134-.5.251-.739.358-.078.033-.152.06-.23.091-.158.066-.315.13-.468.183-.088.031-.169.056-.254.081-.136.043-.272.087-.4.121-.088.022-.169.038-.251.058-.122.027-.242.052-.36.071-.082.016-.161.025-.241.034-.11.016-.217.027-.32.033-.078.005-.153.009-.229.011-.1,0-.188,0-.28,0-.074,0-.146-.005-.216-.012s-.158-.019-.235-.034a1.922,1.922,0,0,1-.208-.037c-.063-.014-.121-.034-.181-.05a1.972,1.972,0,0,1-.2-.065c-.04-.016-.075-.035-.113-.054a1.615,1.615,0,0,1-.214-.107,1.183,1.183,0,0,1-.6-1.417v0a1.571,1.571,0,0,1,.206-.429c.909-1.315,4.48-4.136,5.849-5.2-.084-.081-.14-.142-.14-.142s.025-20.531,1.33-29.969c.485-3.5-3.045-.261-.371-3.571-4.181,1.693-6.965-6.695-6.965-6.695l-3.544,31.393s-.074.036-.184.081a4.547,4.547,0,0,1,.032.533c0,.027,0,.052,0,.08a1.505,1.505,0,0,1-.058.37l0,.019a1,1,0,0,1-.173.311c-.019.022-.039.045-.059.065a1.391,1.391,0,0,1-.33.263c-.819.466-1.715,1.053-5.925,3.274q-.377.2-.738.355c-.078.036-.152.062-.23.095-.158.064-.315.128-.468.181-.087.031-.169.056-.254.083-.136.043-.272.087-.4.119-.087.022-.168.04-.25.058-.122.027-.242.054-.36.073-.082.014-.161.024-.241.035-.11.014-.217.024-.32.033-.078,0-.153.009-.229.009-.1,0-.188,0-.28,0-.074,0-.147-.007-.217-.013s-.158-.019-.235-.032-.142-.022-.208-.038-.121-.033-.181-.05-.141-.042-.2-.067c-.04-.016-.075-.035-.113-.052a2.191,2.191,0,0,1-.214-.107A1.185,1.185,0,0,1,126.089,232.233Z" data-name="Path 16245" transform="translate(-121.214 -106.377)" style="mix-blend-mode:multiply;isolation:isolate"/><path id="Path_16246" fill="#0b223d" d="M161.168,180.545s5.051.41,6.119,4.571c.848,3.576,2.285,1.414,1.99,2.076s-2.839,5.664-5.271,3.453-6.01-4.5-4.627-9.18A3.19,3.19,0,0,1,161.168,180.545Z" data-name="Path 16246" transform="translate(-149.412 -107.012)"/><path id="Path_16247" fill="#112f5b" d="M148.38,190.377s5.051.409,6.119,4.57c.847,3.576.884,3.723.589,4.387s-1.438,3.354-3.87,1.142-7.38-2.877-6-7.556C146.2,192.036,148.38,190.377,148.38,190.377Z" data-name="Path 16247" transform="translate(-122.886 -108.146)"/><g id="Group_10909" data-name="Group 10909"><path id="Path_16248" fill="url(#linear-gradient-4)" d="M164.145,122.58s.091-.9,2.516,4.483-3.4,22.564-4.78,24.45-18.7,7.193-22.513,1.312c2.377-1.222.081-2.978.548-5.727,7.075,2.476,17.271-1.788,19.434-3.582C162.957,140.528,157.614,130.024,164.145,122.58Z" data-name="Path 16248" transform="translate(-129.91 -100.317)"/><g id="Group_10906" data-name="Group 10906" transform="translate(0)"><g id="Group_10904" data-name="Group 10904" transform="translate(0 58.855)"><g id="Group_10901" data-name="Group 10901" transform="translate(0 49.838)"><path id="Path_16249" fill="#fe7386" d="M174.955,221.253s-5.91,3.96-7.041,5.6,1.325,3.39,5.534,1.168,5.105-2.806,5.924-3.272.76-2.738,0-4.1C178.774,219.581,174.955,221.253,174.955,221.253Z" data-name="Path 16249" transform="translate(-167.639 -220.291)"/><path id="Path_16250" fill="#4c4c4c" d="M179.32,224.37c-.819.468-1.715,1.052-5.924,3.274-3.163,1.668-5.334,1.093-5.74.011-.473,1.484,1.9,2.769,5.74.74,4.209-2.219,5.105-2.806,5.924-3.272.625-.359.68-.831.6-1.572A1.094,1.094,0,0,1,179.32,224.37Z" data-name="Path 16250" transform="translate(-167.587 -220.667)"/></g><path id="Path_16251" fill="url(#linear-gradient-5)" d="M167.646,164.23s-.194,11.888-10.7,14.472-24.236,6.607-24.236,6.607l-5.252,30.083s-1.786,1.779-3.189,1.2a1.709,1.709,0,0,1-1.013-1.809s-.727-22.258,1.216-31.585c1.437-6.9,25.82-17.291,25.82-17.291Z" data-name="Path 16251" transform="translate(-115.946 -163.984)"/><path id="Path_16252" fill="#112f5b" d="M123.128,179.55c5.624-7.932,18.916-15.6,18.916-15.6l22.817.246s-.194,11.888-10.7,14.472c-8.889,2.188-19.888,7.688-22.541,8.918C131.536,182.7,127.818,177.437,123.128,179.55Z" data-name="Path 16252" transform="translate(-113.16 -163.952)"/><g id="Group_10903" data-name="Group 10903" transform="translate(16.077 7.267)"><g id="Group_10902" data-name="Group 10902" transform="translate(0 52.542)"><path id="Path_16253" fill="#fe7386" d="M156.116,232.892s-5.261,3.975-6.391,5.613,1.324,3.39,5.533,1.168,5.105-2.805,5.924-3.272.82-2.955-.068-4.537C160.518,230.8,156.116,232.892,156.116,232.892Z" data-name="Path 16253" transform="translate(-149.45 -231.562)"/><path id="Path_16254" fill="#4c4c4c" d="M161.148,236.073c-.819.468-1.715,1.052-5.924,3.274-3.163,1.668-5.334,1.093-5.74.011-.473,1.484,1.9,2.769,5.74.74,4.209-2.22,5.105-2.805,5.924-3.272.625-.359.68-.831.6-1.572A1.092,1.092,0,0,1,161.148,236.073Z" data-name="Path 16254" transform="translate(-149.415 -231.988)"/></g><path id="Path_16255" fill="url(#linear-gradient-5)" d="M152.026,172.167s1.013,11.847-9.172,15.484-22.778,8.256-22.778,8.256l-2.47,29.837a3.486,3.486,0,0,1-2.912,1.364c-2.1,0-2.025-1.07-2.025-1.07s-2.223-21.579-.916-31.016,14.8-20.532,14.8-20.532Z" data-name="Path 16255" transform="translate(-106.003 -172.167)"/><path id="Path_16256" fill="#164072" d="M111.341,190.818c3.868-8.237,14.294-16.327,14.294-16.327l25.471-2.324s1.013,11.847-9.172,15.484c-8.951,3.2-19.245,9.545-21.341,10.8C119.226,193.938,117.146,189.466,111.341,190.818Z" data-name="Path 16256" transform="translate(-105.083 -172.167)"/></g></g><path id="Path_16257" fill="#9d58d6" d="M108.273,159.767s-1.133-35.515,9.7-39.664,20.759,5.724,24.995,15.285,3.117,26.207,0,32.388C128.107,178.005,107.85,164.678,108.273,159.767Z" data-name="Path 16257" transform="translate(-80.871 -99.926)"/><path id="Path_16258" fill="#b279e2" d="M134.261,135.388c-4.236-9.561-14.161-19.433-24.995-15.285a6.313,6.313,0,0,0-1.027.511c7.978,1.014,14.762,8.674,18.071,16.146,4.233,9.561,3.118,26.206,0,32.387a20.977,20.977,0,0,1-4.588,2.382,21.613,21.613,0,0,0,12.539-3.753C137.379,161.6,138.494,144.95,134.261,135.388Z" data-name="Path 16258" transform="translate(-72.162 -99.926)"/><g id="Group_10905" data-name="Group 10905" transform="translate(28.783)"><path id="Path_16259" fill="url(#linear-gradient-7)" d="M123.192,102.282s-2.7,4.329-.28,13.724c1.969,7.612,2.26,11.823,5.438,12.145s12.69-2,11.652-9.925c.947-.2,2.883-3.829,1.356-6.712s-2.6.268-2.6.268.061-6.282-4.379-8.572S123.192,102.282,123.192,102.282Z" data-name="Path 16259" transform="translate(-117.923 -97.935)"/><path id="Path_16260" fill="#112f5b" d="M137.187,109.316c-.016-.364-3.389,4.449-8.809,2.894a3.336,3.336,0,0,0,2.295-1.876,4.793,4.793,0,0,1-4.931,1.6,7.149,7.149,0,0,0,1.97-1.141,5.367,5.367,0,0,1-4.044.3c1.247-.538,1.061-1.361,1.061-1.361s-1.1,1.1-3.248-.766c.873-.112.786-4.117,3.938-7s5.711-3.554,9.933-2.843a3.9,3.9,0,0,0-3.619-1.43c1.686-.942,5.25.746,6.3,2.3,3.278-1.258,9.456.924,7.417,12.869-.033-.3-.315-2.243-1.472-2.611s-2.134,1.91-1.869,2.486a25.793,25.793,0,0,1,.387,3.984l-1.5.784s.464-2.962-.6-3.854S137.391,113.867,137.187,109.316Z" data-name="Path 16260" transform="translate(-121.479 -97.421)"/></g></g><g id="Group_10908" data-name="Group 10908" transform="translate(6.858 35.048)"><g id="Group_10907" data-name="Group 10907" transform="translate(1.389)"><path id="Path_16261" fill="#fff" d="M141.547,141.137l6.42,8.614,20.739-4.833-1.191,26.806-18.863-.229-6.212-7.559Z" data-name="Path 16261" transform="translate(-141.547 -137.513)"/><path id="Path_16262" fill="#e6f7ff" d="M164.217,137.04l6.42,12.238.685,21.743-6.212-7.559Z" data-name="Path 16262" transform="translate(-164.217 -137.04)"/></g><path id="Path_16263" fill="url(#linear-gradient-8)" d="M170.567,152.253s1.426,2.917,2.309,3.252.2,5.193-2.51,3.634S168.934,152.408,170.567,152.253Z" data-name="Path 16263" transform="translate(-168.793 -138.795)"/></g><path id="Path_16264" fill="url(#linear-gradient-4)" d="M107.6,158.221c1.507-.105,3.221.261,5.871.31s2.553-1.447,2.655-3.586c.837.622,1.345,2.29,2.7,3.271s1.99,0,1.99,0l.286.215c9.6-1.695,16.373-4.075,17.9-6.357,1.558-2.338-2.719-9.4-3.088-15.781,0,0-.854-8,4.281-5.091s6.851,23.407,6.851,25.745-17.211,5.582-26.211,6.4a12.384,12.384,0,0,1-5.185,1.785C107.893,164.987,106.1,158.325,107.6,158.221Z" data-name="Path 16264" transform="translate(-81.176 -101.245)"/><path id="Path_16265" fill="#9456c8" d="M106.612,135.589s.457-7.3,5.592-4.393c2.634,1.491,5.348,9.355,7.372,14.458a22.737,22.737,0,0,1-9.634,4.09A23.924,23.924,0,0,1,106.612,135.589Z" data-name="Path 16265" transform="translate(-53.189 -101.239)"/></g></g></g></g></g></g></g></g></svg>