<svg xmlns="http://www.w3.org/2000/svg" width="538.177" height="497.344" viewBox="0 0 538.177 497.344">
  <g id="Group_11286" data-name="Group 11286" transform="translate(244.442 -409.764)">
    <path id="Path_15976" data-name="Path 15976" d="M-1881.222-3523.674s100.344,51.577,152.012,29.222,71.169-62.827,119.856-70.133,93.456,15.122,162.536-46.755,98.383-111.774,49.7-204.261c-19.28-36.625-73.413-29-92.5-46.821-28.886-26.974-28.167-72.266-106.353-103.154-129.447-51.138-273.059-2.71-304.834,97.082S-1881.222-3523.674-1881.222-3523.674Z" transform="translate(1666.739 4395.942)" fill="rgba(173,223,255,0.2)"/>
    <path id="Path_16004" data-name="Path 16004" d="M19.714,39.429A19.714,19.714,0,1,0,0,19.714H0A19.737,19.737,0,0,0,19.714,39.429Z" transform="translate(102.294 518.064) rotate(17)" fill="#e6e6e6"/>
    <path id="Path_16922" data-name="Path 16922" d="M9.183,18.366A9.183,9.183,0,1,0,0,9.183H0A9.193,9.193,0,0,0,9.183,18.366Z" transform="translate(195.506 714.282) rotate(17)" fill="#e6e6e6"/>
    <circle id="Ellipse_124" data-name="Ellipse 124" cx="4.365" cy="4.365" r="4.365" transform="translate(58.271 649.707)" fill="#9456c8"/>
    <circle id="Ellipse_131" data-name="Ellipse 131" cx="6.865" cy="6.865" r="6.865" transform="translate(246.271 553.569)" fill="#9456c8"/>
  </g>
</svg>
