<svg xmlns="http://www.w3.org/2000/svg" xmlns:xlink="http://www.w3.org/1999/xlink" width="865.299" height="738.469" viewBox="0 0 865.299 738.469">
  <defs>
    <linearGradient id="linear-gradient" x1="0.051" y1="1.705" x2="1.583" y2="-1.171" gradientUnits="objectBoundingBox">
      <stop offset="0" stop-color="#fff"/>
      <stop offset="1" stop-color="#55b5ff"/>
    </linearGradient>
    <linearGradient id="linear-gradient-2" x1="0.456" y1="0.936" x2="2.71" y2="-3.152" xlink:href="#linear-gradient"/>
    <linearGradient id="linear-gradient-3" x1="-12.937" y1="0.651" x2="16.16" y2="0.324" gradientUnits="objectBoundingBox">
      <stop offset="0" stop-color="#ffe9d9"/>
      <stop offset="1" stop-color="#aba69f"/>
    </linearGradient>
    <linearGradient id="linear-gradient-4" x1="0.727" y1="1.204" x2="0.73" y2="-0.163" xlink:href="#linear-gradient-3"/>
    <linearGradient id="linear-gradient-5" x1="0.194" y1="-0.181" x2="1.182" y2="-0.181" gradientUnits="objectBoundingBox">
      <stop offset="0" stop-color="#ffe9d9"/>
      <stop offset="1" stop-color="#c7c1b9"/>
    </linearGradient>
    <linearGradient id="linear-gradient-6" x1="0.788" y1="0.389" x2="0.791" y2="-0.979" xlink:href="#linear-gradient-3"/>
    <linearGradient id="linear-gradient-7" x1="0.246" y1="-1.646" x2="1.234" y2="-1.646" xlink:href="#linear-gradient-5"/>
    <linearGradient id="linear-gradient-8" x1="0.718" y1="0.508" x2="0.722" y2="-0.86" xlink:href="#linear-gradient-3"/>
    <linearGradient id="linear-gradient-9" x1="0.187" y1="-1.432" x2="1.175" y2="-1.432" xlink:href="#linear-gradient-5"/>
  </defs>
  <g id="Group_11285" data-name="Group 11285" transform="translate(-811.413 -264.322)">
    <ellipse id="Ellipse_126" data-name="Ellipse 126" cx="18.186" cy="18.186" rx="18.186" ry="18.186" transform="translate(1235.771 542.681)" fill="#e6e6e6"/>
    <circle id="Ellipse_122" data-name="Ellipse 122" cx="4.365" cy="4.365" r="4.365" transform="translate(1431.271 617.323)" fill="#9456c8"/>
    <path id="Path_16007" data-name="Path 16007" d="M-1223.36-3544.3s-135.806,49.277-205.734,27.918-96.32-60.025-162.213-67-126.484,14.448-219.977-44.67-133.152-106.79-67.259-195.153c26.094-34.992,99.357-27.7,125.189-44.732,39.094-25.771,38.122-69.043,143.939-98.554,175.194-48.858,369.559-2.589,412.564,92.753S-1223.36-3544.3-1223.36-3544.3Z" transform="translate(4232.521 3377.148) rotate(-25)" fill="#f2f0f3"/>
    <g id="Group_11164" data-name="Group 11164" transform="translate(932.569 342.689)">
      <path id="Path_16644" data-name="Path 16644" d="M329.12,72.756a1.218,1.218,0,0,1,2.436,0V77a1.218,1.218,0,0,1-2.436,0V72.756Zm-1.035,5.277h-4.24a1.218,1.218,0,1,0,0,2.435h4.24a1.218,1.218,0,1,0,0-2.435Zm1.035,3.47a1.218,1.218,0,0,1,2.436,0v4.242a1.218,1.218,0,0,1-2.436,0V81.5Zm7.713-3.47h-4.242a1.218,1.218,0,0,0,0,2.435h4.242a1.218,1.218,0,0,0,0-2.435Z" fill="#fff" fill-rule="evenodd"/>
      <path id="Path_16645" data-name="Path 16645" d="M306.065,106.243a.853.853,0,1,1,1.706,0v2.968a.853.853,0,1,1-1.706,0v-2.968Zm-.724,3.694h-2.969a.852.852,0,0,0,0,1.7h2.969a.852.852,0,0,0,0-1.7Zm.724,2.429a.853.853,0,0,1,1.706,0v2.97a.853.853,0,0,1-1.706,0v-2.97Zm5.4-2.429h-2.969a.852.852,0,0,0,0,1.7h2.969a.852.852,0,1,0,0-1.7Z" fill="#fff" fill-rule="evenodd"/>
      <path id="Path_16646" data-name="Path 16646" d="M366.464,165.991a.853.853,0,0,1,1.705,0v2.97a.853.853,0,0,1-1.705,0v-2.97Zm-.725,3.694h-2.968a.852.852,0,1,0,0,1.7h2.968a.852.852,0,0,0,0-1.7Zm.725,2.43a.853.853,0,1,1,1.705,0v2.968a.853.853,0,1,1-1.705,0v-2.968Zm5.4-2.43h-2.968a.852.852,0,1,0,0,1.7h2.968a.852.852,0,0,0,0-1.7Z" fill="#fff" fill-rule="evenodd"/>
      <path id="Path_16647" data-name="Path 16647" d="M132.016,67.926a.852.852,0,0,1,1.7,0v2.969a.852.852,0,1,1-1.7,0V67.926Zm-.725,3.694h-2.969a.852.852,0,0,0,0,1.7h2.969a.852.852,0,1,0,0-1.7Zm.725,2.429a.852.852,0,0,1,1.7,0v2.969a.852.852,0,1,1-1.7,0V74.049Zm5.4-2.429h-2.97a.852.852,0,0,0,0,1.7h2.97a.852.852,0,0,0,0-1.7Z" fill="#fff" fill-rule="evenodd"/>
    </g>
    <path id="Path_16802" data-name="Path 16802" d="M1536.076,751.01a26.083,26.083,0,0,0-7.62,1.119,21.423,21.423,0,0,0-19.942-12.927c-10.082,0-18.536,6.622-20.807,15.54a15.9,15.9,0,0,0-5.629-1.022c-8.393,0-15.2,6.465-15.2,14.441h90.6C1557.485,758.689,1547.9,751.01,1536.076,751.01Z" transform="translate(-378.118 -25.376)" fill="url(#linear-gradient)"/>
    <path id="Path_16803" data-name="Path 16803" d="M2442.808,173.275a15.222,15.222,0,0,0-4.449.653,12.71,12.71,0,0,0-23.793,1.526,9.283,9.283,0,0,0-3.287-.6,8.661,8.661,0,0,0-8.873,8.432h52.9C2455.309,177.76,2449.712,173.275,2442.808,173.275Z" transform="translate(-1025.151 260.119)" fill="url(#linear-gradient-2)"/>
    <rect id="Rectangle_1313" data-name="Rectangle 1313" width="1" height="72.711" transform="translate(1353.939 686.599)" fill="url(#linear-gradient-3)"/>
    <path id="Path_16804" data-name="Path 16804" d="M2440.925,609.415s-7.077-8.707-19.491-1.673-19.343,12.267-33.708,5.009c0,0,8.6,29.137,26.5,19.887s26.7,2.631,26.7,2.631Z" transform="translate(-1085.985 77.184)" fill="#4da8f2"/>
    <path id="Path_16826" data-name="Path 16826" d="M482.29,1066.89l-186.95,25.667,11.751-49.675Z" transform="translate(550.11 -251.241)" fill="url(#linear-gradient-4)"/>
    <path id="Path_16827" data-name="Path 16827" d="M107.652,1042.882l175.2,24.008-220.987,3.64Z" transform="translate(749.55 -251.241)" fill="url(#linear-gradient-5)"/>
    <path id="Path_16828" data-name="Path 16828" d="M1134.815,567.747l-113.036,15.519,7.105-30.035Z" transform="translate(-15.012 124.949)" fill="url(#linear-gradient-6)"/>
    <path id="Path_16829" data-name="Path 16829" d="M918.988,553.231l105.931,14.516-133.616,2.2Z" transform="translate(94.885 124.949)" fill="url(#linear-gradient-7)"/>
    <path id="Path_16830" data-name="Path 16830" d="M1918.181,858.941l-198.356,27.232,12.468-52.705Z" transform="translate(-552.845 -98.46)" fill="url(#linear-gradient-8)"/>
    <path id="Path_16831" data-name="Path 16831" d="M1563.371,833.468l185.888,25.473-234.47,3.862Z" transform="translate(-383.923 -98.46)" fill="url(#linear-gradient-9)"/>
    <g id="Group_11043" data-name="Group 11043" transform="translate(1285.372 651.931)">
      <g id="Group_11042" data-name="Group 11042" transform="translate(0 0)">
        <path id="Path_16833" data-name="Path 16833" d="M2358.858,461.035s2.1-1.925,2.432-2.209a5.162,5.162,0,0,1,3.009-.206,22.528,22.528,0,0,1,3.4.477,1.16,1.16,0,0,1,.36.926,2.353,2.353,0,0,1-.331,1.147,1.432,1.432,0,0,1-.1,1.379,1.246,1.246,0,0,1-.33,1.348,1.044,1.044,0,0,1-.219,1.131,9.477,9.477,0,0,0-1.642.329,28.678,28.678,0,0,1-6.119-.065S2357.78,464.406,2358.858,461.035Z" transform="translate(-2358.475 -458.518)" fill="#8e4f3a"/>
      </g>
    </g>
    <g id="Group_11045" data-name="Group 11045" transform="translate(1288.813 654.776)">
      <g id="Group_11044" data-name="Group 11044" transform="translate(0 0)">
        <path id="Path_16834" data-name="Path 16834" d="M2375.055,471.42a7.018,7.018,0,0,1-.945,1.584c-.352.282,2.268,2.076,2.268,2.076S2376.62,472.183,2375.055,471.42Z" transform="translate(-2374.078 -471.42)" fill="#45261c"/>
      </g>
    </g>
    <g id="Group_11047" data-name="Group 11047" transform="translate(1289.329 652.479)">
      <g id="Group_11046" data-name="Group 11046" transform="translate(0 0)">
        <path id="Path_16835" data-name="Path 16835" d="M2381.3,461.01s-3.546.2-3.584.774a.9.9,0,0,0,.3.81l-1.423.744s-.663,1.024.646,1.448c0,0-.719.892.595,1.15,0,0-.212.8.375,1.027a11.844,11.844,0,0,0,2.863,0s.523-.251.282-1.119a1.228,1.228,0,0,0,.311-1.345,2.035,2.035,0,0,0,.214-1.719,1.7,1.7,0,0,0-.208-1.773S2381.449,461,2381.3,461.01Z" transform="translate(-2376.42 -461.006)" fill="#7a4432"/>
      </g>
    </g>
    <g id="Group_11049" data-name="Group 11049" transform="translate(1287.329 652.22)">
      <g id="Group_11048" data-name="Group 11048" transform="translate(0 0)">
        <path id="Path_16836" data-name="Path 16836" d="M2368.319,459.831a12.069,12.069,0,0,1,3.208,2.061c.222.243.392.518.25.816s-.753.469-1.74.091a8.914,8.914,0,0,0-2.436-.416S2366.7,461.7,2368.319,459.831Z" transform="translate(-2367.351 -459.831)" fill="#8e4f3a"/>
      </g>
    </g>
    <g id="Group_11050" data-name="Group 11050" transform="translate(1290.362 652.436)">
      <path id="Path_16837" data-name="Path 16837" d="M2385.527,462.631a31.235,31.235,0,0,0-4.2-.062c-.345.182-.264-1.226.042-1.361a27.581,27.581,0,0,1,3.83-.394A1.2,1.2,0,0,1,2385.527,462.631Z" transform="translate(-2381.105 -460.81)" fill="#8e4f3a"/>
    </g>
    <g id="Group_11051" data-name="Group 11051" transform="translate(1291.69 652.319)">
      <path id="Path_16838" data-name="Path 16838" d="M2389.214,460.277s6.287.456,6.284,1.186c0,.7-1.468,1.192-6.286.65C2384.527,461.586,2389.214,460.277,2389.214,460.277Z" transform="translate(-2387.13 -460.277)" fill="#8e4f3a"/>
    </g>
    <g id="Group_11054" data-name="Group 11054" transform="translate(1254.566 744.117)">
      <g id="Group_11053" data-name="Group 11053" transform="translate(0 0)">
        <g id="Group_11052" data-name="Group 11052">
          <path id="Path_16839" data-name="Path 16839" d="M2225.379,876.934s3.384,1.936,4.913,2.652,7.436.845,8.028,1.391.4,2.313-.574,2.507-8.142.943-10.544.417-6.866.479-7.863.156-.432-5.676-.065-6.881S2225.379,876.934,2225.379,876.934Z" transform="translate(-2218.779 -876.569)" fill="#292c47"/>
        </g>
      </g>
    </g>
    <g id="Group_11057" data-name="Group 11057" transform="translate(1255.062 742.226)">
      <g id="Group_11056" data-name="Group 11056" transform="translate(0 0)">
        <g id="Group_11055" data-name="Group 11055">
          <path id="Path_16840" data-name="Path 16840" d="M2226.946,867.992l.182,2.256s-4.474.9-6.105.241l.3-2.275Z" transform="translate(-2221.022 -867.992)" fill="#3d416b"/>
        </g>
      </g>
    </g>
    <g id="Group_11060" data-name="Group 11060" transform="translate(1194.367 756.57)">
      <g id="Group_11059" data-name="Group 11059" transform="translate(0 0)">
        <g id="Group_11058" data-name="Group 11058">
          <path id="Path_16841" data-name="Path 16841" d="M1952.782,933.753s3.217,2.2,4.684,3.038,7.344,1.438,7.89,2.03.215,2.338-.773,2.453-8.191.286-10.543-.431-6.883-.074-7.85-.476.025-5.693.487-6.864S1952.782,933.753,1952.782,933.753Z" transform="translate(-1945.781 -933.04)" fill="#292c47"/>
        </g>
      </g>
    </g>
    <g id="Group_11063" data-name="Group 11063" transform="translate(1195.525 754.799)">
      <g id="Group_11062" data-name="Group 11062" transform="translate(0 0)">
        <g id="Group_11061" data-name="Group 11061">
          <path id="Path_16842" data-name="Path 16842" d="M1957.3,925.331l-.424,2.162s-4.532.54-5.843-.24l.487-2.243Z" transform="translate(-1951.033 -925.01)" fill="#3d416b"/>
        </g>
      </g>
    </g>
    <path id="Path_16843" data-name="Path 16843" d="M1990.879,576.631c-.436,1.451-1.551,4.552-2.75,7.8-.267.722-.538,1.451-.808,2.171-1.629,4.368-3.173,8.4-3.173,8.4-2.354,5.373-7.87,16.835-10.541,18.847-3.6,2.714-19.553,31.287-19.553,31.287l-7.185-.85s7.813-21.361,11.065-26.085c3.63-5.277,9.33-12.174,9.938-18.035.382-3.678,2.658-15.1,2.658-15.1s2.667-12.808,8.436-21.172C1980.408,561.8,1990.879,576.631,1990.879,576.631Z" transform="translate(-752.262 111.435)" fill="#292c47"/>
    <g id="Group_11064" data-name="Group 11064" transform="translate(1225.34 683.319)">
      <path id="Path_16844" data-name="Path 16844" d="M2107.186,604.318s20.007,14.916,22.237,18,.873,7.949.54,9.448-6.692,26.113-6.859,28.7c0,0-6.166,1.523-7.75-.477,0,0,2.14-23.378,3.557-28.211s-5.363-8.007-9.28-9.756-23.734-11.271-23.384-15.126c.242-2.669.6-5.176.6-5.176S2090.74,598.573,2107.186,604.318Z" transform="translate(-2086.241 -600.858)" fill="#292c47"/>
    </g>
    <path id="Path_16845" data-name="Path 16845" d="M2163.9,443.555s12.989,2.443,19.012,3.192c1.889.235,19.738,1.6,20.468,1.709s.177,5.88.177,5.88-19.929-1.326-21.122-1.221-19.713-1.185-21.418-2.423-2.954-3.271-1.885-5.255C2160.63,442.652,2163.9,443.555,2163.9,443.555Z" transform="translate(-917.406 205.186)" fill="#7a3ab0"/>
    <g id="Group_11065" data-name="Group 11065" transform="translate(1225.146 643.667)">
      <path id="Path_16846" data-name="Path 16846" d="M2106.062,424.266s2.239,6.558,2.253,10.3-3.476,14.992-3.721,17.071c-.658,5.6,1.905,12.516,1.905,12.516l-20.64,3.964a129.2,129.2,0,0,1-.487-13.049c.1-7.12,2.166-12.962,2.676-17.033,1.739-13.892,13.121-16.994,13.121-16.994Z" transform="translate(-2085.36 -421.041)" fill="#7a3ab0"/>
    </g>
    <g id="Group_11066" data-name="Group 11066" transform="translate(1241.879 626.462)">
      <path id="Path_16847" data-name="Path 16847" d="M2174.7,347.24s1.864,3.454.94,3.99c-.763.444.894,3.833,1.111,4.387s-1.382.956-1.722,1.312-1.346,4.742-2.663,4.874-7.251-1.931-8.866-3.61-2.942-9.265-1.863-12.465S2171.407,341.207,2174.7,347.24Z" transform="translate(-2161.241 -343.021)" fill="#8e4f3a"/>
    </g>
    <g id="Group_11067" data-name="Group 11067" transform="translate(1241.733 631.526)">
      <path id="Path_16848" data-name="Path 16848" d="M2167.889,378.761s-.159.352-.394.9c-.1.229-.21.492-.329.777-.091.217-.187.448-.283.686a21.7,21.7,0,0,0-1.386,4.22c-.186,1.688-4.917-7.175-4.917-7.175a81.833,81.833,0,0,0,3.782-10.951C2165.922,361.281,2167.889,378.761,2167.889,378.761Z" transform="translate(-2160.58 -365.986)" fill="#8e4f3a"/>
    </g>
    <g id="Group_11068" data-name="Group 11068" transform="translate(1240.211 623.896)">
      <path id="Path_16849" data-name="Path 16849" d="M2169.173,338.916a5.305,5.305,0,0,0-1.552-6.5c-3.455-2.767-10.919.855-11.636,1.04s-3.583,1.666-1.641,8.849c1.753,6.488,2.045,5.975,2.045,5.975s1.285-3.134,2.032-3.676c1.167-.847,3.724-.643,3.724-.643s-1.219-3.235.686-3.693S2167.246,338.2,2169.173,338.916Z" transform="translate(-2153.679 -331.382)" fill="#161826"/>
    </g>
    <g id="Group_11069" data-name="Group 11069" transform="translate(1243.771 633.049)">
      <path id="Path_16850" data-name="Path 16850" d="M2172.7,374.467c-.168-.444-.711-2.351-2.347-1.231s1.02,4.714,1.305,4.76S2174.114,378.2,2172.7,374.467Z" transform="translate(-2169.824 -372.889)" fill="#8e4f3a"/>
    </g>
    <g id="Group_11070" data-name="Group 11070" transform="translate(1240.954 642.91)">
      <path id="Path_16851" data-name="Path 16851" d="M2158.166,417.609a68.294,68.294,0,0,0,5.167,6.926l-.609,3.382-5.674-9.552Z" transform="translate(-2157.049 -417.609)" fill="#eddad3"/>
    </g>
    <path id="Path_16852" data-name="Path 16852" d="M2177.244,415.311s-.158.352-.393.9c-.1.229-.21.492-.329.777-3.167-2.353-3.917-4.057-3.94-4.11A32.676,32.676,0,0,0,2177.244,415.311Z" transform="translate(-928.203 228.991)" fill="#4d2b1f"/>
    <path id="Path_16853" data-name="Path 16853" d="M2183.476,449.922A11.263,11.263,0,0,1,2183.9,453c-.06.322-.961-.085-.961-.085Z" transform="translate(-936.273 200.114)" fill="#292c47"/>
    <path id="Path_16854" data-name="Path 16854" d="M2107.572,608.579s-.587-1.8-.713-2.254l-20.123,3.748.2,2.47S2101.649,609.891,2107.572,608.579Z" transform="translate(-861.287 78.199)" fill="#23263d"/>
    <g id="Group_11071" data-name="Group 11071" transform="translate(1202.081 690.288)">
      <path id="Path_16855" data-name="Path 16855" d="M1990.547,641.921l-8.413-1.045a1.563,1.563,0,0,1-1.357-1.742l.659-5.3a1.563,1.563,0,0,1,1.742-1.357l8.413,1.045a1.563,1.563,0,0,1,1.357,1.742l-.659,5.3A1.563,1.563,0,0,1,1990.547,641.921Zm-7.5-8.408a.514.514,0,0,0-.573.446l-.659,5.3a.513.513,0,0,0,.446.573l8.413,1.045a.514.514,0,0,0,.573-.447l.659-5.3a.514.514,0,0,0-.447-.573Z" transform="translate(-1980.765 -632.461)" fill="#6e4629"/>
    </g>
    <g id="Group_11072" data-name="Group 11072" transform="translate(1191.132 693.198)">
      <rect id="Rectangle_1401" data-name="Rectangle 1401" width="29.621" height="19.055" transform="translate(2.349 0) rotate(7.081)" fill="#d88a51"/>
    </g>
    <g id="Group_11073" data-name="Group 11073" transform="translate(1192.438 693.198)">
      <rect id="Rectangle_1402" data-name="Rectangle 1402" width="29.621" height="8.461" transform="matrix(0.992, 0.123, -0.123, 0.992, 1.043, 0)" fill="#b57343"/>
    </g>
    <g id="Group_11074" data-name="Group 11074" transform="translate(1205.211 701.19)">
      <rect id="Rectangle_1403" data-name="Rectangle 1403" width="4.085" height="1.167" transform="translate(0.144 0) rotate(7.08)" fill="#6e4629"/>
    </g>
    <g id="Group_11075" data-name="Group 11075" transform="translate(1204.449 683.54)">
      <path id="Path_16856" data-name="Path 16856" d="M1991.537,609.6a3.365,3.365,0,0,1,.024-1.078s.26-.606.419-1.047a3.138,3.138,0,0,0,.108-.346,6.183,6.183,0,0,1,.546-1.9c.41-.776,2.137-3.372,2.137-3.372l2.474,1.08,2.322.3s.352,5.322.053,6.09a2.165,2.165,0,0,1-.1.214,7.868,7.868,0,0,1-1.017,1.268c-.075.113-.9,1.187-1.3,1.2a1.323,1.323,0,0,1-1.183-.5,3.164,3.164,0,0,1-1.672-.48,1.966,1.966,0,0,1-1.558-.764S1991.755,610.177,1991.537,609.6Z" transform="translate(-1991.502 -601.859)" fill="#8e4f3a"/>
    </g>
    <path id="Path_16857" data-name="Path 16857" d="M2036.588,433.491s-11.878,9.222-16.138,14.307c-1.336,1.595-9.476,17.449-10.011,18.053s-6.567-1.287-6.567-1.287,9.65-19.846,10.262-21,17.795-17.16,19.943-17.993,2.421.271,3.61,2.43C2039.354,431.027,2036.588,433.491,2036.588,433.491Z" transform="translate(-796.695 219.314)" fill="#9a49de"/>
    <g id="Group_11076" data-name="Group 11076" transform="translate(1222.749 643.667)">
      <path id="Path_16858" data-name="Path 16858" d="M2098.338,437.272c-.454,1.244-.879,2.5-1.275,3.77h0c-.873,2.784-1.613,5.6-2.238,8.342-.224.978-.432,1.948-.628,2.9a56.1,56.1,0,0,1-8.43,19.76s-9.15-.73-11.277-2.244a163.375,163.375,0,0,1,3.517-25.765c.226-.976.466-1.95.72-2.913h0c2.692-10.19,7.031-19.355,13.968-20.084C2092.829,421.2,2100.723,430.735,2098.338,437.272Z" transform="translate(-2074.49 -421.042)" fill="#9c49e1"/>
    </g>
    <path id="Path_16859" data-name="Path 16859" d="M2057.909,529.432a52.11,52.11,0,0,1-8.883,23.174c-.972,1.4,11.025,3.21,11.025,3.21Z" transform="translate(-831.848 138.136)" fill="#b472eb"/>
    <path id="Path_16860" data-name="Path 16860" d="M2099.381,479.543c-2.758,2.98-8.943,10.1-8.943,10.1.226-.976.466-1.95.72-2.913h0C2093.333,484.548,2099.288,479.619,2099.381,479.543Z" transform="translate(-864.173 177.024)" fill="#af7ada"/>
    <g id="Group_11078" data-name="Group 11078" transform="translate(1217.178 652.16)">
      <g id="Group_11077" data-name="Group 11077" transform="translate(0 0)">
        <path id="Path_16861" data-name="Path 16861" d="M2079.679,460.445s-1.213,8.208-8.28,8.766c-6.329.5-15.512,3.676-18.491,6.113l-3.684,3.212.884-4.258s2.658-6.748,21.213-5.906c0,0,5.688,1.063,7.544-8.817C2078.866,459.555,2079.8,460.042,2079.679,460.445Z" transform="translate(-2049.224 -459.555)" fill="#292c47"/>
      </g>
    </g>
    <g id="Group_11106" data-name="Group 11106" transform="translate(887.826 797.505)">
      <path id="Path_16875" data-name="Path 16875" d="M562.363,1119.139s-.51,3.573-.574,4.109-5.673-.316-5.673-.316l-.454-4.253S561.662,1118.635,562.363,1119.139Z" transform="translate(-555.662 -1118.678)" fill="#5c544d"/>
    </g>
    <g id="Group_11107" data-name="Group 11107" transform="translate(886.95 801.379)">
      <path id="Path_16876" data-name="Path 16876" d="M558.75,1136.488a15.193,15.193,0,0,0,3.5,3.091c1.719.938,4.42,1.31,5.437,2.282.734.7,2.672,3.72-4.467,3.659s-10.581.426-11.346-.731,1.107-8.542,1.107-8.542S554.668,1136.86,558.75,1136.488Z" transform="translate(-551.687 -1136.246)" fill="#3c4145"/>
    </g>
    <g id="Group_11108" data-name="Group 11108" transform="translate(928.017 797.505)">
      <path id="Path_16877" data-name="Path 16877" d="M744.621,1119.139s-.51,3.573-.574,4.109-5.673-.316-5.673-.316l-.454-4.253S743.92,1118.635,744.621,1119.139Z" transform="translate(-737.92 -1118.678)" fill="#5c544d"/>
    </g>
    <g id="Group_11109" data-name="Group 11109" transform="translate(927.14 801.379)">
      <path id="Path_16878" data-name="Path 16878" d="M741.008,1136.488a15.2,15.2,0,0,0,3.5,3.091c1.719.938,8.044,1.709,9.061,2.681.734.7,1.954,3.524-8.091,3.26-7.137-.188-10.581.426-11.346-.731s1.107-8.542,1.107-8.542S736.828,1136.9,741.008,1136.488Z" transform="translate(-733.945 -1136.246)" fill="#3c4145"/>
    </g>
    <g id="Group_11110" data-name="Group 11110" transform="translate(886.95 705.732)">
      <path id="Path_16879" data-name="Path 16879" d="M561.257,702.5s-2.985,8.865-2.592,16.505-1.544,16-2.336,23.981c-.882,8.9-4.495,29.961-4.625,34.72s.561,19.957.561,19.957l7.231.167s6.073-36.824,7.646-40.582,9.372-30.544,9.634-33.55S561.257,702.5,561.257,702.5Z" transform="translate(-551.687 -702.497)" fill="#33373b"/>
    </g>
    <g id="Group_11111" data-name="Group 11111" transform="translate(896.52 704.708)">
      <path id="Path_16880" data-name="Path 16880" d="M625.482,700.457s3.972,20.94,4.5,25.616.874,22.629,1.136,25.551,1.748,38.243,3.145,42.585h-9.244s-7.1-25.677-7.1-37.826-5.482-26.411-9.021-34.427-11.639-8.205-13.814-23.078C595.085,698.879,622.537,695.74,625.482,700.457Z" transform="translate(-595.085 -697.855)" fill="#3c4145"/>
    </g>
    <g id="Group_11112" data-name="Group 11112" transform="translate(903.57 635.079)">
      <path id="Path_16881" data-name="Path 16881" d="M631.618,382.764s7.287-2.721,10.647,2.825,3.036,16.647-.637,18.012-9.19.651-11.071-2.818-3.578-8.486-3.5-11.839S629.7,383.732,631.618,382.764Z" transform="translate(-627.057 -382.096)" fill="#eea886"/>
    </g>
    <g id="Group_11113" data-name="Group 11113" transform="translate(905.554 649.529)">
      <path id="Path_16882" data-name="Path 16882" d="M647.419,454.341a6.115,6.115,0,0,0,.192,2.85c.487.941-9.165.965-9.165.965a63.584,63.584,0,0,0-2.269-9.439C634.692,444.394,647.419,454.341,647.419,454.341Z" transform="translate(-636.057 -447.628)" fill="#eea886"/>
    </g>
    <g id="Group_11114" data-name="Group 11114" transform="translate(902.951 634.304)">
      <path id="Path_16883" data-name="Path 16883" d="M626.974,394.9s.666,1.1,3.385.672,6.037-4.043,7.172-4.44,1.146-1.064,1.146-1.064l.711,1.038,1.206.076s-1.1-3.235.559-4.555-1.722-10.472-10.443-7.425c0,0-6.7,1.846-6.454,5.654S625.475,393,626.974,394.9Z" transform="translate(-624.25 -378.581)" fill="#fccca2"/>
    </g>
    <g id="Group_11115" data-name="Group 11115" transform="translate(906.842 656.335)">
      <path id="Path_16884" data-name="Path 16884" d="M652.737,481.136s-.03-1.8-.845-1.97-8.994-.959-9.994-.565v2.094S643.824,481.88,652.737,481.136Z" transform="translate(-641.897 -478.492)" fill="#e2d2ca"/>
    </g>
    <g id="Group_11116" data-name="Group 11116" transform="translate(914.656 643.013)">
      <path id="Path_16885" data-name="Path 16885" d="M679.873,419.466c-.153-.639-1.777-2.464-2.4-.509s.94,4.583,1.811,4.358S680.26,421.086,679.873,419.466Z" transform="translate(-677.331 -418.079)" fill="#eea886"/>
    </g>
    <g id="Group_11117" data-name="Group 11117" transform="translate(879.83 658.538)">
      <path id="Path_16886" data-name="Path 16886" d="M557.252,488.92s4.484,1.612,9.678,3.818a10.9,10.9,0,0,1,6.622,8.826c.343,3.5,4.072,22.085,4.772,23.657s8.968,26.832,9.26,27.356-6.749,3.445-7.215,3.213-8.007-23.039-8.764-24.728c0,0-4.341-13.675-4.457-15.713,0,0-.125,5.81-.358,7.441s3.86,33.294,3.743,34.168-18.6,1.984-26,1.168a90.6,90.6,0,0,1-13.368-2.517s5.822-24.989,5.643-27.76c-.39-6.036-2.407-17.406-2.407-17.406l-6.032,11.37,7.722,19.86-1.769,6.036s-14.348-21.677-14.814-23.657.7-4.5,1.461-6.133,5.731-14.042,6.9-15.789,3.133-8.744,7.892-10.691a74.376,74.376,0,0,1,10.656-2.962Z" transform="translate(-519.401 -488.479)" fill="#495054"/>
    </g>
    <g id="Group_11118" data-name="Group 11118" transform="translate(921.502 701.843)">
      <rect id="Rectangle_1404" data-name="Rectangle 1404" width="34.895" height="24.339" transform="matrix(-0.969, 0.248, -0.248, -0.969, 39.846, 23.576)" fill="#4da8f2"/>
    </g>
    <g id="Group_11119" data-name="Group 11119" transform="translate(950.669 727.792)">
      <path id="Path_16887" data-name="Path 16887" d="M840.933,802.539s.966,1.561,1.319,2.006-.867.724-1.39.274S840.933,802.539,840.933,802.539Z" transform="translate(-840.647 -802.539)" fill="#c98462"/>
    </g>
    <g id="Group_11120" data-name="Group 11120" transform="translate(941.425 722.112)">
      <path id="Path_16888" data-name="Path 16888" d="M801.218,787.791a3.752,3.752,0,0,1-.693-.976s-.17-.712-.321-1.211a3.545,3.545,0,0,0-.133-.38,6.864,6.864,0,0,1-.773-2.053c-.149-.963-.57-5.286-.57-5.286l2.619-.659,2.1-.444s4.544,4.532,4.787,5.413a2.373,2.373,0,0,1,.056.255,8.77,8.77,0,0,1-.066,1.8c.008.151-.014,1.654-.365,1.935a1.468,1.468,0,0,1-1.388.334,3.512,3.512,0,0,1-1.807.68,2.183,2.183,0,0,1-1.894.352S801.793,788.159,801.218,787.791Z" transform="translate(-798.727 -776.781)" fill="#de9d7d"/>
    </g>
    <g id="Group_11121" data-name="Group 11121" transform="translate(933.696 703.034)">
      <path id="Path_16889" data-name="Path 16889" d="M763.675,693.008s6,18.164,7.1,20.071a19.793,19.793,0,0,0,7.215-3.213l-6.587-19.6Z" transform="translate(-763.675 -690.263)" fill="#495054"/>
    </g>
    <g id="Group_11124" data-name="Group 11124" transform="translate(1041.969 628.506)">
      <g id="Group_11123" data-name="Group 11123" transform="translate(0 0)">
        <path id="Path_16890" data-name="Path 16890" d="M1272.7,382.49c-.737,1.264-10.537,12.417-11.188,13.718s-4.767,6.668-4.767,6.668l-2.07-1.756s3.481-7.574,6.278-12.9h0c.27-.517.536-1.013.79-1.478a16.639,16.639,0,0,1,2.279-3.532c1.79-1.464,4.4-3.476,3.243-5.415s-5.744-12.355-5.856-13.4-8.919-17.5,7.057-10.28c0,0,4.352,10.752,4.18,17.215S1273.439,381.226,1272.7,382.49Z" transform="translate(-1254.678 -352.292)" fill="#db9b7b"/>
      </g>
    </g>
    <g id="Group_11126" data-name="Group 11126" transform="translate(1038.889 676.612)">
      <g id="Group_11125" data-name="Group 11125" transform="translate(0 0)">
        <path id="Path_16891" data-name="Path 16891" d="M1245.86,572.923a5.076,5.076,0,0,0-.017,2.024c.244.769.574,4.069,1.452,4.6s2.729.979,2.715,1.129c-.064.682-.635,1.024-2.575.874s-3.581-2.8-4.725-4.67-2.765-2.854-1.591-3.941,2.829-2.257,3.031-2.479S1245.86,572.923,1245.86,572.923Z" transform="translate(-1240.71 -570.445)" fill="#de9673"/>
      </g>
    </g>
    <g id="Group_11128" data-name="Group 11128" transform="translate(1034.718 627.856)">
      <g id="Group_11127" data-name="Group 11127" transform="translate(0 0)">
        <path id="Path_16892" data-name="Path 16892" d="M1229.033,350.915s-3.35,5.681-1.735,9.721c1.585,3.965,8.105,13.142,8.673,14.562s1.862,3.383.672,3.672a21.747,21.747,0,0,0-6.6,2.252c-2.014,1.088-5.213,1.378-7.367,2.141-.853.3-1.27,2.23-.394,2.773.649.4,17.386-1.713,19.947-3.076,1.114-.593,1.265-2.2.369-6.722-.4-2.039-2.4-8.763-2.971-11.268-.553-2.423-1.712-6.06-1.712-6.06S1240.491,344.7,1229.033,350.915Z" transform="translate(-1221.794 -349.342)" fill="#eea886"/>
      </g>
    </g>
    <g id="Group_11130" data-name="Group 11130" transform="translate(1026.609 659.098)">
      <g id="Group_11129" data-name="Group 11129" transform="translate(0 0)">
        <path id="Path_16893" data-name="Path 16893" d="M1193.764,496.506a18.246,18.246,0,0,0-2.317-.136c-.741.05-3.64-.092-4.459.033s-1.432,1.039-1.858.762.492-1.337,1.461-1.93a59.677,59.677,0,0,0,5.173-3.3c1.4-1.12,2.136-1.264,2.72-.115s1.044,2.906,1.313,3.393S1193.764,496.506,1193.764,496.506Z" transform="translate(-1185.023 -491.019)" fill="#eea886"/>
      </g>
    </g>
    <path id="Path_16894" data-name="Path 16894" d="M1263.764,377.379s1.446,1.893-12.351.642c0,0-12.7-14.382-7.6-22.222,2.7-4.148,15.854-1.566,15.854-1.566S1262.745,358.525,1263.764,377.379Z" transform="translate(-203.301 275.32)" fill="#50197e"/>
    <path id="Path_16895" data-name="Path 16895" d="M1249.709,587.11s.183-.825-2.474-1.1c-1.522-.155-4.147-3.855-4.4-4.285s-.786-2.9-1.256-3.021-2.08,1.431-.716,3.091,3.259,5.921,6.273,6.185C1249.5,588.192,1249.734,587.554,1249.709,587.11Z" transform="translate(-201.521 99.731)" fill="#363636"/>
    <path id="Path_16896" data-name="Path 16896" d="M1194.411,492.027s-.344-2.5-2.3-1.159a60.429,60.429,0,0,1-5.761,3.814c-2.1,1.114-2.014,1.924-1.461,2.293s1.951-.667,2.762-1.049S1190.009,493.588,1194.411,492.027Z" transform="translate(-158.051 168.503)" fill="#363636"/>
    <path id="Path_16897" data-name="Path 16897" d="M1283.942,504.012s4.524-.891,5.646-1.276c-1.064.444-5.953,2.485-6.436,2.755C1283.422,504.974,1283.688,504.477,1283.942,504.012Z" transform="translate(-234.904 158.946)" fill="#a77860"/>
    <path id="Path_16898" data-name="Path 16898" d="M1156.669,145.376s.59-1.642.672-1.9a4.2,4.2,0,0,0-.428-1.77,4.881,4.881,0,0,0-1.223-1.779.75.75,0,0,0-.627.011,1.444,1.444,0,0,0-.57.458.877.877,0,0,0-.755.382.763.763,0,0,0-.683.5s-.475.01-.587.391a5.768,5.768,0,0,1,.2,1,17.361,17.361,0,0,0,1.475,3.417S1155.02,146.781,1156.669,145.376Z" transform="translate(-133.038 441.796)" fill="#eea886"/>
    <path id="Path_16899" data-name="Path 16899" d="M1157.4,154a4.286,4.286,0,0,0-.671.908c-.076.265-1.859-.587-1.859-.587S1156.6,153.293,1157.4,154Z" transform="translate(-134.913 430.976)" fill="#cf8c6c"/>
    <path id="Path_16900" data-name="Path 16900" d="M1155.779,140.062s.726,2.049.41,2.207a.554.554,0,0,1-.528.024l-.084.979a.565.565,0,0,1-.97-.022s-.334.617-.79-.064c0,0-.4.309-.669.031a7.248,7.248,0,0,1-.68-1.615s.012-.345.559-.414a.767.767,0,0,1,.691-.51.83.83,0,0,1,.757-.377s.508-.787,1.214-.445C1155.691,139.855,1155.749,139.975,1155.779,140.062Z" transform="translate(-133.038 441.874)" fill="#db9c7c"/>
    <path id="Path_16901" data-name="Path 16901" d="M1165.624,151.07a7.391,7.391,0,0,0-1.923-1.323c-.19-.068-.385-.1-.52.052s-.087.536.361,1a5.457,5.457,0,0,1,.811,1.277S1164.953,152.425,1165.624,151.07Z" transform="translate(-141.337 434.14)" fill="#eea886"/>
    <g id="Group_11133" data-name="Group 11133" transform="translate(1070.646 621.519)">
      <g id="Group_11132" data-name="Group 11132" transform="translate(0 0)">
        <g id="Group_11131" data-name="Group 11131">
          <path id="Path_16902" data-name="Path 16902" d="M1386.542,320.6a2.87,2.87,0,0,1,.976.273,4.738,4.738,0,0,0,1.161.312,10.988,10.988,0,0,1,1.815.671c.111.073.607.79.849.914s.764.314.646.521-.636.163-.636.163a.339.339,0,0,1,.165.338c-.093.412-.351.48-.351.48s.13.271.048.433a.744.744,0,0,1-.433.417.681.681,0,0,1-.16.439.624.624,0,0,1-.564.208s-.2.4-.452.381a2.112,2.112,0,0,1-.606-.24,7.227,7.227,0,0,1-2.2-2.285,2.859,2.859,0,0,0-2.074-1.316Z" transform="translate(-1384.72 -320.602)" fill="#eea886"/>
        </g>
      </g>
    </g>
    <g id="Group_11134" data-name="Group 11134" transform="translate(1072.567 622.254)">
      <path id="Path_16903" data-name="Path 16903" d="M1401.869,328.647l-4.491,3.545a1.055,1.055,0,0,1-1.48-.174l-2.236-2.831a1.055,1.055,0,0,1,.174-1.48l4.491-3.544a1.055,1.055,0,0,1,1.48.174l2.236,2.831A1.054,1.054,0,0,1,1401.869,328.647Zm-7.594-.385a.347.347,0,0,0-.057.487l2.235,2.831a.347.347,0,0,0,.487.057l4.491-3.544a.347.347,0,0,0,.057-.487l-2.236-2.831a.347.347,0,0,0-.487-.057Z" transform="translate(-1393.436 -323.936)" fill="#0e1e2b"/>
    </g>
    <g id="Group_11135" data-name="Group 11135" transform="translate(1069.183 620.722)">
      <rect id="Rectangle_1405" data-name="Rectangle 1405" width="21.947" height="15.377" transform="translate(0 13.598) rotate(-38.284)" fill="#363636"/>
    </g>
    <g id="Group_11136" data-name="Group 11136" transform="translate(1069.182 620.722)">
      <rect id="Rectangle_1406" data-name="Rectangle 1406" width="21.947" height="8.913" transform="translate(0 13.598) rotate(-38.284)" fill="#4a4a4a"/>
    </g>
    <g id="Group_11138" data-name="Group 11138" transform="translate(1073.968 623.406)">
      <g id="Group_11137" data-name="Group 11137" transform="translate(0 0)">
        <path id="Path_16904" data-name="Path 16904" d="M1403.007,329.984s-1.227-.934-1.742-.811-.092.484-.092.484-.413-.365-.745-.064.187.7.187.7a.446.446,0,0,0-.6.22c-.215.412.292.643.292.643s-.7.034-.466.557a2.356,2.356,0,0,0,1.476,1.139.508.508,0,0,0,.51-.361.651.651,0,0,0,.748-.664s.739-.329.4-.872C1402.977,330.953,1403.725,330.492,1403.007,329.984Z" transform="translate(-1399.79 -329.162)" fill="#db9c7c"/>
      </g>
    </g>
    <g id="Group_11139" data-name="Group 11139" transform="translate(1047.915 604.839)">
      <path id="Path_16905" data-name="Path 16905" d="M1282.614,245.013a5.563,5.563,0,0,1,3.628.722,14.009,14.009,0,0,1,2.958,3.708c.455.631,5.745,6.249,6.005,6.347a52.307,52.307,0,0,1,6.26,3.128,40.1,40.1,0,0,0,5.985,2.8l-1.474,2.905s-10.419-3.347-12.355-5.08c-2.068-1.851-8.587-7.021-8.587-7.021S1279.443,248.105,1282.614,245.013Z" transform="translate(-1281.641 -244.962)" fill="#9456c8"/>
    </g>
    <g id="Group_11140" data-name="Group 11140" transform="translate(1036.179 604.319)">
      <path id="Path_16906" data-name="Path 16906" d="M1238.1,242.606a22.155,22.155,0,0,0,3.027.571c.751,0,4.277,3.086,5.032,4.318s.659,3.323.112,5.864.561,3.132.563,5.564a55.466,55.466,0,0,0,.925,8.751c.344,1.283-11.383,3.864-14.541,2.027,0,0,1.9-4.581,2.131-5.228s-.682-3.739-1.16-4.485-3.944-6.769-3.944-6.769-2.795-5.378-1.472-6.9c1.149-1.324,4.776-2.434,5.4-2.8A11.578,11.578,0,0,1,1238.1,242.606Z" transform="translate(-1228.421 -242.606)" fill="#eddad3"/>
    </g>
    <g id="Group_11141" data-name="Group 11141" transform="translate(1037.9 589.18)">
      <path id="Path_16907" data-name="Path 16907" d="M1238.633,174.847c1.151-.68,5.482-2.649,7.7,2.947s-.167,10.364-3.333,9.85-5.783-4.169-6.564-7.2A4.666,4.666,0,0,1,1238.633,174.847Z" transform="translate(-1236.228 -173.952)" fill="#eea886"/>
    </g>
    <g id="Group_11142" data-name="Group 11142" transform="translate(1037.348 588.727)">
      <path id="Path_16908" data-name="Path 16908" d="M1244.383,176.191s-.763-5.014-5.74-4.207-5.5,5.138-4.506,8.023a7.4,7.4,0,0,0,3.349,4.043s-.654-2.364.182-3.176,4.433-2.818,5.536-6.04A4.513,4.513,0,0,1,1244.383,176.191Z" transform="translate(-1233.722 -171.896)" fill="#252e3b"/>
    </g>
    <g id="Group_11143" data-name="Group 11143" transform="translate(1035.035 589.469)">
      <path id="Path_16909" data-name="Path 16909" d="M1229.94,179.51a3.393,3.393,0,1,1-2.87-4.226A3.628,3.628,0,0,1,1229.94,179.51Z" transform="translate(-1223.232 -175.262)" fill="#252e3b"/>
    </g>
    <g id="Group_11144" data-name="Group 11144" transform="translate(1041.104 599.736)">
      <path id="Path_16910" data-name="Path 16910" d="M1256.03,223.808a50.645,50.645,0,0,0,.675,5.124s-1.732,2.595-5.123-1.612a6.569,6.569,0,0,0-.651-4.623C1249.629,220.215,1256.03,223.808,1256.03,223.808Z" transform="translate(-1250.756 -221.823)" fill="#eea886"/>
    </g>
    <g id="Group_11145" data-name="Group 11145" transform="translate(1044.588 606.846)">
      <path id="Path_16911" data-name="Path 16911" d="M1269.022,254.062l.393,1.979-2.857-1.365Z" transform="translate(-1266.557 -254.063)" fill="#eea886"/>
    </g>
    <g id="Group_11146" data-name="Group 11146" transform="translate(1035.158 605.401)">
      <path id="Path_16912" data-name="Path 16912" d="M1230.206,247.512s3.867,4.68,4.58,6.542c1.727,4.514.951,16.105.9,20.99s-9.705,1.779-9.705,1.779,4.755-9.608,1.7-15.416a43.373,43.373,0,0,1-3.893-9.573,5.455,5.455,0,0,1,2.768-2.93C1228.475,248.208,1230.206,247.512,1230.206,247.512Z" transform="translate(-1223.79 -247.512)" fill="#9456c8"/>
    </g>
    <g id="Group_11147" data-name="Group 11147" transform="translate(1047.228 604.632)">
      <path id="Path_16913" data-name="Path 16913" d="M1285.767,249.06a33.528,33.528,0,0,1-.053,6.892s.857,4.927,1.21,6.57a42.279,42.279,0,0,0,3.136,7.56l-2.461,2.249a.446.446,0,0,1-.745-.28c-.484-4.378-3.214-23.9-8.33-28.024l2.029.221S1284.506,246.7,1285.767,249.06Z" transform="translate(-1278.524 -244.027)" fill="#8642c0"/>
    </g>
    <g id="Group_11148" data-name="Group 11148" transform="translate(1040.19 596.222)">
      <path id="Path_16914" data-name="Path 16914" d="M1248,206.219a.776.776,0,0,0-1.191-.1c-.3.329-.343,1.149.407,2.052S1250.046,209.394,1248,206.219Z" transform="translate(-1246.613 -205.887)" fill="#eea886"/>
    </g>
    <g id="Group_11149" data-name="Group 11149" transform="translate(1020.72 586.496)">
      <path id="Path_16915" data-name="Path 16915" d="M1181.411,191.946s-2.742,3.256-4.845.686a38.49,38.49,0,0,1-3.743-5.447c-.725-1.165-5.692-7.792-5.927-8.107s-2.835-4.681-3.615-6.342c-.593-1.263-4.758-9-4.955-9.3s3.61-1.653,3.61-1.653,4.255,7.659,4.692,8.432a49.1,49.1,0,0,0,3.306,5.738c1.078,1.187,4.887,6.077,5.59,6.128C1176.352,182.139,1183.086,190.16,1181.411,191.946Z" transform="translate(-1158.318 -161.782)" fill="#9456c8"/>
    </g>
    <g id="Group_11150" data-name="Group 11150" transform="translate(1042.092 601.724)">
      <path id="Path_16916" data-name="Path 16916" d="M1259.6,231.691l.072.767s-1.647.675-4.44-1.621A4.977,4.977,0,0,0,1259.6,231.691Z" transform="translate(-1255.234 -230.837)" fill="#a77860"/>
    </g>
    <path id="Path_16917" data-name="Path 16917" d="M1312.739,275.855a11.43,11.43,0,0,0-.62-5.162,10.656,10.656,0,0,1-.182,4.515Z" transform="translate(-257.342 339.82)" fill="#1d3b54"/>
    <path id="Path_16918" data-name="Path 16918" d="M1265.3,255.021l1.226,1.64-3.675-1.8Z" transform="translate(-219.08 352.164)" fill="#d6c5be"/>
    <path id="Path_16919" data-name="Path 16919" d="M1252.463,244.319s2.96,1.932,4.183,2.488l-1.908,2.268-2.988-3.949Z" transform="translate(-210.427 360.378)" fill="#fae6de"/>
    <path id="Path_16920" data-name="Path 16920" d="M1276.734,247.5s-.836-3.861-.784-4.4l1.253,2.416Z" transform="translate(-229.289 361.323)" fill="#d6c5be"/>
    <path id="Path_16921" data-name="Path 16921" d="M1275.958,243.107l.566.2,2.8,2.863-2.108-.651Z" transform="translate(-229.296 361.322)" fill="#fae6de"/>
  </g>
</svg>
