<svg width="217" height="47" viewBox="0 0 217 47" fill="none" xmlns="http://www.w3.org/2000/svg">
<path d="M0 7.20161C0 3.22427 3.22427 0 7.20161 0H39.7984C43.7757 0 47 3.22427 47 7.20161C47 11.179 43.7757 14.4032 39.7984 14.4032H7.20161C3.22427 14.4032 0 11.179 0 7.20161Z" fill="#7C00C8"/>
<path d="M39.7983 47C35.821 47 32.5967 43.7757 32.5967 39.7984V7.20161C32.5967 3.22427 35.821 0 39.7983 0C43.7756 0 46.9999 3.22427 46.9999 7.20161V39.7984C46.9999 43.7757 43.7756 47 39.7983 47Z" fill="#A82EF2"/>
<path d="M46.9999 7.20161C46.9999 3.22427 43.7756 0 39.7983 0C35.821 0 32.5967 3.22427 32.5967 7.20161V14.4032H39.7983C43.7756 14.4032 46.9999 11.179 46.9999 7.20161Z" fill="#58197E"/>
<circle cx="9.85484" cy="37.1452" r="9.85484" fill="#58197E"/>
<path d="M61 38.5519H66.6812V26.6299C66.6812 23.8831 68.2572 21.9935 70.9421 21.9935C73.5298 21.9935 74.8528 23.6299 74.8528 26.3182V38.5519H80.534V25.1104C80.534 20.2792 77.888 17.2792 73.2574 17.2792C70.0861 17.2792 67.8097 18.7597 66.7007 21.3896H66.5839V10.4416H61V38.5519Z" fill="#1F2030"/>
<path d="M84.2696 38.5519H89.9509V17.6688H84.2696V38.5519ZM87.0908 14.8442C88.7446 14.8442 90.0481 13.5195 90.0481 11.9221C90.0481 10.3052 88.7446 9 87.0908 9C85.437 9 84.1335 10.3052 84.1335 11.9221C84.1335 13.5195 85.437 14.8442 87.0908 14.8442Z" fill="#1F2030"/>
<path d="M99.6401 26.0455H99.5622V10.4416H93.881V38.5519H99.5622V31.6558L101.041 30.0584L107.014 38.5519H113.551L105.205 26.6299L113.162 17.6688H106.722L99.6401 26.0455Z" fill="#1F2030"/>
<path d="M123.571 21.4286C126.101 21.4286 127.832 23.2597 127.949 25.9286H119.096C119.291 23.3182 121.081 21.4286 123.571 21.4286ZM128.027 32.1623C127.501 33.7597 125.906 34.7922 123.824 34.7922C120.925 34.7922 119.038 32.7468 119.038 29.7662V29.4156H133.416V27.6818C133.416 21.3312 129.583 17.2208 123.513 17.2208C117.345 17.2208 113.454 21.5455 113.454 28.2078C113.454 34.8896 117.306 39 123.727 39C128.883 39 132.618 36.2532 133.241 32.1623H128.027Z" fill="#1F2030"/>
<path d="M165.499 17.6688H159.896L156.725 33.1558H156.608L152.892 17.6688H147.444L143.747 33.1558H143.631L140.479 17.6688H134.759L140.304 38.5519H146.277L150.032 23.7857H150.148L153.923 38.5519H159.974L165.499 17.6688Z" fill="#1F2030"/>
<path d="M167.815 38.5519H173.496V17.6688H167.815V38.5519ZM170.636 14.8442C172.29 14.8442 173.593 13.5195 173.593 11.9221C173.593 10.3052 172.29 9 170.636 9C168.982 9 167.678 10.3052 167.678 11.9221C167.678 13.5195 168.982 14.8442 170.636 14.8442Z" fill="#1F2030"/>
<path d="M176.94 23.8052C176.94 26.9416 178.983 28.9675 183.01 29.8247L186.57 30.5649C188.613 31.0325 189.333 31.6558 189.333 32.7662C189.333 34.1299 188.01 35.0065 185.87 35.0065C183.613 35.0065 182.31 34.0325 181.959 32.2013H176.414C176.784 36.3117 180.111 39 185.87 39C191.24 39 194.995 36.2922 194.995 32.1818C194.995 29.1234 193.205 27.4091 188.847 26.4935L185.286 25.7338C183.185 25.2857 182.407 24.5649 182.407 23.4935C182.407 22.1104 183.71 21.2143 185.675 21.2143C187.777 21.2143 189.041 22.3636 189.217 24.0584H194.45C194.334 19.9675 191.026 17.2208 185.675 17.2208C180.364 17.2208 176.94 19.8312 176.94 23.8052Z" fill="#1F2030"/>
<path d="M207.155 21.4286C209.684 21.4286 211.416 23.2597 211.533 25.9286H202.68C202.875 23.3182 204.665 21.4286 207.155 21.4286ZM211.611 32.1623C211.085 33.7597 209.49 34.7922 207.408 34.7922C204.509 34.7922 202.622 32.7468 202.622 29.7662V29.4156H217V27.6818C217 21.3312 213.167 17.2208 207.097 17.2208C200.929 17.2208 197.038 21.5455 197.038 28.2078C197.038 34.8896 200.89 39 207.311 39C212.467 39 216.202 36.2532 216.825 32.1623H211.611Z" fill="#1F2030"/>
</svg>
