<svg xmlns="http://www.w3.org/2000/svg" xmlns:xlink="http://www.w3.org/1999/xlink" viewBox="0 0 256 256"><defs><style>.a,.b,.c,.d,.e{stroke-miterlimit:10;stroke-width:2px;}.a{fill:url(#a);stroke:url(#b);}.b{fill:url(#c);stroke:url(#d);}.c{fill:url(#e);stroke:url(#f);}.d{fill:url(#g);stroke:url(#h);}.e{fill:url(#i);stroke:url(#j);}</style><linearGradient id="a" x1="9.97" y1="128" x2="246.03" y2="128" gradientUnits="userSpaceOnUse"><stop offset="0" stop-color="#96c"/><stop offset="1" stop-color="#f6f"/></linearGradient><linearGradient id="b" x1="8.97" y1="128" x2="247.03" y2="128" xlink:href="#a"/><linearGradient id="c" x1="51.4" y1="156.84" x2="135.38" y2="156.84" xlink:href="#a"/><linearGradient id="d" x1="50.4" y1="156.84" x2="136.38" y2="156.84" xlink:href="#a"/><linearGradient id="e" x1="78.29" y1="157.45" x2="108.54" y2="157.45" xlink:href="#a"/><linearGradient id="f" x1="77.29" y1="157.45" x2="109.54" y2="157.45" xlink:href="#a"/><linearGradient id="g" x1="188.74" y1="172.58" x2="220.47" y2="172.58" xlink:href="#a"/><linearGradient id="h" x1="187.74" y1="172.58" x2="221.64" y2="172.58" xlink:href="#a"/><linearGradient id="i" x1="172.1" y1="181.72" x2="203.77" y2="181.72" xlink:href="#a"/><linearGradient id="j" x1="171.1" y1="181.72" x2="204.96" y2="181.72" xlink:href="#a"/></defs><path class="a" d="M153.52,0c25.84,10.69.14,40.41-7.64,55.87,11.59,5.29,36.47,7.07,41.47,18.66,1.23,5.52,14.35,22.68,7.71,25.6-2.11.94-4,0-5.27-2.73C176.7,67.11,179.45,75.13,149.29,65c6.32,14.35,13,28.39,19.63,42.59,8.41,12.6-30,81.77-35.67,102.05a5.1,5.1,0,0,0,.1,4.67c4.32,9,8.49,18.08,12.73,27.12,2.65,5.65,6.58,7.11,12.17,4.5l74.83-35c5.31-2.49,6.77-6.56,4.27-11.9q-19.72-42.16-39.48-84.32c-1-2.41-.47-4.43,1.44-5.39,6.47-3.22,10.58,16.27,13.89,20.51q15.3,32.65,30.6,65.32c4.77,10.19,1.87,18.13-8.39,22.94l-73.91,34.6c-20.92,9.92-25.36-18-33.11-31.11-3.6,8.35-6.74,16.29-10.27,24.59-3.65,8.59-11.94,12.05-20.56,8.52-15-6.16-30-12.4-45-18.61-6-2.08-2.83-9.72,2.9-6.92q21.9,9.06,43.8,18.16c6.15,2.55,9.79,1.07,12.31-5q25.28-61,50.6-121.94a11.19,11.19,0,0,0-.17-9.78C154.63,98.63,143.57,61,133,57.21c-.39,3.19-.83,6.15-1,9.12,3.88,4.58,7.83,10.15,4.87,16.4-4.15,11.12-21.6,9.93-24.05-2a12.55,12.55,0,0,1,9.62-15.14c3.9-1,1.92-6,3.11-9.31-16.93,5.93-33.39,12.75-50.2,19a9.42,9.42,0,0,0-5.69,5.54q-25.48,61.58-51,123.12c-2.4,5.79-.8,9.57,5,12,4.3,3.05,17.79,3.79,15.76,10.77-3.76,5.76-14.37-3.34-19.63-4.27-8.37-3.58-11.88-12-8.39-20.44Q37,139.79,62.79,77.67a16,16,0,0,1,9.52-9.29q23.79-9,47.56-18.17c3-1.5,7.16-.34,7.24-4.85C131,29.1,130.89-.23,153.52,0Zm-14,51.91c7.18-12.07,17.07-24.08,17.46-38.56-.17-5.22-5.61-7.59-9.8-4.44-11,10.07-10,26.94-13.26,40.43ZM125,83c6.67.26,6.79-10.28.16-10.22C118.49,72.59,118.38,83.09,125,83Z"/><path class="b" d="M93.54,114.81a42.2,42.2,0,0,1,41.83,41c.09,2.95-1.2,4.66-3.56,4.77s-3.73-1.41-3.92-4.41c-1.24-43.55-66.12-44.42-68.88-1.48-2.27,37.09,48.37,50.56,65.06,17.82,1.84-5.39,9.92-2.69,6.92,3-11.53,24.61-46.7,31.61-66,12.07C36.3,163.4,56.46,113.93,93.54,114.81Z"/><path class="c" d="M92.31,174.6c-1.41,2.68-1.14,7.49-5.85,6.16s-2.09-5.22-1.64-8.19c-12.36-3.47-4.3-18.71.82-9.42.7,3.22,4.94,2.66,7.39,3.83,3.48,1.22,5.09-4.33,1.45-5.18-14.9-1.41-15.9-21.67.08-21.4,3.15-10.09,10.52-7.69,7.55,2.18,11.38,2.44,5.5,18.91-1,9.23-1-2.6-4.07-2.7-6.36-3.49-4.27-2-6.35,4.3-1.69,5.17C107.64,154.82,107.76,175.44,92.31,174.6Z"/><path class="d" d="M220.47,198.75c-.86,1-1.64,2.59-2.75,2.87-1.9.17-4.8-.63-5.28-3q-11.37-24.12-22.73-48.26c-1.3-2.22-1.61-5.22,1.14-6.41,2.51-1.37,4.71.7,5.55,3C204.35,164.32,213,181.17,220.47,198.75Z"/><path class="e" d="M203.77,207.82c-.94,1-1.78,2.51-2.94,2.82-1.83.21-4.62-.68-5.12-2.92q-11.47-24.36-22.9-48.74a4.12,4.12,0,0,1,2.12-6.2c3.53-.17,5.18,3.55,6.24,6.44C188.64,175.52,196.7,191.31,203.77,207.82Z"/></svg>