<svg xmlns="http://www.w3.org/2000/svg" xmlns:xlink="http://www.w3.org/1999/xlink" width="1163" height="241" viewBox="0 0 1163 241"><defs><clipPath id="a"><rect width="1163" height="241" transform="translate(277 432)" fill="#fff" stroke="#707070" stroke-width="1"/></clipPath></defs><g transform="translate(-277 -432)" clip-path="url(#a)"><g transform="translate(277 90)"><rect width="1162.886" height="581.443" transform="translate(0 0)" fill="#9456c8"/><path d="M353.217,278.6c-79.426-15.847-162.367-23.41-243.693-14.1A512.418,512.418,0,0,0,0,288.709v58.3H613.27c-84.233-24.132-167.744-49.4-252.624-67.018C358.177,279.493,355.706,279.056,353.217,278.6Z" transform="translate(0 234.438)" fill="rgba(154,88,209,0.96)"/><path d="M1162.886,0H0V523.147a512.563,512.563,0,0,1,109.524-24.341c81.326-9.235,164.267-1.748,243.693,14.1,2.489.513,4.959,1.026,7.43,1.463,84.879,17.443,168.39,42.867,252.719,67h549.521Z" transform="translate(0 0)" fill="rgba(160,91,218,0.96)"/><path d="M347.726,422.268c2.318.589,4.655,1.235,6.9,1.9,142.605,38.155,282.513,97.021,431.332,128.354,126.606,26.6,254.011,21.225,376.912-7.411V0H0V417.841a449.079,449.079,0,0,1,117.087-22.46C195.068,390.593,273.069,402.83,347.726,422.268Z" transform="translate(0 0)" fill="rgba(166,94,226,0.96)"/><path d="M0,0V312.1a404.86,404.86,0,0,1,124.573-20.142c74.713-.589,147.679,16.493,217.528,39.618l6.479,2.166c133.428,45.071,265.792,106.2,408.739,139.622,135.746,31.77,273.506,25.006,405.566-9.159V0Z" transform="translate(0 0)" fill="rgba(171,98,233,0.96)"/><path d="M132.136,188.532c71.369,4.37,139.47,25.576,204.455,52.406,2.033.8,3.99,1.672,6.023,2.47C466.9,295.453,591.685,358.614,728.761,394.355c144.411,37.661,293.192,29.661,434.125-10.755V0H0V205.823a351.886,351.886,0,0,1,132.136-17.291Z" transform="translate(0 0)" fill="rgba(177,103,240,0.96)"/><path d="M1162.886,0H0V99.054A313.028,313.028,0,0,1,139.7,85.107c68.025,8.8,131.11,34.678,191.363,65.118,1.9.95,3.8,1.9,5.586,2.831,115.129,58.9,232.368,124.212,363.63,162.234,152.98,44.33,313.105,35.609,462.684-12.066V0Z" transform="translate(0 0)" fill="rgba(166,91,230,0.96)"/><path d="M231.429,62.7C337.4,128.621,447.076,195.714,572.447,236.187c151.612,48.986,313.523,44.2,463.634-3.8,9.311-2.983,18.469-6.118,27.7-9.387V0H110.2c40.7,15.486,79.008,36.768,116.061,59.588C228.009,60.614,229.681,61.7,231.429,62.7Z" transform="translate(99.195 0)" fill="rgba(155,81,218,0.96)"/><path d="M991.427,0H190.48C276.328,62.363,367.459,119.557,471.7,157.142c139.394,50.3,290.722,54.287,432.434,15.334a713.413,713.413,0,0,0,87.406-30.4V0Z" transform="translate(171.459 0)" fill="rgba(144,72,205,0.96)"/><path d="M794.177,112.507A625.58,625.58,0,0,0,894.884,80.68q23.676-9.71,46.477-21.453V0H246.1A821.28,821.28,0,0,0,392.981,78.058C520.1,129.438,660.958,142.511,794.177,112.507Z" transform="translate(221.525 0)" fill="rgba(132,66,189,0.96)"/><path d="M677.385,52.615A533.578,533.578,0,0,0,834.907,0H309.48C424.1,51.608,553.4,73.4,677.385,52.615Z" transform="translate(278.575)" fill="rgba(120,70,163,0.96)"/></g></g></svg>