<svg xmlns="http://www.w3.org/2000/svg" xmlns:xlink="http://www.w3.org/1999/xlink" width="377.08" height="649" viewBox="0 0 377.08 649">
  <defs>
    <clipPath id="clip-path">
      <rect width="248" height="649" fill="none"/>
    </clipPath>
    <filter id="Rectangle_1476" x="64.522" y="0" width="248" height="72" filterUnits="userSpaceOnUse">
      <feOffset dy="3" input="SourceAlpha"/>
      <feGaussianBlur stdDeviation="3" result="blur"/>
      <feFlood flood-opacity="0.161"/>
      <feComposite operator="in" in2="blur"/>
      <feComposite in="SourceGraphic"/>
    </filter>
    <filter id="Rectangle_1476-2" x="64.522" y="81" width="248" height="72" filterUnits="userSpaceOnUse">
      <feOffset dy="3" input="SourceAlpha"/>
      <feGaussianBlur stdDeviation="3" result="blur-2"/>
      <feFlood flood-opacity="0.161"/>
      <feComposite operator="in" in2="blur-2"/>
      <feComposite in="SourceGraphic"/>
    </filter>
    <filter id="Rectangle_1476-3" x="64.522" y="162" width="248" height="72" filterUnits="userSpaceOnUse">
      <feOffset dy="3" input="SourceAlpha"/>
      <feGaussianBlur stdDeviation="3" result="blur-3"/>
      <feFlood flood-opacity="0.161"/>
      <feComposite operator="in" in2="blur-3"/>
      <feComposite in="SourceGraphic"/>
    </filter>
    <filter id="Rectangle_1476-4" x="64.522" y="243" width="248" height="72" filterUnits="userSpaceOnUse">
      <feOffset dy="3" input="SourceAlpha"/>
      <feGaussianBlur stdDeviation="3" result="blur-4"/>
      <feFlood flood-opacity="0.161"/>
      <feComposite operator="in" in2="blur-4"/>
      <feComposite in="SourceGraphic"/>
    </filter>
    <filter id="Rectangle_1476-5" x="64.522" y="324" width="248" height="72" filterUnits="userSpaceOnUse">
      <feOffset dy="3" input="SourceAlpha"/>
      <feGaussianBlur stdDeviation="3" result="blur-5"/>
      <feFlood flood-opacity="0.161"/>
      <feComposite operator="in" in2="blur-5"/>
      <feComposite in="SourceGraphic"/>
    </filter>
    <filter id="Rectangle_1476-6" x="64.522" y="405" width="248" height="72" filterUnits="userSpaceOnUse">
      <feOffset dy="3" input="SourceAlpha"/>
      <feGaussianBlur stdDeviation="3" result="blur-6"/>
      <feFlood flood-opacity="0.161"/>
      <feComposite operator="in" in2="blur-6"/>
      <feComposite in="SourceGraphic"/>
    </filter>
    <filter id="Rectangle_1476-7" x="64.522" y="486" width="248" height="72" filterUnits="userSpaceOnUse">
      <feOffset dy="3" input="SourceAlpha"/>
      <feGaussianBlur stdDeviation="3" result="blur-7"/>
      <feFlood flood-opacity="0.161"/>
      <feComposite operator="in" in2="blur-7"/>
      <feComposite in="SourceGraphic"/>
    </filter>
    <filter id="Rectangle_1476-8" x="64.522" y="567" width="248" height="72" filterUnits="userSpaceOnUse">
      <feOffset dy="3" input="SourceAlpha"/>
      <feGaussianBlur stdDeviation="3" result="blur-8"/>
      <feFlood flood-opacity="0.161"/>
      <feComposite operator="in" in2="blur-8"/>
      <feComposite in="SourceGraphic"/>
    </filter>
  </defs>
  <g id="Group_11208" data-name="Group 11208" transform="translate(-531.478 -3130)">
    <path id="Path_17065" data-name="Path 17065" d="M-12839.006,13000.777s-87.178,74.324-74.8,168.069,74.8,148.876,74.8,148.876" transform="translate(13447.006 -9827)" fill="none" stroke="#707070" stroke-width="1" stroke-dasharray="4" opacity="0.51"/>
    <path id="Path_17068" data-name="Path 17068" d="M-12839.006,13000.777s-87.178,74.324-74.8,168.069,74.8,148.876,74.8,148.876" transform="translate(13447.007 -9668.527)" fill="none" stroke="#707070" stroke-width="1" stroke-dasharray="4"/>
    <path id="Path_17066" data-name="Path 17066" d="M-12915.006,13000.777s87.178,74.324,74.8,168.069-74.8,148.876-74.8,148.876" transform="translate(13747.005 -9680)" fill="none" stroke="#707070" stroke-width="1" stroke-dasharray="4"/>
    <path id="Path_17067" data-name="Path 17067" d="M-12915.006,13000.777s87.178,74.324,74.8,168.069-74.8,148.876-74.8,148.876" transform="translate(13747.005 -9827)" fill="none" stroke="#707070" stroke-width="1" stroke-dasharray="4" opacity="0.5"/>
    <g id="Repeat_Grid_12" data-name="Repeat Grid 12" transform="translate(596 3130)" clip-path="url(#clip-path)">
      <g transform="translate(-577 -3114)">
        <g transform="matrix(1, 0, 0, 1, 512.48, 3114)" filter="url(#Rectangle_1476)">
          <rect id="Rectangle_1476-9" data-name="Rectangle 1476" width="230" height="54" rx="5" transform="translate(73.52 6)" fill="#f3e5ff"/>
        </g>
      </g>
      <g transform="translate(-577 -3033)">
        <g transform="matrix(1, 0, 0, 1, 512.48, 3033)" filter="url(#Rectangle_1476-2)">
          <rect id="Rectangle_1476-10" data-name="Rectangle 1476" width="230" height="54" rx="5" transform="translate(73.52 87)" fill="#f3e5ff"/>
        </g>
      </g>
      <g transform="translate(-577 -2952)">
        <g transform="matrix(1, 0, 0, 1, 512.48, 2952)" filter="url(#Rectangle_1476-3)">
          <rect id="Rectangle_1476-11" data-name="Rectangle 1476" width="230" height="54" rx="5" transform="translate(73.52 168)" fill="#f3e5ff"/>
        </g>
      </g>
      <g transform="translate(-577 -2871)">
        <g transform="matrix(1, 0, 0, 1, 512.48, 2871)" filter="url(#Rectangle_1476-4)">
          <rect id="Rectangle_1476-12" data-name="Rectangle 1476" width="230" height="54" rx="5" transform="translate(73.52 249)" fill="#f3e5ff"/>
        </g>
      </g>
      <g transform="translate(-577 -2790)">
        <g transform="matrix(1, 0, 0, 1, 512.48, 2790)" filter="url(#Rectangle_1476-5)">
          <rect id="Rectangle_1476-13" data-name="Rectangle 1476" width="230" height="54" rx="5" transform="translate(73.52 330)" fill="#f3e5ff"/>
        </g>
      </g>
      <g transform="translate(-577 -2709)">
        <g transform="matrix(1, 0, 0, 1, 512.48, 2709)" filter="url(#Rectangle_1476-6)">
          <rect id="Rectangle_1476-14" data-name="Rectangle 1476" width="230" height="54" rx="5" transform="translate(73.52 411)" fill="#f3e5ff"/>
        </g>
      </g>
      <g transform="translate(-577 -2628)">
        <g transform="matrix(1, 0, 0, 1, 512.48, 2628)" filter="url(#Rectangle_1476-7)">
          <rect id="Rectangle_1476-15" data-name="Rectangle 1476" width="230" height="54" rx="5" transform="translate(73.52 492)" fill="#f3e5ff"/>
        </g>
      </g>
      <g transform="translate(-577 -2547)">
        <g transform="matrix(1, 0, 0, 1, 512.48, 2547)" filter="url(#Rectangle_1476-8)">
          <rect id="Rectangle_1476-16" data-name="Rectangle 1476" width="230" height="54" rx="5" transform="translate(73.52 573)" fill="#f3e5ff"/>
        </g>
      </g>
    </g>
  </g>
</svg>
