<svg xmlns="http://www.w3.org/2000/svg" xmlns:xlink="http://www.w3.org/1999/xlink" width="377.08" height="649" viewBox="0 0 377.08 649"><defs><clipPath id="clip-path"><rect width="248" height="649" fill="none"/></clipPath><filter id="Rectangle_1476" width="248" height="72" x="64.522" y="0" filterUnits="userSpaceOnUse"><feOffset dy="3" input="SourceAlpha"/><feGaussianBlur result="blur" stdDeviation="3"/><feFlood flood-opacity=".161"/><feComposite in2="blur" operator="in"/><feComposite in="SourceGraphic"/></filter><filter id="Rectangle_1476-2" width="248" height="72" x="64.522" y="81" filterUnits="userSpaceOnUse"><feOffset dy="3" input="SourceAlpha"/><feGaussianBlur result="blur-2" stdDeviation="3"/><feFlood flood-opacity=".161"/><feComposite in2="blur-2" operator="in"/><feComposite in="SourceGraphic"/></filter><filter id="Rectangle_1476-3" width="248" height="72" x="64.522" y="162" filterUnits="userSpaceOnUse"><feOffset dy="3" input="SourceAlpha"/><feGaussianBlur result="blur-3" stdDeviation="3"/><feFlood flood-opacity=".161"/><feComposite in2="blur-3" operator="in"/><feComposite in="SourceGraphic"/></filter><filter id="Rectangle_1476-4" width="248" height="72" x="64.522" y="243" filterUnits="userSpaceOnUse"><feOffset dy="3" input="SourceAlpha"/><feGaussianBlur result="blur-4" stdDeviation="3"/><feFlood flood-opacity=".161"/><feComposite in2="blur-4" operator="in"/><feComposite in="SourceGraphic"/></filter><filter id="Rectangle_1476-5" width="248" height="72" x="64.522" y="324" filterUnits="userSpaceOnUse"><feOffset dy="3" input="SourceAlpha"/><feGaussianBlur result="blur-5" stdDeviation="3"/><feFlood flood-opacity=".161"/><feComposite in2="blur-5" operator="in"/><feComposite in="SourceGraphic"/></filter><filter id="Rectangle_1476-6" width="248" height="72" x="64.522" y="405" filterUnits="userSpaceOnUse"><feOffset dy="3" input="SourceAlpha"/><feGaussianBlur result="blur-6" stdDeviation="3"/><feFlood flood-opacity=".161"/><feComposite in2="blur-6" operator="in"/><feComposite in="SourceGraphic"/></filter><filter id="Rectangle_1476-7" width="248" height="72" x="64.522" y="486" filterUnits="userSpaceOnUse"><feOffset dy="3" input="SourceAlpha"/><feGaussianBlur result="blur-7" stdDeviation="3"/><feFlood flood-opacity=".161"/><feComposite in2="blur-7" operator="in"/><feComposite in="SourceGraphic"/></filter><filter id="Rectangle_1476-8" width="248" height="72" x="64.522" y="567" filterUnits="userSpaceOnUse"><feOffset dy="3" input="SourceAlpha"/><feGaussianBlur result="blur-8" stdDeviation="3"/><feFlood flood-opacity=".161"/><feComposite in2="blur-8" operator="in"/><feComposite in="SourceGraphic"/></filter></defs><g id="Group_11208" data-name="Group 11208" transform="translate(-531.478 -3130)"><path id="Path_17065" fill="none" stroke="#707070" stroke-dasharray="4" stroke-width="1" d="M-12839.006,13000.777s-87.178,74.324-74.8,168.069,74.8,148.876,74.8,148.876" data-name="Path 17065" opacity=".51" transform="translate(13447.006 -9827)"/><path id="Path_17068" fill="none" stroke="#707070" stroke-dasharray="4" stroke-width="1" d="M-12839.006,13000.777s-87.178,74.324-74.8,168.069,74.8,148.876,74.8,148.876" data-name="Path 17068" transform="translate(13447.007 -9668.527)"/><path id="Path_17066" fill="none" stroke="#707070" stroke-dasharray="4" stroke-width="1" d="M-12915.006,13000.777s87.178,74.324,74.8,168.069-74.8,148.876-74.8,148.876" data-name="Path 17066" transform="translate(13747.005 -9680)"/><path id="Path_17067" fill="none" stroke="#707070" stroke-dasharray="4" stroke-width="1" d="M-12915.006,13000.777s87.178,74.324,74.8,168.069-74.8,148.876-74.8,148.876" data-name="Path 17067" opacity=".5" transform="translate(13747.005 -9827)"/><g id="Repeat_Grid_12" clip-path="url(#clip-path)" data-name="Repeat Grid 12" transform="translate(596 3130)"><g><g filter="url(#Rectangle_1476)" transform="translate(-577 -3114) matrix(1, 0, 0, 1, 512.48, 3114)"><rect id="Rectangle_1476-9" width="230" height="54" fill="#f3e5ff" data-name="Rectangle 1476" rx="5" transform="translate(73.52 6)"/></g></g><g><g filter="url(#Rectangle_1476-2)" transform="translate(-577 -3033) matrix(1, 0, 0, 1, 512.48, 3033)"><rect id="Rectangle_1476-10" width="230" height="54" fill="#f3e5ff" data-name="Rectangle 1476" rx="5" transform="translate(73.52 87)"/></g></g><g><g filter="url(#Rectangle_1476-3)" transform="translate(-577 -2952) matrix(1, 0, 0, 1, 512.48, 2952)"><rect id="Rectangle_1476-11" width="230" height="54" fill="#f3e5ff" data-name="Rectangle 1476" rx="5" transform="translate(73.52 168)"/></g></g><g><g filter="url(#Rectangle_1476-4)" transform="translate(-577 -2871) matrix(1, 0, 0, 1, 512.48, 2871)"><rect id="Rectangle_1476-12" width="230" height="54" fill="#f3e5ff" data-name="Rectangle 1476" rx="5" transform="translate(73.52 249)"/></g></g><g><g filter="url(#Rectangle_1476-5)" transform="translate(-577 -2790) matrix(1, 0, 0, 1, 512.48, 2790)"><rect id="Rectangle_1476-13" width="230" height="54" fill="#f3e5ff" data-name="Rectangle 1476" rx="5" transform="translate(73.52 330)"/></g></g><g><g filter="url(#Rectangle_1476-6)" transform="translate(-577 -2709) matrix(1, 0, 0, 1, 512.48, 2709)"><rect id="Rectangle_1476-14" width="230" height="54" fill="#f3e5ff" data-name="Rectangle 1476" rx="5" transform="translate(73.52 411)"/></g></g><g><g filter="url(#Rectangle_1476-7)" transform="translate(-577 -2628) matrix(1, 0, 0, 1, 512.48, 2628)"><rect id="Rectangle_1476-15" width="230" height="54" fill="#f3e5ff" data-name="Rectangle 1476" rx="5" transform="translate(73.52 492)"/></g></g><g><g filter="url(#Rectangle_1476-8)" transform="translate(-577 -2547) matrix(1, 0, 0, 1, 512.48, 2547)"><rect id="Rectangle_1476-16" width="230" height="54" fill="#f3e5ff" data-name="Rectangle 1476" rx="5" transform="translate(73.52 573)"/></g></g></g></g></svg>