<svg xmlns="http://www.w3.org/2000/svg" xmlns:xlink="http://www.w3.org/1999/xlink" width="842" height="488" viewBox="0 0 842 488">
  <defs>
    <filter id="Rectangle_1471" x="0" y="0" width="276" height="104" filterUnits="userSpaceOnUse">
      <feOffset dy="3" input="SourceAlpha"/>
      <feGaussianBlur stdDeviation="3" result="blur"/>
      <feFlood flood-opacity="0.161"/>
      <feComposite operator="in" in2="blur"/>
      <feComposite in="SourceGraphic"/>
    </filter>
    <filter id="Path_17064" x="392" y="256" width="450" height="104" filterUnits="userSpaceOnUse">
      <feOffset dy="3" input="SourceAlpha"/>
      <feGaussianBlur stdDeviation="3" result="blur-2"/>
      <feFlood flood-opacity="0.161"/>
      <feComposite operator="in" in2="blur-2"/>
      <feComposite in="SourceGraphic"/>
    </filter>
    <filter id="Rectangle_1475" x="392" y="384" width="450" height="104" filterUnits="userSpaceOnUse">
      <feOffset dy="3" input="SourceAlpha"/>
      <feGaussianBlur stdDeviation="3" result="blur-3"/>
      <feFlood flood-opacity="0.161"/>
      <feComposite operator="in" in2="blur-3"/>
      <feComposite in="SourceGraphic"/>
    </filter>
    <filter id="Rectangle_1471-2" x="290" y="0" width="276" height="104" filterUnits="userSpaceOnUse">
      <feOffset dy="3" input="SourceAlpha"/>
      <feGaussianBlur stdDeviation="3" result="blur-4"/>
      <feFlood flood-opacity="0.161"/>
      <feComposite operator="in" in2="blur-4"/>
      <feComposite in="SourceGraphic"/>
    </filter>
    <filter id="Path_17063" x="566" y="0" width="276" height="104" filterUnits="userSpaceOnUse">
      <feOffset dy="3" input="SourceAlpha"/>
      <feGaussianBlur stdDeviation="3" result="blur-5"/>
      <feFlood flood-opacity="0.161"/>
      <feComposite operator="in" in2="blur-5"/>
      <feComposite in="SourceGraphic"/>
    </filter>
    <filter id="Rectangle_1473" x="392" y="128" width="448" height="104" filterUnits="userSpaceOnUse">
      <feOffset dy="3" input="SourceAlpha"/>
      <feGaussianBlur stdDeviation="3" result="blur-6"/>
      <feFlood flood-opacity="0.161"/>
      <feComposite operator="in" in2="blur-6"/>
      <feComposite in="SourceGraphic"/>
    </filter>
    <filter id="Rectangle_1472" x="0" y="130" width="276" height="104" filterUnits="userSpaceOnUse">
      <feOffset dy="3" input="SourceAlpha"/>
      <feGaussianBlur stdDeviation="3" result="blur-7"/>
      <feFlood flood-opacity="0.161"/>
      <feComposite operator="in" in2="blur-7"/>
      <feComposite in="SourceGraphic"/>
    </filter>
  </defs>
  <g id="Group_11209" data-name="Group 11209" transform="translate(-257 -2267)">
    <line id="Line_60" data-name="Line 60" x2="180" transform="translate(449 2316)" fill="none" stroke="#707070" stroke-width="1" stroke-dasharray="4"/>
    <line id="Line_62" data-name="Line 62" y2="271" transform="translate(608 2441)" fill="none" stroke="#707070" stroke-width="1" stroke-dasharray="4"/>
    <line id="Line_63" data-name="Line 63" x1="75" transform="translate(608 2712)" fill="none" stroke="#707070" stroke-width="1" stroke-dasharray="4"/>
    <line id="Line_64" data-name="Line 64" x1="75" transform="translate(610 2441)" fill="none" stroke="#707070" stroke-width="1" stroke-dasharray="4"/>
    <line id="Line_61" data-name="Line 61" x2="180" transform="translate(741 2313)" fill="none" stroke="#707070" stroke-width="1" stroke-dasharray="4"/>
    <g id="Group_11205" data-name="Group 11205" transform="translate(12 71)">
      <g transform="matrix(1, 0, 0, 1, 245, 2196)" filter="url(#Rectangle_1471)">
        <rect id="Rectangle_1471-3" data-name="Rectangle 1471" width="258" height="86" rx="5" transform="translate(9 6)" fill="#f0f7ff"/>
      </g>
      <g transform="matrix(1, 0, 0, 1, 245, 2196)" filter="url(#Path_17064)">
        <path id="Path_17064-2" data-name="Path 17064" d="M5,0H427a5,5,0,0,1,5,5V81a5,5,0,0,1-5,5H5a5,5,0,0,1-5-5V5A5,5,0,0,1,5,0Z" transform="translate(401 262)" fill="#f0f7ff"/>
      </g>
      <g transform="matrix(1, 0, 0, 1, 245, 2196)" filter="url(#Rectangle_1475)">
        <rect id="Rectangle_1475-2" data-name="Rectangle 1475" width="432" height="86" rx="5" transform="translate(401 390)" fill="#f0f7ff"/>
      </g>
      <g transform="matrix(1, 0, 0, 1, 245, 2196)" filter="url(#Rectangle_1471-2)">
        <rect id="Rectangle_1471-4" data-name="Rectangle 1471" width="258" height="86" rx="5" transform="translate(299 6)" fill="#f0f7ff"/>
      </g>
      <g transform="matrix(1, 0, 0, 1, 245, 2196)" filter="url(#Path_17063)">
        <path id="Path_17063-2" data-name="Path 17063" d="M5,0H253a5,5,0,0,1,5,5V81a5,5,0,0,1-5,5H5a5,5,0,0,1-5-5V5A5,5,0,0,1,5,0Z" transform="translate(575 6)" fill="#f0f7ff"/>
      </g>
      <g transform="matrix(1, 0, 0, 1, 245, 2196)" filter="url(#Rectangle_1473)">
        <rect id="Rectangle_1473-2" data-name="Rectangle 1473" width="430" height="86" rx="5" transform="translate(401 134)" fill="#f0f7ff"/>
      </g>
      <g transform="matrix(1, 0, 0, 1, 245, 2196)" filter="url(#Rectangle_1472)">
        <rect id="Rectangle_1472-2" data-name="Rectangle 1472" width="258" height="86" rx="5" transform="translate(9 136)" fill="#f0f7ff"/>
      </g>
    </g>
    <g id="Group_11206" data-name="Group 11206" transform="translate(-31 -7)">
      <text id="Epistomology" transform="translate(362 2319)" font-size="20" font-family="Muli-SemiBold, Muli" font-weight="600" letter-spacing="0.01em"><tspan x="0" y="0">Epistomology</tspan></text>
      <text id="Constructionism" transform="translate(362 2343)" fill="#5b6b82" font-size="16" font-family="Rubik-Regular, Rubik" letter-spacing="0.006em"><tspan x="0" y="0">Constructionism</tspan></text>
    </g>
    <g id="Group_11207" data-name="Group 11207" transform="translate(260 -7)">
      <text id="Theoretical_Perspective" data-name="Theoretical Perspective" transform="translate(314 2314)" font-size="20" font-family="Muli-SemiBold, Muli" font-weight="600" letter-spacing="0.01em"><tspan x="0" y="0">Theoretical Perspective</tspan></text>
      <text id="Constructionism-2" data-name="Constructionism" transform="translate(362 2342)" fill="#5b6b82" font-size="16" font-family="Rubik-Regular, Rubik" letter-spacing="0.006em"><tspan x="0" y="0">Constructionism</tspan></text>
    </g>
    <text id="Theoretical_Perspective-2" data-name="Theoretical Perspective" transform="translate(850 2308)" font-size="20" font-family="Muli-SemiBold, Muli" font-weight="600" letter-spacing="0.01em"><tspan x="0" y="0">Theoretical Perspective</tspan></text>
    <text id="Constructionism-3" data-name="Constructionism" transform="translate(898 2336)" fill="#5b6b82" font-size="16" font-family="Rubik-Regular, Rubik" letter-spacing="0.006em"><tspan x="0" y="0">Constructionism</tspan></text>
    <text id="Lorem_ipsum_dolor_sit_amet_consetetur_sadipscing_elitr_sed_diam_nonumy_eirmod" data-name="Lorem ipsum dolor sit amet, consetetur sadipscing elitr, sed diam nonumy eirmod" transform="translate(297 2422)" fill="#5b6b82" font-size="15" font-family="Muli-SemiBold, Muli" font-weight="600" letter-spacing="0.01em"><tspan x="0" y="15">Lorem ipsum dolor sit amet, </tspan><tspan x="0" y="38">consetetur sadipscing elitr, </tspan></text>
    <text id="Lorem_ipsum_dolor_sit_amet_consetetur_sadipscing_elitr_sed_diam_nonumy_eirmod-2" data-name="Lorem ipsum dolor sit amet, consetetur sadipscing elitr, sed diam nonumy eirmod" transform="translate(695 2422)" fill="#5b6b82" font-size="15" font-family="Muli-SemiBold, Muli" font-weight="600" letter-spacing="0.01em"><tspan x="0" y="15">Lorem ipsum dolor sit amet, consetetur sadipscing </tspan><tspan x="0" y="38">elitr, sed diam nonumy eirmod</tspan></text>
    <text id="Lorem_ipsum_dolor_sit_amet_consetetur_sadipscing_elitr_sed_diam_nonumy_eirmod-3" data-name="Lorem ipsum dolor sit amet, consetetur sadipscing elitr, sed diam nonumy eirmod" transform="translate(695 2549)" fill="#5b6b82" font-size="15" font-family="Muli-SemiBold, Muli" font-weight="600" letter-spacing="0.01em"><tspan x="0" y="15">Lorem ipsum dolor sit amet, consetetur sadipscing </tspan><tspan x="0" y="38">elitr, sed diam nonumy eirmod</tspan></text>
    <text id="Lorem_ipsum_dolor_sit_amet_consetetur_sadipscing_elitr_sed_diam_nonumy_eirmod-4" data-name="Lorem ipsum dolor sit amet, consetetur sadipscing elitr, sed diam nonumy eirmod" transform="translate(695 2678)" fill="#5b6b82" font-size="15" font-family="Muli-SemiBold, Muli" font-weight="600" letter-spacing="0.01em"><tspan x="0" y="15">Lorem ipsum dolor sit amet, consetetur sadipscing </tspan><tspan x="0" y="38">elitr, sed diam nonumy eirmod</tspan></text>
  </g>
</svg>
