<svg xmlns="http://www.w3.org/2000/svg" width="380.761" height="432.755" viewBox="0 0 380.761 432.755">
  <g id="Group_11284" data-name="Group 11284" transform="translate(-936.239 -6696.255)">
    <path id="Path_15954" data-name="Path 15954" d="M-673.156,1736.817s-61.8,36.011-56,72.581,29.886,46.57,79.212,73.7,118.093,34.818,118.093,34.818v-181.1Z" transform="translate(1848.852 4959.438)" fill="rgba(173,223,255,0.2)"/>
    <path id="Path_15953" data-name="Path 15953" d="M-439.7-3645.475s-77.593-47.875-125.261-29.23-14.947,71.5-65.413,103.809-52.74,23.928-82.105,45.3c-25.665,18.683,21.692,99.2,36.73,123.044,2.06,3.267,15.743,0,15.743,0H-439.7Z" transform="translate(1756.702 10530.106)" fill="rgba(173,223,255,0.2)"/>
    <path id="Path_15955" data-name="Path 15955" d="M384.581,685.469H367.636a59.265,59.265,0,0,1,0-20.2h16.945A36.353,36.353,0,0,0,384.581,685.469Z" transform="translate(843.75 6358.075)" fill="#3f3d56"/>
    <path id="Path_15956" data-name="Path 15956" d="M373.266,687.086H356.321a59.27,59.27,0,0,1,0-20.2h16.945A36.353,36.353,0,0,0,373.266,687.086Z" transform="translate(859.999 6357.163)" fill="#ff6584"/>
    <path id="Path_15957" data-name="Path 15957" d="M788.874,247.078a35.76,35.76,0,1,0-35.76-35.76h0A35.8,35.8,0,0,0,788.874,247.078Z" transform="translate(235.213 6634.222)" fill="#e6e6e6"/>
    <path id="Path_15958" data-name="Path 15958" d="M262.156,607.262a2.862,2.862,0,0,0,.61-.067l6.289-1.372a2.838,2.838,0,0,0,2.165-3.374l-11.438-52.413a2.837,2.837,0,0,0-3.374-2.165l-6.289,1.373a2.834,2.834,0,0,0-2.165,3.374l11.438,52.413a2.838,2.838,0,0,0,2.764,2.232Z" transform="translate(1008.889 6424.311)" fill="#6c63ff"/>
    <path id="Path_15959" data-name="Path 15959" d="M274.37,548.63l4.216,21.594a2.617,2.617,0,0,1-1.673,3.2l-9.268,3.148a2.617,2.617,0,0,1-3.435-2.132l-2.988-22.452a2.621,2.621,0,0,1,2-3.115l8.034-2.245A2.621,2.621,0,0,1,274.37,548.63Z" transform="translate(995.698 6425.008)" fill="#9456c8"/>
    <path id="Path_15960" data-name="Path 15960" d="M331.472,607.263a2.838,2.838,0,0,0,2.764-2.232l11.438-52.412a2.834,2.834,0,0,0-2.165-3.374l-6.289-1.373a2.836,2.836,0,0,0-3.374,2.165l-11.438,52.413a2.838,2.838,0,0,0,2.165,3.374l6.288,1.372A2.856,2.856,0,0,0,331.472,607.263Z" transform="translate(901.965 6424.31)" fill="#6c63ff"/>
    <path id="Path_15961" data-name="Path 15961" d="M326.848,548.63l-4.216,21.594a2.616,2.616,0,0,0,1.673,3.2l9.268,3.148a2.617,2.617,0,0,0,3.435-2.132L340,551.99a2.621,2.621,0,0,0-2-3.115l-8.034-2.245A2.621,2.621,0,0,0,326.848,548.63Z" transform="translate(907.568 6425.008)" fill="#9456c8"/>
    <ellipse id="Ellipse_107" data-name="Ellipse 107" cx="10.902" cy="10.902" rx="10.902" ry="10.902" transform="translate(1154.916 6870.834)" fill="#e6e6e6"/>
    <ellipse id="Ellipse_108" data-name="Ellipse 108" cx="2.617" cy="2.617" rx="2.617" ry="2.617" transform="translate(955.619 6896.564)" fill="#ff6584"/>
    <ellipse id="Ellipse_109" data-name="Ellipse 109" cx="2.617" cy="2.617" rx="2.617" ry="2.617" transform="translate(1142.768 6742.795)" fill="#f2f2f2"/>
    <ellipse id="Ellipse_110" data-name="Ellipse 110" cx="2.617" cy="2.617" rx="2.617" ry="2.617" transform="translate(992.251 6945.843)" fill="#f2f2f2"/>
    <ellipse id="Ellipse_123" data-name="Ellipse 123" cx="2.617" cy="2.617" rx="2.617" ry="2.617" transform="translate(1010.132 7076.742)" fill="#f2f2f2"/>
    <ellipse id="Ellipse_111" data-name="Ellipse 111" cx="2.617" cy="2.617" rx="2.617" ry="2.617" transform="translate(1119.31 6810.658)" fill="#ff6584"/>
    <path id="Path_15962" data-name="Path 15962" d="M812.655,216.641a6.541,6.541,0,1,0-6.541-6.541h0A6.548,6.548,0,0,0,812.655,216.641Zm0-12.211a5.669,5.669,0,1,1-5.669,5.669A5.669,5.669,0,0,1,812.655,204.43Z" transform="translate(217.537 6618.433)" fill="#ccc"/>
    <path id="Path_15963" data-name="Path 15963" d="M786.911,259.152a4.8,4.8,0,1,0-4.8-4.8h0A4.8,4.8,0,0,0,786.911,259.152Zm0-8.722a3.925,3.925,0,1,1-3.925,3.925A3.925,3.925,0,0,1,786.911,250.43Z" transform="translate(255.492 6592.494)" fill="#ccc"/>
    <path id="Path_15964" data-name="Path 15964" d="M848.911,312.152a4.8,4.8,0,1,0-4.8-4.8h0A4.8,4.8,0,0,0,848.911,312.152Zm0-8.722a3.925,3.925,0,1,1-3.925,3.925h0a3.929,3.929,0,0,1,3.925-3.925Z" transform="translate(166.454 6562.606)" fill="#ccc"/>
    <path id="Path_15965" data-name="Path 15965" d="M766.318,257.22c29.834,0,53.2-6.321,53.2-14.391,0-4.7-6.936-8.743-19.531-11.378l-.179.854c11.972,2.5,18.838,6.34,18.838,10.524,0,7.328-23.965,13.519-52.332,13.519s-52.332-6.191-52.332-13.519c0-4.192,6.889-8.032,18.9-10.537l-.178-.854c-12.637,2.635-19.6,6.681-19.6,11.391C713.114,250.9,736.484,257.22,766.318,257.22Z" transform="translate(257.769 6602.712)" fill="#ccc"/>
    <path id="Path_15966" data-name="Path 15966" d="M625.248,311.162c1.21,0,2.432-.019,3.632-.057l-.027-.871c-1.723.054-3.481.069-5.211.045l-.012.872Q624.438,311.162,625.248,311.162Zm-6.866-.2.051-.871c-1.725-.1-3.473-.245-5.194-.425l-.091.867C614.883,310.713,616.643,310.857,618.382,310.959Zm15.741-.136c1.74-.133,3.5-.308,5.226-.52l-.107-.865c-1.715.21-3.459.384-5.185.516Zm-26.183-.959.131-.862c-1.714-.26-3.442-.562-5.133-.9l-.17.855c1.7.339,3.445.643,5.172.905Zm36.6-.319c1.719-.291,3.453-.626,5.156-1l-.185-.853c-1.689.367-3.411.7-5.117.988Zm-46.9-1.728.21-.847c-1.683-.416-3.375-.876-5.029-1.367l-.248.836c1.667.495,3.372.958,5.067,1.377Zm57.162-.5c1.686-.448,3.382-.942,5.042-1.467l-.263-.831c-1.648.521-3.331,1.01-5,1.455Zm-67.228-2.486.286-.824c-1.633-.568-3.275-1.181-4.882-1.824l-.324.81c1.618.648,3.273,1.266,4.919,1.838Zm77.253-.683c1.637-.6,3.285-1.251,4.9-1.93l-.339-.8c-1.6.674-3.234,1.318-4.859,1.916Zm-86.991-3.213.361-.794c-1.568-.712-3.144-1.473-4.685-2.261l-.4.777c1.553.794,3.141,1.56,4.721,2.278Zm96.688-.869c1.574-.75,3.154-1.548,4.695-2.371l-.411-.769c-1.53.817-3.1,1.609-4.659,2.353Zm-106.019-3.9.432-.757c-1.5-.858-3-1.76-4.461-2.681l-.466.737C565.479,294.392,566.992,295.3,568.507,296.165ZM683.8,295.111c1.5-.891,3-1.83,4.455-2.791l-.48-.728c-1.448.954-2.936,1.886-4.421,2.77Zm-124.157-4.553.5-.715c-1.416-.989-2.829-2.025-4.2-3.079l-.532.692c1.381,1.062,2.805,2.106,4.232,3.1Zm132.934-1.228c1.408-1.023,2.814-2.094,4.18-3.184l-.544-.681c-1.356,1.082-2.751,2.145-4.148,3.16Zm-141.253-5.166.562-.667c-1.32-1.114-2.633-2.274-3.9-3.45l-.592.641c1.28,1.184,2.6,2.354,3.934,3.476Zm149.463-1.389c1.311-1.148,2.614-2.342,3.871-3.55l-.6-.629c-1.248,1.2-2.541,2.384-3.842,3.523Zm-157.17-5.739.621-.612c-1.217-1.233-2.42-2.509-3.576-3.792l-.648.583C541.179,274.508,542.392,275.793,543.618,277.035ZM708.364,275.5c1.2-1.265,2.391-2.572,3.531-3.886l-.659-.572c-1.131,1.3-2.31,2.6-3.5,3.856Zm-171.776-6.271.674-.554c-1.1-1.338-2.181-2.718-3.217-4.1l-.7.522C534.39,266.494,535.48,267.885,536.588,269.233Zm178.656-1.656c1.08-1.365,2.144-2.774,3.162-4.189l-.708-.509c-1.01,1.4-2.066,2.8-3.138,4.157ZM530.3,260.819l.721-.49c-.973-1.432-1.925-2.906-2.831-4.382l-.744.457c.914,1.487,1.873,2.972,2.853,4.415Zm191.077-1.757c.95-1.457,1.88-2.956,2.765-4.457l-.751-.443c-.878,1.489-1.8,2.977-2.744,4.423Zm-196.578-7.2.763-.422c-.837-1.515-1.651-3.071-2.419-4.625l-.782.387c.773,1.565,1.593,3.134,2.439,4.66Zm201.9-1.834c.813-1.537,1.6-3.115,2.344-4.688l-.789-.372c-.737,1.561-1.519,3.127-2.326,4.652Zm-206.558-7.6.8-.35c-.7-1.587-1.362-3.213-1.984-4.831l-.814.313c.627,1.631,1.3,3.269,2,4.869Zm211.029-1.882c.669-1.6,1.309-3.246,1.9-4.88l-.82-.3c-.589,1.621-1.225,3.25-1.888,4.843Zm-214.8-7.944.828-.274c-.544-1.64-1.058-3.316-1.526-4.983l-.84.236c.471,1.679.99,3.369,1.539,5.021ZM734.748,230.7c.519-1.662,1.007-3.36,1.449-5.047l-.844-.221c-.439,1.675-.923,3.36-1.438,5.009Zm-221.226-8.2.85-.2c-.391-1.681-.747-3.4-1.061-5.1l-.858.158c.316,1.718.676,3.447,1.069,5.142Zm223.89-1.96c.364-1.7.693-3.439.978-5.159l-.86-.143c-.283,1.707-.61,3.43-.971,5.12Zm-225.79-8.366.864-.118c-.235-1.708-.433-3.45-.589-5.177l-.869.078C511.185,208.7,511.385,210.451,511.621,212.173Zm227.51-1.991c.206-1.727.375-3.485.5-5.226l-.87-.064c-.126,1.729-.294,3.473-.5,5.187Zm-228.458-8.464.871-.039c-.078-1.728-.117-3.481-.117-5.21h-.872c0,1.742.04,3.508.118,5.249ZM739.9,199.71c.03-1.069.045-2.16.045-3.242q0-1.007-.017-2.01l-.872.015q.017,1,.017,1.994c0,1.074-.015,2.157-.045,3.218Zm-228.464-4.459c.018-1.729.076-3.482.172-5.21l-.87-.049c-.1,1.741-.155,3.507-.173,5.249Zm227.412-5.985.87-.055c-.109-1.743-.259-3.5-.446-5.232l-.867.094C738.589,185.791,738.738,187.537,738.846,189.267Zm-226.833-4.42c.174-1.719.391-3.459.644-5.171l-.863-.127c-.255,1.725-.473,3.478-.649,5.21Zm225.711-5.939.862-.133c-.267-1.725-.578-3.465-.923-5.169l-.855.173C737.151,175.47,737.458,177.2,737.724,178.908Zm-224.188-4.368c.333-1.7.708-3.414,1.116-5.09l-.847-.206c-.411,1.689-.789,3.415-1.124,5.129ZM735.658,168.7l.846-.212c-.423-1.689-.893-3.393-1.394-5.063l-.835.251C734.772,165.33,735.237,167.02,735.658,168.7ZM516,164.416c.486-1.661,1.018-3.331,1.58-4.966l-.825-.284c-.566,1.647-1.1,3.331-1.592,5ZM732.655,158.7l.823-.289c-.58-1.649-1.206-3.305-1.86-4.924l-.809.327C731.459,155.423,732.08,157.067,732.655,158.7Zm-213.266-4.141c.636-1.605,1.318-3.216,2.025-4.788l-.8-.358c-.713,1.584-1.4,3.207-2.041,4.825Zm209.352-5.54.792-.364c-.729-1.586-1.5-3.177-2.3-4.728l-.775.4c.795,1.539,1.564,3.118,2.287,4.692Zm-205.083-3.94c.781-1.54,1.608-3.083,2.458-4.585l-.759-.43c-.857,1.514-1.69,3.069-2.477,4.621Zm200.3-5.333.756-.435c-.87-1.511-1.788-3.023-2.727-4.495l-.735.469C722.18,136.75,723.091,138.25,723.954,139.75Zm-195.172-3.722c.922-1.467,1.887-2.929,2.868-4.344l-.716-.5c-.989,1.426-1.962,2.9-2.891,4.378Zm189.557-5.069.713-.5c-1.005-1.426-2.057-2.847-3.125-4.225l-.689.534C716.3,128.133,717.342,129.543,718.339,130.959Zm-183.625-3.485c1.051-1.377,2.146-2.745,3.254-4.068l-.669-.56c-1.117,1.333-2.22,2.711-3.279,4.1Zm177.235-4.753.664-.566c-1.128-1.325-2.3-2.644-3.5-3.921l-.638.595C709.662,120.1,710.829,121.4,711.949,122.72ZM541.4,119.489c1.172-1.275,2.387-2.539,3.612-3.756l-.615-.619c-1.234,1.227-2.459,2.5-3.639,3.785ZM704.839,115.1l.61-.623c-1.247-1.22-2.538-2.426-3.836-3.585l-.581.651c1.288,1.15,2.569,2.347,3.807,3.558ZM548.8,112.144c1.284-1.165,2.61-2.313,3.94-3.414l-.556-.672c-1.34,1.109-2.676,2.266-3.97,3.44Zm148.273-3.982.551-.676c-1.349-1.1-2.743-2.182-4.144-3.22l-.519.7C694.346,106,695.729,107.071,697.068,108.162ZM556.827,105.5c1.385-1.043,2.811-2.067,4.237-3.042l-.492-.72c-1.437.983-2.873,2.014-4.269,3.065ZM688.7,101.961l.487-.724c-1.444-.971-2.93-1.923-4.418-2.828l-.453.745c1.477.9,2.952,1.842,4.385,2.806ZM565.436,99.61c1.474-.912,2.987-1.8,4.5-2.643l-.424-.762c-1.523.848-3.048,1.745-4.533,2.663Zm114.376-3.057.419-.765c-1.527-.836-3.094-1.647-4.655-2.41l-.383.784C676.741,94.919,678.3,95.724,679.812,96.553ZM574.551,94.532c1.552-.773,3.142-1.52,4.725-2.22l-.353-.8c-1.6.705-3.2,1.458-4.762,2.237Zm95.919-2.549.347-.8c-1.6-.692-3.229-1.355-4.853-1.972l-.31.816C667.266,90.639,668.886,91.3,670.47,91.984ZM584.1,90.312c1.615-.626,3.268-1.224,4.913-1.776l-.278-.827c-1.658.556-3.323,1.158-4.95,1.79Zm76.642-2.022.272-.829c-1.657-.543-3.349-1.055-5.026-1.52l-.233.84C657.418,87.242,659.1,87.75,660.741,88.289Zm-66.751-1.3c1.663-.474,3.36-.916,5.043-1.313l-.2-.849c-1.7.4-3.405.845-5.082,1.322ZM650.7,85.5l.194-.85c-1.7-.388-3.43-.742-5.145-1.051l-.155.858c1.7.307,3.419.658,5.105,1.043Zm-46.57-.9c1.7-.319,3.428-.6,5.142-.843l-.121-.864c-1.727.243-3.471.528-5.182.849Zm36.316-.949.115-.865c-1.727-.23-3.482-.424-5.219-.575l-.076.869C636.992,83.232,638.734,83.424,640.448,83.653Zm-26-.5c1.718-.162,3.467-.287,5.2-.37l-.043-.871c-1.744.085-3.506.21-5.237.373Zm15.619-.405.037-.871c-1.6-.067-3.237-.1-4.856-.1h-.395l0,.872h.392c1.607,0,3.229.034,4.82.1Z" transform="translate(425.684 6687.107)" fill="#e6e6e6"/>
    <path id="Path_15968" data-name="Path 15968" d="M490.069,367.135H472.461a61.585,61.585,0,0,1,0-20.994h17.608A37.775,37.775,0,0,0,490.069,367.135Z" transform="translate(692.563 6538.03)" fill="#6c63ff"/>
    <path id="Path_15969" data-name="Path 15969" d="M866.069,243.135H848.461a61.583,61.583,0,0,1,0-20.994h17.608A37.776,37.776,0,0,0,866.069,243.135Z" transform="translate(152.59 6607.954)" fill="#6c63ff"/>
    <rect id="Rectangle_1285" data-name="Rectangle 1285" width="11.775" height="1.308" transform="translate(1167.563 6890.895)" fill="#f2f2f2"/>
    <rect id="Rectangle_1286" data-name="Rectangle 1286" width="11.775" height="1.308" transform="translate(1167.563 6893.947)" fill="#f2f2f2"/>
    <rect id="Rectangle_1287" data-name="Rectangle 1287" width="11.775" height="1.308" transform="translate(1003.154 6835.074)" fill="#f2f2f2"/>
    <rect id="Rectangle_1288" data-name="Rectangle 1288" width="11.775" height="1.308" transform="translate(1003.154 6841.179)" fill="#f2f2f2"/>
    <rect id="Rectangle_1289" data-name="Rectangle 1289" width="11.775" height="1.308" transform="translate(1003.154 6838.127)" fill="#f2f2f2"/>
    <rect id="Rectangle_1290" data-name="Rectangle 1290" width="141.31" height="0.977" transform="translate(1175.69 7089.069)" fill="#3f3d56"/>
    <ellipse id="Ellipse_112" data-name="Ellipse 112" cx="23.34" cy="23.34" rx="23.34" ry="23.34" transform="translate(1228.827 6920.646)" fill="#6c63ff"/>
    <path id="Path_15970" data-name="Path 15970" d="M285.255,739.945h6.436a2.838,2.838,0,0,0,2.835-2.835V683.465a2.838,2.838,0,0,0-2.835-2.835h-6.437a2.838,2.838,0,0,0-2.835,2.835v53.646A2.838,2.838,0,0,0,285.255,739.945Z" transform="translate(970.59 6349.411)" fill="#2f2e41"/>
    <path id="Path_15971" data-name="Path 15971" d="M314.447,739.945h6.437a2.838,2.838,0,0,0,2.835-2.835V683.465a2.838,2.838,0,0,0-2.835-2.835h-6.437a2.838,2.838,0,0,0-2.835,2.835v53.646A2.838,2.838,0,0,0,314.447,739.945Z" transform="translate(928.667 6349.411)" fill="#2f2e41"/>
    <path id="Path_15972" data-name="Path 15972" d="M274.307,613.419h29.246a2.838,2.838,0,0,0,2.835-2.835V548.451a2.838,2.838,0,0,0-2.835-2.835H274.307a2.838,2.838,0,0,0-2.835,2.835v62.134A2.838,2.838,0,0,0,274.307,613.419Z" transform="translate(963.502 6425.545)" fill="#9456c8"/>
    <path id="Path_15973" data-name="Path 15973" d="M274.816,420.391a2.574,2.574,0,0,1,2.246-1.99,3.561,3.561,0,0,1,3.17,1.281,17.488,17.488,0,0,1,2.027,3.4,4.241,4.241,0,0,0,2.984,2.336c2.843.526,5.29-1.484,7.187-3.326a49.32,49.32,0,0,0,5.982-7c1.691-2.4,3.4-5.018,4.005-7.941a6.773,6.773,0,0,0-2.276-6.782c-4.481-3.7-10.75-2.162-16-2.006a14.969,14.969,0,0,1-8.817-2.039,8.042,8.042,0,0,1-3.975-6.444.655.655,0,0,1,1.308,0,6.864,6.864,0,0,0,3.719,5.558,14.231,14.231,0,0,0,7.974,1.61c5.454-.2,11.5-1.515,16.246,2.024a7.911,7.911,0,0,1,3.308,6.276c.043,2.921-1.335,5.7-2.845,8.121a51.216,51.216,0,0,1-5.525,7.3c-1.953,2.151-4.127,4.519-6.9,5.574a6.726,6.726,0,0,1-4.2.227,5.584,5.584,0,0,1-3.3-2.825c-.689-1.228-1.174-2.753-2.35-3.626-.838-.623-2.491-.67-2.7.626-.135.829-1.4.477-1.262-.348Z" transform="translate(966.044 6513.726)" fill="#2f2e41"/>
    <ellipse id="Ellipse_113" data-name="Ellipse 113" cx="2.617" cy="2.617" rx="2.617" ry="2.617" transform="translate(1065.516 6939.737)" fill="#ff6584"/>
    <path id="Path_15974" data-name="Path 15974" d="M742.069,501.135H724.461a61.582,61.582,0,0,1,0-20.994h17.608A37.779,37.779,0,0,0,742.069,501.135Z" transform="translate(330.666 6462.467)" fill="#3f3d56"/>
    <rect id="Rectangle_1291" data-name="Rectangle 1291" width="11.775" height="1.308" transform="translate(1057.666 6950.64)" fill="#f2f2f2"/>
    <path id="Path_15975" data-name="Path 15975" d="M363.272,487.758l.024-.872a7.213,7.213,0,0,1-4.128-.932,2.681,2.681,0,0,1-1.039-1.975,1.533,1.533,0,0,1,.5-1.262,2.641,2.641,0,0,1,2.7-.024l.722.331-1.384-10.113-.864.118,1.177,8.6a3.079,3.079,0,0,0-2.912.419,2.386,2.386,0,0,0-.811,1.959,3.547,3.547,0,0,0,1.4,2.648A8.029,8.029,0,0,0,363.272,487.758Z" transform="translate(869.185 6466.545)" fill="#2f2e41"/>
    <rect id="Rectangle_1292" data-name="Rectangle 1292" width="4.697" height="0.872" transform="translate(1234.846 6940.315)" fill="#2f2e41"/>
  </g>
</svg>
