<svg xmlns="http://www.w3.org/2000/svg" width="457.59" height="356.347" viewBox="0 0 457.59 356.347">
  <g id="undraw_career_development_re_sv91" transform="translate(-90 70)">
    <path id="Path_15311" data-name="Path 15311" d="M176.923,679.716c8.633,4.655,12.339,14.534,12.339,14.534s-10.291,2.332-18.924-2.323S158,677.393,158,677.393,168.29,675.06,176.923,679.716Z" transform="translate(328.42 -408.487)" fill="#f1f1f1"/>
    <path id="Path_15312" data-name="Path 15312" d="M161.088,672.609c5.056,8.4,15.1,11.641,15.1,11.641s1.845-10.389-3.211-18.793-15.1-11.641-15.1-11.641S156.032,664.2,161.088,672.609Z" transform="translate(341.413 -398.181)" fill="#f1f1f1"/>
    <rect id="Rectangle_1079" data-name="Rectangle 1079" width="248.745" height="1.104" transform="translate(119.15 -63.698)" fill="#cbcbcb"/>
    <rect id="Rectangle_1080" data-name="Rectangle 1080" width="1.104" height="35.073" transform="translate(333.46 -63.282)" fill="#cbcbcb"/>
    <path id="Path_15313" data-name="Path 15313" d="M612.156,75.021h56.86V12.113h-1.1v61.8H612.156Z" transform="translate(-369.2 -75.429)" fill="#cbcbcb"/>
    <rect id="Rectangle_1081" data-name="Rectangle 1081" width="1.104" height="35.073" transform="translate(261.341 -63.282)" fill="#cbcbcb"/>
    <rect id="Rectangle_1082" data-name="Rectangle 1082" width="1.104" height="35.073" transform="translate(242.824 -0.931)" fill="#cbcbcb"/>
    <rect id="Rectangle_1083" data-name="Rectangle 1083" width="1.104" height="35.073" transform="translate(185.683 -63.282)" fill="#cbcbcb"/>
    <rect id="Rectangle_1084" data-name="Rectangle 1084" width="1.104" height="35.073" transform="translate(147.854 -63.282)" fill="#cbcbcb"/>
    <rect id="Rectangle_1085" data-name="Rectangle 1085" width="20.955" height="8.164" transform="translate(323.402 -22.844)" fill="#9456c8"/>
    <rect id="Rectangle_1086" data-name="Rectangle 1086" width="20.955" height="8.164" transform="translate(251.671 -22.844)" fill="#3f3d56"/>
    <rect id="Rectangle_1087" data-name="Rectangle 1087" width="20.955" height="8.164" transform="translate(175.526 -22.844)" fill="#cbcbcb"/>
    <rect id="Rectangle_1088" data-name="Rectangle 1088" width="20.955" height="8.164" transform="translate(139.108 -22.844)" fill="#9456c8"/>
    <rect id="Rectangle_1089" data-name="Rectangle 1089" width="20.955" height="8.164" transform="translate(90 -66.986)" fill="#3f3d56"/>
    <rect id="Rectangle_1090" data-name="Rectangle 1090" width="20.955" height="8.164" transform="translate(232.91 38.955)" fill="#3f3d56"/>
    <rect id="Rectangle_1091" data-name="Rectangle 1091" width="33.593" height="13.088" transform="translate(375.02 -70)" fill="#9456c8"/>
    <path id="Path_15314" data-name="Path 15314" d="M312.706,238.389l-2.194,19.8-28.031.483,3.383-23.681Z" transform="translate(79.017 -105.326)" fill="#ffb7b7"/>
    <path id="Path_15315" data-name="Path 15315" d="M349.81,495.692a4.532,4.532,0,0,1,1.23-6.839l-1.3-10.274,6.051-2.314,1.634,14.535a4.556,4.556,0,0,1-7.613,4.892Z" transform="translate(54.542 -318.599)" fill="#ffb7b7"/>
    <path id="Path_15316" data-name="Path 15316" d="M360.718,488.871h-5.926l-2.818-22.854h8.745Z" transform="translate(-7.341 -208.879)" fill="#ffb7b7"/>
    <path id="Path_15317" data-name="Path 15317" d="M472.137,694.454H460.468a7.437,7.437,0,0,0-7.436,7.436v.242h19.1Z" transform="translate(-117.249 -416.396)" fill="#2f2e41"/>
    <path id="Path_15318" data-name="Path 15318" d="M238.094,488.871h-5.925l-2.818-22.854H238.1Z" transform="translate(182.943 -208.879)" fill="#ffb7b7"/>
    <path id="Path_15319" data-name="Path 15319" d="M349.513,694.454H337.844a7.437,7.437,0,0,0-7.436,7.436v.242h19.1Z" transform="translate(73.036 -416.396)" fill="#2f2e41"/>
    <path id="Path_15320" data-name="Path 15320" d="M369.391,443.935l-2.606-30.147-7.6-27.534a10.4,10.4,0,0,0-8.978-7.54l-.248-.024-1.351,20.666,9.722,19.978,3.214,23.967Z" transform="translate(43.118 -274.864)" fill="#9456c8"/>
    <path id="Path_15321" data-name="Path 15321" d="M374.93,446.677l3.991,7.184S394.486,469.6,395.684,493.9l14.45,82.733-13.392-.331-27.115-77.542-19.179,32.9-9.589,42.987-15.211-2.811,6.779-49.931,13.061-46.459,1.323-25.3Z" transform="translate(15.042 -305.337)" fill="#2f2e41"/>
    <ellipse id="Ellipse_70" data-name="Ellipse 70" cx="11.87" cy="11.87" rx="11.87" ry="11.87" transform="translate(364.272 70.111)" fill="#ffb7b7"/>
    <path id="Path_15322" data-name="Path 15322" d="M368.946,350.051c-2.205-4.308-2.958-9.2-4.655-13.731s-4.781-9.028-9.457-10.277c-2.652-.708-5.47-.276-8.194-.613-2.4-.3-4.974-1.52-5.891-3.647a15.024,15.024,0,0,0-.773-6.233,18.7,18.7,0,0,0-10.534-10.669,17.228,17.228,0,0,0-12.243-.666,12.085,12.085,0,0,0-7.957,8.934c-.708,4.121,1.563,8.722,5.479,10.186,2.812,1.051,6.433.7,8.27,3.076,1.86,2.406.527,5.912-1.163,8.441l.115.117c5.518.065,11.483-1,15.283-5a12.106,12.106,0,0,0,1.135-1.4c.116.187.238.369.37.543,1.914,2.541,4.91,3.983,7.764,5.388s5.815,2.981,7.529,5.661c3.1,4.843,1.065,11.365,2.836,16.835a12.436,12.436,0,0,0,23.389.758C375.427,358.156,371.151,354.358,368.946,350.051Z" transform="translate(54.05 -241.108)" fill="#2f2e41"/>
    <path id="Path_15323" data-name="Path 15323" d="M441.566,498.407a4.532,4.532,0,0,1,4.254-5.495l3.6-9.711,6.435.747-5.274,13.642a4.556,4.556,0,0,1-9.012.816Z" transform="translate(-94.58 -321.708)" fill="#ffb7b7"/>
    <path id="Path_15324" data-name="Path 15324" d="M410.13,410.826l3.435-16.525,1.079-12.588a29.638,29.638,0,0,0-5.617-20.039l-1.1-1.5-18.487,6.571-9.013,11.881a8.052,8.052,0,0,0-.594,11.506l.185,16.7.208.028Z" transform="translate(-18.279 -266.564)" fill="#9456c8"/>
    <path id="Path_15325" data-name="Path 15325" d="M425.672,445.178,439.42,413.5l2-29.023.4-6.1a5.83,5.83,0,0,0-11.6-1.157L425.9,409.573l-7.449,32.277Z" transform="translate(-67.862 -271.938)" fill="#9456c8"/>
    <path id="Path_15326" data-name="Path 15326" d="M104.347,708.361h296.3a.552.552,0,1,0,0-1.1h-296.3a.552.552,0,0,0,0,1.1Z" transform="translate(146.387 -422.135)" fill="#cbcbcb"/>
  </g>
</svg>
