<svg xmlns="http://www.w3.org/2000/svg" width="314.739" height="193.798" viewBox="0 0 314.739 193.798"><g id="Group_10419" data-name="Group 10419" transform="translate(0 -45.61)"><rect id="Rectangle_282" width="314.662" height="23.24" fill="rgba(198,130,255,0.19)" data-name="Rectangle 282" transform="translate(0.078 216.168)"/><path id="Path_6573" fill="#3f3d56" d="M314.3,605.647H0v-.777H314.444Z" data-name="Path 6573" transform="translate(0 -389.459)"/><rect id="Rectangle_286" width="9.591" height="9.591" fill="#e6e6e6" data-name="Rectangle 286" transform="translate(213.266 77.157)"/><rect id="Rectangle_287" width="9.591" height="9.591" fill="#e6e6e6" data-name="Rectangle 287" transform="translate(182.627 99.004)"/><rect id="Rectangle_288" width="9.591" height="9.591" fill="#e6e6e6" data-name="Rectangle 288" transform="translate(198.08 99.004)"/><rect id="Rectangle_289" width="9.591" height="9.591" fill="#e6e6e6" data-name="Rectangle 289" transform="translate(213.533 99.004)"/><rect id="Rectangle_290" width="9.591" height="9.591" fill="#e6e6e6" data-name="Rectangle 290" transform="translate(182.894 120.851)"/><rect id="Rectangle_291" width="9.591" height="9.591" fill="#e6e6e6" data-name="Rectangle 291" transform="translate(198.347 120.851)"/><rect id="Rectangle_292" width="9.591" height="9.591" fill="#e6e6e6" data-name="Rectangle 292" transform="translate(213.799 120.851)"/><rect id="Rectangle_293" width="9.591" height="9.591" fill="#e6e6e6" data-name="Rectangle 293" transform="translate(183.16 142.697)"/><rect id="Rectangle_294" width="9.591" height="9.591" fill="#e6e6e6" data-name="Rectangle 294" transform="translate(198.613 142.697)"/><rect id="Rectangle_295" width="9.591" height="9.591" fill="#e6e6e6" data-name="Rectangle 295" transform="translate(214.065 142.697)"/><rect id="Rectangle_296" width="9.591" height="9.591" fill="#e6e6e6" data-name="Rectangle 296" transform="translate(183.16 142.697)"/><rect id="Rectangle_297" width="9.591" height="9.591" fill="#e6e6e6" data-name="Rectangle 297" transform="translate(198.613 142.697)"/><rect id="Rectangle_298" width="9.591" height="9.591" fill="#e6e6e6" data-name="Rectangle 298" transform="translate(214.065 142.697)"/><circle id="Ellipse_17" cx="13.219" cy="13.219" r="13.219" fill="#fff" data-name="Ellipse 17" transform="translate(76.001 109.987)"/><path id="Path_6577" fill="#fff" d="M249.383,345.962h.036l.654,37.479h-1.38Z" data-name="Path 6577" transform="translate(-160.126 -222.756)"/><rect id="Rectangle_299" width=".654" height="2.47" fill="#fff" data-name="Rectangle 299" transform="translate(91.359 143.043) rotate(62.234)"/><circle id="Ellipse_18" cx="20.102" cy="20.102" r="20.102" fill="#fff" data-name="Ellipse 18" transform="translate(113.566 63.633)"/><path id="Path_6578" fill="#fff" d="M357.916,291.166h.055l.994,56.993h-2.1Z" data-name="Path 6578" transform="translate(-229.777 -187.474)"/><rect id="Rectangle_300" width=".994" height="3.755" fill="#fff" data-name="Rectangle 300" transform="translate(131.337 133.857) rotate(62.234)"/><path id="Path_6579" fill="#585858" d="M392.17,346.161l3.4-2.716a3.6,3.6,0,0,0-4.166,2.286,5.784,5.784,0,0,0-4.3.266l6.794,2.467A5.141,5.141,0,0,0,392.17,346.161Z" data-name="Path 6579" transform="translate(-313.547 -275.664)"/><path id="Path_6580" fill="#585858" d="M492.646,284.011l3.4-2.716a3.6,3.6,0,0,0-4.166,2.286,5.784,5.784,0,0,0-4.3.266l6.795,2.467A5.142,5.142,0,0,0,492.646,284.011Z" data-name="Path 6580" transform="translate(-378.241 -235.647)"/><path id="Path_6581" fill="#585858" d="M454.32,343.053l3.4-2.716a3.6,3.6,0,0,0-4.166,2.286,5.784,5.784,0,0,0-4.3.266l6.794,2.467A5.141,5.141,0,0,0,454.32,343.053Z" data-name="Path 6581" transform="translate(-353.564 -273.663)"/><rect id="Rectangle_301" width="197.724" height="16.231" fill="#e6e6e6" data-name="Rectangle 301" transform="translate(58.547 150.137)"/><path id="Path_6582" fill="#e6e6e6" d="M187.265,593.515s-40-18.412-25.945-31.18S187.265,593.515,187.265,593.515Z" data-name="Path 6582" transform="translate(-158.25 -401.128)"/><path id="Path_6583" fill="#e6e6e6" d="M226.6,561.994s-18.383-60.4,8.687-57.513S226.6,561.994,226.6,561.994Z" data-name="Path 6583" transform="translate(-198.283 -365.311)"/><path id="Path_6584" fill="#e6e6e6" d="M199.991,651.116l.772,10.1.012.174a46.42,46.42,0,0,0,.239,4.724c1.047,10.306,5.548,15,10.808,15s9.565-4.7,10.612-15a46.423,46.423,0,0,0,.239-4.724l.006-.141,0-.034.775-10.1Z" data-name="Path 6584" transform="translate(-185.076 -459.789)"/><path id="Path_6585" fill="#fff" d="M224.076,679.488l0,.034-.006.141a46.428,46.428,0,0,1-.239,4.724h-21.42a46.424,46.424,0,0,1-.239-4.724l-.012-.174Z" data-name="Path 6585" transform="translate(-186.47 -478.057)"/><path id="Path_6586" fill="#e6e6e6" d="M938.688,593.515s-40-18.412-25.945-31.18S938.688,593.515,938.688,593.515Z" data-name="Path 6586" transform="translate(-642.07 -401.128)"/><path id="Path_6587" fill="#e6e6e6" d="M978.026,561.994s-18.383-60.4,8.687-57.513S978.026,561.994,978.026,561.994Z" data-name="Path 6587" transform="translate(-682.104 -365.311)"/><path id="Path_6588" fill="#e6e6e6" d="M951.414,651.116l.771,10.1.012.174a46.385,46.385,0,0,0,.239,4.724c1.047,10.306,5.548,15,10.808,15s9.565-4.7,10.612-15a46.423,46.423,0,0,0,.239-4.724l.006-.141,0-.034.775-10.1Z" data-name="Path 6588" transform="translate(-668.896 -459.789)"/><path id="Path_6589" fill="#fff" d="M975.5,679.488l0,.034-.006.141a46.437,46.437,0,0,1-.239,4.724h-21.42a46.437,46.437,0,0,1-.239-4.724l-.012-.174Z" data-name="Path 6589" transform="translate(-670.291 -478.057)"/><path id="Path_6590" fill="#ffb8b8" d="M820.371,733.834l-2.622.308a12.781,12.781,0,0,1-7.195,1.623,2.158,2.158,0,0,1-1.828-1.12h0a2.138,2.138,0,0,1,1.4-3.1l1.992-.464,4.808-4.7,2.9-5.249,4.213.483.877,6.667h0A5.161,5.161,0,0,1,820.371,733.834Z" data-name="Path 6590" transform="translate(-576.858 -504.868)"/><path id="Path_6591" fill="#ffb8b8" d="M705.77,724.625l-2.57.6a12.781,12.781,0,0,1-6.963,2.432,2.158,2.158,0,0,1-1.943-.9h0a2.138,2.138,0,0,1,1.033-3.24l1.927-.688,4.241-5.219,2.283-5.545h4.241l1.631,6.524h0a5.161,5.161,0,0,1-3.879,6.036Z" data-name="Path 6591" transform="translate(-503.094 -499.032)"/><path id="Path_6592" fill="#2f2e41" d="M714.632,565.04l4.8.738,7.562-38.18,13.1-22.318L755.947,570.2l5.9,1.107c-.662-36.562,2.569-82.59-4.8-88.164l-32.093,3.689-14.018,37.626Z" data-name="Path 6592" transform="translate(-514.063 -351.639)"/><circle id="Ellipse_19" cx="11.067" cy="11.067" r="11.067" fill="#ffb8b8" data-name="Ellipse 19" transform="translate(212.742 52.566)"/><path id="Path_6593" fill="#ffb8b8" d="M641.942,203.653l-13.28,2.213-3.32-11.8,9.591-2.951Z" data-name="Path 6593" transform="translate(-402.64 -123.051)"/><path id="Path_6594" fill="#9456c8" d="M781.575,385.248l-35.413,3.32c2.839-9.872,5.44-19.709,3.32-29.511-2.692-8.751-.094-13.954,7.009-18.075l4.8-10.7,12.911-1.476h0a27.869,27.869,0,0,1,3.956,18.43C776.313,361.19,776.81,374.137,781.575,385.248Z" data-name="Path 6594" transform="translate(-536.74 -252.264)"/><path id="Path_6595" fill="#2f2e41" d="M757.994,255.284c-3.693.844-7.9,2.039-8.133,3.151-3.8.957-6.667,3.251-7.252,6.747a2.094,2.094,0,0,0,2.1,2.428,21.732,21.732,0,0,0,7.216-1.08c5.95,3.834,6.948,13.8,4.35,20.592l4.089-.375,4.23-12.383,1.08,11.9,9.331-1.234-1.2-15.17a22.6,22.6,0,0,0-3.549-10.022,8.538,8.538,0,0,0-.668-.865A11.859,11.859,0,0,0,757.994,255.284Z" data-name="Path 6595" transform="translate(-534.435 -204.721)"/><path id="Path_6596" fill="#ffb8b8" d="M720.041,761.7a1.3,1.3,0,0,0,1.278,1.443l4.15.043a.885.885,0,0,0,.823-.883h0a.885.885,0,0,0-.556-.822l-1.224-.49-1.781-2.493h-1.425a6.524,6.524,0,0,0-1.265,3.194v.007Z" data-name="Path 6596" transform="translate(-519.916 -528.931)"/><path id="Path_6597" fill="#ffb8b8" d="M680.861,761.7a1.3,1.3,0,0,1-1.278,1.443l-4.15.043a.885.885,0,0,1-.823-.883h0a.885.885,0,0,1,.556-.822l1.224-.49,1.781-2.493H679.6a6.524,6.524,0,0,1,1.265,3.194v.007Z" data-name="Path 6597" transform="translate(-490.669 -528.931)"/><path id="Path_6598" fill="#3f3d56" d="M525.5,568.65h2.137l7.479-32.408,3.917,32.764h2.493l3.383-42.2-17.272-.178Z" data-name="Path 6598" transform="translate(-338.355 -339.081)"/><path id="Path_6599" fill="#ffb8b8" d="M656.609,572.093h2.849v-6.766l.648-1.3a1.846,1.846,0,0,0-1.37-2.65h0a1.846,1.846,0,0,0-2.127,1.825Z" data-name="Path 6599" transform="translate(-479.079 -401.997)"/><circle id="Ellipse_20" cx="6.588" cy="6.588" r="6.588" fill="#ffb8b8" data-name="Ellipse 20" transform="translate(187.858 140.181)"/><rect id="Rectangle_302" width="6.766" height="7.835" fill="#ffb8b8" data-name="Rectangle 302" transform="translate(198.541 157.988) rotate(180)"/><path id="Path_6600" fill="#9456c8" d="M684.39,583.62c5.989,3.7,12.321,3.335,18.875.356l-1.424-33.12-7.479-.356-7.835,1.068-3.917,3.205Z" data-name="Path 6600" transform="translate(-495.82 -395.005)"/><path id="Path_6601" fill="#9456c8" d="M500.486,465.721l7.835-6.054-2.493-11.04-4.63,8.547-1.424-1.425-4.273,3.205Z" data-name="Path 6601" transform="translate(-319.039 -288.859)"/><path id="Path_6602" fill="#ffb8b8" d="M751.218,537.322l-2.492,1.381-3.28-5.918-1.2-.82a1.846,1.846,0,0,1-.086-2.982h0a1.846,1.846,0,0,1,2.745.565l1.029,1.856Z" data-name="Path 6602" transform="translate(-534.993 -380.902)"/><path id="Path_6603" fill="#9456c8" d="M568,439.762l9.456-5.02,4.968-2.637.712-4.274-3.205-3.205-3.917,2.493.356,2.849-4.63-.712Z" data-name="Path 6603" transform="translate(-365.719 -273.406)"/><circle id="Ellipse_21" cx="7.835" cy="7.835" r="7.835" fill="#2f2e41" data-name="Ellipse 21" transform="translate(188.036 136.442)"/><circle id="Ellipse_22" cx="3.561" cy="3.561" r="3.561" fill="#2f2e41" data-name="Ellipse 22" transform="translate(196.583 131.812)"/><path id="Path_6604" fill="#2f2e41" d="M718.732,492.979a3.56,3.56,0,0,0,4.571-5.189,3.559,3.559,0,1,1-5.064,4.873,3.565,3.565,0,0,0,.494.316Z" data-name="Path 6604" transform="translate(-518.76 -354.628)"/><path id="Path_6605" fill="#ffb8b8" d="M764.941,431.663l.245,8.564a4.669,4.669,0,0,1-4.2,4.78h0a4.669,4.669,0,0,1-4.972-5.865l1.922-7.11,5.533-30.249-.369-17.707,11.8-.369-2.213,19.92Z" data-name="Path 6605" transform="translate(-542.977 -287.612)"/><path id="Path_6606" fill="#9456c8" d="M787.409,351.537a18.654,18.654,0,0,0-13.28,0l.738-14.756a5.9,5.9,0,0,1,5.9-5.9h0a5.9,5.9,0,0,1,5.9,5.9Z" data-name="Path 6606" transform="translate(-554.747 -253.598)"/></g></svg>