<svg xmlns="http://www.w3.org/2000/svg" width="367.014" height="156.509" viewBox="0 0 367.014 156.509">
  <g id="Group_10421" data-name="Group 10421" transform="translate(-10.875)">
    <path id="Path_438" data-name="Path 438" d="M216.866,543.694a8.99,8.99,0,0,0,8.681-1.529c3.041-2.552,3.994-6.756,4.77-10.649L232.611,520l-4.8,3.307c-3.455,2.379-6.987,4.834-9.378,8.279s-3.435,8.148-1.514,11.876" transform="translate(-204.967 -406.498)" fill="#e6e6e6"/>
    <path id="Path_439" data-name="Path 439" d="M218.322,567.825c-.6-4.4-1.227-8.866-.8-13.318a20.949,20.949,0,0,1,4.039-10.982,18.272,18.272,0,0,1,4.687-4.248c.469-.3.9.447.433.741a17.368,17.368,0,0,0-6.87,8.289,27.84,27.84,0,0,0-1.478,11.992c.156,2.444.487,4.872.819,7.3a.445.445,0,0,1-.3.528.432.432,0,0,1-.528-.3Z" transform="translate(-205.682 -415.886)" fill="#f2f2f2"/>
    <path id="Path_442" data-name="Path 442" d="M227.734,574.507a6.618,6.618,0,0,0,5.766,2.977c2.92-.138,5.353-2.176,7.543-4.11l6.48-5.721-4.288-.205c-3.084-.148-6.247-.286-9.185.666s-5.646,3.24-6.183,6.28" transform="translate(-210.742 -429.636)" fill="#e6e6e6"/>
    <path id="Path_443" data-name="Path 443" d="M215.826,587.428c2.911-5.15,6.287-10.874,12.319-12.7a13.747,13.747,0,0,1,5.181-.535c.55.048.413.9-.136.848a12.771,12.771,0,0,0-8.269,2.188,21.493,21.493,0,0,0-5.684,6.133c-.941,1.433-1.784,2.927-2.627,4.419C216.341,588.254,215.554,587.91,215.826,587.428Z" transform="translate(-204.895 -432.956)" fill="#f2f2f2"/>
    <path id="Path_438-2" data-name="Path 438" d="M737.279,521.987a12.38,12.38,0,0,0,11.955-2.106c4.187-3.515,5.5-9.3,6.568-14.664l3.16-15.858-6.615,4.555c-4.757,3.275-9.621,6.656-12.915,11.4s-4.73,11.221-2.085,16.354" transform="translate(-459.134 -391.523)" fill="#e6e6e6"/>
    <path id="Path_439-2" data-name="Path 439" d="M739.284,555.217c-.833-6.066-1.689-12.21-1.1-18.34a28.847,28.847,0,0,1,5.562-15.123A25.16,25.16,0,0,1,750.2,515.9c.645-.407,1.239.615.6,1.021a23.916,23.916,0,0,0-9.461,11.414c-2.06,5.239-2.39,10.949-2.036,16.514.214,3.365.67,6.708,1.128,10.048a.612.612,0,0,1-.413.727.6.6,0,0,1-.727-.413Z" transform="translate(-460.118 -404.45)" fill="#f2f2f2"/>
    <path id="Path_442-2" data-name="Path 442" d="M752.246,564.419a9.114,9.114,0,0,0,7.941,4.1c4.021-.191,7.372-3,10.387-5.66l8.923-7.878-5.905-.283c-4.247-.2-8.6-.394-12.648.917s-7.775,4.462-8.515,8.648" transform="translate(-467.087 -423.385)" fill="#e6e6e6"/>
    <path id="Path_443-2" data-name="Path 443" d="M735.848,582.21c4.008-7.092,8.657-14.974,16.964-17.493a18.929,18.929,0,0,1,7.135-.737c.758.065.568,1.233-.188,1.168a17.587,17.587,0,0,0-11.387,3.013,29.6,29.6,0,0,0-7.826,8.446c-1.3,1.974-2.457,4.031-3.618,6.086C736.557,583.349,735.472,582.874,735.848,582.21Z" transform="translate(-459.034 -427.957)" fill="#f2f2f2"/>
    <path id="Path_6640" data-name="Path 6640" d="M659.045,341.131A1.879,1.879,0,0,1,658,338.861a.9.9,0,0,0,.041-.208h0a.942.942,0,0,0-1.693-.624h0a.9.9,0,0,0-.1.185,1.879,1.879,0,0,1-2.271,1.047.9.9,0,0,0-.208-.041h0a.942.942,0,0,0-.624,1.693h0a.9.9,0,0,0,.185.1,1.879,1.879,0,0,1,1.047,2.271.908.908,0,0,0-.041.208h0a.942.942,0,0,0,1.692.625h0a.9.9,0,0,0,.1-.185,1.879,1.879,0,0,1,2.271-1.047.906.906,0,0,0,.208.041h0a.942.942,0,0,0,.624-1.693h0A.9.9,0,0,0,659.045,341.131Z" transform="translate(-418.467 -317.379)" fill="#cbcbcb"/>
    <path id="Path_6641" data-name="Path 6641" d="M729.045,504.131A1.879,1.879,0,0,1,728,501.86a.9.9,0,0,0,.041-.208h0a.942.942,0,0,0-1.692-.624h0a.9.9,0,0,0-.1.185,1.879,1.879,0,0,1-2.271,1.047.909.909,0,0,0-.208-.041h0a.942.942,0,0,0-.624,1.693h0a.9.9,0,0,0,.185.1,1.879,1.879,0,0,1,1.047,2.27.9.9,0,0,0-.041.208h0a.942.942,0,0,0,1.692.625h0a.9.9,0,0,0,.1-.185,1.879,1.879,0,0,1,2.271-1.047.906.906,0,0,0,.208.041h0a.942.942,0,0,0,.624-1.693h0A.906.906,0,0,0,729.045,504.131Z" transform="translate(-452.678 -397.042)" fill="#f1f1f1"/>
    <path id="Path_6642" data-name="Path 6642" d="M362.045,409.131A1.879,1.879,0,0,1,361,406.86a.9.9,0,0,0,.041-.208h0a.942.942,0,0,0-1.693-.624h0a.9.9,0,0,0-.1.185,1.879,1.879,0,0,1-2.271,1.047.9.9,0,0,0-.208-.041h0a.942.942,0,0,0-.624,1.693h0a.9.9,0,0,0,.185.1,1.879,1.879,0,0,1,1.047,2.271.9.9,0,0,0-.041.208h0a.942.942,0,0,0,1.692.624h0a.9.9,0,0,0,.1-.185,1.879,1.879,0,0,1,2.271-1.047.905.905,0,0,0,.208.041h0a.942.942,0,0,0,.624-1.693h0A.9.9,0,0,0,362.045,409.131Z" transform="translate(-273.314 -350.613)" fill="#f1f1f1"/>
    <circle id="Ellipse_24" data-name="Ellipse 24" cx="3.068" cy="3.068" r="3.068" transform="translate(163.941 22.496)" fill="#f1f1f1"/>
    <circle id="Ellipse_25" data-name="Ellipse 25" cx="3.068" cy="3.068" r="3.068" transform="translate(327.548 14.316)" fill="#6c63ff"/>
    <circle id="Ellipse_26" data-name="Ellipse 26" cx="3.068" cy="3.068" r="3.068" transform="translate(89.295)" fill="#cbcbcb"/>
    <circle id="Ellipse_27" data-name="Ellipse 27" cx="22.019" cy="22.019" r="22.019" transform="translate(58.547 101.516)" fill="#2f2e41"/>
    <rect id="Rectangle_304" data-name="Rectangle 304" width="6.689" height="11.985" transform="translate(70.532 140.816)" fill="#2f2e41"/>
    <rect id="Rectangle_305" data-name="Rectangle 305" width="6.689" height="11.985" transform="translate(83.911 140.816)" fill="#2f2e41"/>
    <ellipse id="Ellipse_28" data-name="Ellipse 28" cx="5.574" cy="2.09" rx="5.574" ry="2.09" transform="translate(70.532 150.85)" fill="#2f2e41"/>
    <ellipse id="Ellipse_29" data-name="Ellipse 29" cx="5.574" cy="2.09" rx="5.574" ry="2.09" transform="translate(83.911 150.571)" fill="#2f2e41"/>
    <ellipse id="Ellipse_30" data-name="Ellipse 30" cx="12.215" cy="3.835" rx="12.215" ry="3.835" transform="translate(90.234 117.132) rotate(-45.022)" fill="#2f2e41"/>
    <ellipse id="Ellipse_31" data-name="Ellipse 31" cx="3.835" cy="12.215" rx="3.835" ry="12.215" transform="translate(42.835 106.807) rotate(-44.978)" fill="#2f2e41"/>
    <circle id="Ellipse_32" data-name="Ellipse 32" cx="7.525" cy="7.525" r="7.525" transform="translate(72.114 112.889)" fill="#fff"/>
    <circle id="Ellipse_33" data-name="Ellipse 33" cx="2.509" cy="2.509" r="2.509" transform="translate(77.131 117.906)" fill="#3f3d56"/>
    <path id="Path_6643" data-name="Path 6643" d="M352.678,558.3a4.894,4.894,0,0,1-9.63,1.753h0l0-.01c-.481-2.66,1.575-3.6,4.235-4.082S352.2,555.644,352.678,558.3Z" transform="translate(-267.065 -423.971)" fill="#fff"/>
    <path id="Path_6644" data-name="Path 6644" d="M392.523,584.823a1.871,1.871,0,0,0-1.869,1.869v3.9a1.871,1.871,0,0,0,1.869,1.869H422.6a1.871,1.871,0,0,0,1.869-1.869v-3.9a1.872,1.872,0,0,0-1.869-1.869Z" transform="translate(-290.366 -438.179)" fill="#e5e5e5"/>
    <path id="Path_6645" data-name="Path 6645" d="M423.5,579.377a.811.811,0,0,0-1.107.3l-1.118,1.936-1.1-2.165a.811.811,0,1,0-1.447.732l.852,1.685h-.312v7.875h4.169v-7.875H423l.8-1.377A.811.811,0,0,0,423.5,579.377Z" transform="translate(-304.047 -435.333)" fill="#6c63ff"/>
    <path id="Path_6646" data-name="Path 6646" d="M339.087,498.729a38.9,38.9,0,0,1-11.537-1.763,1.293,1.293,0,0,1-.9-1.226v-8.963a1.28,1.28,0,0,1,1.278-1.278h22.5a1.28,1.28,0,0,1,1.278,1.278v8.957a1.281,1.281,0,0,1-.909,1.227A40.485,40.485,0,0,1,339.087,498.729Z" transform="translate(-259.087 -389.637)" fill="#6c63ff"/>
    <path id="Path_6647" data-name="Path 6647" d="M351.695,487.023v1.5l-12.173,4.269a1.031,1.031,0,0,1-.7-.01L327.154,488.4v-1.375A1.026,1.026,0,0,1,328.177,486h22.5A1.025,1.025,0,0,1,351.695,487.023Z" transform="translate(-259.332 -389.881)" opacity="0.2"/>
    <path id="Path_6648" data-name="Path 6648" d="M332.789,481.827a1.278,1.278,0,0,1-.449-.081L314.9,475.2a1.278,1.278,0,0,1,.036-2.406l16.4-5.612a1.291,1.291,0,0,1,.818,0l18.309,6.1a1.278,1.278,0,0,1,.019,2.419l-17.278,6.056a1.275,1.275,0,0,1-.423.072Z" transform="translate(-252.94 -380.65)" fill="#6c63ff"/>
    <path id="Path_6649" data-name="Path 6649" d="M124.665,189.913h-.511V182.5h15.594v.511H124.665Z" transform="translate(-60.678 -89.193)" fill="#3f3d56"/>
    <circle id="Ellipse_34" data-name="Ellipse 34" cx="1.023" cy="1.023" r="1.023" transform="translate(62.709 100.209)" fill="#3f3d56"/>
    <circle id="Ellipse_35" data-name="Ellipse 35" cx="22.019" cy="22.019" r="22.019" transform="translate(185.853 101.516)" fill="#2f2e41"/>
    <rect id="Rectangle_306" data-name="Rectangle 306" width="6.689" height="11.985" transform="translate(197.838 140.816)" fill="#2f2e41"/>
    <rect id="Rectangle_307" data-name="Rectangle 307" width="6.689" height="11.985" transform="translate(211.217 140.816)" fill="#2f2e41"/>
    <ellipse id="Ellipse_36" data-name="Ellipse 36" cx="5.574" cy="2.09" rx="5.574" ry="2.09" transform="translate(197.838 150.85)" fill="#2f2e41"/>
    <ellipse id="Ellipse_37" data-name="Ellipse 37" cx="5.574" cy="2.09" rx="5.574" ry="2.09" transform="translate(211.217 150.571)" fill="#2f2e41"/>
    <ellipse id="Ellipse_38" data-name="Ellipse 38" cx="12.215" cy="3.835" rx="12.215" ry="3.835" transform="translate(217.539 117.131) rotate(-45.022)" fill="#2f2e41"/>
    <ellipse id="Ellipse_39" data-name="Ellipse 39" cx="12.215" cy="3.835" rx="12.215" ry="3.835" transform="translate(174.951 140.011) rotate(-55.225)" fill="#2f2e41"/>
    <circle id="Ellipse_40" data-name="Ellipse 40" cx="7.525" cy="7.525" r="7.525" transform="translate(199.421 112.889)" fill="#fff"/>
    <circle id="Ellipse_41" data-name="Ellipse 41" cx="2.509" cy="2.509" r="2.509" transform="translate(206.994 115.35)" fill="#3f3d56"/>
    <path id="Path_6650" data-name="Path 6650" d="M602.772,558.3c.738,2.659-1.951,5.207-6.006,5.691s-7.941-1.279-8.68-3.938h0l0-.01c-.734-2.66,2.4-3.6,6.458-4.082S602.037,555.644,602.772,558.3Z" transform="translate(-386.803 -423.971)" fill="#fff"/>
    <path id="Path_6651" data-name="Path 6651" d="M570.634,498.411a38.9,38.9,0,0,1-11.361,2.669,1.293,1.293,0,0,1-1.289-.8l-3.344-8.315a1.28,1.28,0,0,1,.709-1.663l20.872-8.392a1.28,1.28,0,0,1,1.663.709l3.342,8.311a1.281,1.281,0,0,1-.386,1.477A40.487,40.487,0,0,1,570.634,498.411Z" transform="translate(-370.466 -387.835)" fill="#6c63ff"/>
    <path id="Path_6652" data-name="Path 6652" d="M577.892,482.955l.559,1.39-9.7,8.5a1.03,1.03,0,0,1-.654.252l-12.459.287-.513-1.276a1.025,1.025,0,0,1,.567-1.33l20.872-8.392a1.026,1.026,0,0,1,1.33.567Z" transform="translate(-370.711 -388.08)" opacity="0.2"/>
    <path id="Path_6653" data-name="Path 6653" d="M560.487,486.132a1.279,1.279,0,0,1-.447.092l-18.618.43a1.278,1.278,0,0,1-.865-2.246l13.126-11.327a1.291,1.291,0,0,1,.757-.308l19.264-1.168a1.278,1.278,0,0,1,.92,2.237l-13.771,12.065A1.278,1.278,0,0,1,560.487,486.132Z" transform="translate(-363.411 -382.845)" fill="#6c63ff"/>
    <path id="Path_6654" data-name="Path 6654" d="M353.249,200.813l-.474.191-2.766-6.878,14.468-5.818.191.474-13.994,5.627Z" transform="translate(-171.06 -92.032)" fill="#3f3d56"/>
    <circle id="Ellipse_42" data-name="Ellipse 42" cx="1.023" cy="1.023" r="1.023" transform="translate(181.12 108.329)" fill="#3f3d56"/>
    <path id="Path_6655" data-name="Path 6655" d="M756.274,421.314a38.9,38.9,0,0,1-8.862-7.594,1.293,1.293,0,0,1-.113-1.514l4.737-7.608a1.28,1.28,0,0,1,1.761-.409l19.1,11.89a1.28,1.28,0,0,1,.409,1.761l-4.734,7.6a1.281,1.281,0,0,1-1.42.561A40.486,40.486,0,0,1,756.274,421.314Z" transform="translate(-464.575 -349.803)" fill="#6c63ff"/>
    <path id="Path_6656" data-name="Path 6656" d="M777.312,417.948l-.792,1.272-12.59-2.81a1.031,1.031,0,0,1-.589-.379l-7.588-9.886.727-1.168a1.026,1.026,0,0,1,1.409-.328l19.1,11.89a1.025,1.025,0,0,1,.328,1.409Z" transform="translate(-468.8 -350.048)" opacity="0.2"/>
    <path id="Path_6657" data-name="Path 6657" d="M761.555,408.19a1.28,1.28,0,0,1-.338-.306l-11.34-14.773a1.278,1.278,0,0,1,1.3-2.024l16.892,3.906a1.291,1.291,0,0,1,.7.429l12.317,14.858a1.278,1.278,0,0,1-1.263,2.063l-17.868-3.991A1.276,1.276,0,0,1,761.555,408.19Z" transform="translate(-465.8 -343.478)" fill="#6c63ff"/>
    <path id="Path_6658" data-name="Path 6658" d="M552.192,103.142l-.434-.27,3.918-6.293,13.238,8.242-.271.434-12.8-7.972Z" transform="translate(-269.66 -47.201)" fill="#3f3d56"/>
    <circle id="Ellipse_43" data-name="Ellipse 43" cx="1.023" cy="1.023" r="1.023" transform="translate(281.022 55.217)" fill="#3f3d56"/>
    <circle id="Ellipse_44" data-name="Ellipse 44" cx="22.019" cy="22.019" r="22.019" transform="translate(322.95 76.463)" fill="#2f2e41"/>
    <rect id="Rectangle_308" data-name="Rectangle 308" width="6.689" height="11.985" transform="matrix(0.853, -0.521, 0.521, 0.853, 354.526, 113.39)" fill="#2f2e41"/>
    <rect id="Rectangle_309" data-name="Rectangle 309" width="6.689" height="11.985" transform="matrix(0.853, -0.521, 0.521, 0.853, 343.11, 120.367)" fill="#2f2e41"/>
    <ellipse id="Ellipse_45" data-name="Ellipse 45" cx="5.574" cy="2.09" rx="5.574" ry="2.09" transform="matrix(0.853, -0.521, 0.521, 0.853, 355.953, 124.278)" fill="#2f2e41"/>
    <ellipse id="Ellipse_46" data-name="Ellipse 46" cx="5.574" cy="2.09" rx="5.574" ry="2.09" transform="matrix(0.853, -0.521, 0.521, 0.853, 344.392, 131.016)" fill="#2f2e41"/>
    <ellipse id="Ellipse_47" data-name="Ellipse 47" cx="3.835" cy="12.215" rx="3.835" ry="12.215" transform="translate(312.606 80.222) rotate(-44.978)" fill="#2f2e41"/>
    <ellipse id="Ellipse_48" data-name="Ellipse 48" cx="3.835" cy="12.215" rx="3.835" ry="12.215" transform="translate(357.654 99.267) rotate(-34.775)" fill="#2f2e41"/>
    <circle id="Ellipse_49" data-name="Ellipse 49" cx="7.525" cy="7.525" r="7.525" transform="translate(330.7 84.769)" fill="#fff"/>
    <circle id="Ellipse_50" data-name="Ellipse 50" cx="2.509" cy="2.509" r="2.509" transform="translate(333.161 87.23)" fill="#3f3d56"/>
    <path id="Path_6659" data-name="Path 6659" d="M836.632,501.662c-1.427,2.338.474,5.5,4.247,7.065s7.987.936,9.415-1.4h0l.005-.008c1.423-2.34-1.341-4.09-5.115-5.651S838.055,499.323,836.632,501.662Z" transform="translate(-508.097 -396.814)" fill="#fff"/>
    <path id="Path_6660" data-name="Path 6660" d="M854.479,426.089c1.966-7.918,10.645-12.578,19.385-10.408s14.231,10.348,12.265,18.266-8.489,7.944-17.229,5.773S852.513,434.007,854.479,426.089Z" transform="translate(-516.899 -355.254)" fill="#e6e6e6"/>
    <path id="Path_6661" data-name="Path 6661" d="M509.983,602.105H194.889c-.215,0-.389-.471-.389-1.053s.174-1.053.389-1.053H509.983c.215,0,.389.471.389,1.053S510.2,602.105,509.983,602.105Z" transform="translate(-134.583 -445.596)" fill="#cbcbcb"/>
  </g>
</svg>
