<svg xmlns="http://www.w3.org/2000/svg" xmlns:xlink="http://www.w3.org/1999/xlink" width="1247.233" height="1162.168" viewBox="0 0 1247.233 1162.168"><defs><linearGradient id="linear-gradient" x1="1" x2="0" y1=".5" y2=".5" gradientUnits="objectBoundingBox"><stop offset="0" stop-color="#c682ff"/><stop offset="1" stop-color="#9456c8"/></linearGradient></defs><path id="Shape" fill="url(#linear-gradient)" d="M515.023,72.826c-37.763-4.539-73.084-18.479-108.73-30.267A970.051,970.051,0,0,0,285.212,11.2c-43.67-8.366-88.688-13.819-132.47-9.92S66.243,19.206,38.318,44.843C-8.989,88.33-5,154.246,10.627,212.344c18.542,68.932,50.6,137.071,103.076,195.779,37.3,41.731,84.1,77.857,130.484,113.719,26.222,20.236,52.688,40.614,83.318,56.524C356,593.149,387.457,603.749,418.695,614.2c33.356,11.169,66.792,22.4,101.232,30.938,109.925,27.252,225.646,26.4,338.794,23.972,39.82-.843,81.443-2.234,114.85-17.819,26.03-12.184,44.582-31.922,58.636-52.971,18.39-27.577,30-60.484,16.941-91.239-19.251-45.366-85.233-72.089-107.2-116.765C913.8,332.988,968.473,272.392,953,212.72c-6.434-24.825-24.581-47.264-43.812-68.191-45.869-49.894-106.835-95.341-188.775-88.7C651.039,61.434,587.763,81.578,515.023,72.826Z" transform="matrix(0.809, -0.588, 0.588, 0.809, 0, 619.951)"/></svg>