<svg xmlns="http://www.w3.org/2000/svg" width="684.56" height="602.873" viewBox="0 0 684.56 602.873">
  <g id="Group_382" data-name="Group 382" transform="translate(-1752.44 -2618.931)">
    <circle id="Ellipse_90" data-name="Ellipse 90" cx="3.651" cy="3.651" r="3.651" transform="translate(2166.262 2618.931)" fill="#fff"/>
    <circle id="Ellipse_91" data-name="Ellipse 91" cx="3.651" cy="3.651" r="3.651" transform="translate(2180.119 2618.931)" fill="#fff"/>
    <circle id="Ellipse_92" data-name="Ellipse 92" cx="3.651" cy="3.651" r="3.651" transform="translate(2193.976 2618.931)" fill="#fff"/>
    <path id="Path_6754" data-name="Path 6754" d="M434.646,511.7a17.867,17.867,0,0,0-19.79-17.862,17.2,17.2,0,0,0-2.348.433l-60.464-51.827,3.613-19.475-29.8-9.658L316.87,444.52a18.1,18.1,0,0,0,7.68,20.2l74.381,47.045a17.058,17.058,0,0,0,.091,1.752,17.867,17.867,0,0,0,21.691,15.5,17.377,17.377,0,0,0,2.105-.608A17.92,17.92,0,0,0,434.646,511.7Z" transform="translate(1632.557 2466.402)" fill="#9f616a"/>
    <path id="Path_6755" data-name="Path 6755" d="M284.325,571.807h77.958c0,2.241,80.345,4.06,80.345,4.06a20.885,20.885,0,0,1,3.426,3.248,20.152,20.152,0,0,1,4.71,12.99v3.248a20.3,20.3,0,0,1-20.3,20.3H284.325a20.315,20.315,0,0,1-20.3-20.3V592.1A20.326,20.326,0,0,1,284.325,571.807Z" transform="translate(1632.557 2466.402)" fill="#3f3d56"/>
    <rect id="Rectangle_317" data-name="Rectangle 317" width="21.109" height="136.399" transform="translate(1980.573 3081.245)" fill="#3f3d56"/>
    <path id="Path_6756" data-name="Path 6756" d="M429.206,752.939c0,2.554-31.988.988-71.447.988s-71.447,1.566-71.447-.988,31.988-22.806,71.447-22.806S429.206,750.385,429.206,752.939Z" transform="translate(1632.557 2466.402)" fill="#3f3d56"/>
    <path id="Path_6757" data-name="Path 6757" d="M196.707,589.916l19.906,0,9.471-51.632-29.381,0Z" transform="translate(1846 2611)" fill="#9f616a"/>
    <path id="Path_6758" data-name="Path 6758" d="M405.072,753.811l64.189,0V753a24.984,24.984,0,0,0-24.984-24.984h0l-39.2,0Z" transform="translate(1632.557 2466.402)" fill="#2f2e41"/>
    <path id="Path_6759" data-name="Path 6759" d="M439.924,702.5l39.687-89a32.616,32.616,0,0,0-14.32-41.868L379.208,525.47l-39.281-3.341-36.234-3.294-.261.442c-.334.565-8.125,14.021-2.859,28.776,3.995,11.192,14.385,19.934,30.883,25.984,38.507,14.119,82.991,26.187,100.328,30.719a5.6,5.6,0,0,1,3.59,2.857,5.681,5.681,0,0,1,.319,4.545L398.822,695a7.307,7.307,0,0,0,6.186,9.79l27.55,2.006q.351.033.7.033a7.3,7.3,0,0,0,6.668-4.331Z" transform="translate(1632.557 2466.402)" fill="#cbcbcb"/>
    <path id="Path_6760" data-name="Path 6760" d="M183.716,589.916l19.906,0,9.472-51.632-29.381,0Z" transform="translate(1846 2611)" fill="#9f616a"/>
    <path id="Path_6761" data-name="Path 6761" d="M392.082,753.811l64.189,0V753a24.984,24.984,0,0,0-24.984-24.984h0l-39.2,0Z" transform="translate(1632.557 2466.402)" fill="#2f2e41"/>
    <path id="Path_6762" data-name="Path 6762" d="M425.31,707.367l39.687-89a32.616,32.616,0,0,0-14.32-41.868l-86.083-46.161L325.313,527l-28.381-2.462,0-.389c-.334.565-8.125,14.021-2.859,28.776,3.995,11.192,6.266,19.934,22.764,25.984,38.507,14.119,82.991,26.187,100.328,30.719a5.6,5.6,0,0,1,3.591,2.857,5.681,5.681,0,0,1,.319,4.545l-36.87,82.837a7.307,7.307,0,0,0,6.186,9.79l27.55,2.006q.351.033.7.033a7.3,7.3,0,0,0,6.668-4.331Z" transform="translate(1632.557 2466.402)" fill="#cbcbcb"/>
    <path id="Path_6763" data-name="Path 6763" d="M350.517,526.163c1.9-1.346,29.228,12.99,34.1,1.624-22.733-56.833-7.068-81.374-20.993-113.965a40.581,40.581,0,0,0-26.9-23.025l-36.129-1.824-.187.09a42.227,42.227,0,0,0-23.089,44.8c.129,35.469,21.35,62.521,13.93,88.247a8.317,8.317,0,0,0,.786,6.468,7.931,7.931,0,0,0,5.059,3.749l47.7-6.364a8.061,8.061,0,0,0,6.522-1.262Z" transform="translate(1632.557 2466.402)" fill="#2f2e41"/>
    <circle id="Ellipse_60" data-name="Ellipse 60" cx="39.882" cy="39.882" r="39.882" transform="translate(1905.327 2762.116)" fill="#9f616a"/>
    <path id="Path_6764" data-name="Path 6764" d="M299.948,372.2c2.119.927,6.458-15.958,4.515-19.335-2.891-5.022-2.72-4.986-4.639-8.309s-2.348-7.871.137-10.794,8.236-2.536,9.37,1.13c-.73-6.963,6.157-12.559,12.979-14.132s14.017-.6,20.877-2c7.961-1.624,16.243-8.3,13.067-17.051a12.33,12.33,0,0,0-2.4-3.952c-3.67-4.126-8.8-5.888-13.822-7.591-10.441-3.544-21.168-7.132-32.187-6.741-18.105.643-35.22,13.159-41.319,30.218a42.474,42.474,0,0,0-1.759,6.536c-3.782,20.337,8.028,40.4,27.209,48.141Z" transform="translate(1632.557 2466.402)" fill="#2f2e41"/>
    <path id="Path_6765" data-name="Path 6765" d="M509.1,436.337l4.573,27.156a1.672,1.672,0,0,1-.1.9l-35.88,89.653a1.672,1.672,0,0,1-3.222-.551l-1.52-36.027a1.672,1.672,0,0,1,.122-.7L505.9,435.985a1.672,1.672,0,0,1,3.2.352Z" transform="translate(1632.557 2466.402)" fill="#3f3d56"/>
    <path id="Path_6766" data-name="Path 6766" d="M293.114,293.823l4.346,23.33-31.841,81.811-4.134-26.317Z" transform="translate(1846 2611)" fill="#25093d"/>
    <path id="Path_6767" data-name="Path 6767" d="M367.247,553.628c.783,3.058,103.64,6.369,104.707,5.444a21.674,21.674,0,0,0,2.474-3.828c1.078-1.925,2.076-3.856,2.076-3.856l-1.69-32.529L373.492,508.031s-4.483,27.146-5.89,39.617A29.957,29.957,0,0,0,367.247,553.628Z" transform="translate(1632.557 2466.402)" fill="#3f3d56"/>
    <path id="Path_6768" data-name="Path 6768" d="M248.114,377.7l.009,28.025-44.814-3.186,1.983-27.884Z" transform="translate(1846 2611)" opacity="0.1"/>
    <path id="Path_6769" data-name="Path 6769" d="M189.717,382.557l.271-.034-2.116,11.914-24.9-1.77.85-11.951Z" transform="translate(1846 2611)" opacity="0.1"/>
    <path id="Path_6770" data-name="Path 6770" d="M367.247,553.628c.783,3.058,103.64,6.369,104.707,5.444a21.674,21.674,0,0,0,2.474-3.828l-106.826-7.6A29.957,29.957,0,0,0,367.247,553.628Z" transform="translate(1632.557 2466.402)" opacity="0.1"/>
    <path id="Path_6771" data-name="Path 6771" d="M325.946,505.051l86.764,16.192a17.09,17.09,0,0,0,.734,1.593,17.906,17.906,0,0,0,11.491,8.973,17.861,17.861,0,1,0-4.076-33.12,17.165,17.165,0,0,0-2.02,1.272l-75.361-25.744-3.857-19.429-31.26,2.068,3.239,32.57a17.767,17.767,0,0,0,14.346,15.625Z" transform="translate(1632.557 2466.402)" fill="#9f616a"/>
    <path id="Path_6772" data-name="Path 6772" d="M307.3,471.383l45.422-14.929-10.6-30.423a18.135,18.135,0,0,0-20.107-11.924h0A18.135,18.135,0,0,0,306.869,432.2Z" transform="translate(1632.557 2466.402)" fill="#2f2e41"/>
    <path id="Path_6773" data-name="Path 6773" d="M688.758,755.4H214.687a1.024,1.024,0,1,1,0-2H688.758a1.024,1.024,0,1,1,0,2Z" transform="translate(1538.997 2466.402)" fill="#cbcbcb"/>
    <path id="Path_6774" data-name="Path 6774" d="M743.65,723.9c18.274,9.457,26.4,30.049,26.4,30.049s-21.5,5.258-39.776-4.2-26.4-30.049-26.4-30.049S725.376,714.438,743.65,723.9Z" transform="translate(1632.557 2466.402)" fill="#f1f1f1"/>
    <path id="Path_6775" data-name="Path 6775" d="M737.806,730.708c10.9,17.449,32.086,23.881,32.086,23.881s3.5-21.858-7.4-39.307S730.4,691.4,730.4,691.4,726.9,713.259,737.806,730.708Z" transform="translate(1632.557 2466.402)" fill="#f1f1f1"/>
    <path id="Path_6776" data-name="Path 6776" d="M803.443,755.005h-114a1,1,0,0,1,0-2h114a1,1,0,0,1,0,2Z" transform="translate(1632.557 2466.402)" fill="#cbcbcb"/>
  </g>
</svg>
