<?xml version="1.0" encoding="utf-8"?>
<!-- Generator: Adobe Illustrator 26.0.2, SVG Export Plug-In . SVG Version: 6.00 Build 0)  -->
<svg version="1.1" id="Layer_1" xmlns="http://www.w3.org/2000/svg" xmlns:xlink="http://www.w3.org/1999/xlink" x="0px" y="0px"
	 viewBox="0 0 595.3 841.9" style="enable-background:new 0 0 595.3 841.9;" xml:space="preserve">
<style type="text/css">
	.st0{fill-rule:evenodd;clip-rule:evenodd;fill:#FAF3FF;}
	.st1{fill:#FAF3FF;}
	.st2{fill:url(#SVGID_1_);}
	.st3{fill:#505050;}
	.st4{fill:url(#SVGID_00000095337373844726847240000012513992597270701202_);}
	.st5{fill:url(#SVGID_00000014624597947627467000000000928406295887864986_);}
	.st6{fill:url(#SVGID_00000004537093501596512980000015186145956559698615_);}
	.st7{fill:url(#SVGID_00000054952013381321393300000005928421507616952454_);}
	.st8{fill:url(#SVGID_00000153678832774753834150000001889588786159610043_);}
	.st9{fill:url(#SVGID_00000096750612335460839230000016298817985130562689_);}
	.st10{fill:url(#SVGID_00000046334647067545764120000009310711799457863345_);}
	.st11{fill:url(#SVGID_00000001628209700718073340000012861372025455406234_);}
	.st12{fill:url(#SVGID_00000114763461383223403280000007914512708272101264_);}
	.st13{fill:url(#SVGID_00000171680860032854600080000000244305881351547052_);}
	.st14{fill:url(#SVGID_00000138559698276893054450000016194822217139869119_);}
	.st15{fill:url(#SVGID_00000026142874015321390150000011846534327301633976_);}
	.st16{fill:url(#SVGID_00000122683036665267584200000017083328256618677663_);}
	.st17{fill:url(#SVGID_00000088118590245971289000000005025582365409518250_);}
	.st18{fill:url(#SVGID_00000157990804402993724340000010197452715315669392_);}
	.st19{fill:url(#SVGID_00000081640840679997706600000007792275819346974363_);}
	.st20{fill:#7C00C8;}
	.st21{fill:#A82EF2;}
	.st22{fill:#58197E;}
	.st23{fill:#1F2030;}
	.st24{fill:#F1F0FF;}
	.st25{fill:#D9D6FF;}
	.st26{fill:#00D672;}
	.st27{fill:#82FFC5;}
	.st28{fill:#00F080;}
	.st29{fill:#141414;}
	.st30{fill:#FFDBDB;}
	.st31{opacity:0.3;}
	.st32{fill:#1F1F1F;}
	.st33{fill:#334526;}
	.st34{fill:#393942;}
	.st35{fill:#3E542E;}
	.st36{fill:#4B4B57;}
	.st37{fill:#333333;}
	.st38{fill:#3D3D3D;}
	.st39{fill:#F7F5FF;}
	.st40{fill:#FBFAFF;}
	.st41{fill:#F0B4B4;}
	.st42{fill:#393B00;}
	.st43{fill:#FFFFFF;}
	.st44{fill:#7B916A;}
	.st45{fill:#99B584;}
	.st46{fill:#EBFF00;}
	.st47{fill:#DEDDE6;}
	.st48{fill:url(#SVGID_00000035532420424291369490000009047472482198608540_);}
	.st49{fill:url(#SVGID_00000106137571633713613060000012599173062252805254_);}
	.st50{fill:url(#SVGID_00000095328125524511214390000008549532929968836740_);}
	.st51{fill:url(#SVGID_00000049200887889478106850000013686553416026949564_);}
	.st52{fill:url(#SVGID_00000114779987560833250170000017202407082200990885_);}
	.st53{fill:url(#SVGID_00000095319926314918947710000005121281140846413503_);}
	.st54{fill:url(#SVGID_00000083773620661683758150000012802792842403633328_);}
	.st55{fill:url(#SVGID_00000109030583951816451690000016036907374185960381_);}
	.st56{fill:url(#SVGID_00000092458665345016147760000018098835489921677467_);}
	.st57{fill:url(#SVGID_00000160893058722776163200000006051734348803381890_);}
	.st58{fill:url(#SVGID_00000019658817749830579400000004189579423000291241_);}
	.st59{fill:url(#SVGID_00000179627723960896919630000007485296648397755777_);}
	.st60{fill:url(#SVGID_00000170992274219013261530000012107616427335189675_);}
	.st61{fill:url(#SVGID_00000049928828263594282410000012332058289510282406_);}
	.st62{fill:url(#SVGID_00000075124485525638364240000003513140128354742948_);}
	.st63{fill:url(#SVGID_00000166669841589234086130000008567691426786048673_);}
	.st64{fill:url(#SVGID_00000008835009185569523040000011873037423942212773_);}
	.st65{fill:url(#SVGID_00000002355985085035363860000014217817300742813574_);}
	.st66{fill-rule:evenodd;clip-rule:evenodd;fill:#F1F0FF;}
	.st67{fill-rule:evenodd;clip-rule:evenodd;fill:#D9D6FF;}
	.st68{fill-rule:evenodd;clip-rule:evenodd;fill:#F9BE40;}
	.st69{fill-rule:evenodd;clip-rule:evenodd;fill:#798A64;}
	.st70{fill-rule:evenodd;clip-rule:evenodd;fill:#F99D40;}
	.st71{fill-rule:evenodd;clip-rule:evenodd;fill:#899E70;}
	.st72{fill-rule:evenodd;clip-rule:evenodd;fill:#588282;}
	.st73{fill-rule:evenodd;clip-rule:evenodd;fill:#78B3B3;}
	.st74{fill-rule:evenodd;clip-rule:evenodd;fill:#669999;}
	.st75{fill-rule:evenodd;clip-rule:evenodd;fill:#406161;}
	.st76{fill-rule:evenodd;clip-rule:evenodd;fill:#FFFFFF;}
	.st77{fill-rule:evenodd;clip-rule:evenodd;fill:#212121;}
	.st78{fill-rule:evenodd;clip-rule:evenodd;fill:#F9BA91;}
	.st79{fill-rule:evenodd;clip-rule:evenodd;fill:#CF8263;}
	.st80{fill-rule:evenodd;clip-rule:evenodd;fill:#333333;}
	.st81{fill-rule:evenodd;clip-rule:evenodd;fill:#A5BC88;}
	.st82{fill-rule:evenodd;clip-rule:evenodd;fill:#82FFC5;}
	.st83{fill-rule:evenodd;clip-rule:evenodd;fill:#00F080;}
	.st84{fill-rule:evenodd;clip-rule:evenodd;fill:#E6E6E6;}
	.st85{fill:url(#SVGID_00000097475778741055223560000007746435432748704150_);}
	.st86{fill:url(#SVGID_00000065038227622496598010000010946845175167674811_);}
	.st87{fill:url(#SVGID_00000039125311728391059780000012523337951948350891_);}
	.st88{fill:url(#SVGID_00000030451130573835450340000013745794911301482633_);}
	.st89{fill:url(#SVGID_00000055709094294970123110000006686013765928820409_);}
	.st90{fill:url(#SVGID_00000086665848845505485600000014586513403046557856_);}
	.st91{fill:url(#SVGID_00000072272651016229290100000001651946084173851036_);}
	.st92{fill:url(#SVGID_00000005231340525239616140000006439305576085509805_);}
	.st93{fill:url(#SVGID_00000044870155328307875000000017861126770758890407_);}
	.st94{fill:url(#SVGID_00000024723604127297736930000014346097801996862860_);}
	.st95{fill:url(#SVGID_00000022561022096060695710000015399213060051342271_);}
	.st96{fill:url(#SVGID_00000016048727852799462430000012644691398462345109_);}
	.st97{fill:url(#SVGID_00000072252078771606831510000005269775504363987331_);}
	.st98{fill:url(#SVGID_00000062878664883581014370000010995846972952046479_);}
	.st99{fill:url(#SVGID_00000000216366554311024040000000133510352913439922_);}
	.st100{fill:url(#SVGID_00000003800122111718432210000001695183697388501657_);}
	.st101{fill:url(#SVGID_00000006689064838597285580000015499090791020061608_);}
	.st102{fill:#F3F3F3;}
	.st103{fill:#111111;}
	.st104{fill:#565656;}
	.st105{fill:#F9BA91;}
	.st106{fill:#CF8263;}
	.st107{fill:#A5BC88;}
	.st108{fill:#798A64;}
	.st109{fill:#5C100F;}
	.st110{fill:#E24D62;}
	.st111{fill:#78B3B3;}
	.st112{fill:#F99D40;}
	.st113{fill:#F9BE40;}
	.st114{fill:#588282;}
	.st115{fill:url(#SVGID_00000125603223061167815240000009746244608416297106_);}
	.st116{fill:url(#SVGID_00000142873474397774487730000016848786168454874290_);}
	.st117{fill:url(#SVGID_00000049191301358931029860000008322946997685524647_);}
	.st118{fill:url(#SVGID_00000133514085398582048440000002999357133607643554_);}
	.st119{fill:url(#SVGID_00000172409997639103047180000015938427185693446813_);}
	.st120{fill:url(#SVGID_00000171685151798651598610000005046841257277619893_);}
	.st121{fill:url(#SVGID_00000148656328071804264540000009022985420943677868_);}
	.st122{fill:url(#SVGID_00000059278865375677907770000002149527329829901696_);}
	.st123{fill:url(#SVGID_00000069363688100690696100000018432691083492667819_);}
	.st124{fill:url(#SVGID_00000169523436044982049160000004454918715312345731_);}
	.st125{fill:url(#SVGID_00000037668915918707752390000007671951772658583711_);}
	.st126{fill:url(#SVGID_00000091736259359110692860000009852968181457755037_);}
	.st127{fill:url(#SVGID_00000065031989146264580580000006805901860288841346_);}
	.st128{fill:url(#SVGID_00000108295493847372343190000010578991180742890892_);}
	.st129{fill:url(#SVGID_00000057120816372505270190000015264217275686946205_);}
	.st130{fill:url(#SVGID_00000096774856458999819430000012644302168120495029_);}
	.st131{fill:#F08027;}
	.st132{fill:#A6A4F7;}
	.st133{fill:#0A0A0A;}
	.st134{fill:#EFB4B4;}
	.st135{fill:#A77E7E;}
	.st136{fill:#304C4B;}
	.st137{fill:#1F6276;}
	.st138{fill:#DC4B6E;}
	.st139{fill:#BD3555;}
	.st140{fill:#403CD6;}
	.st141{fill:none;}
	.st142{opacity:0.2;fill-rule:evenodd;clip-rule:evenodd;fill:#FFFFFF;enable-background:new    ;}
	.st143{opacity:0.2;fill:url(#SVGID_00000008858454515116122350000007613761582469950386_);}
	.st144{opacity:0.2;fill:url(#SVGID_00000079456736622475199990000015173644587428331909_);}
	.st145{opacity:0.2;fill:url(#SVGID_00000159456179436046600550000012195248082876558470_);}
	.st146{opacity:0.2;fill:url(#SVGID_00000044172592607148431510000013737899901665937823_);}
	.st147{opacity:0.2;fill:url(#SVGID_00000060749031861954775070000018036869731612774039_);}
	.st148{opacity:0.2;fill:url(#SVGID_00000021809993956597497150000010009685603469019048_);}
	.st149{opacity:0.2;fill:url(#SVGID_00000004507824833218412420000005407461172620119969_);}
</style>
<g>
	<path class="st0" d="M31.5-240.9c10.4,23.4,7.5,47.5-2.5,86.5c-10,39-27,93-33.5,139C-11,30.7-7,68.7,14.3,105.5
		c33,56.9,85.9,87.1,148.2,60.9c32.1-13.5,61.8-38.2,76.1-59.4c20.5-30.5,9-53.8,10.9-79.3c1.9-25.5,17.2-53.3,39.9-63.1
		c22.7-9.8,52.8-1.5,81-10.6c28.2-9.1,54.5-35.7,62-68.1c7.5-32.4-3.9-70.7-41.2-116.3c-37.3-45.6-100.7-98.5-139.5-139.4
		c-38.8-40.8-53.1-69.5-73.6-85.3c-20.5-15.8-47.2-18.8-78.1-12.2c-30.9,6.6-66.1,22.8-87.8,50.7c-21.7,27.9-30,67.4-22.3,98.5
		C-2.5-287.1,21.2-264.3,31.5-240.9z"/>
	<ellipse class="st1" cx="552.4" cy="873" rx="280.8" ry="224.2"/>
	<linearGradient id="SVGID_1_" gradientUnits="userSpaceOnUse" x1="403.5866" y1="263.5672" x2="403.5866" y2="264.1072">
		<stop  offset="0" style="stop-color:#A82EF2"/>
		<stop  offset="1" style="stop-color:#58197E"/>
	</linearGradient>
	<path class="st2" d="M403.8,263.6c-0.1,0.2-0.3,0.4-0.4,0.5c0.1-0.1,0.1-0.2,0.1-0.3C403.6,263.7,403.7,263.6,403.8,263.6z"/>
	<g>
		<g>
			<path d="M35.6,49h-6.6v6.5H26V40.2h3.1v6.3h6.6v-6.3h3.1v15.4h-3.1V49z"/>
			<path d="M41.4,40.1c0-1,0.8-1.8,1.9-1.8c1.1,0,1.9,0.8,1.9,1.8c0,1-0.8,1.8-1.9,1.8C42.2,41.9,41.4,41.1,41.4,40.1z M41.8,43.4
				h3.1v12.2h-3.1V43.4z"/>
			<path d="M47.9,39.3h3.1v9.3l4.1-5.2h4l-5.4,6.1l5.4,6.1h-4l-4.1-5.2v5.2h-3.1V39.3z"/>
			<path d="M66,55.8c-3.5,0-6.1-2.5-6.1-6.3c0-3.9,2.5-6.3,6.1-6.3c3.5,0,6,2.4,6,6c0,0.4,0,0.8-0.1,1.2H63c0.2,1.8,1.4,2.8,2.9,2.8
				c1.3,0,2-0.7,2.4-1.5h3.3C71.1,54,69.1,55.8,66,55.8z M63.1,48.3h5.8c0-1.6-1.3-2.6-2.9-2.6C64.5,45.7,63.3,46.7,63.1,48.3z"/>
			<path d="M72.9,43.4h3.1l2.2,9.3l2.3-9.3h3.3l2.3,9.3l2.2-9.3h2.9l-3.6,12.2h-3.3l-2.2-8.5l-2.2,8.5h-3.3L72.9,43.4z"/>
			<path d="M92.5,40.1c0-1,0.8-1.8,1.9-1.8c1.1,0,1.9,0.8,1.9,1.8c0,1-0.8,1.8-1.9,1.8C93.3,41.9,92.5,41.1,92.5,40.1z M92.9,43.4
				h3.1v12.2h-3.1V43.4z"/>
			<path d="M103.6,55.8c-3.1,0-5.2-1.8-5.3-4h3.1c0.1,0.9,1,1.6,2.2,1.6c1.2,0,1.9-0.5,1.9-1.3c0-2.2-6.9-0.8-6.9-5.3
				c0-2,1.8-3.7,4.8-3.7c2.9,0,4.7,1.6,4.9,4h-2.9c-0.1-0.9-0.8-1.6-2-1.6c-1.1,0-1.7,0.5-1.7,1.2c0,2.2,6.8,0.8,6.8,5.3
				C108.4,54.2,106.6,55.8,103.6,55.8z"/>
			<path d="M116.3,55.8c-3.5,0-6.1-2.5-6.1-6.3c0-3.9,2.5-6.3,6.1-6.3c3.5,0,6,2.4,6,6c0,0.4,0,0.8-0.1,1.2h-8.9
				c0.2,1.8,1.4,2.8,2.9,2.8c1.3,0,2-0.7,2.4-1.5h3.3C121.3,54,119.3,55.8,116.3,55.8z M113.3,48.3h5.8c0-1.6-1.3-2.6-2.9-2.6
				C114.7,45.7,113.6,46.7,113.3,48.3z"/>
			<path d="M135.5,40.2c3.7,0,5.5,2.1,5.5,4.7c0,1.9-1,3.8-3.5,4.4l3.7,6.2h-3.6l-3.4-6h-1.5v6h-3.1V40.2H135.5z M135.4,42.8h-2.6
				v4.5h2.6c1.7,0,2.5-0.9,2.5-2.3C137.9,43.6,137.1,42.8,135.4,42.8z"/>
			<path d="M149.2,55.8c-3.5,0-6.1-2.5-6.1-6.3c0-3.9,2.5-6.3,6.1-6.3c3.5,0,6,2.4,6,6c0,0.4,0,0.8-0.1,1.2h-8.9
				c0.2,1.8,1.4,2.8,2.9,2.8c1.3,0,2-0.7,2.4-1.5h3.3C154.2,54,152.2,55.8,149.2,55.8z M146.2,48.3h5.8c0-1.6-1.3-2.6-2.9-2.6
				C147.6,45.7,146.5,46.7,146.2,48.3z"/>
			<path d="M162.2,43.2c1.6,0,3.1,0.7,4,1.9v-5.8h3.1v16.3h-3.1v-1.8c-0.7,1.1-2.1,2-4,2c-3.1,0-5.6-2.5-5.6-6.3
				S159.1,43.2,162.2,43.2z M163,45.9c-1.7,0-3.2,1.2-3.2,3.5s1.6,3.6,3.2,3.6c1.7,0,3.2-1.3,3.2-3.6S164.7,45.9,163,45.9z"/>
			<path d="M177.7,55.8c-3.5,0-6.1-2.5-6.1-6.3c0-3.9,2.5-6.3,6.1-6.3c3.5,0,6,2.4,6,6c0,0.4,0,0.8-0.1,1.2h-8.9
				c0.2,1.8,1.4,2.8,2.9,2.8c1.3,0,2-0.7,2.4-1.5h3.3C182.7,54,180.7,55.8,177.7,55.8z M174.7,48.3h5.8c0-1.6-1.3-2.6-2.9-2.6
				C176.1,45.7,175,46.7,174.7,48.3z"/>
			<path d="M190.6,55.8c-3.1,0-5.2-1.8-5.3-4h3.1c0.1,0.9,1,1.6,2.2,1.6c1.2,0,1.9-0.5,1.9-1.3c0-2.2-6.9-0.8-6.9-5.3
				c0-2,1.8-3.7,4.8-3.7c2.9,0,4.7,1.6,4.9,4h-2.9c-0.1-0.9-0.8-1.6-2-1.6c-1.1,0-1.7,0.5-1.7,1.2c0,2.2,6.8,0.8,6.8,5.3
				C195.4,54.2,193.6,55.8,190.6,55.8z"/>
			<path d="M197.6,40.1c0-1,0.8-1.8,1.9-1.8c1.1,0,1.9,0.8,1.9,1.8c0,1-0.8,1.8-1.9,1.8C198.4,41.9,197.6,41.1,197.6,40.1z
				 M197.9,43.4h3.1v12.2h-3.1V43.4z"/>
			<path d="M208.8,43.2c1.9,0,3.3,0.9,4,1.9v-1.7h3.1v12.3c0,3.3-2,5.9-6,5.9c-3.4,0-5.8-1.7-6.1-4.5h3.1c0.3,1.1,1.5,1.8,3,1.8
				c1.7,0,3-1,3-3.2v-1.9c-0.7,1.1-2.1,2-4,2c-3.1,0-5.6-2.5-5.6-6.3S205.7,43.2,208.8,43.2z M209.6,45.9c-1.7,0-3.2,1.2-3.2,3.5
				s1.6,3.6,3.2,3.6c1.7,0,3.2-1.3,3.2-3.6S211.3,45.9,209.6,45.9z"/>
			<path d="M227.5,48.8c0-2-1.1-3-2.7-3c-1.7,0-2.8,1.1-2.8,3v6.7H219V43.4h3.1v1.5c0.8-1,2.1-1.7,3.7-1.7c2.8,0,4.9,1.8,4.9,5.2
				v7.2h-3.1V48.8z"/>
		</g>
		<g>
			<path class="st3" d="M35.6,49h-6.6v6.5H26V40.2h3.1v6.3h6.6v-6.3h3.1v15.4h-3.1V49z"/>
			<path class="st3" d="M41.4,40.1c0-1,0.8-1.8,1.9-1.8c1.1,0,1.9,0.8,1.9,1.8c0,1-0.8,1.8-1.9,1.8C42.2,41.9,41.4,41.1,41.4,40.1z
				 M41.8,43.4h3.1v12.2h-3.1V43.4z"/>
			<path class="st3" d="M47.9,39.3h3.1v9.3l4.1-5.2h4l-5.4,6.1l5.4,6.1h-4l-4.1-5.2v5.2h-3.1V39.3z"/>
			<path class="st3" d="M66,55.8c-3.5,0-6.1-2.5-6.1-6.3c0-3.9,2.5-6.3,6.1-6.3c3.5,0,6,2.4,6,6c0,0.4,0,0.8-0.1,1.2H63
				c0.2,1.8,1.4,2.8,2.9,2.8c1.3,0,2-0.7,2.4-1.5h3.3C71.1,54,69.1,55.8,66,55.8z M63.1,48.3h5.8c0-1.6-1.3-2.6-2.9-2.6
				C64.5,45.7,63.3,46.7,63.1,48.3z"/>
			<path class="st3" d="M72.9,43.4h3.1l2.2,9.3l2.3-9.3h3.3l2.3,9.3l2.2-9.3h2.9l-3.6,12.2h-3.3l-2.2-8.5l-2.2,8.5h-3.3L72.9,43.4z"
				/>
			<path class="st3" d="M92.5,40.1c0-1,0.8-1.8,1.9-1.8c1.1,0,1.9,0.8,1.9,1.8c0,1-0.8,1.8-1.9,1.8C93.3,41.9,92.5,41.1,92.5,40.1z
				 M92.9,43.4h3.1v12.2h-3.1V43.4z"/>
			<path class="st3" d="M103.6,55.8c-3.1,0-5.2-1.8-5.3-4h3.1c0.1,0.9,1,1.6,2.2,1.6c1.2,0,1.9-0.5,1.9-1.3c0-2.2-6.9-0.8-6.9-5.3
				c0-2,1.8-3.7,4.8-3.7c2.9,0,4.7,1.6,4.9,4h-2.9c-0.1-0.9-0.8-1.6-2-1.6c-1.1,0-1.7,0.5-1.7,1.2c0,2.2,6.8,0.8,6.8,5.3
				C108.4,54.2,106.6,55.8,103.6,55.8z"/>
			<path class="st3" d="M116.3,55.8c-3.5,0-6.1-2.5-6.1-6.3c0-3.9,2.5-6.3,6.1-6.3c3.5,0,6,2.4,6,6c0,0.4,0,0.8-0.1,1.2h-8.9
				c0.2,1.8,1.4,2.8,2.9,2.8c1.3,0,2-0.7,2.4-1.5h3.3C121.3,54,119.3,55.8,116.3,55.8z M113.3,48.3h5.8c0-1.6-1.3-2.6-2.9-2.6
				C114.7,45.7,113.6,46.7,113.3,48.3z"/>
			<path class="st3" d="M135.5,40.2c3.7,0,5.5,2.1,5.5,4.7c0,1.9-1,3.8-3.5,4.4l3.7,6.2h-3.6l-3.4-6h-1.5v6h-3.1V40.2H135.5z
				 M135.4,42.8h-2.6v4.5h2.6c1.7,0,2.5-0.9,2.5-2.3C137.9,43.6,137.1,42.8,135.4,42.8z"/>
			<path class="st3" d="M149.2,55.8c-3.5,0-6.1-2.5-6.1-6.3c0-3.9,2.5-6.3,6.1-6.3c3.5,0,6,2.4,6,6c0,0.4,0,0.8-0.1,1.2h-8.9
				c0.2,1.8,1.4,2.8,2.9,2.8c1.3,0,2-0.7,2.4-1.5h3.3C154.2,54,152.2,55.8,149.2,55.8z M146.2,48.3h5.8c0-1.6-1.3-2.6-2.9-2.6
				C147.6,45.7,146.5,46.7,146.2,48.3z"/>
			<path class="st3" d="M162.2,43.2c1.6,0,3.1,0.7,4,1.9v-5.8h3.1v16.3h-3.1v-1.8c-0.7,1.1-2.1,2-4,2c-3.1,0-5.6-2.5-5.6-6.3
				S159.1,43.2,162.2,43.2z M163,45.9c-1.7,0-3.2,1.2-3.2,3.5s1.6,3.6,3.2,3.6c1.7,0,3.2-1.3,3.2-3.6S164.7,45.9,163,45.9z"/>
			<path class="st3" d="M177.7,55.8c-3.5,0-6.1-2.5-6.1-6.3c0-3.9,2.5-6.3,6.1-6.3c3.5,0,6,2.4,6,6c0,0.4,0,0.8-0.1,1.2h-8.9
				c0.2,1.8,1.4,2.8,2.9,2.8c1.3,0,2-0.7,2.4-1.5h3.3C182.7,54,180.7,55.8,177.7,55.8z M174.7,48.3h5.8c0-1.6-1.3-2.6-2.9-2.6
				C176.1,45.7,175,46.7,174.7,48.3z"/>
			<path class="st3" d="M190.6,55.8c-3.1,0-5.2-1.8-5.3-4h3.1c0.1,0.9,1,1.6,2.2,1.6c1.2,0,1.9-0.5,1.9-1.3c0-2.2-6.9-0.8-6.9-5.3
				c0-2,1.8-3.7,4.8-3.7c2.9,0,4.7,1.6,4.9,4h-2.9c-0.1-0.9-0.8-1.6-2-1.6c-1.1,0-1.7,0.5-1.7,1.2c0,2.2,6.8,0.8,6.8,5.3
				C195.4,54.2,193.6,55.8,190.6,55.8z"/>
			<path class="st3" d="M197.6,40.1c0-1,0.8-1.8,1.9-1.8c1.1,0,1.9,0.8,1.9,1.8c0,1-0.8,1.8-1.9,1.8
				C198.4,41.9,197.6,41.1,197.6,40.1z M197.9,43.4h3.1v12.2h-3.1V43.4z"/>
			<path class="st3" d="M208.8,43.2c1.9,0,3.3,0.9,4,1.9v-1.7h3.1v12.3c0,3.3-2,5.9-6,5.9c-3.4,0-5.8-1.7-6.1-4.5h3.1
				c0.3,1.1,1.5,1.8,3,1.8c1.7,0,3-1,3-3.2v-1.9c-0.7,1.1-2.1,2-4,2c-3.1,0-5.6-2.5-5.6-6.3S205.7,43.2,208.8,43.2z M209.6,45.9
				c-1.7,0-3.2,1.2-3.2,3.5s1.6,3.6,3.2,3.6c1.7,0,3.2-1.3,3.2-3.6S211.3,45.9,209.6,45.9z"/>
			<path class="st3" d="M227.5,48.8c0-2-1.1-3-2.7-3c-1.7,0-2.8,1.1-2.8,3v6.7H219V43.4h3.1v1.5c0.8-1,2.1-1.7,3.7-1.7
				c2.8,0,4.9,1.8,4.9,5.2v7.2h-3.1V48.8z"/>
		</g>
	</g>
	<g>
		<g>
			<path d="M337.1,64.5h-10.5l-1.7,5h-7.2l10.2-28.1h7.9L346,69.4h-7.2L337.1,64.5z M331.8,48.9l-3.4,10.3h6.9L331.8,48.9z"/>
			<path d="M358.1,69.7c-6,0-10-3.3-10.3-7.6h6.8c0.2,1.6,1.6,2.6,3.4,2.6c1.8,0,2.7-0.8,2.7-1.8c0-3.6-12.2-1-12.2-9.2
				c0-3.8,3.2-6.9,9.1-6.9c5.8,0,9,3.2,9.4,7.6h-6.3c-0.2-1.5-1.4-2.5-3.3-2.5c-1.6,0-2.5,0.6-2.5,1.7c0,3.6,12.1,1,12.2,9.4
				C367.2,66.8,363.7,69.7,358.1,69.7z"/>
			<path d="M380.5,69.7c-6,0-10-3.3-10.3-7.6h6.8c0.2,1.6,1.6,2.6,3.4,2.6c1.8,0,2.7-0.8,2.7-1.8c0-3.6-12.2-1-12.2-9.2
				c0-3.8,3.2-6.9,9.1-6.9c5.8,0,9,3.2,9.4,7.6h-6.3c-0.2-1.5-1.4-2.5-3.3-2.5c-1.6,0-2.5,0.6-2.5,1.7c0,3.6,12.1,1,12.2,9.4
				C389.5,66.8,386.1,69.7,380.5,69.7z"/>
			<path d="M403.6,69.7c-6.6,0-11.3-4.4-11.3-11.5s4.6-11.5,11.3-11.5c6.5,0,11.1,4.3,11.1,11.1c0,0.6,0,1.3-0.1,2h-15.5
				c0.2,2.9,2,4.3,4.2,4.3c1.9,0,3-1,3.6-2.2h7.3C413.1,66.4,409.2,69.7,403.6,69.7z M399.2,56.1h8.6c0-2.4-1.9-3.8-4.2-3.8
				C401.3,52.3,399.6,53.6,399.2,56.1z"/>
			<path d="M427.4,69.7c-6,0-10-3.3-10.3-7.6h6.8c0.2,1.6,1.6,2.6,3.4,2.6c1.8,0,2.7-0.8,2.7-1.8c0-3.6-12.2-1-12.2-9.2
				c0-3.8,3.2-6.9,9.1-6.9c5.8,0,9,3.2,9.4,7.6H430c-0.2-1.5-1.4-2.5-3.3-2.5c-1.6,0-2.5,0.6-2.5,1.7c0,3.6,12.1,1,12.2,9.4
				C436.5,66.8,433,69.7,427.4,69.7z"/>
			<path d="M449.7,69.7c-6,0-10-3.3-10.3-7.6h6.8c0.2,1.6,1.6,2.6,3.4,2.6c1.8,0,2.7-0.8,2.7-1.8c0-3.6-12.2-1-12.2-9.2
				c0-3.8,3.2-6.9,9.1-6.9c5.8,0,9,3.2,9.4,7.6h-6.3c-0.2-1.5-1.4-2.5-3.3-2.5c-1.6,0-2.5,0.6-2.5,1.7c0,3.6,12.1,1,12.2,9.4
				C458.8,66.8,455.3,69.7,449.7,69.7z"/>
			<path d="M493.7,57.3c0-2.9-1.7-4.5-4.3-4.5s-4.3,1.6-4.3,4.5v12.1h-6.8V57.3c0-2.9-1.7-4.5-4.3-4.5s-4.3,1.6-4.3,4.5v12.1H463
				V47.1h6.8v2.8c1.3-1.8,3.6-3,6.5-3c3.4,0,6.1,1.5,7.6,4.2c1.5-2.4,4.3-4.2,7.5-4.2c5.5,0,9.1,3.5,9.1,9.5v13h-6.8V57.3z"/>
			<path d="M515.3,69.7c-6.6,0-11.3-4.4-11.3-11.5s4.6-11.5,11.3-11.5c6.5,0,11.1,4.3,11.1,11.1c0,0.6,0,1.3-0.1,2h-15.5
				c0.2,2.9,2,4.3,4.2,4.3c1.9,0,3-1,3.6-2.2h7.3C524.8,66.4,520.8,69.7,515.3,69.7z M510.8,56.1h8.6c0-2.4-1.9-3.8-4.2-3.8
				C512.9,52.3,511.2,53.6,510.8,56.1z"/>
			<path d="M545.4,57.3c0-3-1.7-4.7-4.3-4.7s-4.3,1.7-4.3,4.7v12.1H530V47.1h6.8v3c1.4-1.9,3.8-3.2,6.8-3.2c5.2,0,8.6,3.5,8.6,9.5
				v13h-6.8V57.3z"/>
			<path d="M558,52.8h-2.7v-5.7h2.7v-5.4h6.8v5.4h4.5v5.7h-4.5v9c0,1.3,0.6,1.9,2.1,1.9h2.4v5.8h-3.5c-4.6,0-7.9-2-7.9-7.8V52.8z"/>
			<path d="M447.9,89.4c6.9,0,10.3,4,10.3,8.8c0,3.5-1.9,6.8-6.2,8.1l6.5,11.1h-7.7l-5.8-10.6h-1.6v10.6h-6.8V89.4H447.9z M447.5,95
				h-4.2v7h4.2c2.6,0,3.8-1.3,3.8-3.5C451.3,96.4,450.1,95,447.5,95z"/>
			<path d="M472.5,117.7c-6.6,0-11.3-4.4-11.3-11.5s4.6-11.5,11.3-11.5c6.5,0,11.1,4.3,11.1,11.1c0,0.6,0,1.3-0.1,2H468
				c0.2,2.9,2,4.3,4.2,4.3c1.9,0,3-1,3.6-2.2h7.3C482,114.4,478,117.7,472.5,117.7z M468,104.1h8.6c0-2.4-1.9-3.8-4.2-3.8
				C470.1,100.3,468.4,101.6,468,104.1z"/>
			<path d="M500.9,94.8c5.5,0,9.8,4.4,9.8,11.4s-4.4,11.5-9.8,11.5c-3.3,0-5.6-1.6-6.9-3.4v13.8h-6.8v-33h6.8v3.2
				C495.3,96.3,497.6,94.8,500.9,94.8z M498.9,100.7c-2.6,0-4.9,2-4.9,5.5s2.3,5.5,4.9,5.5c2.6,0,4.9-2,4.9-5.6
				S501.5,100.7,498.9,100.7z"/>
			<path d="M524.5,117.7c-6.6,0-11.5-4.4-11.5-11.5s5.1-11.5,11.6-11.5c6.6,0,11.6,4.4,11.6,11.5S531.1,117.7,524.5,117.7z
				 M524.5,111.8c2.4,0,4.7-1.8,4.7-5.6c0-3.8-2.2-5.6-4.6-5.6c-2.5,0-4.6,1.8-4.6,5.6C519.9,110,522,111.8,524.5,111.8z"/>
			<path d="M546.7,117.4h-6.8V95.1h6.8v3.7c1.6-2.4,4-4,7-4v7.2h-1.9c-3.2,0-5.1,1.1-5.1,5V117.4z"/>
			<path d="M558,100.8h-2.7v-5.7h2.7v-5.4h6.8v5.4h4.5v5.7h-4.5v9c0,1.3,0.6,1.9,2.1,1.9h2.4v5.8h-3.5c-4.6,0-7.9-2-7.9-7.8V100.8z"
				/>
		</g>
		<g>
			
				<linearGradient id="SVGID_00000075876652609370982320000006277856387520604303_" gradientUnits="userSpaceOnUse" x1="317.7396" y1="84.7073" x2="569.3773" y2="84.7073">
				<stop  offset="0" style="stop-color:#A82EF2"/>
				<stop  offset="1" style="stop-color:#58197E"/>
			</linearGradient>
			<path style="fill:url(#SVGID_00000075876652609370982320000006277856387520604303_);" d="M337.1,64.5h-10.5l-1.7,5h-7.2
				l10.2-28.1h7.9L346,69.4h-7.2L337.1,64.5z M331.8,48.9l-3.4,10.3h6.9L331.8,48.9z"/>
			
				<linearGradient id="SVGID_00000173863728940137136220000012106346409368506291_" gradientUnits="userSpaceOnUse" x1="317.7396" y1="84.7073" x2="569.3773" y2="84.7073">
				<stop  offset="0" style="stop-color:#A82EF2"/>
				<stop  offset="1" style="stop-color:#58197E"/>
			</linearGradient>
			<path style="fill:url(#SVGID_00000173863728940137136220000012106346409368506291_);" d="M358.1,69.7c-6,0-10-3.3-10.3-7.6h6.8
				c0.2,1.6,1.6,2.6,3.4,2.6c1.8,0,2.7-0.8,2.7-1.8c0-3.6-12.2-1-12.2-9.2c0-3.8,3.2-6.9,9.1-6.9c5.8,0,9,3.2,9.4,7.6h-6.3
				c-0.2-1.5-1.4-2.5-3.3-2.5c-1.6,0-2.5,0.6-2.5,1.7c0,3.6,12.1,1,12.2,9.4C367.2,66.8,363.7,69.7,358.1,69.7z"/>
			
				<linearGradient id="SVGID_00000124863261361843155580000013904308744094242719_" gradientUnits="userSpaceOnUse" x1="317.7396" y1="84.7073" x2="569.3773" y2="84.7073">
				<stop  offset="0" style="stop-color:#A82EF2"/>
				<stop  offset="1" style="stop-color:#58197E"/>
			</linearGradient>
			<path style="fill:url(#SVGID_00000124863261361843155580000013904308744094242719_);" d="M380.5,69.7c-6,0-10-3.3-10.3-7.6h6.8
				c0.2,1.6,1.6,2.6,3.4,2.6c1.8,0,2.7-0.8,2.7-1.8c0-3.6-12.2-1-12.2-9.2c0-3.8,3.2-6.9,9.1-6.9c5.8,0,9,3.2,9.4,7.6h-6.3
				c-0.2-1.5-1.4-2.5-3.3-2.5c-1.6,0-2.5,0.6-2.5,1.7c0,3.6,12.1,1,12.2,9.4C389.5,66.8,386.1,69.7,380.5,69.7z"/>
			
				<linearGradient id="SVGID_00000101092695163167249950000006262816511730301090_" gradientUnits="userSpaceOnUse" x1="317.7396" y1="84.7073" x2="569.3773" y2="84.7073">
				<stop  offset="0" style="stop-color:#A82EF2"/>
				<stop  offset="1" style="stop-color:#58197E"/>
			</linearGradient>
			<path style="fill:url(#SVGID_00000101092695163167249950000006262816511730301090_);" d="M403.6,69.7c-6.6,0-11.3-4.4-11.3-11.5
				s4.6-11.5,11.3-11.5c6.5,0,11.1,4.3,11.1,11.1c0,0.6,0,1.3-0.1,2h-15.5c0.2,2.9,2,4.3,4.2,4.3c1.9,0,3-1,3.6-2.2h7.3
				C413.1,66.4,409.2,69.7,403.6,69.7z M399.2,56.1h8.6c0-2.4-1.9-3.8-4.2-3.8C401.3,52.3,399.6,53.6,399.2,56.1z"/>
			
				<linearGradient id="SVGID_00000044890792746933917740000016851967111672607679_" gradientUnits="userSpaceOnUse" x1="317.7396" y1="84.7073" x2="569.3773" y2="84.7073">
				<stop  offset="0" style="stop-color:#A82EF2"/>
				<stop  offset="1" style="stop-color:#58197E"/>
			</linearGradient>
			<path style="fill:url(#SVGID_00000044890792746933917740000016851967111672607679_);" d="M427.4,69.7c-6,0-10-3.3-10.3-7.6h6.8
				c0.2,1.6,1.6,2.6,3.4,2.6c1.8,0,2.7-0.8,2.7-1.8c0-3.6-12.2-1-12.2-9.2c0-3.8,3.2-6.9,9.1-6.9c5.8,0,9,3.2,9.4,7.6H430
				c-0.2-1.5-1.4-2.5-3.3-2.5c-1.6,0-2.5,0.6-2.5,1.7c0,3.6,12.1,1,12.2,9.4C436.5,66.8,433,69.7,427.4,69.7z"/>
			
				<linearGradient id="SVGID_00000058587155181570199390000005344546383720044179_" gradientUnits="userSpaceOnUse" x1="317.7396" y1="84.7073" x2="569.3773" y2="84.7073">
				<stop  offset="0" style="stop-color:#A82EF2"/>
				<stop  offset="1" style="stop-color:#58197E"/>
			</linearGradient>
			<path style="fill:url(#SVGID_00000058587155181570199390000005344546383720044179_);" d="M449.7,69.7c-6,0-10-3.3-10.3-7.6h6.8
				c0.2,1.6,1.6,2.6,3.4,2.6c1.8,0,2.7-0.8,2.7-1.8c0-3.6-12.2-1-12.2-9.2c0-3.8,3.2-6.9,9.1-6.9c5.8,0,9,3.2,9.4,7.6h-6.3
				c-0.2-1.5-1.4-2.5-3.3-2.5c-1.6,0-2.5,0.6-2.5,1.7c0,3.6,12.1,1,12.2,9.4C458.8,66.8,455.3,69.7,449.7,69.7z"/>
			
				<linearGradient id="SVGID_00000075859607431524812810000007319578340732275590_" gradientUnits="userSpaceOnUse" x1="317.7396" y1="84.7073" x2="569.3773" y2="84.7073">
				<stop  offset="0" style="stop-color:#A82EF2"/>
				<stop  offset="1" style="stop-color:#58197E"/>
			</linearGradient>
			<path style="fill:url(#SVGID_00000075859607431524812810000007319578340732275590_);" d="M493.7,57.3c0-2.9-1.7-4.5-4.3-4.5
				s-4.3,1.6-4.3,4.5v12.1h-6.8V57.3c0-2.9-1.7-4.5-4.3-4.5s-4.3,1.6-4.3,4.5v12.1H463V47.1h6.8v2.8c1.3-1.8,3.6-3,6.5-3
				c3.4,0,6.1,1.5,7.6,4.2c1.5-2.4,4.3-4.2,7.5-4.2c5.5,0,9.1,3.5,9.1,9.5v13h-6.8V57.3z"/>
			
				<linearGradient id="SVGID_00000147185587918461517910000007977455266870768042_" gradientUnits="userSpaceOnUse" x1="317.7396" y1="84.7073" x2="569.3773" y2="84.7073">
				<stop  offset="0" style="stop-color:#A82EF2"/>
				<stop  offset="1" style="stop-color:#58197E"/>
			</linearGradient>
			<path style="fill:url(#SVGID_00000147185587918461517910000007977455266870768042_);" d="M515.3,69.7c-6.6,0-11.3-4.4-11.3-11.5
				s4.6-11.5,11.3-11.5c6.5,0,11.1,4.3,11.1,11.1c0,0.6,0,1.3-0.1,2h-15.5c0.2,2.9,2,4.3,4.2,4.3c1.9,0,3-1,3.6-2.2h7.3
				C524.8,66.4,520.8,69.7,515.3,69.7z M510.8,56.1h8.6c0-2.4-1.9-3.8-4.2-3.8C512.9,52.3,511.2,53.6,510.8,56.1z"/>
			
				<linearGradient id="SVGID_00000150788655076079384180000005821632844756248709_" gradientUnits="userSpaceOnUse" x1="317.7396" y1="84.7073" x2="569.3773" y2="84.7073">
				<stop  offset="0" style="stop-color:#A82EF2"/>
				<stop  offset="1" style="stop-color:#58197E"/>
			</linearGradient>
			<path style="fill:url(#SVGID_00000150788655076079384180000005821632844756248709_);" d="M545.4,57.3c0-3-1.7-4.7-4.3-4.7
				s-4.3,1.7-4.3,4.7v12.1H530V47.1h6.8v3c1.4-1.9,3.8-3.2,6.8-3.2c5.2,0,8.6,3.5,8.6,9.5v13h-6.8V57.3z"/>
			
				<linearGradient id="SVGID_00000015313368820504416360000000395800068986156430_" gradientUnits="userSpaceOnUse" x1="317.7396" y1="84.7073" x2="569.3773" y2="84.7073">
				<stop  offset="0" style="stop-color:#A82EF2"/>
				<stop  offset="1" style="stop-color:#58197E"/>
			</linearGradient>
			<path style="fill:url(#SVGID_00000015313368820504416360000000395800068986156430_);" d="M558,52.8h-2.7v-5.7h2.7v-5.4h6.8v5.4
				h4.5v5.7h-4.5v9c0,1.3,0.6,1.9,2.1,1.9h2.4v5.8h-3.5c-4.6,0-7.9-2-7.9-7.8V52.8z"/>
			
				<linearGradient id="SVGID_00000054945236375069159180000006337531360069909919_" gradientUnits="userSpaceOnUse" x1="317.7396" y1="84.7073" x2="569.3773" y2="84.7073">
				<stop  offset="0" style="stop-color:#A82EF2"/>
				<stop  offset="1" style="stop-color:#58197E"/>
			</linearGradient>
			<path style="fill:url(#SVGID_00000054945236375069159180000006337531360069909919_);" d="M447.9,89.4c6.9,0,10.3,4,10.3,8.8
				c0,3.5-1.9,6.8-6.2,8.1l6.5,11.1h-7.7l-5.8-10.6h-1.6v10.6h-6.8V89.4H447.9z M447.5,95h-4.2v7h4.2c2.6,0,3.8-1.3,3.8-3.5
				C451.3,96.4,450.1,95,447.5,95z"/>
			
				<linearGradient id="SVGID_00000102537643188018763050000009731807148479720108_" gradientUnits="userSpaceOnUse" x1="317.7396" y1="84.7073" x2="569.3773" y2="84.7073">
				<stop  offset="0" style="stop-color:#A82EF2"/>
				<stop  offset="1" style="stop-color:#58197E"/>
			</linearGradient>
			<path style="fill:url(#SVGID_00000102537643188018763050000009731807148479720108_);" d="M472.5,117.7c-6.6,0-11.3-4.4-11.3-11.5
				s4.6-11.5,11.3-11.5c6.5,0,11.1,4.3,11.1,11.1c0,0.6,0,1.3-0.1,2H468c0.2,2.9,2,4.3,4.2,4.3c1.9,0,3-1,3.6-2.2h7.3
				C482,114.4,478,117.7,472.5,117.7z M468,104.1h8.6c0-2.4-1.9-3.8-4.2-3.8C470.1,100.3,468.4,101.6,468,104.1z"/>
			
				<linearGradient id="SVGID_00000175316573387979511430000003846217649115687598_" gradientUnits="userSpaceOnUse" x1="317.7396" y1="84.7073" x2="569.3773" y2="84.7073">
				<stop  offset="0" style="stop-color:#A82EF2"/>
				<stop  offset="1" style="stop-color:#58197E"/>
			</linearGradient>
			<path style="fill:url(#SVGID_00000175316573387979511430000003846217649115687598_);" d="M500.9,94.8c5.5,0,9.8,4.4,9.8,11.4
				s-4.4,11.5-9.8,11.5c-3.3,0-5.6-1.6-6.9-3.4v13.8h-6.8v-33h6.8v3.2C495.3,96.3,497.6,94.8,500.9,94.8z M498.9,100.7
				c-2.6,0-4.9,2-4.9,5.5s2.3,5.5,4.9,5.5c2.6,0,4.9-2,4.9-5.6S501.5,100.7,498.9,100.7z"/>
			
				<linearGradient id="SVGID_00000019670764832682042140000016454975260403582593_" gradientUnits="userSpaceOnUse" x1="317.7396" y1="84.7073" x2="569.3773" y2="84.7073">
				<stop  offset="0" style="stop-color:#A82EF2"/>
				<stop  offset="1" style="stop-color:#58197E"/>
			</linearGradient>
			<path style="fill:url(#SVGID_00000019670764832682042140000016454975260403582593_);" d="M524.5,117.7c-6.6,0-11.5-4.4-11.5-11.5
				s5.1-11.5,11.6-11.5c6.6,0,11.6,4.4,11.6,11.5S531.1,117.7,524.5,117.7z M524.5,111.8c2.4,0,4.7-1.8,4.7-5.6
				c0-3.8-2.2-5.6-4.6-5.6c-2.5,0-4.6,1.8-4.6,5.6C519.9,110,522,111.8,524.5,111.8z"/>
			
				<linearGradient id="SVGID_00000062899360349584111440000004737558529840947858_" gradientUnits="userSpaceOnUse" x1="317.7396" y1="84.7073" x2="569.3773" y2="84.7073">
				<stop  offset="0" style="stop-color:#A82EF2"/>
				<stop  offset="1" style="stop-color:#58197E"/>
			</linearGradient>
			<path style="fill:url(#SVGID_00000062899360349584111440000004737558529840947858_);" d="M546.7,117.4h-6.8V95.1h6.8v3.7
				c1.6-2.4,4-4,7-4v7.2h-1.9c-3.2,0-5.1,1.1-5.1,5V117.4z"/>
			
				<linearGradient id="SVGID_00000079450215194731256770000000059284016896685495_" gradientUnits="userSpaceOnUse" x1="317.7396" y1="84.7073" x2="569.3773" y2="84.7073">
				<stop  offset="0" style="stop-color:#A82EF2"/>
				<stop  offset="1" style="stop-color:#58197E"/>
			</linearGradient>
			<path style="fill:url(#SVGID_00000079450215194731256770000000059284016896685495_);" d="M558,100.8h-2.7v-5.7h2.7v-5.4h6.8v5.4
				h4.5v5.7h-4.5v9c0,1.3,0.6,1.9,2.1,1.9h2.4v5.8h-3.5c-4.6,0-7.9-2-7.9-7.8V100.8z"/>
		</g>
	</g>
	<g>
		<path class="st20" d="M390.6,753.1c0-3.3,2.7-6,6-6h27c3.3,0,6,2.7,6,6s-2.7,6-6,6h-27C393.3,759,390.6,756.4,390.6,753.1z"/>
		<path class="st21" d="M423.7,786.1c-3.3,0-6-2.7-6-6v-27c0-3.3,2.7-6,6-6c3.3,0,6,2.7,6,6v27C429.6,783.4,427,786.1,423.7,786.1z"
			/>
		<path class="st22" d="M429.6,753.1c0-3.3-2.7-6-6-6c-3.3,0-6,2.7-6,6v6h6C427,759,429.6,756.4,429.6,753.1z"/>
		<circle class="st22" cx="398.8" cy="777.9" r="8.2"/>
		<path class="st23" d="M441.3,779.1h4.7v-9.9c0-2.3,1.3-3.8,3.5-3.8c2.1,0,3.2,1.4,3.2,3.6v10.2h4.7v-11.2c0-4-2.2-6.5-6-6.5
			c-2.6,0-4.5,1.2-5.4,3.4h-0.1v-9.1h-4.6V779.1z"/>
		<path class="st23" d="M460.6,779.1h4.7v-17.3h-4.7V779.1z M462.9,759.4c1.4,0,2.5-1.1,2.5-2.4c0-1.3-1.1-2.4-2.5-2.4
			c-1.4,0-2.5,1.1-2.5,2.4C460.4,758.3,461.5,759.4,462.9,759.4z"/>
		<path class="st23" d="M473.3,768.7L473.3,768.7l-0.1-12.9h-4.7v23.3h4.7v-5.7l1.2-1.3l5,7h5.4l-6.9-9.9l6.6-7.4h-5.3L473.3,768.7z
			"/>
		<path class="st23" d="M493.2,764.9c2.1,0,3.5,1.5,3.6,3.7h-7.3C489.6,766.4,491.1,764.9,493.2,764.9z M496.9,773.8
			c-0.4,1.3-1.8,2.2-3.5,2.2c-2.4,0-4-1.7-4-4.2v-0.3h11.9v-1.4c0-5.3-3.2-8.7-8.2-8.7c-5.1,0-8.3,3.6-8.3,9.1c0,5.5,3.2,9,8.5,9
			c4.3,0,7.4-2.3,7.9-5.7H496.9z"/>
		<path class="st23" d="M528,761.8h-4.6l-2.6,12.9h-0.1l-3.1-12.9H513l-3.1,12.9h-0.1l-2.6-12.9h-4.7l4.6,17.3h5l3.1-12.3h0.1
			l3.1,12.3h5L528,761.8z"/>
		<path class="st23" d="M529.9,779.1h4.7v-17.3h-4.7V779.1z M532.2,759.4c1.4,0,2.5-1.1,2.5-2.4c0-1.3-1.1-2.4-2.5-2.4
			c-1.4,0-2.5,1.1-2.5,2.4C529.8,758.3,530.9,759.4,532.2,759.4z"/>
		<path class="st23" d="M537.5,766.8c0,2.6,1.7,4.3,5,5l3,0.6c1.7,0.4,2.3,0.9,2.3,1.8c0,1.1-1.1,1.9-2.9,1.9c-1.9,0-3-0.8-3.2-2.3
			H537c0.3,3.4,3.1,5.6,7.8,5.6c4.5,0,7.6-2.2,7.6-5.7c0-2.5-1.5-4-5.1-4.7l-3-0.6c-1.7-0.4-2.4-1-2.4-1.9c0-1.1,1.1-1.9,2.7-1.9
			c1.7,0,2.8,1,2.9,2.4h4.3c-0.1-3.4-2.8-5.7-7.3-5.7C540.3,761.4,537.5,763.5,537.5,766.8z"/>
		<path class="st23" d="M562.5,764.9c2.1,0,3.5,1.5,3.6,3.7h-7.3C559,766.4,560.5,764.9,562.5,764.9z M566.2,773.8
			c-0.4,1.3-1.8,2.2-3.5,2.2c-2.4,0-4-1.7-4-4.2v-0.3h11.9v-1.4c0-5.3-3.2-8.7-8.2-8.7c-5.1,0-8.3,3.6-8.3,9.1c0,5.5,3.2,9,8.5,9
			c4.3,0,7.4-2.3,7.9-5.7H566.2z"/>
	</g>
	<g>
		<path class="st24" d="M572.3,458.5c-0.9,34.2-61.4,31.1-50.7,69.1c4.8,17.2-2.9,32.6-16.3,42.9c-8.7,6.6-19.7,11.1-31.2,12.5
			c-0.9,0.1-1.9,0.2-2.8,0.3c-7,0.6-14.1,0-20.9-1.9c-2.1-0.6-4.2-1.3-6.2-2.1c-37.5-15.6-104.3-6.1-142.5,21.8
			c-38.2,28-90.2,15.4-115.6-13.2C170.2,570,157,554.2,140.3,542c-6.4-4.6-13.2-8.7-21-12.2c-1.3-0.6-2.6-1.1-3.9-1.7
			c-3.3-1.3-6.7-2.6-10.3-3.7c-5.9-1.8-11.4-3.9-16.3-6.2c-25-11.6-37.6-29.3-34.4-56.1c0.1-1.2,0.3-2.4,0.5-3.6
			c0.3-1.7,0.9-3.7,1.8-5.8c0.6-1.5,1.4-3.1,2.4-4.7c1-1.8,2.3-3.7,3.7-5.5c2.2-2.9,4.8-5.8,7.8-8.6c0,0,0,0,0,0
			c0.3-0.2,0.6-0.5,0.8-0.7c3.5-3,7.5-5.8,12-8.1c3-1.5,6.3-2.8,9.8-3.8c23.1-6.5,38.9-39,49-46.4c10.1-7.4,34.7-17.6,65.3,0
			c30.6,17.6,49.5,20,79.4-11.2c29.9-31.2,71.3-49.3,113.9-33.4c41,15.3,51.1,55.2,105.2,64.5c2.1,0.4,4.2,0.7,6.4,0.9
			c1.7,0.2,3.4,0.4,5,0.6c2,0.3,3.9,0.6,5.7,0.9c6.3,1.1,11.8,2.4,16.6,3.8c4.8,1.5,9,3.2,12.5,5.1c2.3,1.2,4.4,2.6,6.2,4
			c0.3,0.2,0.6,0.4,0.8,0.7c3.6,2.9,6.2,6.2,8.1,9.8C572.7,430.6,572.7,443.3,572.3,458.5z"/>
		<path class="st25" d="M517.5,461.1c-0.7,27-48.5,24.5-40,54.5c3.8,13.6-2.3,25.7-12.9,33.8c-6.8,5.2-15.5,8.7-24.6,9.8
			c-0.7,0.1-1.5,0.2-2.2,0.2c-5.5,0.4-11.1,0-16.5-1.5c-1.7-0.5-3.3-1-4.9-1.7c-29.5-12.3-82.3-4.8-112.4,17.2
			C274,595.5,233,585.6,213,563.1c-12.5-14.1-22.9-26.6-36.1-36.2c-5-3.7-10.4-6.9-16.5-9.6c-1-0.5-2-0.9-3.1-1.3
			c-2.6-1.1-5.3-2-8.1-2.9c-4.7-1.5-9-3.1-12.9-4.9c-19.7-9.1-29.7-23.1-27.2-44.2c0.1-0.9,0.2-1.9,0.4-2.8c0.2-1.3,0.7-2.9,1.4-4.6
			c0.5-1.2,1.1-2.4,1.9-3.7c0.8-1.4,1.8-2.9,2.9-4.4c1.7-2.3,3.8-4.6,6.2-6.8c0,0,0,0,0,0c0.2-0.2,0.4-0.4,0.7-0.6
			c2.8-2.4,5.9-4.6,9.5-6.4c2.4-1.2,5-2.2,7.7-3c18.2-5.1,30.7-30.8,38.7-36.6c8-5.8,27.4-13.9,51.5,0c24.2,13.9,39,15.8,62.6-8.8
			c23.6-24.6,56.2-38.8,89.8-26.3c32.4,12,40.3,43.6,83,50.9c1.6,0.3,3.3,0.5,5,0.7c1.4,0.2,2.7,0.3,4,0.5c1.5,0.2,3,0.5,4.5,0.7
			c5,0.8,9.3,1.9,13.1,3c3.8,1.2,7.1,2.5,9.9,4c1.8,1,3.4,2,4.9,3.1c0.2,0.2,0.4,0.3,0.7,0.5c2.8,2.3,4.9,4.9,6.4,7.7
			C517.9,439,517.8,449,517.5,461.1z"/>
		<g>
			<path class="st26" d="M107.9,462.9c1.9-19.7-20.5-19.7-24.3-36.3c-3.7-16.6,18.7-25.4,3.5-36.3s-25.9-2.5-24.5-20.2
				c1.3-17.7-9.6-21.3-9.6-21.3s-5.9,6-2.7,16c3.2,10-1.9,12.7,0.3,24.3c2.1,11.6,24.5,10.3,19.5,21.3c-5.1,11-21.9,19.8-6.9,32.4
				s8.4,19.1,15.6,26.3C86.1,476.4,106.3,479.8,107.9,462.9z"/>
			<path class="st27" d="M55.9,360.1c0.7,1.9,1.2,3.8,1.5,5.7c0.3,2,0.5,4,0.4,6c0,0.5-0.1,1-0.2,1.5c-0.1,0.5-0.2,1-0.3,1.5
				c-0.1,0.5-0.2,0.9-0.2,1.3c0,0.2-0.1,0.4-0.1,0.7l0,0.7c0.1,1.8,0.8,3.3,1.9,4.7c1.1,1.3,2.6,2.4,4.3,3.4
				c1.6,0.9,3.3,1.8,5.1,2.5c0.9,0.4,1.8,0.7,2.7,1l1.4,0.5c0.5,0.2,1,0.4,1.5,0.6c1,0.5,1.9,1,2.8,1.7c0.9,0.7,1.7,1.5,2.3,2.5
				c0.6,1,1.1,2.1,1.3,3.3c0.2,1.1,0.2,2.3,0.1,3.4c-0.3,2.2-1,4.2-1.8,6.1c-0.8,1.9-1.8,3.6-2.8,5.3c-0.5,0.8-0.9,1.7-1.3,2.6
				c-0.4,0.9-0.9,1.7-1.2,2.6c-1.5,3.5-2.5,7.2-2.4,11c0,1,0.1,1.9,0.2,2.9c0.2,0.9,0.3,1.9,0.6,2.8c0.5,1.9,1.3,3.7,2.1,5.5
				l-0.8-1.2c-0.3-0.4-0.6-0.8-0.8-1.3l-0.7-1.3c-0.2-0.4-0.4-0.9-0.6-1.4c-0.4-0.9-0.7-1.9-1-2.9c-0.2-1-0.5-2-0.6-3
				c-0.2-2-0.2-4.1,0.1-6.1c0.3-2,0.9-4,1.6-5.9c0.7-1.9,1.5-3.7,2.4-5.5c0.9-1.8,1.8-3.5,2.5-5.2c0.7-1.7,1.3-3.5,1.5-5.2
				c0.2-1.7-0.1-3.3-0.9-4.7c-0.4-0.7-1-1.3-1.6-1.8c-0.6-0.5-1.4-1-2.2-1.4c-0.4-0.2-0.8-0.4-1.2-0.6l-0.6-0.3l-0.7-0.3
				c-0.9-0.4-1.9-0.7-2.8-1.1c-1.9-0.8-3.7-1.8-5.4-2.8c-1.7-1.1-3.4-2.4-4.7-4.2c-1.3-1.7-2.2-4-2-6.2l0.1-0.8
				c0-0.3,0.1-0.5,0.1-0.8c0.1-0.5,0.2-1,0.4-1.5c0.1-0.5,0.3-0.9,0.4-1.4c0.1-0.5,0.2-0.9,0.3-1.4c0.3-1.9,0.3-3.8,0.3-5.8
				C56.5,364,56.3,362,55.9,360.1z"/>
			<path class="st28" d="M140.3,542c-6.4-4.6-13.2-8.7-21-12.2c-1.3-0.6-2.6-1.1-3.9-1.7c-3.3-1.3-6.7-2.6-10.3-3.7
				c-5.9-1.8-11.4-3.9-16.3-6.2c2.8-6.8,5-13,2.6-17.1c-2.4-4-7.3-5.7-11.6-8.4c-4.3-2.7-8-6.3-7.6-14.4
				c0.6-12.7-1.6-11.8-12.6-14.6c-1.6-0.4-3.3-0.9-5.3-1.5c-1.5-0.5-3.2-1.1-5-1.7c-19.9-7.5-22.5-16.5-17.4-32.2
				c5.1-15.7-2.4-10.7-7.5-23.2c-5.1-12.6,2.7-27,2.7-27s3.5,4.6,12.5,16.5c9.1,11.8,0,30.6,11.7,36.6c1.9,1,3.8,1.6,5.7,1.9
				c0.7,0.1,1.4,0.2,2,0.3c3.9,0.5,7.8,0.3,11.4,0.6h0c0.4,0,0.7,0.1,1,0.1c4.6,0.5,8.5,2,10.8,7.3c0.1,0.2,0.2,0.4,0.3,0.6
				c4,8.3,12.9,7.1,22.4,8.8c3.7,0.7,7.4,1.8,11,4C141.6,470.7,142.1,517.2,140.3,542z"/>
			<path class="st27" d="M119.3,529.8c-1.3-0.6-2.6-1.1-3.9-1.7c-0.2-0.9-0.5-1.9-0.7-2.8c-1.1-4.4-2.3-8.8-3.5-13.3
				c-1.1-4.5-2.3-9.1-2.9-13.9c-0.3-2.4-0.5-4.9-0.5-7.4l0-1.6c0-0.5,0-1,0-1.5c0-0.5-0.1-1-0.1-1.5l-0.1-0.7c0-0.2-0.1-0.5-0.1-0.6
				c-0.2-0.9-0.5-1.5-0.9-2c-0.4-0.5-0.8-0.8-1.4-1c-1.3-0.5-3.2-0.6-5.2-0.5c-2,0.1-4.2,0.3-6.4,0.3c-1.1,0-2.3,0-3.4-0.1
				c-1.2-0.1-2.4-0.3-3.6-0.7c-1.2-0.4-2.4-0.8-3.5-1.5c-1.1-0.7-2.3-1.5-3.3-2.6c-1-1.1-1.8-2.5-2.3-3.8c-0.5-1.3-0.9-2.7-1.1-3.9
				c-0.3-1.4-0.4-2.7-0.6-3.9c-0.2-0.9-0.3-1.7-0.6-2.5c-0.2-0.7-0.5-1.3-0.8-1.8c-0.5-0.8-1.1-1.5-1.9-2.2c-1.3-1-3-1.7-4.9-2.2
				l-1.4-0.3l-1.6-0.4l-1.6-0.4c-0.5-0.1-1.1-0.4-1.6-0.5c-1.6-0.5-3.2-1.1-4.7-1.9c-2.6-1.3-5.1-2.9-7.3-4.8
				c-1.8-1.5-3.4-3.3-4.8-5.2c-0.3-0.5-0.7-1-1-1.5c-0.3-0.5-0.7-1-0.9-1.5c-0.6-1.1-1.2-2.1-1.6-3.3c-1-2.2-1.6-4.6-2.1-7l-0.2-1.8
				c0-0.3-0.1-0.6-0.1-0.9l0-0.9c0-0.6-0.1-1.2-0.1-1.8l0.1-1.8l0.1-1.7c0-0.6,0.1-1.1,0.1-1.7c0-1.1,0-2.2-0.1-3.3
				c-0.1-1.1-0.3-2.2-0.4-3.3c-0.2-1.1-0.4-2.2-0.7-3.3c-0.6-2.2-1.3-4.3-2.2-6.4c-0.9-2.1-1.9-4.1-3-6.1c2.8,3.5,5.1,7.5,6.7,11.9
				c0.4,1.1,0.8,2.2,1.1,3.4c0.3,1.2,0.6,2.3,0.8,3.5c0.2,1.2,0.3,2.4,0.4,3.6c0.1,0.6,0,1.2,0.1,1.8l0,1.7l0,1.6
				c0,0.5,0.1,1.1,0.2,1.6l0.1,0.8c0,0.3,0.1,0.5,0.1,0.8l0.3,1.6c0.6,2.1,1.2,4.1,2.2,6c0.9,1.9,2.1,3.6,3.4,5.3l1,1.1
				c0.3,0.4,0.7,0.8,1.1,1.1c0.8,0.7,1.5,1.4,2.3,2c2.1,1.7,4.5,3,6.9,4c1.2,0.5,2.4,0.9,3.7,1.3c0.5,0.1,0.9,0.3,1.4,0.4l1.5,0.3
				l1.5,0.3l1.7,0.3c0.7,0.1,1.3,0.3,2,0.5c1.6,0.5,3.3,1.2,4.8,2.3c1.1,0.8,2.1,1.8,3,3c0.8,1.2,1.5,2.6,1.9,3.9
				c0.8,2.6,1.1,5.1,1.5,7.1c0.2,1,0.4,1.9,0.8,2.7c0.3,0.8,0.7,1.4,1.2,2c0.4,0.4,0.8,0.8,1.3,1.1c0.2,0.1,0.4,0.2,0.6,0.3
				c0.7,0.4,1.5,0.7,2.4,1c0.8,0.3,1.7,0.4,2.7,0.5c0.9,0.1,1.9,0.2,2.9,0.1c2,0,4-0.2,6.3-0.2c1.1,0,2.2,0,3.5,0.1
				c1.2,0.1,2.5,0.3,3.9,0.9c1.3,0.6,2.7,1.6,3.7,2.9c1,1.3,1.6,2.8,1.9,4.2c0.1,0.4,0.2,0.7,0.2,1c0.1,0.3,0.1,0.7,0.1,1
				c0.1,0.7,0.1,1.3,0.1,2c0,0.6,0,1.3,0,1.9l-0.1,1.8c-0.1,2.1,0,4.2,0.2,6.4c0.2,2.2,0.5,4.4,0.9,6.6c0.4,2.2,0.8,4.5,1.3,6.7
				C117,517,118.4,523.3,119.3,529.8z"/>
		</g>
		<g>
			<path class="st26" d="M484.2,486.1c-1.9-24.7,21.3-24.7,25.1-45.6c3.9-20.8-19.3-31.9-3.6-45.6c15.8-13.7,26.8-3.1,25.4-25.3
				c-1.4-22.2,9.9-26.7,9.9-26.7s6.1,7.6,2.8,20.1c-3.3,12.5,1.9,16-0.3,30.5c-2.2,14.5-25.4,12.9-20.2,26.8s22.7,24.9,7.2,40.6
				c-15.5,15.7-8.7,24-16.2,33.1C506.9,503.1,485.9,507.2,484.2,486.1z"/>
			<path class="st27" d="M538.1,357c-0.7,2.3-1.2,4.7-1.6,7.2c-0.4,2.5-0.5,5-0.4,7.6c0,0.6,0.1,1.3,0.2,1.9
				c0.1,0.6,0.2,1.3,0.3,1.9c0.1,0.6,0.2,1.1,0.2,1.7c0,0.3,0.1,0.6,0.1,0.8l0,0.8c-0.1,2.2-0.8,4.2-1.9,5.9c-1.2,1.7-2.7,3-4.4,4.2
				c-1.7,1.2-3.4,2.2-5.3,3.1c-0.9,0.5-1.9,0.9-2.8,1.3l-1.5,0.7c-0.5,0.2-1,0.5-1.5,0.8c-1,0.6-2,1.3-2.9,2.2
				c-0.9,0.9-1.8,1.9-2.4,3.2c-0.7,1.3-1.1,2.7-1.3,4.1c-0.2,1.4-0.2,2.9-0.1,4.3c0.3,2.8,1,5.3,1.9,7.6c0.9,2.3,1.9,4.5,2.9,6.7
				c0.5,1.1,0.9,2.1,1.4,3.2c0.5,1.1,0.9,2.2,1.3,3.3c1.6,4.4,2.6,9,2.5,13.8c0,1.2-0.1,2.4-0.2,3.6c-0.2,1.2-0.3,2.4-0.6,3.5
				c-0.5,2.4-1.3,4.6-2.2,6.9l0.8-1.5c0.3-0.5,0.6-1,0.8-1.6l0.7-1.7c0.2-0.6,0.4-1.1,0.6-1.7c0.4-1.1,0.7-2.4,1-3.6
				c0.2-1.2,0.5-2.5,0.6-3.8c0.2-2.5,0.2-5.1-0.1-7.7c-0.3-2.5-0.9-5-1.6-7.4c-0.7-2.4-1.6-4.7-2.5-6.9c-0.9-2.2-1.8-4.4-2.6-6.6
				c-0.7-2.2-1.3-4.4-1.5-6.6c-0.2-2.2,0.1-4.2,1-5.9c0.4-0.8,1-1.6,1.7-2.3c0.7-0.7,1.4-1.3,2.3-1.8c0.4-0.2,0.8-0.5,1.3-0.7
				l0.7-0.3l0.7-0.3c1-0.5,1.9-0.9,2.9-1.4c1.9-1,3.8-2.2,5.6-3.6c1.8-1.4,3.5-3.1,4.9-5.3c1.3-2.2,2.2-5,2.1-7.8l-0.1-1
				c0-0.3-0.1-0.7-0.1-1c-0.1-0.7-0.3-1.3-0.4-1.9c-0.1-0.6-0.3-1.1-0.4-1.7c-0.1-0.6-0.2-1.1-0.3-1.7c-0.3-2.4-0.4-4.8-0.3-7.2
				C537.5,361.9,537.7,359.4,538.1,357z"/>
			<path class="st28" d="M570.7,413.3c-1.1,3.2-2.2,5.4-3.3,7.2c-4.5,7.1-8.6,6.2-4.4,22c5.2,19.7,2.5,31-18.1,40.5
				c-4.2,1.9-7.7,3.2-10.6,4.1c-11.4,3.6-13.7,2.4-13,18.4c0.4,10.1-3.4,14.7-7.9,18.1c-4.4,3.3-9.6,5.5-12,10.5
				c-2.5,5.1,0.7,24.3,3.9,36.5c-8.7,6.6-19.7,11.1-31.2,12.5c-0.9,0.1-1.9,0.2-2.8,0.3c-7,0.6-14.1,0-20.9-1.9
				c-1.5-32,0-86.3,25.3-105.5c3.7-2.8,7.6-4.2,11.4-5.1c9.9-2.2,19.1-0.7,23.3-11.1c0.1-0.2,0.2-0.5,0.3-0.8
				c2.4-6.6,6.4-8.5,11.1-9.1c0.4,0,0.7-0.1,1.1-0.1c3.7-0.3,7.7-0.1,11.8-0.7c0.7-0.1,1.4-0.2,2.1-0.4c2-0.5,4-1.2,5.9-2.4
				c10.6-6.6,4.8-25.4,9.4-40c0.7-2.1,1.6-4.1,2.7-6c9.4-14.9,13-20.7,13-20.7S576,397.5,570.7,413.3z"/>
			<path class="st27" d="M562.7,402.2c-1.2,2.4-2.2,5-3.1,7.6c-0.1,0.3-0.2,0.6-0.3,0.9c-0.8,2.3-1.4,4.7-1.9,7.1
				c-0.3,1.4-0.5,2.8-0.8,4.1c-0.2,1.4-0.4,2.8-0.4,4.2c-0.1,1.4-0.1,2.8-0.1,4.2c0,0.7,0.1,1.4,0.1,2.1l0.1,2.2l0.1,2.3
				c0,0.8-0.1,1.5-0.1,2.3l0,1.2c0,0.4-0.1,0.8-0.1,1.1l-0.3,2.3c-0.5,3-1.1,6-2.2,8.8c-0.5,1.4-1.1,2.8-1.7,4.1
				c-0.3,0.7-0.7,1.3-1,1.9c-0.3,0.6-0.7,1.3-1,1.9c-1.5,2.4-3.1,4.7-5,6.6c-3.7,3.9-8,6.7-12.4,8.5c-0.6,0.2-1.1,0.5-1.7,0.7
				l-1.7,0.5l-1.7,0.5l-1.5,0.4c-1.9,0.6-3.7,1.5-5.1,2.7c-0.8,0.8-1.5,1.6-2,2.7c-0.3,0.7-0.6,1.4-0.8,2.3c-0.2,0.9-0.4,2-0.6,3.1
				c-0.2,1.5-0.4,3.2-0.7,4.9c-0.2,1.6-0.6,3.2-1.1,4.9c-0.5,1.7-1.4,3.4-2.4,4.8c-1,1.4-2.2,2.5-3.4,3.3c-1.2,0.9-2.4,1.4-3.7,1.9
				c-1.2,0.4-2.5,0.7-3.7,0.9c-1.2,0.1-2.4,0.2-3.6,0.2c-2.3,0-4.6-0.2-6.6-0.3c-2.1-0.1-4.1,0-5.4,0.6c-0.6,0.3-1.1,0.7-1.5,1.3
				c-0.4,0.6-0.7,1.4-0.9,2.5c-0.1,0.2-0.1,0.5-0.2,0.8l-0.1,0.8c0,0.6-0.1,1.2-0.1,1.9c0,0.6-0.1,1.3,0,1.9l0,2.1
				c0.1,3.2-0.1,6.3-0.5,9.3c-0.7,6-1.8,11.8-3,17.4c-1.2,5.6-2.5,11.2-3.6,16.7c-1.1,5.5-2.2,11.1-2.8,16.8
				c-0.1,0.6-0.1,1.2-0.2,1.8c-0.9,0.1-1.9,0.2-2.8,0.3c0-0.8,0-1.7,0.1-2.5c0.7-11.9,2.8-23.4,4.8-34.6c0.5-2.8,0.9-5.6,1.3-8.4
				c0.4-2.8,0.8-5.6,1-8.3c0.2-2.8,0.3-5.5,0.2-8.1l-0.1-2.3c0-0.8,0-1.6,0-2.4c0-0.8,0.1-1.7,0.1-2.5c0-0.4,0.1-0.9,0.2-1.3
				c0.1-0.4,0.1-0.9,0.2-1.3c0.3-1.7,0.9-3.6,1.9-5.3c1-1.7,2.4-3,3.8-3.7c1.4-0.7,2.8-1,4-1.2c1.3-0.1,2.4-0.1,3.6-0.1
				c2.3,0.1,4.4,0.3,6.5,0.3c1,0,2-0.1,3-0.2c1-0.2,1.9-0.3,2.8-0.7c0.9-0.3,1.7-0.7,2.5-1.2c0.2-0.1,0.4-0.3,0.6-0.4
				c0.5-0.4,1-0.9,1.3-1.4c0.5-0.7,0.9-1.5,1.2-2.5c0.3-1,0.6-2.1,0.8-3.4c0.4-2.6,0.7-5.6,1.5-9c0.4-1.7,1.1-3.4,2-4.9
				c0.9-1.5,1.9-2.8,3.1-3.8c1.6-1.4,3.3-2.3,5-2.9c0.7-0.3,1.4-0.5,2.1-0.7l1.7-0.4l1.5-0.4l1.5-0.4c0.5-0.1,1-0.3,1.5-0.5
				c4-1.4,7.7-3.6,11-6.7c0.9-0.7,1.6-1.7,2.4-2.5c0.4-0.4,0.7-0.9,1.1-1.4l1.1-1.4c1.3-2,2.6-4.2,3.5-6.6c1-2.3,1.7-4.9,2.3-7.5
				l0.3-2c0.1-0.3,0.1-0.7,0.2-1l0.1-1c0.1-0.7,0.1-1.4,0.2-2l0-2.1l0.1-2.2c0-0.8,0-1.5,0.1-2.3c0.1-1.5,0.2-3,0.5-4.5
				c0.2-1.5,0.5-2.9,0.8-4.4c0.4-1.4,0.7-2.8,1.1-4.2c0.8-2.5,1.6-4.8,2.7-7.1C559.6,407.2,561.1,404.6,562.7,402.2z"/>
		</g>
		<g>
			<path class="st29" d="M304.6,289.1c0,0,2.8-6.9,15.7-14.9c12.9-8,25.3-8.4,25.3-8.4l3.6,12.9c0,0-4.7,6.7-5,6.9
				c-0.3,0.2-15.5,9-15.5,9l-13.1-1.1L304.6,289.1z"/>
			<path class="st30" d="M351.2,276.5l-6.2,6l-10.9,6.6l-9.3-25.4c-4.8-1.1-16.9-8.5-18.4-9.4c-1.6-0.9-14.2-3.2-15.1-5.3
				s15.4-0.9,15.4-0.9s-17.1-6.2-16.1-8.3c1-2.1,16.7,3.2,17.2,3.4c-0.5-0.3-18.1-10.8-16.1-12.8c2-2,19,8,19.4,8.3
				c-9.2-8.1-14.2-13.6-11.9-14.3c2.4-0.7,17,9.7,17,9.7l3.3,1.7l6.8,3.6c0,0,1.7-2.2,1.2-6.3c-0.5-4,2.6-8.7,5.2-8.3
				c2.6,0.5-0.8,4.4,0,7.9c0.8,3.5,3.5,6.7,4.3,9.4c0.8,2.8,1.3,15.9,1.3,15.9L351.2,276.5z"/>
			<path class="st31" d="M329.3,255.6c-0.2-0.1-8.2-3.3-8.4-10.4c0,0-2.3,10.3-2.8,11.6c-0.6,1.3-5,0.5-4.5-6.2
				c0.4-5.1,4.2-11.7,6.1-14.6l6.8,3.6c0,0-2.6,3.7-1.7,7.8C325.4,251.3,329.1,255.4,329.3,255.6z"/>
			<path class="st32" d="M397.4,305.6l-31.9-10.8l-19.9-29c0,0-2.7,8.6-15.4,16c-12.7,7.4-25.6,7.3-25.6,7.3s20,27.3,35,34.3
				c14.9,7,58.2,14.7,58.2,14.7L397.4,305.6z"/>
			<path class="st31" d="M394.7,333.8l-16.9-10.4c0,0,4.7,5.8,12.3,9.2l-14.7-3C375.5,329.5,386.2,335.8,394.7,333.8z"/>
			<path class="st31" d="M365.6,296.3c0,0,0.9,4.9,0.3,9.1c-0.6,4.2-7.7,9-7.7,9s4.2-4.8,5.4-9.3c1.2-4.5,1-8.3,1-8.3
				s-1.8,4.2-4.3,7c-2.4,2.9-10.2,3.5-10.2,3.5s7.7-4,10.6-7.4c2.9-3.4,4.5-4.7,4.5-4.7L365.6,296.3z"/>
			<path class="st33" d="M378.8,578.3c0,0-54,44.5-54.6,44.3c-0.2-0.1-1-1.1-1.8-3c-1.5-3.7-2.7-10.5,1.8-19
				c6.7-12.7,17.5-27.2,19.9-39.3c2.3-12.1,24.1-4,24.1-4s6.3,5,9.3,14.4C378.1,573.7,378.5,575.9,378.8,578.3z"/>
			<path class="st31" d="M378.8,578.3c0,0-54,44.5-54.6,44.3c-0.2-0.1-1-1.1-1.8-3l55-48C378.1,573.7,378.5,575.9,378.8,578.3z"/>
			<path class="st34" d="M372.2,555.8c0,0-1.8,3.7-7.5,7c-2.2,1.2-4.9,2.4-8.2,3.3c-12.3,3.2-22.8-0.2-22.8-0.2l-8.7-55.9l38-9.1
				l1.6,9.7L372.2,555.8z"/>
			<path class="st31" d="M372.2,555.8c0,0-1.8,3.7-7.5,7l-3.1-51.6l3-0.7L372.2,555.8z"/>
			<path class="st35" d="M470.2,607.1c0,0-40.8,56.9-41.4,56.9c-0.2,0-1.3-0.8-2.5-2.4c-2.4-3.2-5.4-9.5-3.2-18.8
				c3.3-14,10-30.8,9.1-43.1c-0.9-12.3,22.2-10.1,22.2-10.1s7.4,3.2,12.7,11.6C468.4,602.8,469.4,604.8,470.2,607.1z"/>
			<path class="st31" d="M470.2,607.1c0,0-40.8,56.9-41.4,56.9c-0.2,0-1.3-0.8-2.5-2.4l40.8-60.5
				C468.4,602.8,469.4,604.8,470.2,607.1z"/>
			<path class="st36" d="M458.9,585.3c0,0-1.1,3.6-6.2,7.9c-1.5,1.3-3.4,2.7-5.8,4c-10,5.8-25.6,6.9-25.6,6.9l-20.5-65.7l41.2-10.8
				l1.3,4.5L458.9,585.3z"/>
			<path class="st31" d="M458.9,585.3c0,0-1.1,3.6-6.2,7.9L440.8,533l2.5-0.8L458.9,585.3z"/>
			<path class="st31" d="M370.1,553.9l-12.5-7.5C357.6,546.4,361.1,556.1,370.1,553.9z"/>
			<path class="st31" d="M455.7,583.6l-18.1-6.9C437.6,576.6,444.7,585.9,455.7,583.6z"/>
			<path class="st37" d="M469.9,320c0,0-0.5,10.7-1.3,25.2c-1,19.9-2.5,47.1-3.5,63.9c-1.7,28.9-19.4,45.1-24.1,68.5
				c-4.8,23.4,8.2,53.8,8.2,53.8s-8.2,5.2-19,9.2c-9.7,3.6-21.6,6.3-31.4,3.3c-20.5-6.4-28.3-31.5-49.4-31.5
				c-21.1,0-38.2,15.6-38.2,15.6s-10.4-39.6,3.5-64.5c13.9-24.9,64.7-61.3,64.7-61.3c4.2-7.9,9.5-29.8,10.9-55.8
				c1.3-26,7-40.8,7-40.8l14.7,3.4l2.7,0.6c0,0,4.7-1.6,27.7,1.5c2.1,0.3,4.1,0.6,6,1C462.4,315,469.9,320,469.9,320z"/>
			<path class="st38" d="M437.8,341.3c-11.9,2.6-18.9-6.3-18.9-6.3c-11.2,4.4-15.7-1-14.8-8.8c0.7-6.1,5.8-14.1,8-17.3l2.7,0.6
				c0,0,4.7-1.6,27.7,1.5c2.1,0.3,4.1,0.6,6,1C451.8,322.4,448.9,338.9,437.8,341.3z"/>
			<path class="st31" d="M441.1,477.6c-4.8,23.4,8.2,53.8,8.2,53.8s-8.2,5.2-19,9.2c-3.4-15.6-6.1-35.6-3.8-52.7
				c4.7-34.1,28.1-62.1,33.2-77.3c5-15.2,6.8-64.6,6.8-64.6l2.2-0.8c-1,19.9-2.5,47.1-3.5,63.9C463.5,438,445.8,454.2,441.1,477.6z"
				/>
			<path class="st31" d="M407.3,346c0,0-10.4,47.8-13.5,55.9s-53.8,46-60.3,55.2c-6.6,9.2-8.5,18-8.5,18s7.1-13.7,23.1-26.2
				c16-12.5,39.1-38.7,47.8-45.3C404.6,397.1,407.3,346,407.3,346z"/>
			<path class="st31" d="M420.2,343c0,0,6.5,49.6,0,66.9c0,0,10.1-8.9,8.7-27.5C427.5,363.7,420.2,343,420.2,343z"/>
			<path class="st39" d="M438.3,324.5c-2.9,4.5-9.4,7.4-14,9c-3.1,1-5.3,1.5-5.3,1.5c-1.1-1.3-2-2.7-2.8-4.2c-2.3-4.7-3-9.8-3-9.8
				l8-4.8C421.1,316.2,443.2,317,438.3,324.5z"/>
			<path class="st37" d="M424.3,333.5c-3.1,1-5.3,1.5-5.3,1.5c-1.1-1.3-2-2.7-2.8-4.2c1.3-2.7,3.2-5.2,3.2-5.2s4-2.6,3.4,0.4
				C422.4,327.8,423.4,331.1,424.3,333.5z"/>
			<path class="st38" d="M418,321.7c0,0-0.9,1.6-0.4,3.4s2.9,3,5.2,2.3c2.3-0.6,4-2,4.4-4.4C427.5,320.6,418,321.7,418,321.7z"/>
			<path class="st40" d="M419.3,307.9c0,0-4.3,0.3-6.3,2c-2,1.7-4.1,14.7-4.1,14.7s5.1-4.4,11.5-1.3c0,0,7.8-0.6,13.4,2
				c5.6,2.6,7.3,6.3,7.3,6.3s4.9-19.5,2.5-23.8c-2.4-4.3-12.2-3.2-12.2-3.2L419.3,307.9z"/>
			<path class="st41" d="M438.3,310.2c-4.2,8.1-18,13.2-18,13.2l-4.7-7.4c0,0,1.7-2.7,0.9-5.9c0,0,0,0,0-0.1c-0.8-3.3-4-6.8-4-6.8
				l23.3-14.8l1.1,9.7L438.3,310.2z"/>
			<path class="st31" d="M436.9,298.1c-4.5,4.8-10.9,11-15.3,11.8c-1.9,0.3-3.6,0.3-5.1,0.1c0,0,0,0,0-0.1c-0.8-3.3-4-6.8-4-6.8
				l23.3-14.8L436.9,298.1z"/>
			<path class="st30" d="M424.9,252.6c-10.4-0.6-18.2,7.2-20,15c-1.8,7.8,0.5,9.1-1.9,15.2c-2.4,6.2,3,21.4,9.8,22.5
				c6.8,1.1,18.5-1.4,25-17.8C444.2,271.1,442,253.7,424.9,252.6z"/>
			<path class="st42" d="M405.1,246.1c0,0-3.6,11-0.6,14.8c3,3.9,20,1.9,26.2,3.5c6.3,1.5,5.1,6.3,5.1,6.3s-3.8,0.7-2.2,4.8
				c1.5,4.1,1.8,9.6,1.8,9.6l2.3,2.4c0,0,9.2-4.3,11.6-12.1c2.4-7.8-2-12.5-2-12.5s4-5.1-2.3-10.3c-6.4-5.2-12.5-1.6-18.3-5.6
				c-5.8-4-4-9.6-4-9.6s-5.3,3.9-6.5,8.7c0,0-0.9-2.1,0.8-8.7c0,0-7,5.5-7.8,12.7c0,0-2.1-3.9-1.3-9.4
				C408,240.6,406,242.7,405.1,246.1z"/>
			<g>
				<path class="st42" d="M404.6,272.6c-0.3,0-0.7-0.1-0.9-0.4c-0.6-0.5-0.6-1.4-0.1-2c0.1-0.1,2.4-2.6,6.5-1.1
					c0.7,0.3,1.1,1.1,0.9,1.8c-0.3,0.7-1.1,1.1-1.8,0.9c-2.3-0.8-3.4,0.3-3.4,0.3C405.4,272.4,405,272.6,404.6,272.6z"/>
			</g>
			<g>
				<path class="st42" d="M426.2,274.1c-0.5,0-0.9-0.2-1.2-0.7c-1.9-3.2-7.4-1.5-7.5-1.5c-0.7,0.2-1.5-0.2-1.8-0.9
					c-0.2-0.7,0.2-1.5,0.9-1.8c0.3-0.1,7.7-2.4,10.8,2.7c0.4,0.7,0.2,1.5-0.5,1.9C426.7,274.1,426.4,274.1,426.2,274.1z"/>
			</g>
			<path class="st41" d="M413.9,287.1c-1.6,2.4-8.7,0.9-8.2-1.8c0.4-2.7,5.3-3.1,5.3-3.1l0.5-1.5l1.7-5.6
				C414.8,275.4,415.5,284.8,413.9,287.1z"/>
			<path class="st31" d="M413.4,283.1c0,0-1-0.9-2.4-0.9l0.5-1.5C412.9,281.4,413.4,283.1,413.4,283.1z"/>
			<path class="st42" d="M408.9,275.6c0,1.3-0.6,2.4-1.3,2.4c-0.7,0-1.3-1.1-1.3-2.4c0-1.3,0.6-2.4,1.3-2.4
				C408.3,273.2,408.9,274.3,408.9,275.6z"/>
			<path class="st42" d="M420.1,276.2c0,1.3-0.6,2.4-1.3,2.4c-0.7,0-1.3-1.1-1.3-2.4s0.6-2.4,1.3-2.4
				C419.5,273.8,420.1,274.9,420.1,276.2z"/>
			
				<ellipse transform="matrix(0.2958 -0.9552 0.9552 0.2958 38.7022 620.4555)" class="st30" cx="440.2" cy="284" rx="6.4" ry="5.6"/>
			<path class="st31" d="M442,286.6c-0.4,0.4-0.9,0.6-1.3,0.7c-0.5,0.1-1,0-1.5-0.1c-0.2,0-0.3-0.1-0.5-0.1c0.3-0.3,0.5-0.6,0.8-0.9
				c0.5-0.6,1-1.2,1.3-2c0.1-0.2,0.2-0.4,0.2-0.7c0-0.3,0.1-0.7-0.2-1.1c-0.2-0.4-0.7-0.6-0.9-0.7c-0.1,0-0.2-0.1-0.4-0.1
				c-0.1,0-0.2-0.1-0.4-0.1c-0.3,0-0.6,0-0.9,0.1c0,0,0,0,0-0.1c0.2-0.5,0.6-0.9,1.2-1.1c0.3-0.1,0.6-0.2,0.9-0.2
				c0.3,0,0.6,0,0.9,0.1c0.6,0.2,1.1,0.7,1.3,1.4c0-0.7-0.3-1.5-1-1.9c-0.4-0.2-0.8-0.3-1.2-0.4c-0.4,0-0.8,0-1.2,0.1
				c-0.8,0.2-1.6,0.8-2,1.5c-0.2,0.4-0.4,0.7-0.5,1.1c-0.1,0.4-0.2,0.8-0.2,1.2c0,0.2,0.1,0.4,0.2,0.6c0.3,0.3,0.8,0.3,1.1,0
				l0.1-0.1c0,0,0.2-0.2,0.3-0.2c0.1-0.1,0.2-0.1,0.3-0.2c0.2-0.1,0.4-0.1,0.6-0.1c0.1,0,0.1,0,0.2,0c0,0,0.1,0,0.1,0
				c0,0.1,0,0.1-0.1,0.2c-0.2,0.5-0.6,1.1-1,1.6c-0.4,0.5-0.9,1.1-1.3,1.6l-0.1,0.1c-0.1,0.1-0.1,0.1-0.1,0.2
				c-0.1,0.4,0,0.7,0.4,0.9c0.6,0.2,1.2,0.4,1.9,0.4c0.6,0.1,1.3,0,1.9-0.2c0.3-0.1,0.6-0.3,0.8-0.5c0.2-0.2,0.4-0.5,0.6-0.7
				c0.3-0.5,0.5-1.1,0.6-1.7C442.8,285.7,442.5,286.2,442,286.6z"/>
			<path class="st43" d="M408.9,291.5c0,0,1.4,0.8,4.5,1c3.1,0.1,7.5-1.6,7.5-1.6s-1.1,4-5.2,5.3
				C411.6,297.3,409.4,293.8,408.9,291.5z"/>
			<path class="st32" d="M489.8,409.8c0,0,14.4,4.8,51.7-5.3l-9.4-14h-12l-27.2,3.3L489.8,409.8z"/>
			<polygon class="st44" points="497.4,439.4 462,449.7 462.4,454.9 487.7,506.2 567.7,467.5 541.8,421.2 			"/>
			<polygon class="st45" points="497,434.2 462,449.7 487.3,501 567.3,462.3 541.4,416 			"/>
			<circle class="st43" cx="492.7" cy="467.4" r="12.4"/>
			<polygon class="st43" points="540.3,429.6 554.8,455.3 546.2,459.8 534,432.4 			"/>
			<path class="st30" d="M497.5,416.4c0,0-6,9.4-5.9,11.7c0.1,2.2,0.3,7.4,0,8.6l5.4-2.4c0,0,8.8,6.1,10.7,10.8
				c1.9,4.7,3.2,11.9,5.2,12.1c2,0.3,1.6-4.1,0.7-8.5c-1-4.3-3-9.6-3-9.6s5.5,6.1,7.2,9c1.7,2.9,3.1,6.6,4.9,5.6
				c1.8-1,0.5-6.3-1.3-9.1c-1.8-2.8-4.9-7.5-4.9-7.5s5.9,3.3,7.8,5.7c1.9,2.4,2.2,5,4,4.8c1.7-0.2,1.3-4.2-0.4-6.6
				c-1.6-2.3-7.3-7.3-7.3-7.3s6.3,1.9,8.1,3.5s2.4,4.1,3.7,3.6c1.3-0.6,1.3-3.2-1.8-6.8c-3.2-3.7-8.3-5.3-8.3-5.3l-9.1-13.6
				l-3.6-20.4l-16.7,2.6L497.5,416.4z"/>
			<path class="st37" d="M541.4,404.4c0,0-6.6-2.6-14.9-3.7c-4.3-0.6-9.1-0.7-13.7,0.1c-13.6,2.5-23,9-23,9s-4.2-31.9-6.4-36.4
				C481.3,368.9,468,358,468,358s-11.4-15.5,1.9-38c0,0,27.9,16.9,43.2,29.2c2.8,2.3,5.2,4.4,6.9,6.2
				C531,367.1,541.4,404.4,541.4,404.4z"/>
			<path class="st31" d="M466.5,357.4c0,0-6.9-7.2-8.2-16.1c0,0-2.5,10.1,6.8,16.1c0,0-9.8-2-14.2-12.1c0,0-1.5,6.8,5.7,10.8
				C463.8,360.3,466.5,357.4,466.5,357.4z"/>
			<path class="st31" d="M484.8,370.5c0,0,0.4-10.8,9-15.2l-8.2,14.7c0,0,7.8-8.2,15.6-5.8l-16.9,7.8L484.8,370.5z"/>
			<path class="st31" d="M392.2,390.4c0,0,8.4,5.8,20.9,6.7s39.5-8.5,39.5-8.5s-19.9,14.7-35.3,14.2
				C402,402.1,392.2,390.4,392.2,390.4z"/>
			<path class="st31" d="M394.7,364.4c0,0-0.8,14,8.1,23.3L394.7,364.4z"/>
			<path class="st31" d="M388.8,399.1c0,0,8.2,18.1,13.1,20.1c4.9,2,14.3,1.3,14.3,1.3S399.7,417.4,388.8,399.1z"/>
			<path class="st31" d="M368.1,501c11.6,1.2,28.5,17.3,39.1,22.4c10.6,5,26.2,0,26.2,0s-15.8,0.2-33.7-9.3
				c-17.9-9.4-20.6-12-24.8-12.8C370.7,500.4,368.1,501,368.1,501z"/>
			<path class="st31" d="M404.4,433.5c0,0-16.8,28.7-21.8,41.6c-5,12.9-3.7,38-3.7,38S387.6,471.9,404.4,433.5z"/>
			<path class="st31" d="M541.4,404.4c0,0-6.6-2.6-14.9-3.7c-0.4-15.1-2.5-42.5-13.4-51.5l0,0c2.8,2.3,5.2,4.4,6.9,6.2
				C531,367.1,541.4,404.4,541.4,404.4z"/>
		</g>
		<g>
			<polygon class="st38" points="255.4,253.7 231.4,255 221.6,255.5 203.3,239.4 179.2,229.5 177.4,228.8 160.3,203.1 224.3,207 			
				"/>
			<path class="st31" d="M231.4,255l-9.8,0.5l-18.3-16.1l-24.2-9.9l-0.7-9.1c0,0,9.1-5.1,33.5,5.7
				C228.2,233.4,231.2,246.8,231.4,255z"/>
			<path class="st32" d="M174.3,233.6c0,0,0.8,7.2,15.6,16.8c14.8,9.6,25.6,10.2,25.6,10.2s3.4-8.6,3.3-9.1
				c-0.1-0.4-21.4-16.4-21.4-16.4l-18.2-3.8L174.3,233.6z"/>
			<path class="st38" d="M178.5,220.5l-4.2,13.1c0,0,13,2.5,24.7,9.5c11.7,6.9,16.5,17.6,16.5,17.6l12.1-7.6
				C227.6,253,217.7,224.4,178.5,220.5z"/>
			<path class="st38" d="M252.8,251.6c-2.7,1.9-5,4.1-6.9,6.5c-1,1.2-1.8,2.5-2.6,3.9c-0.4,0.7-0.7,1.4-1,2.1
				c-0.2,0.4-0.3,0.7-0.5,1.1l-0.4,1.1c-0.1,0.4-0.3,0.7-0.4,1.1l-0.3,1.1c-0.2,0.8-0.4,1.5-0.5,2.3c-0.3,1.5-0.5,3.1-0.7,4.7
				c-0.3,3.2-0.4,6.4-0.4,9.6c-1-3.1-1.4-6.4-1.4-9.7c0-0.8,0-1.7,0.1-2.5l0.1-1.2l0.2-1.2c0.1-0.8,0.3-1.6,0.5-2.5
				c0.1-0.4,0.2-0.8,0.4-1.2c0.1-0.4,0.2-0.8,0.4-1.2l0.5-1.2c0.2-0.4,0.4-0.8,0.5-1.2c0.3-0.8,0.8-1.5,1.2-2.2
				c0.9-1.4,1.9-2.8,3.1-4c1.2-1.2,2.5-2.3,3.8-3.2C249.8,252.9,251.2,252.1,252.8,251.6z"/>
			<path class="st46" d="M239.1,283.2c-3.8,0.6-3,12-3,12l4.9-0.8l4.9-0.8C245.8,293.6,242.9,282.6,239.1,283.2z"/>
		</g>
		<g>
			<polygon class="st38" points="304,148.5 302.2,172.5 301.4,182.2 283.1,198.2 270.1,220.9 269.1,222.5 241.4,236.1 253.7,173.2 
							"/>
			<path class="st31" d="M302.2,172.5l-0.8,9.8l-18.3,16l-13,22.7l-9.1-0.5c0,0-3.9-9.7,10.1-32.5
				C280.4,172.8,294,171.6,302.2,172.5z"/>
			<path class="st32" d="M273.5,226.2c0,0,7.2,0.2,18.7-13.2c11.5-13.4,13.5-24,13.5-24s-8.1-4.5-8.5-4.5c-0.4,0.1-19.1,19-19.1,19
				l-6.2,17.5L273.5,226.2z"/>
			<path class="st38" d="M261,220.4l12.5,5.8c0,0,4.2-12.5,12.6-23.2c8.4-10.7,19.6-14,19.6-14l-5.9-13
				C299.7,175.9,270.1,182,261,220.4z"/>
			<path class="st38" d="M301.6,150.8c1.5,2.9,3.4,5.5,5.6,7.7c1.1,1.1,2.3,2.1,3.5,3.1c0.6,0.4,1.2,0.9,1.9,1.3
				c0.3,0.2,0.6,0.4,1,0.6l1,0.5c0.3,0.2,0.7,0.4,1,0.5l1.1,0.5c0.7,0.3,1.4,0.6,2.2,0.8c1.5,0.5,3,0.9,4.5,1.3
				c3.1,0.7,6.3,1.3,9.5,1.6c-3.2,0.6-6.5,0.6-9.8,0.1c-0.8-0.1-1.6-0.2-2.4-0.4l-1.2-0.3l-1.2-0.3c-0.8-0.2-1.6-0.5-2.4-0.8
				c-0.4-0.2-0.8-0.3-1.2-0.5c-0.4-0.2-0.8-0.3-1.1-0.5l-1.1-0.6c-0.4-0.2-0.7-0.4-1.1-0.7c-0.7-0.4-1.4-1-2-1.5
				c-1.3-1.1-2.5-2.3-3.5-3.6c-1-1.3-1.9-2.7-2.7-4.2C302.5,154,301.9,152.4,301.6,150.8z"/>
			<path class="st46" d="M331.1,168.5c0.1,3.9,11.5,4.6,11.5,4.6l-0.1-4.9l-0.1-4.9C342.4,163.3,331,164.6,331.1,168.5z"/>
		</g>
		<g>
			<path class="st41" d="M122.1,642.9c10.8,3.3,11.6-19.3,11.6-19.3l13.1-36.6l36.6-49.7l-31.2-4.8l-1.1,2.5l-15.8,37.1v0l-2.6,6
				c0,0-7.7-0.6-10.6,3.7c-2.9,4.2-5,26.4-6.4,35.1C114.4,625.6,111.3,639.7,122.1,642.9z"/>
			<path class="st31" d="M135.3,572.2L135.3,572.2c0.1,0,23.2-36.4,23.2-36.4l-7.3-0.8L135.3,572.2z"/>
			<path class="st45" d="M122.1,642.9c10.8,3.3,11.6-19.3,11.6-19.3c-2.7-7.5-12.3-6.7-12.3-6.7l11.4-38.8c0,0-7.7-0.6-10.6,3.7
				c-2.9,4.2-5,26.4-6.4,35.1C114.4,625.6,111.3,639.7,122.1,642.9z"/>
			<path class="st32" d="M251.5,509.9c0,0-11.5,17.8-45.9,27.9s-63.3-1.9-63.3-1.9s14.5-29.5,15-41.5c0.6-12,73,0,73,0
				S246.4,500.5,251.5,509.9z"/>
			<path class="st42" d="M96.9,360.6c1,5.7-4.4,11,3.8,13.7c8.2,2.7,12.6-6.6,24.1-10.1c11.5-3.5,18.1-4.5,19.8-9.3
				c1.6-4.7,4.7-29.7,4.7-30c0-0.3,16-6.3,16-6.3s5.4-0.1,4.5-8.5c-0.6-5.8-5.7-11.1-12.6-13.7c-3.2-1.2-6.8-1.8-10.5-1.5
				c-11.6,0.8-20.1,6.7-21.5,17.7c-1.4,11-15.4,7.7-20.1,11.7c-4.7,4,2.9,14.1-2.1,16.2c-5,2.1-13.2-2.3-17.3,6.4
				C81.5,355.4,95.9,354.9,96.9,360.6z"/>
			<path class="st41" d="M272.7,258c0.6-0.1,12-2.1,14.9-2.7c2.9-0.6,1.9,2.9-3.5,4.5s-14.2,2.1-14.2,2.1s13.6,1.3,13,2.1
				c-0.6,0.9-1,2.8-6.7,1.8c-5.7-1-8.6-0.9-8.6-0.9s-0.3-5.4,0-5.6C268.1,259.2,272.7,258,272.7,258z"/>
			<path class="st30" d="M241.2,286.1l9.2-11c0,0,11.5-14.7,13.2-16.3c1.7-1.5,9.6-5.3,12.8-8.6c3.2-3.3,5.3-4.9,6.2-3.8
				c0.9,1.2-1.8,5.3-5.4,8.8c-3.6,3.5-6.2,6.7-7.6,10c-1.4,3.3-0.7,8.7-0.7,8.7s4.6,2.1,8.7,2.1c4,0,6.4,3.1,5.2,4.4
				c-1.2,1.3-5.7-1.3-9.6-0.3c-4,1-9.1,3.1-11,3.5c-1.9,0.4-4.8-0.4-4.8-0.4l-6.7,13.5L241.2,286.1z"/>
			<path class="st32" d="M177.7,346l8.4,25.1l2.4,7.2c0,0,20.8-19.5,32.5-28.7c11.7-9.3,49.4-28.2,49.4-28.2
				c-0.8-3.2-1.9-6.3-3.3-9.2c-8.6-17.5-26.6-28.1-26.6-28.1s-24.3,31.7-31.4,38.1C202.1,328.6,177.7,346,177.7,346z"/>
			<path class="st31" d="M186.1,371.1l2.4,7.2c0,0,20.8-19.5,32.5-28.7c11.7-9.3,49.4-28.2,49.4-28.2c-0.8-3.2-1.9-6.3-3.3-9.2
				c-9.5,7-31.9,23.5-38.9,28.2C220.6,345.6,194,365.3,186.1,371.1z"/>
			<path class="st31" d="M208.2,325.3c0,0-2.4,7.9,2.4,11.6l-1.5-11.6c0,0,0.7,5.3,5.5,7.3l-5.1-9.5L208.2,325.3z"/>
			<path class="st31" d="M189.8,372.4l11.2-16c0,0-1.5,11.7-10.7,17.2L189.8,372.4z"/>
			<path class="st32" d="M185,524.4c0,0,40.4,0,66.5-14.5l-9.4-5.6l-23.2-5.3l-16.6,8L185,524.4z"/>
			<path class="st30" d="M203.1,554.7c0,0,1.4,1.4,3.6,3.6c4.3,4.2,11.6,11.1,17.9,15.6c9.5,6.9,29.2,14.6,36.1,9.3
				c6.9-5.4-14-16.2-14-16.2l-16.6-25.1l7.7-36h-25.7l-0.1,1.9l-1,32.1C205.1,548.2,203.1,554.7,203.1,554.7z"/>
			<path class="st31" d="M203.1,554.7c0,0,1.4,1.4,3.6,3.6c4.1-0.7,7.7-2.9,7-8.5c-1.6-12.1,3.2-42.6,3.2-42.6l-4.8,0.4l-1,32.1
				C205.1,548.2,203.1,554.7,203.1,554.7z"/>
			<path class="st45" d="M203.1,554.7c0,0,12,12.3,21.5,19.2c9.5,6.9,29.2,14.6,36.1,9.3c6.9-5.4-14-16.2-14-16.2
				c-9.7-2.2-15.3,1.2-15.3,1.2s-12.9-7.5-15.3-12c-2.5-4.5-5.1-16.3-5.1-16.3C205.1,548.2,203.1,554.7,203.1,554.7z"/>
			<path class="st37" d="M119.3,366.1c0,0,3.9,15.8,6.3,30.4c0.8,4.9,1.4,9.6,1.7,13.6c1.1,16,2.5,28.9,1.1,52.6
				c-1.4,23.7,9.6,36,28.9,41.4c19.3,5.4,32.8,7.3,32.8,7.3l-5.2,12.9c0,0,36.8-22,66.5-14.5c0,0,9.3-55.3-9.8-72.7
				c-18.3-16.7-43.4-3.7-45.4-2.6c-0.1,0.1-0.1,0.1-0.1,0.1l-0.2-5.4l-1.5-32c0,0,4.4-6.4-0.4-19c-4.8-12.6-16.3-32.3-16.3-32.3
				l-5.8,0.8l-26.3,3.4l-6.1,3.7L119.3,366.1z"/>
			<path class="st31" d="M127.3,410.1c1.1,16,2.5,28.9,1.1,52.6c-1.4,23.7,9.6,36,28.9,41.4c19.3,5.4,32.8,7.3,32.8,7.3
				c3.8-13.1-2.6-25.5-13.8-29.4c0.4,0.3,13.7,10.3,8.6,22.5c0,0-22.7,0.3-37.8-9.7c-15.1-10-10.6-36.4-10.1-53s-9.2-46.4-9.2-46.4
				l-2.3,1C126.4,401.4,127.1,406.1,127.3,410.1z"/>
			<path class="st38" d="M146.1,378.2c8.1,1.2,14.7-8.2,14.7-8.2c15.5,6.7,18.8-4.3,16.2-12.8c-1.8-5.7-3.9-8.9-5-10.4l-26.3,3.4
				l-6.1,3.7c-0.3,1.3-0.5,2.8-0.6,4.3C138.4,365.2,138,377.1,146.1,378.2z"/>
			<path class="st39" d="M141.9,347.7c0,0,1.5,9.2,5.4,14.2c1.8,2.3,4.8,4.2,7.6,5.6c3.1,1.6,5.9,2.4,5.9,2.4c0.7-0.8,1.4-1.6,2-2.4
				c5.9-8,6.5-17.1,6.5-17.1L141.9,347.7z"/>
			<path class="st37" d="M154.8,367.5c3.1,1.6,5.9,2.4,5.9,2.4c0.7-0.8,1.4-1.6,2-2.4l-2.2-5.4l-4.4,0.6L154.8,367.5z"/>
			<path class="st38" d="M163,358.8c0,0,0.1,3.7-2.3,5.2c-2.5,1.4-5.7,0.3-6.7-1.5c-1-1.8-1.3-4.4-1.3-4.4L163,358.8z"/>
			<path class="st42" d="M163.8,303.7c0.1-0.2,3.3-4.3,9.8-0.8c6.4,3.5,4.6,10.4,2.5,14.6s-0.1,6.2,0.6,9c0.7,2.8-3.8,4.5-2.5,7.8
				s0.4,7.4-4.4,8.5C164.9,343.9,163.8,303.7,163.8,303.7z"/>
			<path class="st30" d="M169.5,316.5c0,0,3.3,8.7,2.9,12.7c-0.4,3.9-0.6,6.4,0,8.9c0.7,2.5,1.6,8.6-2.6,14.5
				c-4.1,5.9-6,9.7-13.7,8.3c-7.7-1.4-17.9-11.7-18.9-24.9c-1.1-13.2,2.9-23.9,9.1-26S166.7,309.3,169.5,316.5z"/>
			<path class="st42" d="M137.1,331.5c-0.8,8.2,5.8,10.4,6.2,10.5c-6.5-3-3.6-12.9-3.6-12.9s4.5-0.8,6.5-4.6
				c1.9-3.9,1.4-7.3,4.5-9.3c3.1-2,6.8-0.6,8.8,1.5c1.9,2.1,5.9,2,5.9,2s5.4-0.1,4.5-8.5c-0.6-5.8-5.7-11.1-12.6-13.7l-13.8,5
				c0,0-9.7,10.2-10.1,17C132.8,325.2,137.1,331.5,137.1,331.5z"/>
			
				<ellipse transform="matrix(0.9875 -0.1577 0.1577 0.9875 -51.2349 25.3532)" class="st30" cx="134.1" cy="335.5" rx="4.6" ry="6"/>
			<g>
				<path class="st42" d="M170.9,327.5c0.4,0,0.8-0.2,1-0.5c0.5-0.6,0.5-1.5-0.1-2c-0.2-0.1-3.8-3.4-8-1.3c-0.7,0.4-1,1.2-0.6,1.9
					c0.4,0.7,1.2,1,1.9,0.6c2.4-1.2,4.7,0.8,4.8,0.9C170.3,327.4,170.6,327.5,170.9,327.5z"/>
			</g>
			<g>
				<path class="st42" d="M146.7,329.7c0.5,0,1-0.3,1.2-0.7c2.1-3.7,6.3-2,6.5-1.9c0.7,0.3,1.5-0.1,1.8-0.8c0.3-0.7-0.1-1.5-0.8-1.8
					c-2.3-0.9-7.4-1.4-10,3.2c-0.4,0.7-0.1,1.5,0.5,1.9C146.3,329.6,146.5,329.7,146.7,329.7z"/>
			</g>
			<path class="st41" d="M159.7,338.9c0.7,4.9,3.8,4.7,6.4,4.6c2.6-0.1,3.8-3.7,2.1-4.9c-1.7-1.2-4.3-1-4.3-1l-0.7-1.2l-2.9-5.2
				C160.2,331.2,159,334,159.7,338.9z"/>
			<path class="st31" d="M161.6,338.8c0,0,0.6-0.9,2.2-1.2l-0.7-1.2C161.6,337.1,161.6,338.8,161.6,338.8z"/>
			<path class="st42" d="M166.6,331.4c0,1.2,0.6,2.2,1.3,2.2c0.7,0,1.3-1,1.3-2.2c0-1.2-0.6-2.2-1.3-2.2
				C167.2,329.3,166.6,330.2,166.6,331.4z"/>
			<path class="st42" d="M152.7,332c0,1.2,0.6,2.2,1.3,2.2s1.3-1,1.3-2.2c0-1.2-0.6-2.2-1.3-2.2S152.7,330.9,152.7,332z"/>
			<path class="st31" d="M133.9,332.8c-0.1-0.1-0.3-0.1-0.5-0.1c-0.2,0-0.4,0-0.5,0.1c-0.4,0.2-0.6,0.7-0.8,1.1
				c-0.1-0.5,0-1.1,0.4-1.6c0.2-0.2,0.5-0.4,0.8-0.5c0.3-0.1,0.7-0.1,1,0c0.3,0.1,0.6,0.3,0.9,0.5c0.2,0.2,0.4,0.5,0.6,0.7
				c0.3,0.5,0.6,1,0.7,1.6c0,0.2,0,0.3,0,0.5c-0.2,0.4-0.6,0.6-1,0.4l-0.1-0.1c-0.1-0.1-0.4-0.1-0.5-0.1c-0.2,0-0.3,0-0.3,0.1
				c-0.1,0-0.2,0.1-0.2,0.3c0,0.1,0,0,0,0.2c0.1,0.2,0.4,0.6,0.8,0.9c0.4,0.3,0.8,0.6,1.3,0.9l0.1,0.1c0.1,0.1,0.2,0.2,0.3,0.4
				c0.1,0.3-0.1,0.7-0.4,0.8c-0.5,0.2-0.9,0.2-1.3,0.2c-0.4,0-0.9,0-1.4-0.2c-0.4-0.2-0.8-0.5-1.1-0.9c-0.2-0.4-0.3-0.8-0.3-1.2
				c0.2,0.3,0.4,0.7,0.7,0.9c0.3,0.2,0.6,0.3,0.9,0.3c0.1,0,0.3,0,0.4,0c0,0-0.1-0.1-0.1-0.1c-0.3-0.2-0.5-0.4-0.8-0.6
				c-0.2-0.2-0.5-0.6-0.6-1c-0.2-0.4-0.1-1.1,0.1-1.5c0.2-0.3,0.5-0.7,0.9-0.9c0.3-0.1,0.6-0.2,0.9-0.2
				C134.4,333.3,134.1,333,133.9,332.8z"/>
			<path class="st43" d="M167.9,346c0,0-0.4,0.9-4.8,1.5c-4.3,0.6-7.4-1.1-7.4-1.1s1.1,5.3,5.6,5.4C165.8,352,167.9,348.3,167.9,346
				z"/>
			<path class="st32" d="M90.9,347.7c0,0-4.5-2.5-20,1.9c-15.4,4.4-24.6,12.5-24.6,12.5s6,3.7,6.7,3.6c0.8-0.1,22.6,1.5,22.6,1.5
				l12.3-9.6L90.9,347.7z"/>
			<path class="st30" d="M71.6,364.1l1.1-23.6c0,0-4.8-12.2-4.8-16.7c0-4.5,9.4-6.8,11.3-7.4s9.8-1.3,11.1,1.5
				c1.3,2.9-4.1,19.8-4.1,19.8L88,354l-10.8,8.5L71.6,364.1z"/>
			<path class="st31" d="M75.6,328.9c0,0,2.3,2.5,2.9,5.3c0.5,2.8-1.9,5.2-1.9,5.2s2.8-0.7,3-5c0.2-4.3,5-8.4,5-8.4l-0.1-6.1
				L75.6,328.9z"/>
			<path class="st47" d="M67.8,344.3c0,0-11.9-0.4-9.5-11.8h6.5l3.1,3.6L67.8,344.3z"/>
			<path class="st31" d="M59.4,335.8c0,0.6,0.1,0.9,0.2,1.4c0.1,0.4,0.3,0.8,0.5,1.2c0.4,0.7,0.9,1.4,1.6,2c0.7,0.6,1.4,1.1,2.3,1.4
				c0.5,0.1,0.9,0.3,1.5,0.3c0.2,0,0.6,0,0.9-0.1c0.3-0.1,0.6-0.4,0.7-0.6c0.3-0.5,0.3-1,0.3-1.4c0-0.4-0.1-0.8-0.2-1.2
				c-0.2-0.8-0.5-1.5-0.9-2.2c0.1,0.8,0.1,1.5,0.1,2.3c0,0.4,0,0.7-0.1,1.1c-0.1,0.3-0.2,0.7-0.3,0.8c-0.1,0.1-0.1,0.1-0.2,0.1
				c-0.1,0-0.1,0-0.3,0c-0.3,0-0.6-0.1-1-0.3c-0.6-0.3-1.2-0.7-1.8-1.2c-0.5-0.5-1-1.1-1.4-1.7c-0.2-0.3-0.4-0.6-0.5-0.9
				c-0.1-0.2-0.2-0.5-0.3-0.7c0.3,0.1,0.7,0.3,1,0.5c0.7,0.4,1.3,0.9,1.9,1.5c-0.3-0.8-0.8-1.4-1.3-2c-0.3-0.3-0.6-0.6-1-0.8
				c-0.1-0.1-0.2-0.1-0.3-0.2c-0.1-0.1-0.3-0.1-0.5-0.1c-0.1,0-0.3,0-0.4,0.1c-0.2,0.1-0.3,0.2-0.4,0.3
				C59.5,335.5,59.4,335.7,59.4,335.8z"/>
			<path class="st39" d="M110,313.5c0,0-18-2.4-26.8,5.3c-8.8,7.7-15.3,25.5-15.3,25.5s-1.6-8.8-9.5-11.8c0,0,14.8-13.4,22.2-18.4
				c7.4-5,19.8-13.5,25.9-15.2C106.4,298.9,114,304,110,313.5z"/>
			<path class="st41" d="M80.5,312.2l5.4,10.5l3.6-1.2l2.2-0.7c0,0,0.6-4.4-1.3-7.2c-1.8-2.8-3.7-4.9-6.4-4.7
				c-1.3,0.1-2.2,0.9-2.7,1.7C80.7,311.4,80.5,312.2,80.5,312.2z"/>
			<path class="st31" d="M80.5,312.2l5.4,10.5l3.6-1.2c0.1-1.5,0-3.6-1.4-5.9c-1.7-2.8-4.9-4.4-6.8-5.1
				C80.7,311.4,80.5,312.2,80.5,312.2z"/>
			<path class="st41" d="M75.9,315.6l5,6.3c0,0,1.8,2.1,3.6,3c0.7,0.4,1.5,0.6,2,0.4c2-0.7,1.4-6.7,0-8.6c-1.4-1.9-4.4-5.8-7.7-5.1
				c-1.7,0.4-2.4,1.4-2.7,2.3C75.8,314.8,75.9,315.6,75.9,315.6z"/>
			<path class="st31" d="M75.9,315.6l5,6.3c0,0,1.8,2.1,3.6,3c0.2-1.3,0.5-5.2-1.5-8c-1.5-2.2-4.8-2.8-6.9-3
				C75.8,314.8,75.9,315.6,75.9,315.6z"/>
			<path class="st41" d="M70.4,320l4.1,1.5c0,0,0.8,3.6,3.9,4.8c0.9,0.4,1.7,0.4,2.4,0.1c1.5-0.5,2.3-2.2,2.4-3.3
				c0.1-1.6-1.1-6.5-2.7-7.2c-1.5-0.8-6.2-1.5-8.8,0c-1.1,0.7-1.5,1.6-1.6,2.3C70,319.1,70.4,320,70.4,320z"/>
			<path class="st31" d="M70.4,320l4.1,1.5c0,0,0.8,3.6,3.9,4.8c0.9,0.4,1.7,0.4,2.4,0.1c-0.1-2.5-0.6-6.8-2.9-7.8
				c-2.2-1-5.7-0.7-7.7-0.5C70,319.1,70.4,320,70.4,320z"/>
			<path class="st41" d="M67.9,323.8c-0.2-4.2,2.2-5.1,7-4.4c4.9,0.7,4.4,3.5,4.9,6c0.4,2.6-1.1,5.8-3.4,4.5
				c-2.3-1.3-2.3-5.2-2.3-5.2L67.9,323.8z"/>
			<path class="st37" d="M46.4,362.2c0,0,11,29.6,14.3,37.5c3.3,7.9,9.6,13.1,24.2,9.8c14.6-3.3,41.5-8,41.5-8s1-2.1,1.5-6
				c0,0,0,0,0,0c0.4-3,0.4-7-0.5-11.9c-2.2-11.5-8-17.5-8-17.5L92,378.3l-1.1-30.6c0,0-4.4,6.7-14.5,12.2
				c-4.6,2.6-11.4,3.2-17.3,3.2C52.2,363.1,46.4,362.2,46.4,362.2z"/>
			<path class="st31" d="M46.4,362.2c0,0,11,29.6,14.3,37.5c3.3,7.9,9.6,13.1,24.2,9.8c14.6-3.3,41.5-8,41.5-8s1-2.1,1.5-6
				c-0.6,0.1-39.2,8.9-41.6,9c-2.5,0.1-12.9,7.7-19.2,0c-5.2-6.2-7.3-31.9-7.9-41.4C52.2,363.1,46.4,362.2,46.4,362.2z"/>
			<path class="st31" d="M128.1,401.2l11.1-9c0,0-2.5,6.6-9.5,9l10.6,0.6C140.3,401.8,134.1,404.7,128.1,401.2z"/>
			<path class="st31" d="M124.6,400.3l-19.4-3.5C105.1,396.9,114.7,402.1,124.6,400.3z"/>
			<path class="st31" d="M92,378.3c-0.5,8.1-4,17.2-4,17.2s6.1-5.6,5.3-15.8l5,11.1c0,0,0.2-5.1-1.2-8C95.8,380,92,378.3,92,378.3z"
				/>
			<path class="st31" d="M180.4,401.1c0,0-8.1,28.5-18.4,40.3C162,441.4,179.1,436.2,180.4,401.1z"/>
			<path class="st31" d="M155.7,463.9c0,0,17.5-18.3,40.4-29.1l-0.2-5.4C164.6,444.7,155.7,463.9,155.7,463.9z"/>
			<path class="st30" d="M86.1,337.7c0,0,8-10.1,8.9-13c0.9-2.9-0.6-7.7-2.4-8c-1.8-0.3-8,5.5-9.3,7.3c-1.2,1.8,0,3.2,1.5,3.8l0,0
				c-0.1,0.1-0.6,0.4-1.2,1c-1.2,1.1-2.8,3-3.2,5.1C80,337.1,86.1,337.7,86.1,337.7z"/>
			<path class="st31" d="M83.7,328.8c1.2,0.2,3.3,0.2,5.3-0.8c3-1.6,3-4.7,3-4.7c-1.6,3.4-4.6,4.7-7.2,4.5l0,0
				C84.8,327.9,84.3,328.2,83.7,328.8z"/>
		</g>
	</g>
</g>
</svg>
