<svg xmlns="http://www.w3.org/2000/svg" xmlns:xlink="http://www.w3.org/1999/xlink" width="628.764" height="496.387" viewBox="0 0 628.764 496.387">
  <defs>
    <linearGradient id="linear-gradient" x1="1" y1="0.5" x2="0" y2="0.5" gradientUnits="objectBoundingBox">
      <stop offset="0.005" stop-color="#1a2257"/>
      <stop offset="1" stop-color="#5e60f2"/>
    </linearGradient>
    <linearGradient id="linear-gradient-2" x1="35.651" y1="0.5" x2="34.651" y2="0.5" gradientUnits="objectBoundingBox">
      <stop offset="0" stop-color="#3076a1"/>
      <stop offset="1" stop-color="#48c9b6"/>
    </linearGradient>
    <linearGradient id="linear-gradient-3" x1="18.756" x2="17.756" xlink:href="#linear-gradient-2"/>
    <linearGradient id="linear-gradient-4" x1="24.761" x2="23.761" xlink:href="#linear-gradient-2"/>
    <linearGradient id="linear-gradient-5" x1="18.099" x2="17.099" xlink:href="#linear-gradient-2"/>
    <linearGradient id="linear-gradient-6" x1="0.017" y1="0.961" x2="0.767" y2="0.108" xlink:href="#linear-gradient-2"/>
    <linearGradient id="linear-gradient-7" x1="0.921" y1="2.027" x2="0.515" y2="0.07" gradientUnits="objectBoundingBox">
      <stop offset="0" stop-color="#c9c4c1"/>
      <stop offset="1" stop-color="#fff6de"/>
    </linearGradient>
    <linearGradient id="linear-gradient-8" x1="1.105" y1="0.5" x2="0.105" y2="0.5" xlink:href="#linear-gradient-7"/>
  </defs>
  <g id="Group_10449" data-name="Group 10449" transform="translate(-178.057 -342.855)">
    <path id="Path_80" data-name="Path 80" d="M246.923,575.64" transform="translate(93.323 -78.844)" fill="none" stroke="#707070" stroke-width="1"/>
    <path id="Rectangle_233" data-name="Rectangle 233" d="M58.67,0h40.8a58.669,58.669,0,0,1,58.669,58.669v40.8a58.669,58.669,0,0,1-58.669,58.669h-40.8A58.669,58.669,0,0,1,0,99.465V58.67A58.67,58.67,0,0,1,58.67,0Z" transform="translate(420.496 412.587)" fill="rgba(246,246,246,0.4)" opacity="0.95"/>
    <rect id="Rectangle_234" data-name="Rectangle 234" width="73.213" height="3.617" transform="translate(462.956 534.719)" fill="#96bfe6"/>
    <rect id="Rectangle_235" data-name="Rectangle 235" width="52.474" height="3.617" transform="translate(473.326 546.115)" fill="#96bfe6"/>
    <rect id="Rectangle_236" data-name="Rectangle 236" width="216.425" height="254.033" rx="69.115" transform="translate(178.057 467.431)" fill="rgba(246,246,246,0.4)" opacity="0.95"/>
    <g id="Group_222" data-name="Group 222" transform="translate(279.187 617.295)">
      <rect id="Rectangle_237" data-name="Rectangle 237" width="17.165" height="3.179" transform="translate(0 0)" fill="#4598e6"/>
    </g>
    <g id="Group_223" data-name="Group 223" transform="translate(261.638 646.426)">
      <rect id="Rectangle_238" data-name="Rectangle 238" width="99.883" height="6.155" transform="translate(0 0)" fill="#96bfe6"/>
      <rect id="Rectangle_239" data-name="Rectangle 239" width="80.77" height="6.155" transform="translate(19.112 29.55)" fill="#96bfe6"/>
      <rect id="Rectangle_240" data-name="Rectangle 240" width="47.351" height="6.155" transform="translate(52.532 14.775)" fill="#96bfe6"/>
    </g>
    <g id="Group_224" data-name="Group 224" transform="translate(214.095 492.765)">
      <path id="Path_6406" data-name="Path 6406" d="M2011.307,763.9v3.109H1993v17.178H1989.9V763.9ZM2135.6,784.189h-3.109V767.011h-18.3V763.9H2135.6ZM1993,872.827v17.184h18.3v3.109H1989.9V872.827Zm139.489,0h3.109V893.12h-21.412v-3.109h18.3Z" transform="translate(-1989.895 -763.902)" fill="#4598e6"/>
    </g>
    <g id="Group_227" data-name="Group 227" transform="translate(205.48 645.974)">
      <g id="Group_225" data-name="Group 225" transform="translate(0)">
        <path id="Path_6407" data-name="Path 6407" d="M2400.828,1311.55a18.3,18.3,0,1,0-18.305-18.305A18.327,18.327,0,0,0,2400.828,1311.55Zm0-33.067a14.762,14.762,0,1,1-14.762,14.762A14.779,14.779,0,0,1,2400.828,1278.482Z" transform="translate(-2382.522 -1274.94)" fill="#4598e6"/>
      </g>
      <g id="Group_226" data-name="Group 226" transform="translate(8.821 12.353)">
        <path id="Path_6408" data-name="Path 6408" d="M2422.6,1329.3l8.316-8.317-2.5-2.505-5.811,5.811-8.146-8.146-2.505,2.505Z" transform="translate(-2411.947 -1316.143)" fill="#4598e6"/>
      </g>
    </g>
    <path id="Path_6409" data-name="Path 6409" d="M498.839,1840.757c0,7.677,132.981,13.9,297.021,13.9s297.022-6.224,297.022-13.9-132.981-13.9-297.022-13.9S498.839,1833.08,498.839,1840.757Z" transform="translate(-286.062 -1015.417)" fill="url(#linear-gradient)"/>
    <g id="Group_232" data-name="Group 232" transform="translate(447.879 405.27)">
      <path id="Path_6410" data-name="Path 6410" d="M1355.664,654.515c3.51-9.286,11.943-13.55,15.925-14.879,1.418-.471,3.95-1.3,6.618-2.161,4.808-1.554,10.06-3.244,10.06-3.244h16.589s5.744,1.925,11.85,4.065a.005.005,0,0,0,.005.005c5.624,1.972,11.546,4.123,13.545,5.127,4.17,2.082,11.185,16.966,12.6,18.672a131.259,131.259,0,0,1,7.188,13.152h-17.871c-1.889-3.244-3.343-5.76-3.343-5.76s-1.13,2.48-2.5,5.76h-57.255c-.9-3.809-1.47-8.606-1.47-8.606s-3.065,4.17-6.414,8.606h-16.5C1348.705,668.52,1353.686,659.757,1355.664,654.515Z" transform="translate(-1344.693 -585.612)" fill="#385369"/>
      <g id="Group_228" data-name="Group 228" transform="translate(38.691 2.912)">
        <path id="Path_6411" data-name="Path 6411" d="M1489.114,481.893s-12.971,2.043-11,22.338,13.423,18.631,14.188,18.611,11.493.37,12.329-24.409C1504.636,498.433,1505,480.11,1489.114,481.893Z" transform="translate(-1477.913 -481.771)" fill="#eea886"/>
      </g>
      <g id="Group_229" data-name="Group 229" transform="translate(36.681 18.97)">
        <path id="Path_6412" data-name="Path 6412" d="M1566.535,536s-1.42-1.517-1.942.019,1.938,8.386,2.026,8.707c0,0,.259.6.6.268S1566.535,536,1566.535,536Z" transform="translate(-1564.521 -535.336)" fill="#eea886"/>
      </g>
      <g id="Group_230" data-name="Group 230" transform="translate(64.47 18.691)">
        <path id="Path_6413" data-name="Path 6413" d="M1472.916,535.094s1.391-1.544,1.942-.019S1473.1,543.5,1473,543.82c0,0-.248.6-.595.279S1472.916,535.094,1472.916,535.094Z" transform="translate(-1472.322 -534.402)" fill="#eea886"/>
      </g>
      <g id="Group_231" data-name="Group 231" transform="translate(36.955)">
        <path id="Path_6414" data-name="Path 6414" d="M1474.664,494.811l1.857,2.483a49.6,49.6,0,0,1,.245-6.3c.3-.853.754-3.461,1-4.076s11.139-3.667,20.758.891c0,0-.423,3.914.5,4.262s.47,6.374.47,6.374l1.527-1.723s2.337-15.614,1.76-17.241-2.416-11.412-22.15-5.6c0,0-6.152-1.3-7.387,2.945S1474.664,494.811,1474.664,494.811Z" transform="translate(-1472.918 -472.059)" fill="#434343"/>
      </g>
      <path id="Path_6415" data-name="Path 6415" d="M1469.222,603.935c.006-.018,1.664-.818,1.664-.818.808-1.807.208-9.431.208-9.431s16.521-4.2,16.049-.99,1.423,10.685,1.423,10.685l8.475,4.208s-9.03,24.246-19.408,21.119-14.3-21.993-14.3-21.993Z" transform="translate(-1427.257 -555.682)" fill="#eea886"/>
      <path id="Path_6416" data-name="Path 6416" d="M1512.675,606.581a9.8,9.8,0,0,1-7.282,3.436c-3.038,0-5.22-.852-8.247-3.8,0,0,1.313,5.606,8.228,6.127C1505.374,612.34,1510.388,612.978,1512.675,606.581Z" transform="translate(-1453.027 -565.993)" fill="#a77860"/>
    </g>
    <g id="Group_289" data-name="Group 289" transform="translate(467.387 525.178)">
      <g id="Group_237" data-name="Group 237" transform="translate(77.204)">
        <g id="Group_236" data-name="Group 236">
          <g id="Group_235" data-name="Group 235">
            <g id="Group_234" data-name="Group 234">
              <g id="Group_233" data-name="Group 233">
                <path id="Path_6417" data-name="Path 6417" d="M1266.934,874.111s-9.532,4.662-7.176,17.346,3.4,14.393.763,19.349-5.747,26.1-3.374,30.1,29.367-17.61,33.111-35.747-2.373-26.2-4.534-29.209S1275.349,869.841,1266.934,874.111Z" transform="translate(-1256.303 -872.018)" fill="#0e2d3d"/>
              </g>
            </g>
          </g>
        </g>
      </g>
      <g id="Group_238" data-name="Group 238" transform="translate(65.434 270.095)">
        <path id="Path_6418" data-name="Path 6418" d="M1344.608,1799.295h-2.16v-10.188a28.936,28.936,0,0,0-6.9,6.73c-2.659,3.9-6.314,3.573-11.881,3.323s-5.318-2.492-4.819-5.65,6.148-4.154,7.977-4.653,5.977-7.647,7.312-9.389a23.858,23.858,0,0,0,2.783-4.652s1.039-4.238,6.19,0,3.656,12.379,3.074,13.127S1344.608,1799.295,1344.608,1799.295Z" transform="translate(-1318.611 -1772.933)" fill="#163342"/>
      </g>
      <g id="Group_239" data-name="Group 239" transform="translate(73.651 270.858)">
        <path id="Path_6419" data-name="Path 6419" d="M1334.044,1790.64c-1.911,1.247-6.9,0-6.9,0,1.412-1.828,10.095-14.041,10.095-14.041,5.276-3.075,7.361,1.156,7.361,1.156C1342.451,1778.414,1335.955,1789.394,1334.044,1790.64Z" transform="translate(-1327.148 -1775.48)" fill="#eea886"/>
      </g>
      <g id="Group_243" data-name="Group 243" transform="translate(11.582 92.332)">
        <g id="Group_242" data-name="Group 242">
          <g id="Group_241" data-name="Group 241">
            <g id="Group_240" data-name="Group 240">
              <path id="Path_6420" data-name="Path 6420" d="M1560.163,1185.733s-3.459.663-4.64-.963a11.291,11.291,0,0,0-4.009-2.771c-.945-.439-3.344-2.865-3.909-1.679s3.763,4.191,4.545,5-4.244,1.17-5.111,1.959.2,9.078,3.62,8.433,6.649-3.593,7.272-3.587a21.319,21.319,0,0,0,2.507-.371Z" transform="translate(-1546.752 -1179.997)" fill="#eea886"/>
            </g>
          </g>
        </g>
      </g>
      <g id="Group_247" data-name="Group 247" transform="translate(0 99.278)">
        <g id="Group_246" data-name="Group 246">
          <g id="Group_245" data-name="Group 245">
            <g id="Group_244" data-name="Group 244">
              <path id="Path_6421" data-name="Path 6421" d="M1592.552,1203.166s-10.34,2.671-10.88,3.426-.362,1.307.615,1.1,10.065-2.292,10.065-2.292-11.707,5.219-12.285,5.74c-.338.305-.057,1.394.476,1.33s12.433-4.573,12.433-4.573-10.922,4.892-11.275,5.472a.824.824,0,0,0,1.034,1.135c.835-.307,11.229-4.274,11.229-4.274s-7.726,4.06-7.735,4.727c-.006.408.193,1.36,2.154.25s6.861-3.243,6.861-3.243Z" transform="translate(-1579.92 -1203.166)" fill="#eea886"/>
            </g>
          </g>
        </g>
      </g>
      <g id="Group_248" data-name="Group 248" transform="translate(98.13 278.383)">
        <path id="Path_6422" data-name="Path 6422" d="M1251.964,1819.348h-1.329v-7.478a16.262,16.262,0,0,0-3.444,6c-1.081,3.573-4.948,4.632-10.847,4.466s-5.982-2.495-5.484-5.984,5.484-5.318,5.484-5.318c2.243-1.994,7.81-10.261,7.81-10.261a7.781,7.781,0,0,1,6.376,1.308c2.8,2.263,1.932,7.374,1.849,8.7S1251.964,1819.348,1251.964,1819.348Z" transform="translate(-1230.671 -1800.578)" fill="#163342"/>
      </g>
      <g id="Group_249" data-name="Group 249" transform="translate(93.666 116.067)">
        <path id="Path_6423" data-name="Path 6423" d="M1227.617,1262.117s7.029,9.139,8.936,19.982-1.126,47.234-1.043,52.593,5.069,18.694,4.072,28.789-4.932,60.339-4.932,60.339l-10.771-2.137s.623-51.222,0-55.459-1.874-19.683-2.123-21.428-15.823-47.56-15.823-55.377S1210.667,1249.363,1227.617,1262.117Z" transform="translate(-1205.931 -1259.166)" fill="#1d3b54"/>
      </g>
      <g id="Group_250" data-name="Group 250" transform="translate(63.763 120.302)">
        <path id="Path_6424" data-name="Path 6424" d="M1299.719,1275.581s-11.549,44.076-12.92,50.183-3.357,11.143-3.357,13.736c0,6.016,2.235,15.676,2.235,15.676l14.665,70.139h13.967s-7.782-42.079-7.991-50.307c-.21-8.246-6.558-19.957-5.312-23.447s20.065-43.744,20.065-43.744S1335.321,1262.786,1299.719,1275.581Z" transform="translate(-1283.443 -1273.293)" fill="#1d3b54"/>
      </g>
      <g id="Group_251" data-name="Group 251" transform="translate(103.802 278.583)">
        <path id="Path_6425" data-name="Path 6425" d="M1237.481,1811.507l7.81-10.261,6.377,1.308a28.915,28.915,0,0,1-4.815,8.048C1243.181,1814.694,1237.481,1811.507,1237.481,1811.507Z" transform="translate(-1237.481 -1801.246)" fill="#eea886"/>
      </g>
      <g id="Group_253" data-name="Group 253" transform="translate(21.577 47.688)">
        <g id="Group_252" data-name="Group 252">
          <path id="Path_6426" data-name="Path 6426" d="M1397.4,1031.084a14.412,14.412,0,0,0-8.359,4.3,55.164,55.164,0,0,0-7.917,12.057c-.942,2.056-14.151,21.108-14.836,21.537s-7.324,2.647-11.724,4.127c-6.789,2.285-20.4,7.23-20.4,7.23l2.7,8.557s25.59-8.373,32-9.952c7.836-1.931,25.877-25.075,25.877-25.075S1408.189,1038.108,1397.4,1031.084Z" transform="translate(-1334.162 -1031.084)" fill="#9456c8"/>
        </g>
      </g>
      <g id="Group_255" data-name="Group 255" transform="translate(72.333 44.025)">
        <g id="Group_254" data-name="Group 254">
          <path id="Path_6427" data-name="Path 6427" d="M1230.955,1019.188s-6.168,2.913-8.309,3.341-10.451,11.222-11.907,15.162,0,9.851,3,16.789.171,9.252,1.542,16.19.93,32.9.673,36.751,40.1,9.7,48.061,2.674c0,0-5.393-23.394-11.778-30.071-1.381-1.444-1.235-11.067-.293-13.465s11.564-20.3,11.564-20.3.78-18.158-3.855-21.758c-4.026-3.127-15-4.241-16.969-4.927S1234.981,1018.588,1230.955,1019.188Z" transform="translate(-1210.169 -1018.865)" fill="#ffbf55"/>
        </g>
      </g>
      <g id="Group_257" data-name="Group 257" transform="translate(90.174 28.79)">
        <g id="Group_256" data-name="Group 256" transform="translate(0)">
          <path id="Path_6428" data-name="Path 6428" d="M1281.321,976.488s.184,1.7.4,3.993c.082.908.172,1.911.254,2.937a69.352,69.352,0,0,1,.323,8.068s6.411,6.424,13.7-7.5a19.126,19.126,0,0,1-.757-13.554C1297.543,962.619,1281.321,976.488,1281.321,976.488Z" transform="translate(-1281.321 -968.047)" fill="#eea886"/>
        </g>
      </g>
      <g id="Group_258" data-name="Group 258" transform="translate(71.578 65.697)">
        <path id="Path_6429" data-name="Path 6429" d="M1380.611,1107.655s-1.543-10.261.1-16.5a39.851,39.851,0,0,0,2.942,12.986Z" transform="translate(-1379.954 -1091.154)" fill="#183c59"/>
      </g>
      <g id="Group_259" data-name="Group 259" transform="translate(85.846 44.573)">
        <path id="Path_6430" data-name="Path 6430" d="M1288.818,1021.842s-4.409,13.021-16.513,12.063-5.738-10.995-5.738-10.995a26.721,26.721,0,0,1,3.866-1.893c.849-.163,13.382-.322,13.382-.322Z" transform="translate(-1264.894 -1020.695)" fill="#eea886"/>
      </g>
      <g id="Group_260" data-name="Group 260" transform="translate(65.005 46.789)">
        <path id="Path_6431" data-name="Path 6431" d="M1361.626,1028.084s-6.34,17.537-6.34,35.41-.51,46.988-2.724,56.182-8.513,37.628-8.513,37.628l-4.938-2.554s11.874-45.38,12.77-48.652-.681-37.842-1.533-40.736-4.472-15.779-3.909-19.354c.71-4.506,4.926-11.174,11.736-16.907Z" transform="translate(-1339.112 -1028.084)" fill="#9456c8"/>
      </g>
      <g id="Group_261" data-name="Group 261" transform="translate(101.132 45.172)">
        <path id="Path_6432" data-name="Path 6432" d="M1189.88,1022.691a182.3,182.3,0,0,0-5.937,28.776c-2,16.159,6.129,91.164,11.577,108.19l21.113-3.405s-4.545-53.017-10.714-62.666-8.132-18.185-1.473-38.322-2.919-30.111-2.919-30.111S1191.731,1022.9,1189.88,1022.691Z" transform="translate(-1183.634 -1022.691)" fill="#9456c8"/>
      </g>
      <g id="Group_262" data-name="Group 262" transform="translate(84.601 81.604)">
        <path id="Path_6433" data-name="Path 6433" d="M1168.537,1161.286l25.6,44.339,28.458-16.43-24.487-44.981Z" transform="translate(-1168.537 -1144.214)" fill="#616161"/>
      </g>
      <g id="Group_263" data-name="Group 263" transform="translate(87.687 85.04)">
        <path id="Path_6434" data-name="Path 6434" d="M1178.415,1170.834l22.735,39.379,25.275-14.592-21.748-39.948Z" transform="translate(-1178.415 -1155.672)" fill="#e0cec7"/>
      </g>
      <g id="Group_264" data-name="Group 264" transform="translate(94.478 88.001)">
        <path id="Path_6435" data-name="Path 6435" d="M1276.759,1174.212l-1.6-2.764,10.218-5.9,1.995,2.534Z" transform="translate(-1275.163 -1165.549)" fill="#616161"/>
      </g>
      <g id="Group_270" data-name="Group 270" transform="translate(92.472 114.341)">
        <g id="Group_269" data-name="Group 269" transform="translate(0)">
          <g id="Group_268" data-name="Group 268">
            <g id="Group_267" data-name="Group 267">
              <g id="Group_266" data-name="Group 266">
                <g id="Group_265" data-name="Group 265">
                  <path id="Path_6436" data-name="Path 6436" d="M1272.177,1267.191a5.3,5.3,0,0,0,1.675-.241s.894-.519,1.552-.849a4.815,4.815,0,0,1,.519-.233,9.709,9.709,0,0,0,2.854-1.207,64.958,64.958,0,0,0,5.139-5.425l-1.893-2.879-1.388-2.948s-8.416.544-9.555,1.153a3.238,3.238,0,0,0-.315.191,12.329,12.329,0,0,0-1.781,1.822c-.162.139-1.68,1.624-1.626,2.256a2.074,2.074,0,0,0,1.008,1.746,4.96,4.96,0,0,0,1.062,2.512,3.082,3.082,0,0,0,1.483,2.281S1271.242,1266.96,1272.177,1267.191Z" transform="translate(-1267.355 -1253.408)" fill="#eea886"/>
                </g>
              </g>
            </g>
          </g>
        </g>
      </g>
      <g id="Group_272" data-name="Group 272" transform="translate(104.578 47.427)">
        <g id="Group_271" data-name="Group 271">
          <path id="Path_6437" data-name="Path 6437" d="M1176.418,1030.475s7.773-2.227,12.228,6.339,4.432,12.221,5.028,16.4c.562,3.949,3.1,14.733,3.356,15.847s6,14.393,3.369,19.034c-2.649,4.666-29.556,18.4-29.384,19.426s-4.66-10.382-4.66-10.382,10.887-6.068,12.67-7.937c2.9-3.035,9.007-6.305,7.751-10.07-1.474-4.423-5.9-19.344-6.932-21.528S1169.865,1033.259,1176.418,1030.475Z" transform="translate(-1166.355 -1030.215)" fill="#9456c8"/>
        </g>
      </g>
      <g id="Group_277" data-name="Group 277" transform="translate(80.655 3.095)">
        <g id="Group_276" data-name="Group 276" transform="translate(0)">
          <g id="Group_275" data-name="Group 275">
            <g id="Group_274" data-name="Group 274">
              <g id="Group_273" data-name="Group 273">
                <path id="Path_6438" data-name="Path 6438" d="M1281.124,882.746s-13.84,4.349-6.327,28.233,26.415-2.768,24.437-17.319S1281.124,882.746,1281.124,882.746Z" transform="translate(-1272.563 -882.342)" fill="#eea987"/>
              </g>
            </g>
          </g>
        </g>
      </g>
      <g id="Group_282" data-name="Group 282" transform="translate(80.504 1.177)">
        <g id="Group_281" data-name="Group 281" transform="translate(0)">
          <g id="Group_280" data-name="Group 280">
            <g id="Group_279" data-name="Group 279">
              <g id="Group_278" data-name="Group 278">
                <path id="Path_6439" data-name="Path 6439" d="M1269.894,892.2a31.221,31.221,0,0,0,18.386,7.592s4.423,5.186,4.763,7.221c0,0,10.268-17.5-2.354-27.994S1265.254,887.879,1269.894,892.2Z" transform="translate(-1268.922 -875.943)" fill="#0e2d3d"/>
              </g>
            </g>
          </g>
        </g>
      </g>
      <g id="Group_287" data-name="Group 287" transform="translate(99.708 20.723)">
        <g id="Group_286" data-name="Group 286" transform="translate(0)">
          <g id="Group_285" data-name="Group 285">
            <g id="Group_284" data-name="Group 284">
              <g id="Group_283" data-name="Group 283">
                <path id="Path_6440" data-name="Path 6440" d="M1282.4,945.92c.089-1.739,1.16-5.694,3.743-4.587s-.158,9.163-1.872,8.667C1284.275,950,1282.193,950.033,1282.4,945.92Z" transform="translate(-1282.389 -941.141)" fill="#eea987"/>
              </g>
            </g>
          </g>
        </g>
      </g>
      <g id="Group_288" data-name="Group 288" transform="translate(90.57 34.71)">
        <path id="Path_6441" data-name="Path 6441" d="M1294.095,994.308c.082.908.172,1.911.254,2.937,0,0,6.108-.364,10.191-9.451C1304.274,988.192,1299.8,994.767,1294.095,994.308Z" transform="translate(-1294.095 -987.795)" fill="#a77860"/>
      </g>
    </g>
    <g id="Group_295" data-name="Group 295" transform="translate(644.774 599.125)">
      <g id="Group_290" data-name="Group 290" transform="translate(27.384 41.969)">
        <path id="Path_6442" data-name="Path 6442" d="M857.969,1402.384c-8.874-6.24-19.26-49.732-19.879-75.637-.317-13.27-4.24-18.8-7.7-23.675-3.308-4.662-6.165-8.689-4.5-17.934,3.18-17.668-5.181-25.3-5.266-25.37l.968-1.1c.372.326,9.08,8.192,5.743,26.734-1.555,8.638,1.008,12.251,4.253,16.824,3.405,4.8,7.643,10.772,7.971,24.49.665,27.8,11.283,68.864,19.256,74.472Z" transform="translate(-820.622 -1258.664)" fill="url(#linear-gradient-2)"/>
      </g>
      <g id="Group_291" data-name="Group 291" transform="translate(57.058 101.795)">
        <path id="Path_6443" data-name="Path 6443" d="M643.72,1529.425c.838-1.9,1.7-3.862,2.686-5.934,5.069-10.7,9.56-12.464,17-15.383,1.818-.714,3.878-1.523,6.14-2.539,10.657-4.789,8.594-11.848,6.773-18.075-.255-.871-.509-1.74-.729-2.6-.937-3.663.864-5.5,3.59-8.281a31.087,31.087,0,0,0,6.491-8.7c2.127-4.447,1.043-6.831-.241-8.048-2.7-2.563-8.938-2.091-14.823,1.123a21.426,21.426,0,0,0-4.927,4.243c-3.752,3.929-8.422,8.819-20.232,8.874-6.734.031-10.423.961-12.333,3.108-2.168,2.436-1.76,6.083-1.194,11.131.2,1.746.418,3.725.552,5.863a34.2,34.2,0,0,1-6.8,22.047c-4.5,5.357-10.041,16.471-7.649,23.312,1,2.868,3.245,4.673,6.665,5.364a18.972,18.972,0,0,0,3.752.407C636.7,1545.334,639.723,1538.484,643.72,1529.425Zm27.59-67.152c5.256-2.869,10.892-3.448,13.11-1.345,1.686,1.6.891,4.335-.073,6.349a29.424,29.424,0,0,1-6.215,8.31c-2.853,2.91-5.105,5.209-3.963,9.672.224.875.482,1.76.742,2.647,1.813,6.2,3.525,12.059-5.967,16.325-2.229,1-4.272,1.8-6.075,2.511-7.51,2.947-12.472,4.894-17.79,16.121-.99,2.089-1.86,4.062-2.7,5.97-4.591,10.405-7.362,16.686-17.4,14.656-2.877-.581-4.751-2.065-5.571-4.409-2.108-6.029,2.936-16.584,7.389-21.886a35.055,35.055,0,0,0,7.14-23.082c-.137-2.174-.361-4.172-.558-5.934-.523-4.67-.9-8.045.831-9.992,1.584-1.78,5.052-2.587,11.244-2.616,12.434-.058,17.343-5.2,21.287-9.328a20.093,20.093,0,0,1,4.569-3.969Z" transform="translate(-617.445 -1458.216)" fill="url(#linear-gradient-3)"/>
      </g>
      <g id="Group_292" data-name="Group 292" transform="translate(62.992 113.515)">
        <path id="Path_6444" data-name="Path 6444" d="M656.88,1581.181l-1.465-.077c.072-1.377,1.921-33.834,14.953-43.333,14.3-10.422,18.805-21.621,20.952-29.139,2.53-8.858,15.406-11.225,15.952-11.322l.255,1.445c-.125.022-12.519,2.306-14.8,10.28-2.207,7.726-6.835,19.233-21.5,29.921C658.759,1548.048,656.9,1580.85,656.88,1581.181Z" transform="translate(-655.415 -1497.31)" fill="url(#linear-gradient-4)"/>
      </g>
      <g id="Group_293" data-name="Group 293" transform="translate(0)">
        <path id="Path_6445" data-name="Path 6445" d="M845.266,1323.36c3.066-1.527,2.955-7.667,2.787-16.961-.213-11.744-.5-27.828,5.644-42.622,6.531-15.715.706-20.309-4.927-24.751-6.309-4.975-12.268-9.674-.831-30.884,5.252-9.741,6.92-16.33,5.248-20.736-1.652-4.354-6.29-6.051-11.2-7.848-8.474-3.1-18.077-6.616-16.837-24.55.38-5.5-.266-8.879-2.034-10.64-1.921-1.913-4.752-1.705-8.029-1.466-4.952.362-10.561.773-15.447-5.6-.508-1.593-5.18-15.812-10.768-18.247a3.956,3.956,0,0,0-3.419.018h0c-3.858,1.845-6.1,4.034-6.844,6.69-1.3,4.621,2.084,9.833,6,15.868,6.159,9.484,13.141,20.233,5.9,33.025-9.573,16.914-4.517,22.833,2.482,31.025,4.009,4.693,8.553,10.012,11.591,18.689,2.443,6.978-1.724,13.631-5.755,20.065-5.056,8.071-10.284,16.417.724,23.659,18.2,11.974,36.173,51.059,36.353,51.453l.074.162.141.11c3.353,2.628,5.794,3.882,7.632,3.882A3.34,3.34,0,0,0,845.266,1323.36Zm-44.9-56.493c-9.809-6.453-5.4-13.5-.287-21.654,4.019-6.415,8.574-13.686,5.9-21.33-3.129-8.936-7.768-14.366-11.861-19.157-6.857-8.027-11.387-13.329-2.32-29.348,7.679-13.567.124-25.2-5.947-34.547-3.725-5.736-6.942-10.689-5.822-14.671.627-2.226,2.61-4.112,6.065-5.764h0a2.514,2.514,0,0,1,2.2,0c5.185,2.258,9.946,17.311,9.993,17.463l.038.122.077.1c5.385,7.116,11.714,6.653,16.8,6.281,3.039-.223,5.439-.4,6.886,1.042,1.425,1.419,1.95,4.526,1.606,9.5-1.317,19.034,9.281,22.913,17.8,26.03,4.785,1.751,8.917,3.263,10.331,6.99,1.509,3.978-.132,10.181-5.168,19.519-12.022,22.3-5.293,27.6,1.214,32.733,5.443,4.292,10.584,8.347,4.48,23.035-6.266,15.077-5.971,31.338-5.756,43.211.147,8.105.263,14.507-1.974,15.62-1.309.652-3.812-.449-7.443-3.273C835.713,1315.609,818.5,1278.8,800.361,1266.867Z" transform="translate(-778.327 -1118.674)" fill="url(#linear-gradient-5)"/>
      </g>
      <path id="Path_6446" data-name="Path 6446" d="M734.947,1232.305c-9.263-3.176-7.338,14.677-11.252,27.886s-43.541,5.762-26.907,38.839-21.037,11.062-9.785,39.926.979,59.735,13.209,51.883,6.871-44.2,19.591-48.519,14.8-9.356,2.2-21.1,33-23.4,21.749-47.106S745.648,1235.974,734.947,1232.305Z" transform="translate(-639.281 -1197.978)" fill="url(#linear-gradient-6)"/>
      <g id="Group_294" data-name="Group 294" transform="translate(59.44 75.219)">
        <path id="Path_6447" data-name="Path 6447" d="M746.252,1485.317c-1.165-4.941-11.113-48.426-1.83-53.683,8.181-4.633,7.979-22.652,6.7-39.667-1.13-15.063,18.215-22.1,19.039-22.395l.491,1.383c-.191.068-19.112,6.96-18.066,20.9,1.311,17.474,1.451,36.018-7.443,41.055-7.048,3.991-.559,38.939,2.536,52.068Z" transform="translate(-740.498 -1369.572)" fill="#fff"/>
      </g>
      <path id="Path_6448" data-name="Path 6448" d="M751.66,1704l13.225,50.173h29.554L807.663,1704Z" transform="translate(-721.413 -1528.516)" fill="url(#linear-gradient-7)"/>
      <path id="Path_6449" data-name="Path 6449" d="M751.66,1704s29.114,5.466,29.114,50.173h13.665L807.663,1704Z" transform="translate(-721.413 -1528.516)" fill="url(#linear-gradient-8)"/>
    </g>
    <path id="Rectangle_242" data-name="Rectangle 242" d="M48.233,0H67.948a48.233,48.233,0,0,1,48.233,48.233V56.4a48.234,48.234,0,0,1-48.234,48.234H48.233A48.233,48.233,0,0,1,0,56.4V48.233A48.233,48.233,0,0,1,48.233,0Z" transform="translate(288.781 354.027)" fill="rgba(246,246,246,0.4)" opacity="0.95"/>
    <g id="Group_296" data-name="Group 296" transform="translate(342.705 438.873)">
      <rect id="Rectangle_243" data-name="Rectangle 243" width="9.215" height="1.707" transform="translate(0 0)" fill="#4598e6"/>
    </g>
    <g id="Group_312" data-name="Group 312" transform="translate(325.039 342.855)">
      <g id="Group_299" data-name="Group 299" transform="translate(7.724)">
        <g id="Group_298" data-name="Group 298">
          <g id="Group_297" data-name="Group 297">
            <path id="Path_6450" data-name="Path 6450" d="M1997.693,265.88s-7.424,4.077-5.067,14.1,3.253,11.348,1.338,15.4-3.6,21.025-1.556,24.131,22.751-15.147,25.053-29.749-2.879-20.8-4.716-23.119S2004.242,262.158,1997.693,265.88Z" transform="translate(-1991.477 -263.873)" fill="#344052"/>
          </g>
        </g>
      </g>
      <g id="Group_300" data-name="Group 300" transform="translate(0 37.367)">
        <path id="Path_6451" data-name="Path 6451" d="M2034.544,436h7.949c.384-3.921.74-6.65.667-7.054-.117-.666,7.91-21.72,8.659-23.461s3.7-6.407,4.082-10.8-5.346-6.173-5.346-6.173c-7.74,1.387-10.361,12.093-10.361,12.093s-3.25,21.711-4.894,27.82A38.918,38.918,0,0,0,2034.544,436Z" transform="translate(-2034.544 -388.512)" fill="#eea886"/>
      </g>
      <path id="Path_6452" data-name="Path 6452" d="M2034.993,401.381l11.837,4.99s10.88-27,1.761-23.984C2039.5,385.392,2035.407,391.042,2034.993,401.381Z" transform="translate(-2030.992 -346.692)" fill="#eb4747"/>
      <g id="Group_301" data-name="Group 301" transform="translate(3.258 33.908)">
        <path id="Path_6453" data-name="Path 6453" d="M1973.575,410.468c.345,2.681,1.761,12.176,1.445,14.74-.053.423-.229,1.4-.491,2.719h28.541c-.759-2.71-1.45-5.108-1.868-6.5-1.387-4.6-.059-5.828.642-9.505.272-1.44,1.231-4.174,2.277-7.263.35-1.031.71-2.106,1.055-3.186a65.773,65.773,0,0,0,2.2-10.187c1.722-10.979-6.723-12.035-6.723-12.035-3.137-.579-8.619-2.272-8.619-2.272l-8.586,1.786a9.31,9.31,0,0,0-2.009,1.187s-.005,0-.005,0a15.694,15.694,0,0,0-1.931,1.693,51.868,51.868,0,0,0-4.67,6.752c-.569.929-1.144,1.883-1.684,2.821-1.746,3.021-2.987,5.458-2.948,8.206C1970.234,402.13,1973.23,407.787,1973.575,410.468Z" transform="translate(-1970.199 -376.975)" fill="#eb4747"/>
      </g>
      <path id="Path_6454" data-name="Path 6454" d="M2010.3,378.931s-5.379,9.193-3.379,9.88,12.543-1.635,16.662-10.321C2023.588,378.49,2016.667,375.345,2010.3,378.931Z" transform="translate(-1993.799 -343.234)" fill="#eea886"/>
      <path id="Path_6455" data-name="Path 6455" d="M2012.854,355.6s4.778,2.022,9.1-4.634c0,0-1.162-7.558,1.3-11.93s-10.744,5.241-10.744,5.241.214.9.435,2.232c.113.681.229,1.473.318,2.314.074.7.132,1.436.157,2.169A11.866,11.866,0,0,1,2012.854,355.6Z" transform="translate(-1995.578 -315.701)" fill="#eea886"/>
      <path id="Path_6456" data-name="Path 6456" d="M1978.307,431.289c.984,5.059,8.041,11.4,8.041,11.4.349-1.034.709-2.107,1.054-3.185A46.18,46.18,0,0,1,1978.307,431.289Z" transform="translate(-1949.167 -381.098)" fill="#393d63"/>
      <g id="Group_302" data-name="Group 302" transform="translate(28.67 37.697)">
        <path id="Path_6457" data-name="Path 6457" d="M1963.528,406.135c.447,1.844,2.5,20.519,2.281,21.156-.131.365-1.128,4.685-2.126,9.486h9.214c.944-3.094,1.5-5.663,1.367-7.117-.589-6.3,1.547-26.381,1.547-26.381s1.912-12.147-8.168-13.665c0,0-5.954.784-6.314,5.181S1963.08,404.3,1963.528,406.135Z" transform="translate(-1961.288 -389.615)" fill="#eea886"/>
      </g>
      <path id="Path_6458" data-name="Path 6458" d="M1974.986,405.431l-12.509,2.922s-9.923-19.266-.986-22.784C1970.911,381.861,1977.244,394.922,1974.986,405.431Z" transform="translate(-1931.049 -348.634)" fill="#eb4747"/>
      <g id="Group_305" data-name="Group 305" transform="translate(8.827 2.574)">
        <g id="Group_304" data-name="Group 304">
          <g id="Group_303" data-name="Group 303">
            <path id="Path_6459" data-name="Path 6459" d="M2011.5,272.962s-10.871,3.99-3.981,22.75,20.957-3.2,18.832-14.731S2011.5,272.962,2011.5,272.962Z" transform="translate(-2005.231 -272.459)" fill="#eea987"/>
          </g>
        </g>
      </g>
      <g id="Group_308" data-name="Group 308" transform="translate(8.568 1.016)">
        <g id="Group_307" data-name="Group 307">
          <g id="Group_306" data-name="Group 306">
            <path id="Path_6460" data-name="Path 6460" d="M2004.782,280.725a24.918,24.918,0,0,0,14.945,5.361s2.152,5.246,2.5,6.856c0,0,9.1-15.62-1.362-23.509S2000.92,277.453,2004.782,280.725Z" transform="translate(-2003.902 -267.262)" fill="#344052"/>
          </g>
        </g>
      </g>
      <g id="Group_311" data-name="Group 311" transform="translate(23.15 17.045)">
        <g id="Group_310" data-name="Group 310" transform="translate(0)">
          <g id="Group_309" data-name="Group 309">
            <path id="Path_6461" data-name="Path 6461" d="M2016.107,324.648c.006-1.389.71-4.584,2.812-3.8s.219,7.312-1.166,6.981C2017.753,327.831,2016.094,327.935,2016.107,324.648Z" transform="translate(-2016.107 -320.727)" fill="#eea987"/>
          </g>
        </g>
      </g>
      <path id="Path_6462" data-name="Path 6462" d="M2022.682,365.446a11.563,11.563,0,0,0,7.145-6.445c-4.154,5.368-7.288,4.6-7.288,4.6C2022.613,364.3,2022.619,364.736,2022.682,365.446Z" transform="translate(-2004.853 -330.482)" fill="#a77860"/>
    </g>
    <g id="Group_313" data-name="Group 313" transform="translate(307.762 372.963)">
      <path id="Path_6463" data-name="Path 6463" d="M1914.064,364.3v1.669h-9.825v9.222h-1.669V364.3Zm66.724,10.89h-1.669v-9.222h-9.825V364.3h11.495Zm-76.55,47.583v9.225h9.825v1.669H1902.57V422.77Zm74.88,0h1.669v10.894h-11.495v-1.669h9.825Z" transform="translate(-1902.57 -364.297)" fill="#4598e6"/>
    </g>
    <g id="Group_314" data-name="Group 314" transform="translate(493.408 517.05)">
      <rect id="Rectangle_244" data-name="Rectangle 244" width="12.308" height="2.28" transform="translate(0)" fill="#4598e6"/>
    </g>
    <g id="Group_315" data-name="Group 315" transform="translate(447.324 429.013)">
      <path id="Path_6464" data-name="Path 6464" d="M1364.823,551.257v2.229H1351.7V565.8h-2.229V551.257Zm89.123,14.546h-2.229V553.486h-13.124v-2.229h15.353ZM1351.7,629.359v12.322h13.124v2.229H1349.47V629.359Zm100.018,0h2.229V643.91h-15.353v-2.229h13.124Z" transform="translate(-1349.47 -551.257)" fill="#4598e6"/>
    </g>
    <g id="Group_331" data-name="Group 331" transform="translate(224.313 450.09)">
      <g id="Group_316" data-name="Group 316" transform="translate(0.317 70.236)">
        <path id="Path_6465" data-name="Path 6465" d="M2001.815,935.775h10.411c.19-.417.344-.779.471-1.069,3.09-7.294,19.009-24.02,19.009-24.02v.036a.03.03,0,0,1,.01.018v.018c.009.027.018.045.027.072s.018.082.037.136a.319.319,0,0,1,.018.09c.009.027.018.046.028.072.652,2.438,3.86,14.579,5.463,24.645h70.447c.162-.933.353-1.822.57-2.646a57.063,57.063,0,0,0,1.36-7.285c.009-.118.026-.226.036-.344.054-.426.1-.852.136-1.269a66.809,66.809,0,0,0,.118-11.661c.2.426,1.622,5.645,3.488,12.087,1.024,3.534,2.184,7.439,3.334,11.118h16.636l-20.875-60.226c-.462-.362-5.881-2.981-9.831-4.865-4.032-1.921-8.9-4.739-13.292-7.149-2.247-1.232-4.367-2.347-6.207-3.19l-.281-.127v-.009c-3.035-1.387-5.056-2.3-5.056-2.3h-.009c-.073-.009-.553-.055-1.314-.127-4.24-.408-17.4-1.64-21.8-1.893-.362-.028-.67-.036-.906-.046a3.664,3.664,0,0,0-.444,0,55.519,55.519,0,0,0-6.832,2.338c-.136.046-.272.1-.407.154-.173.064-.336.127-.508.19-.308.118-.625.236-.942.363-.635.253-1.3.507-1.957.77-.227.091-.462.181-.7.272-7.131,2.827-15.3,6.333-17.243,7.729-1.286.915-5.282,8.444-9.912,17.759C2009.915,901.381,2003.817,924.413,2001.815,935.775Z" transform="translate(-2001.815 -855.835)" fill="#decbc4"/>
      </g>
      <g id="Group_317" data-name="Group 317" transform="translate(52.014 46.585)">
        <path id="Path_6466" data-name="Path 6466" d="M2186.13,798.555c.188,9.47,18.523,14.65,18.523,14.65s7.669-9.615,5.837-10.536c-.719-.362-1.011-1.8-1.1-3.406a33.229,33.229,0,0,1,.1-4.295c.054-.67.106-1.1.106-1.1s-2.619-2.764-5.952-6.057c-5.824-5.759-13.83-13.135-13.843-10.2a2.631,2.631,0,0,0,.068.556C2191.279,784.771,2186.13,798.555,2186.13,798.555Z" transform="translate(-2186.13 -776.945)" fill="#eea886"/>
      </g>
      <g id="Group_318" data-name="Group 318" transform="translate(59.075 54.321)">
        <path id="Path_6467" data-name="Path 6467" d="M2184.324,802.748v0c.036.055.814,1.218,2.141,2.888,2.815,3.54,8.106,9.357,14.055,11.693a33.23,33.23,0,0,1,.1-4.295,9.556,9.556,0,0,0,1.821-.219,56.517,56.517,0,0,0-3.987-5.837l-3.681-1.1Z" transform="translate(-2184.324 -802.748)" fill="#a77860"/>
      </g>
      <g id="Group_319" data-name="Group 319" transform="translate(49.312 15.555)">
        <path id="Path_6468" data-name="Path 6468" d="M2149.323,705.266c1.586,3.45,3.093,5.951,3.52,6.942v0a12.251,12.251,0,0,0,2.141,2.888c3.021,3.255,8.638,7.548,14.159,7.4a9.571,9.571,0,0,0,1.821-.219,8.663,8.663,0,0,0,6.311-4.359c11.438-22.4,3.157-40.708,3.157-40.708s-31.277-8.845-36.17.57C2140.829,684.384,2145.6,697.159,2149.323,705.266Z" transform="translate(-2143.08 -673.442)" fill="#eea886"/>
      </g>
      <g id="Group_320" data-name="Group 320" transform="translate(44.626)">
        <path id="Path_6469" data-name="Path 6469" d="M2182.042,640.881s2.9-.161,3.623-5.668c.71-5.441-.726-6.949-.726-6.949s-12.912-5.405-17.549-6.108-16.039-1.378-18.711,1.678c0,0-6.493-1.509-8.262,9.271-2.806,17.1,9.563,33.707,9.563,33.707s-.105-11.172,2.358-12.653,4.59,2.04,4.59,2.04l5.04.9s-7.655-16.529,1.528-17.141S2176.786,641.839,2182.042,640.881Z" transform="translate(-2140.003 -621.559)" fill="#e8734d"/>
      </g>
      <g id="Group_321" data-name="Group 321" transform="translate(52.601 25.472)">
        <path id="Path_6470" data-name="Path 6470" d="M2245.245,711.238c-.479-4.922-9.38-6.8-8.784-1.642s4.98,10.116,7,9.941S2245.61,714.989,2245.245,711.238Z" transform="translate(-2236.432 -706.523)" fill="#eea886"/>
      </g>
      <g id="Group_322" data-name="Group 322" transform="translate(0 72.581)">
        <path id="Path_6471" data-name="Path 6471" d="M2220.052,891.353c2.9-9.287,5.409-16.635,6.524-17.433,1.948-1.4,17.388-5.645,24.718-8.517.236-.091.471-.181.7-.272.661-.263,1.323-.517,1.957-.77.317-.127.634-.245.942-.363.172-.063.335-.127.508-.19.135-.055.271-.109.407-.154.009.009.018.027.036.036a120.367,120.367,0,0,1,8.091,10.348c7.575,10.764,17.442,28.206,15.928,44.306-.489,5.165-1.087,12.585-2.093,20.912-.073.661-.154,1.323-.245,1.993h-34.177c-.417-8.717-1.16-20.2-2.283-24.645-.009-.027-.018-.045-.028-.073a.329.329,0,0,0-.018-.09c-.009-.046-.027-.09-.037-.136-.009-.027-.018-.045-.027-.072v-.018a.031.031,0,0,0-.009-.018s-8.272,12.93-8.7,25.053h-21.51C2211.789,929.988,2215.078,907.291,2220.052,891.353Z" transform="translate(-2210.738 -863.655)" fill="#3c4145"/>
      </g>
      <g id="Group_323" data-name="Group 323" transform="translate(81.564 74.746)">
        <path id="Path_6472" data-name="Path 6472" d="M1990.573,870.987s2.583,8.59,5.917,30.036v.009c.118.716.227,1.45.344,2.2.009.082.027.172.036.263.082.489.154,1,.227,1.5.009.063.018.118.027.181.054.335.109.679.154,1.032.127.843.254,1.713.38,2.592,1.251,8.752,2.918,22.661,4.612,37.5h13.51a63.015,63.015,0,0,0,1.368-10.447,1.274,1.274,0,0,1,.063.172c1.078,2.99,2.265,6.243,3.47,9.4l.326.87h23.286L2021.1,885.629c-.462-.363-6.433-3.579-10.384-5.454-4.123-1.966-9.333-4.386-13.954-6.515-2.21-1.024-4.286-1.975-6.043-2.782Z" transform="translate(-1990.573 -870.878)" fill="#3c4145"/>
      </g>
      <g id="Group_324" data-name="Group 324" transform="translate(41.253 72.581)">
        <path id="Path_6473" data-name="Path 6473" d="M2219.641,887.149l8.925,5.038-3.814,3.887,8.372,45.176h3.153c1.16-9.133,1.821-17.333,2.338-22.905,2.329-24.9-22.516-52.977-24.056-54.69-1.2.453-2.482.952-3.815,1.477Z" transform="translate(-2210.743 -863.655)" fill="#51565c"/>
      </g>
      <g id="Group_325" data-name="Group 325" transform="translate(81.428 74.619)">
        <path id="Path_6474" data-name="Path 6474" d="M2120.589,870.455s3.334,10.882,7.212,38.055c1.25,8.743,2.927,22.661,4.621,37.5h1.314l1.73-42.684-4.249-4.6L2135,894l-8.083-20.64c-2.21-1.024-4.286-1.975-6.043-2.782Z" transform="translate(-2120.589 -870.455)" fill="#51565c"/>
      </g>
      <g id="Group_326" data-name="Group 326" transform="translate(44.618 68.195)">
        <path id="Path_6475" data-name="Path 6475" d="M2206.544,853.52l7.4-4.492s.207,4.056,18.523,14.65l-5.2,14.65Z" transform="translate(-2206.544 -849.028)" fill="#f5e2d9"/>
      </g>
      <g id="Group_327" data-name="Group 327" transform="translate(70.536 70.239)">
        <path id="Path_6476" data-name="Path 6476" d="M2175.088,855.844s-.288,4.377-4.872,12.607l10.151,13.233.74-21.463Z" transform="translate(-2170.216 -855.844)" fill="#f5e2d9"/>
      </g>
      <g id="Group_328" data-name="Group 328" transform="translate(69.095 82.846)">
        <path id="Path_6477" data-name="Path 6477" d="M2187.448,897.895s-1.967,7.869-1.259,10.072c0,0,4.326,1.574,7.436-.393A34.568,34.568,0,0,0,2187.448,897.895Z" transform="translate(-2186.035 -897.895)" fill="#d44040"/>
      </g>
      <g id="Group_329" data-name="Group 329" transform="translate(70.51 90.711)">
        <path id="Path_6478" data-name="Path 6478" d="M2166.08,943.021a197.845,197.845,0,0,1,1.3,40.574h8.671c.117-1.712.227-3.5.335-5.364,1.613-27.988-8.281-53-8.281-53l-4.413-1.1S2165.119,936.5,2166.08,943.021Z" transform="translate(-2163.697 -924.13)" fill="#d44040"/>
      </g>
      <g id="Group_330" data-name="Group 330" transform="translate(105.537 110.356)">
        <path id="Path_6479" data-name="Path 6479" d="M2070.652,1006.343c.33,6.716.281,12.679.281,12.679v0c0,.033.009.214.023.514.014-.114.028-.225.042-.337,1.074,2.989,2.265,6.239,3.466,9.4a100.709,100.709,0,0,0,.27-10.247c-.481-18.829-6.4-28.7-6.4-28.7C2069.689,992.938,2070.341,999.979,2070.652,1006.343Z" transform="translate(-2068.331 -989.656)" fill="#2d3133"/>
      </g>
    </g>
    <g id="Group_354" data-name="Group 354" transform="translate(342.01 525.178)">
      <g id="Group_332" data-name="Group 332" transform="translate(71.21 34.926)">
        <path id="Path_6480" data-name="Path 6480" d="M1626.5,1028.759l27.7,15.229,27.822-43.782-33.65-11.689Z" transform="translate(-1626.504 -988.517)" fill="#292c47"/>
      </g>
      <g id="Group_333" data-name="Group 333" transform="translate(72.966 36.219)">
        <path id="Path_6481" data-name="Path 6481" d="M1632.65,1030.464l25.909,14.241,26.018-40.944-31.469-10.931Z" transform="translate(-1632.65 -992.83)" fill="#fff"/>
      </g>
      <g id="Group_334" data-name="Group 334" transform="translate(63.478 57.097)">
        <path id="Path_6482" data-name="Path 6482" d="M1727.931,1071.567s4.822-2.306,6.939-3.511,7.561-2.86,8-3.253,16.14-1.361,17.092-2.183,1.878,1.925-2.191,2.817-9.732,3.07-10.041,4.661,4.18,1.967,4.634,3.277-.128,1.016-.771,1.3-5.34-2.32-7.4-1.582-5.222-.284-6.8.258-9.279,3.131-9.279,3.131Z" transform="translate(-1727.931 -1062.468)" fill="#eea886"/>
      </g>
      <g id="Group_335" data-name="Group 335" transform="translate(95.704 57.141)">
        <path id="Path_6483" data-name="Path 6483" d="M1648.6,1090.379s4.051-3.646,6.011-5.172,5.639-6.012,6.181-6.273,7.568-14.679,8.713-15.257-1.083-2.52-3.508.968-6.683,7.975-8.3,7.648-.226-4.7-1.284-5.644-1.007-.275-1.523.222.107,5.935-1.393,7.594-1.766,5.031-2.892,6.312-6.564,7.525-6.564,7.525Z" transform="translate(-1644.04 -1062.617)" fill="#eea886"/>
      </g>
      <g id="Group_336" data-name="Group 336" transform="translate(1.507 278.997)">
        <path id="Path_6484" data-name="Path 6484" d="M2017.319,1803.41s-.876,6.082-.986,7-9.748-.538-9.748-.538l-.781-7.241S2016.114,1802.552,2017.319,1803.41Z" transform="translate(-2005.805 -1802.625)" fill="#424773"/>
      </g>
      <g id="Group_337" data-name="Group 337" transform="translate(0 285.592)">
        <path id="Path_6485" data-name="Path 6485" d="M1965.1,1825.037a26.011,26.011,0,0,0,6.008,5.262c2.954,1.6,7.6,2.23,9.342,3.884,1.26,1.194,4.592,6.333-7.675,6.229s-18.182.726-19.5-1.244,1.9-14.543,1.9-14.543S1958.082,1825.67,1965.1,1825.037Z" transform="translate(-1952.959 -1824.625)" fill="#292c47"/>
      </g>
      <g id="Group_338" data-name="Group 338" transform="translate(70.569 278.997)">
        <path id="Path_6486" data-name="Path 6486" d="M1786.959,1803.41s-.876,6.082-.986,7-9.748-.538-9.748-.538l-.781-7.241S1785.754,1802.552,1786.959,1803.41Z" transform="translate(-1775.445 -1802.625)" fill="#424773"/>
      </g>
      <g id="Group_339" data-name="Group 339" transform="translate(69.062 285.592)">
        <path id="Path_6487" data-name="Path 6487" d="M1715.837,1825.037a26.011,26.011,0,0,0,6.008,5.262c2.954,1.6,13.823,2.91,15.57,4.563,1.261,1.194,3.357,6-13.9,5.55-12.263-.319-18.182.726-19.5-1.244s1.9-14.543,1.9-14.543S1708.654,1825.741,1715.837,1825.037Z" transform="translate(-1703.7 -1824.625)" fill="#292c47"/>
      </g>
      <g id="Group_340" data-name="Group 340" transform="translate(0 123.49)">
        <path id="Path_6488" data-name="Path 6488" d="M1926.42,1283.926s-9.057,14.389-8.381,27.4-3.284,27.208-4.645,40.8c-1.517,15.147-7.724,51.008-7.949,59.11s.964,33.976.964,33.976l12.425.284s10.435-62.692,13.138-69.089,16.105-52,16.555-57.118S1926.42,1283.926,1926.42,1283.926Z" transform="translate(-1905.418 -1283.926)" fill="#292c47"/>
      </g>
      <g id="Group_341" data-name="Group 341" transform="translate(16.445 121.011)">
        <path id="Path_6489" data-name="Path 6489" d="M1822.079,1280.086s6.825,35.65,7.726,43.611,1.5,38.525,1.952,43.5,3,65.109,5.405,72.5h-15.885s-12.193-43.714-12.193-64.4-9.421-44.965-15.5-58.611-20-13.969-23.738-39.289C1769.845,1277.4,1817.018,1272.056,1822.079,1280.086Z" transform="translate(-1769.845 -1275.658)" fill="#292c47"/>
      </g>
      <g id="Group_342" data-name="Group 342" transform="translate(28.508 1.4)">
        <path id="Path_6490" data-name="Path 6490" d="M1864.165,877.8s12.156-4.54,17.761,4.713,5.065,27.779-1.062,30.057-15.332,1.087-18.469-4.7-5.969-14.161-5.833-19.755S1860.973,879.419,1864.165,877.8Z" transform="translate(-1856.557 -876.69)" fill="#eea886"/>
      </g>
      <g id="Group_343" data-name="Group 343" transform="translate(31.97 26.17)">
        <path id="Path_6491" data-name="Path 6491" d="M1895.794,970.848s-.506,3.282.33,4.9-15.749,1.659-15.749,1.659a109.265,109.265,0,0,0-3.9-16.224C1873.925,953.752,1895.794,970.848,1895.794,970.848Z" transform="translate(-1876.27 -959.311)" fill="#eea886"/>
      </g>
      <g id="Group_344" data-name="Group 344" transform="translate(27.496)">
        <path id="Path_6492" data-name="Path 6492" d="M1862.978,900.06s1.144,1.888,5.817,1.155,10.373-6.949,12.324-7.632,1.969-1.828,1.969-1.828l1.221,1.784,2.072.131s-1.889-5.561.961-7.829-2.959-18-17.944-12.762c0,0-11.51,3.172-11.091,9.718S1860.4,896.8,1862.978,900.06Z" transform="translate(-1858.297 -872.019)" fill="#3a3f47"/>
      </g>
      <g id="Group_345" data-name="Group 345" transform="translate(34.183 37.868)">
        <path id="Path_6493" data-name="Path 6493" d="M1891.714,1002.873s-.052-3.089-1.453-3.385-15.455-1.647-17.174-.972v3.6S1876.4,1004.153,1891.714,1002.873Z" transform="translate(-1873.088 -998.33)" fill="#e2d2ca"/>
      </g>
      <g id="Group_346" data-name="Group 346" transform="translate(47.61 14.97)">
        <path id="Path_6494" data-name="Path 6494" d="M1879,924.338c-.262-1.1-3.054-4.235-4.123-.876s1.615,7.878,3.112,7.491S1879.667,927.121,1879,924.338Z" transform="translate(-1874.634 -921.951)" fill="#eea886"/>
      </g>
      <g id="Group_347" data-name="Group 347" transform="translate(108.569 78.908)">
        <path id="Path_6495" data-name="Path 6495" d="M1686.855,1135.222a.042.042,0,0,0-.023,0C1686.928,1135.263,1686.942,1135.267,1686.855,1135.222Z" transform="translate(-1686.832 -1135.22)" fill="#323657"/>
      </g>
      <g id="Group_348" data-name="Group 348" transform="translate(7.961 41.653)">
        <path id="Path_6496" data-name="Path 6496" d="M1689.93,1127.071a128.573,128.573,0,0,0,20.168,3.6c12.713,1.4,44.477-.507,44.677-2.007s-6.833-55.925-6.432-58.729.615-12.789.615-12.789c.157,2.736,2.945,13.913,6.309,20.006,1.216,2.2,5.295,9.1,7.26,7.532,9.516-7.6,24.251-36.228,25.185-36.469-.786-.342-6.983-3.2-7.853-3.485-.762-.254-7.627,7.014-11.786,11.52-1.855,2.009-3.171,3.468-3.171,3.468-1.2-2.7-5.576-19.727-6.935-25.62-3.067-13.288-2.6-13.84-2.6-13.84-9.3-2.813-23.417-8.54-23.417-8.54l-18.627-.759s-17.1,3.763-23.828,6.8c-.638.288-.642,15.251-2.394,19.175l5.582,11.776s3.224,23.327,3.893,33.7C1696.887,1087.174,1689.93,1127.071,1689.93,1127.071Z" transform="translate(-1687.105 -1010.954)" fill="#ffdf69"/>
      </g>
      <g id="Group_349" data-name="Group 349" transform="translate(5.718 48.457)">
        <path id="Path_6497" data-name="Path 6497" d="M1957.565,1072.25c.487,1.57,2.695,2.9,4.129,3.477a5.335,5.335,0,0,0,2.982.3l.73-.135h0l12.765-2.368s2.793-32.167-17.438-39.874C1960.2,1033.825,1953.1,1057.848,1957.565,1072.25Z" transform="translate(-1956.097 -1033.65)" fill="#ffdf69"/>
      </g>
      <g id="Group_350" data-name="Group 350" transform="translate(11.316 74.261)">
        <path id="Path_6498" data-name="Path 6498" d="M1999.111,1135.992h0a5.335,5.335,0,0,0,2.982.3l.729-.135h0l-1.259-16.437Z" transform="translate(-1999.111 -1119.72)" fill="#ab9546"/>
      </g>
      <g id="Group_351" data-name="Group 351" transform="translate(85.757 86.943)">
        <path id="Path_6499" data-name="Path 6499" d="M1752.6,1165.491l1.56,6.607s1.693-6.63,1.612-10.075C1753.919,1164.032,1752.6,1165.491,1752.6,1165.491Z" transform="translate(-1752.603 -1162.023)" fill="#ab9546"/>
      </g>
      <g id="Group_352" data-name="Group 352" transform="translate(25.492 3.572)">
        <path id="Path_6500" data-name="Path 6500" d="M1947.481,883.968s-15.931-2-.271,24.616Z" transform="translate(-1940.32 -883.934)" fill="#3a3f47"/>
      </g>
      <g id="Group_353" data-name="Group 353" transform="translate(101.174 37.082)">
        <path id="Path_6501" data-name="Path 6501" d="M1676.577,1002.892l1.619-2.782-12.755-4.4-1.619,2.767Z" transform="translate(-1663.822 -995.709)" fill="#292c47"/>
      </g>
    </g>
  </g>
</svg>
