<svg xmlns="http://www.w3.org/2000/svg" width="625.029" height="417.941" viewBox="0 0 625.029 417.941">
  <g id="Group_360" data-name="Group 360" transform="translate(0)">
    <rect id="Rectangle_245" data-name="Rectangle 245" width="460.016" height="294.615" transform="translate(164.816 0.261)" fill="#e6e6e6"/>
    <rect id="Rectangle_246" data-name="Rectangle 246" width="433.708" height="112.31" transform="translate(177.97 37.213)" fill="#fff"/>
    <rect id="Rectangle_247" data-name="Rectangle 247" width="91.719" height="5.265" transform="translate(412.079 53.435)" fill="#e6e6e6"/>
    <rect id="Rectangle_248" data-name="Rectangle 248" width="141.635" height="5.265" transform="translate(362.163 72.641)" fill="#9456c8"/>
    <rect id="Rectangle_249" data-name="Rectangle 249" width="115.429" height="5.265" transform="translate(388.369 90.735)" fill="#e6e6e6"/>
    <rect id="Rectangle_250" data-name="Rectangle 250" width="67.386" height="5.265" transform="translate(436.412 108.761)" fill="#e6e6e6"/>
    <rect id="Rectangle_251" data-name="Rectangle 251" width="101.703" height="5.265" transform="translate(402.095 126.787)" fill="#e6e6e6"/>
    <rect id="Rectangle_252" data-name="Rectangle 252" width="11.231" height="11.231" transform="translate(534.371 51.563)" fill="#e6e6e6"/>
    <rect id="Rectangle_253" data-name="Rectangle 253" width="11.231" height="11.231" transform="translate(534.371 69.658)" fill="#9456c8"/>
    <rect id="Rectangle_254" data-name="Rectangle 254" width="11.231" height="11.231" transform="translate(534.371 87.752)" fill="#e6e6e6"/>
    <rect id="Rectangle_255" data-name="Rectangle 255" width="11.231" height="11.231" transform="translate(534.371 105.847)" fill="#e6e6e6"/>
    <rect id="Rectangle_256" data-name="Rectangle 256" width="11.231" height="11.231" transform="translate(534.371 123.941)" fill="#e6e6e6"/>
    <rect id="Rectangle_257" data-name="Rectangle 257" width="37.437" height="37.437" transform="translate(238.622 77.145)" fill="#e6e6e6"/>
    <rect id="Rectangle_258" data-name="Rectangle 258" width="433.708" height="112.31" transform="translate(177.97 165.121)" fill="#fff"/>
    <rect id="Rectangle_259" data-name="Rectangle 259" width="11.231" height="11.231" transform="translate(515.029 175.102)" fill="#e6e6e6"/>
    <rect id="Rectangle_260" data-name="Rectangle 260" width="11.231" height="11.231" transform="translate(534.371 175.102)" fill="#9456c8"/>
    <path id="Path_6502" data-name="Path 6502" d="M428.687,422.77a42.529,42.529,0,0,1,68.654-6.342l2.737-2.392a46.156,46.156,0,0,0-74.519,6.882Z" transform="translate(-73.507 -223.108)" fill="#e6e6e6"/>
    <path id="Path_6503" data-name="Path 6503" d="M540.581,482.132,543.6,480.1a42.55,42.55,0,0,1-1.3-45.321l-3.128-1.851a46.185,46.185,0,0,0,1.415,49.2Z" transform="translate(-187.114 -235.121)" fill="#9456c8"/>
    <path id="Path_6504" data-name="Path 6504" d="M410.845,483.551a46.153,46.153,0,0,0,.379-61.147l-2.737,2.392a42.519,42.519,0,0,1-.349,56.33Z" transform="translate(15.347 -231.477)" fill="#9456c8"/>
    <path id="Path_6505" data-name="Path 6505" d="M464.472,527.545a46.231,46.231,0,0,0,34.391-15.374l-2.707-2.425a42.527,42.527,0,0,1-67-4.667l-3.016,2.028a46.13,46.13,0,0,0,38.334,20.438Z" transform="translate(-72.672 -260.096)" fill="#9456c8"/>
    <rect id="Rectangle_261" data-name="Rectangle 261" width="37.437" height="37.437" transform="translate(238.622 199.438)" fill="#e6e6e6"/>
    <rect id="Rectangle_262" data-name="Rectangle 262" width="37.437" height="37.437" transform="translate(509.725 223.771)" fill="#e6e6e6"/>
    <path id="Path_6518" data-name="Path 6518" d="M0,0H460.016V19.543H0Z" transform="translate(165.013)" fill="#9456c8"/>
    <circle id="Ellipse_8" data-name="Ellipse 8" cx="3.622" cy="3.622" r="3.622" transform="translate(606.884 6.369)" fill="#fff"/>
    <circle id="Ellipse_9" data-name="Ellipse 9" cx="3.622" cy="3.622" r="3.622" transform="translate(593.135 6.369)" fill="#fff"/>
    <circle id="Ellipse_10" data-name="Ellipse 10" cx="3.622" cy="3.622" r="3.622" transform="translate(579.386 6.369)" fill="#fff"/>
    <path id="Path_6506" data-name="Path 6506" d="M830.908,604.685H821.6l-4.431-35.921H830.91Z" transform="translate(-740.165 -196.891)" fill="#ffb8b8"/>
    <path id="Path_6507" data-name="Path 6507" d="M965.587,749.442H947.246a11.688,11.688,0,0,0-11.688,11.687v.38h30.028Z" transform="translate(-872.468 -344.688)" fill="#2f2e41"/>
    <path id="Path_6508" data-name="Path 6508" d="M816.079,555.731l-6.872,6.285L781.694,538.5l10.143-9.276Z" transform="translate(-702.141 -183.204)" fill="#ffb8b8"/>
    <path id="Path_6509" data-name="Path 6509" d="M909.053,694.271l-13.534,12.377h0a11.688,11.688,0,0,0-.737,16.513l.256.28L917.2,703.176Z" transform="translate(-795.415 -325.59)" fill="#2f2e41"/>
    <path id="Path_6510" data-name="Path 6510" d="M794.062,425.881,796.7,478.67l-6.6,57.409,19.8,2.64,12.537-72.586,3.96-49.491Z" transform="translate(-717.955 -144.231)" fill="#2f2e41"/>
    <path id="Path_6511" data-name="Path 6511" d="M914.026,517.567s-7.918,52.13,8.578,69.287,38.932,47.511,38.932,47.511l15.835-19.8-40.252-42.892,7.918-29.034,32.334-15.177-5.279-36.293-47.511-.66Z" transform="translate(-868.931 -255.054)" fill="#2f2e41"/>
    <circle id="Ellipse_11" data-name="Ellipse 11" cx="16.161" cy="16.161" r="16.161" transform="translate(65.268 109.436)" fill="#ffb8b8"/>
    <path id="Path_6512" data-name="Path 6512" d="M813.307,227.224l-2.475,3.75-6.6,18.476,5.279,71.925,31.014.66,3.959-82.484-8.294-10.367Z" transform="translate(-745.283 -78.659)" fill="#ccc"/>
    <path id="Path_6513" data-name="Path 6513" d="M889.457,379.147l5.279-.66s1.32.66,1.98,5.279,8.578,45.531,8.578,45.531l-10.558,50.15L882.858,463.61l7.258-27.715-7.259-27.715Z" transform="translate(-777.718 -216.273)" fill="#2f2e41"/>
    <path id="Path_6514" data-name="Path 6514" d="M889.745,248.1h-3.959l-9.9,53.449,9.238,41.572,9.239-15.177-2.64-16.5,1.319-14.517,4.619-8.579Z" transform="translate(-845.313 -85.885)" fill="#2f2e41"/>
    <path id="Path_6515" data-name="Path 6515" d="M935.275,309.221l2.938-.735s2.2-12.488,7.346-11.019,18.365,2.938,18.365-2.938-12.488-11.019-19.834-10.284-16.728,3.172-19.1,13.957c-3.8,17.29,7.844,21.657,7.844,21.657l-.194-.629a9.8,9.8,0,0,1,2.634-10.009Z" transform="translate(-863.396 -183.625)" fill="#2f2e41"/>
    <path id="Path_6516" data-name="Path 6516" d="M978.822,370.974,957.707,362.4l-4.949-3.629L937.91,424.424l-9.9-29.694,2.969-37.943L903.6,370.975l9.238,44.871L914.155,433,910.2,446.86s-13.857,9.9-9.238,20.456,9.9,11.218,9.9,11.218,22.435-21.116,23.755-26.395,3.3-14.517,3.3-14.517,11.218,42.232,24.415,41.572,13.2-14.517,13.2-14.517l-3.3-14.517-5.279-15.177,2.64-25.075Z" transform="translate(-862.464 -208.761)" fill="#2f2e41"/>
    <path id="Path_6517" data-name="Path 6517" d="M808.634,768.92H983.859a.654.654,0,0,0,0-1.308H808.634a.654.654,0,0,0,0,1.308Z" transform="translate(-807.98 -350.978)" fill="#ccc"/>
  </g>
</svg>
