<svg xmlns="http://www.w3.org/2000/svg" width="457.907" height="340.486" viewBox="0 0 457.907 340.486">
  <g id="Group_11275" data-name="Group 11275" transform="translate(-2213.803 -2192.5)">
    <g id="Group_380" data-name="Group 380">
      <path id="Path_6737" data-name="Path 6737" d="M1030.57,141.945H576.275a1.807,1.807,0,1,1,0-3.614h454.293a1.807,1.807,0,1,1,0,3.614Z" transform="translate(1639.335 2085.039)" fill="#cacaca"/>
      <ellipse id="Ellipse_53" data-name="Ellipse 53" cx="10.587" cy="10.823" rx="10.587" ry="10.823" transform="translate(2235.947 2192.5)" fill="#3f3d56"/>
      <ellipse id="Ellipse_54" data-name="Ellipse 54" cx="10.587" cy="10.823" rx="10.587" ry="10.823" transform="translate(2272.521 2192.5)" fill="#3f3d56"/>
      <ellipse id="Ellipse_55" data-name="Ellipse 55" cx="10.587" cy="10.823" rx="10.587" ry="10.823" transform="translate(2309.096 2192.5)" fill="#3f3d56"/>
      <path id="Path_6738" data-name="Path 6738" d="M1008.55,110.143H982.569a1.967,1.967,0,1,0,0,3.935h25.981a1.967,1.967,0,1,0,0-3.935Z" transform="translate(1639.335 2085.039)" fill="#3f3d56"/>
      <path id="Path_6739" data-name="Path 6739" d="M1008.55,117.528H982.569a1.967,1.967,0,1,0,0,3.935h25.981a1.967,1.967,0,1,0,0-3.935Z" transform="translate(1639.335 2085.039)" fill="#3f3d56"/>
      <path id="Path_6740" data-name="Path 6740" d="M1008.55,124.9H982.569a1.967,1.967,0,1,0,0,3.935h25.981a1.967,1.967,0,1,0,0-3.935Z" transform="translate(1639.335 2085.039)" fill="#3f3d56"/>
      <circle id="Ellipse_56" data-name="Ellipse 56" cx="13.089" cy="13.089" r="13.089" transform="translate(2484.434 2271.206)" fill="#e6e7e8"/>
      <path id="Path_6742" data-name="Path 6742" d="M968.51,228.24H849a3.9,3.9,0,1,1,0-7.8H968.51a3.9,3.9,0,0,1,0,7.8Z" transform="translate(1639.335 2085.039)" fill="#e6e7e8"/>
      <path id="Path_6743" data-name="Path 6743" d="M878.68,243.642H849a3.9,3.9,0,1,1,0-7.8H878.68a3.9,3.9,0,0,1,0,7.8Z" transform="translate(1639.335 2085.039)" fill="#e6e7e8"/>
      <circle id="Ellipse_57" data-name="Ellipse 57" cx="13.089" cy="13.089" r="13.089" transform="translate(2484.434 2475.51)" fill="#e6e7e8"/>
      <path id="Path_6744" data-name="Path 6744" d="M968.51,432.545H849a3.9,3.9,0,1,1,0-7.8H968.51a3.9,3.9,0,0,1,0,7.8Z" transform="translate(1639.335 2085.039)" fill="#e6e7e8"/>
      <path id="Path_6745" data-name="Path 6745" d="M878.68,447.947H849a3.9,3.9,0,0,1,0-7.8H878.68a3.9,3.9,0,1,1,0,7.8Z" transform="translate(1639.335 2085.039)" fill="#e6e7e8"/>
      <circle id="Ellipse_58" data-name="Ellipse 58" cx="13.089" cy="13.089" r="13.089" transform="translate(2273.77 2444.507)" fill="#e6e7e8"/>
      <path id="Path_6746" data-name="Path 6746" d="M757.846,401.542H638.332a3.9,3.9,0,1,1,0-7.8H757.846a3.9,3.9,0,0,1,0,7.8Z" transform="translate(1639.335 2085.039)" fill="#e6e7e8"/>
      <path id="Path_6747" data-name="Path 6747" d="M668.016,416.944H638.332a3.9,3.9,0,1,1,0-7.8h29.684a3.9,3.9,0,0,1,0,7.8Z" transform="translate(1639.335 2085.039)" fill="#e6e7e8"/>
      <circle id="Ellipse_59" data-name="Ellipse 59" cx="13.089" cy="13.089" r="13.089" transform="translate(2484.434 2365.658)" fill="#e6e7e8"/>
      <path id="Path_6748" data-name="Path 6748" d="M968.51,322.692H849a3.9,3.9,0,1,1,0-7.8H968.51a3.9,3.9,0,0,1,0,7.8Z" transform="translate(1639.335 2085.039)" fill="#e6e7e8"/>
      <path id="Path_6749" data-name="Path 6749" d="M920.813,338.094H849a3.9,3.9,0,0,1,0-7.8h71.816a3.9,3.9,0,1,1,0,7.8Z" transform="translate(1639.335 2085.039)" fill="#e6e7e8"/>
      <path id="Path_6750" data-name="Path 6750" d="M900.8,353.5H849a3.9,3.9,0,0,1,0-7.8H900.8a3.9,3.9,0,0,1,0,7.8Z" transform="translate(1639.335 2085.039)" fill="#e6e7e8"/>
      <path id="Path_6751" data-name="Path 6751" d="M738.847,208.649V346.076a3.625,3.625,0,0,1-3.616,3.621h-72.41a88.849,88.849,0,0,1-19.387-26.085c-.316-.632-.617-1.269-.9-1.916a88,88,0,0,1-7.824-30.125c-.054-.642-.1-1.279-.128-1.926-.1-1.655-.143-3.334-.143-5.018a88.44,88.44,0,0,1,6.238-32.743c.247-.647.509-1.289.78-1.926A88.974,88.974,0,0,1,665.9,216.823q.948-.808,1.917-1.571l.148-.119a46.837,46.837,0,0,1,29.226-10.116h38.043a3.627,3.627,0,0,1,3.615,3.631Z" transform="translate(1639.335 2085.039)" fill="#6c63ff"/>
      <path id="Path_6752" data-name="Path 6752" d="M739.04,251.883v-1.926H706.746V205.018h-1.921v44.938H667.814v-34.7q-.971.763-1.916,1.571v33.133H641.453c-.272.637-.533,1.279-.78,1.926H665.9v37.761H634.577c.03.647.074,1.284.128,1.926H665.9V321.7H642.53c.286.647.588,1.284.9,1.916H665.9v25.324h1.916V323.612h37.011v25.324h1.921V323.612H739.04V321.7H706.747a30.12,30.12,0,0,1,30.131-30.125h2.162v-1.926H706.747V251.883ZM704.825,321.7H667.814V291.571h37.011Zm0-32.051H667.814v-.756a37.008,37.008,0,0,1,37.009-37.006Z" transform="translate(1639.335 2085.039)" opacity="0.2"/>
      <path id="Path_6753" data-name="Path 6753" d="M735.4,322.181a3.78,3.78,0,0,1-2.739-6.551l.259-1.03-.1-.247c-3.48-8.3-25.685,14.833-26.645,22.632a30.029,30.029,0,0,0,.527,10.328,120.391,120.391,0,0,1-10.952-50,116.221,116.221,0,0,1,.721-12.963q.6-5.293,1.657-10.511a121.787,121.787,0,0,1,24.151-51.617c6.874.384,12.9-.663,13.48-13.985.1-2.37,1.861-4.422,2.248-6.756-.656.086-1.323.14-1.979.183l-.624.032-.077,0a3.745,3.745,0,0,1-3.076-6.1l.851-1.046c.43-.538.871-1.065,1.3-1.6a1.883,1.883,0,0,0,.14-.161c.495-.613.99-1.216,1.485-1.829a10.828,10.828,0,0,0-3.55-3.432c-4.959-2.9-11.8-.893-15.384,3.593s-4.271,10.779-3.023,16.384a43.4,43.4,0,0,0,6,13.383c-.269.344-.549.678-.818,1.022a122.574,122.574,0,0,0-12.794,20.268c1.016-7.939-11.412-36.608-16.218-42.68-5.773-7.294-17.611-4.111-18.628,5.136q-.015.134-.029.268,1.071.6,2.1,1.282a5.127,5.127,0,0,1-2.067,9.33l-.1.016c-9.556,13.644,21.077,49.155,28.745,41.181a125.113,125.113,0,0,0-6.734,31.693,118.666,118.666,0,0,0,.086,19.16l-.032-.226c-1.7-13.882-30.931-34.523-39.466-32.8-4.917.99-9.76.765-9.013,5.725q.018.119.036.237a34.442,34.442,0,0,1,3.862,1.861q1.071.6,2.1,1.282a5.127,5.127,0,0,1-2.067,9.33l-.1.016-.215.032c-4.35,14.966,27.907,39.12,47.518,31.435h.011a125.072,125.072,0,0,0,8.4,24.528h30.015c.108-.333.2-.678.3-1.011a34.1,34.1,0,0,1-8.305-.495c2.227-2.733,4.454-5.487,6.681-8.219a1.865,1.865,0,0,0,.14-.161c1.13-1.4,2.27-2.786,3.4-4.185v0a49.95,49.95,0,0,0-1.464-12.725Zm-34.371-67.613.016-.021-.016.043ZM694.379,314.5l-.258-.581c.011-.42.011-.839,0-1.269,0-.118-.021-.237-.021-.355.1.742.183,1.485.29,2.227Z" transform="translate(1639.335 2085.039)" fill="#2f2e41"/>
    </g>
  </g>
</svg>
