<svg xmlns="http://www.w3.org/2000/svg" xmlns:xlink="http://www.w3.org/1999/xlink" width="353.963" height="297.037" viewBox="0 0 353.963 297.037">
  <defs>
    <filter id="Path_6612" x="249.328" y="109.956" width="59.307" height="65.739" filterUnits="userSpaceOnUse">
      <feOffset dy="3" input="SourceAlpha"/>
      <feGaussianBlur stdDeviation="3" result="blur"/>
      <feFlood flood-opacity="0.161"/>
      <feComposite operator="in" in2="blur"/>
      <feComposite in="SourceGraphic"/>
    </filter>
    <filter id="Path_6613" x="293.148" y="55.315" width="59.306" height="65.739" filterUnits="userSpaceOnUse">
      <feOffset dy="3" input="SourceAlpha"/>
      <feGaussianBlur stdDeviation="3" result="blur-2"/>
      <feFlood flood-opacity="0.161"/>
      <feComposite operator="in" in2="blur-2"/>
      <feComposite in="SourceGraphic"/>
    </filter>
    <filter id="Path_6614" x="220.082" y="40.533" width="59.985" height="66.523" filterUnits="userSpaceOnUse">
      <feOffset dy="3" input="SourceAlpha"/>
      <feGaussianBlur stdDeviation="3" result="blur-3"/>
      <feFlood flood-opacity="0.161"/>
      <feComposite operator="in" in2="blur-3"/>
      <feComposite in="SourceGraphic"/>
    </filter>
  </defs>
  <g id="Group_11269" data-name="Group 11269" transform="translate(0 -21)">
    <path id="Path_6607" data-name="Path 6607" d="M424.438,611.593c-.68,5.343-2.847,10.317-5.409,15.1-.231.443-.469.885-.713,1.321H375.741c-.872-.4-1.73-.845-2.569-1.321a36.527,36.527,0,0,1-3.229-2.067c-12.556-9.042-17.39-26.142-15.2-41.458,1.354-9.524,5.528-19.24,13.665-24.365a20.517,20.517,0,0,1,14.755-2.583c.125.02.258.053.39.079a15.219,15.219,0,0,1,10.2,7.166c3.877,6.889,1.572,15.422-.337,23.09s-2.932,16.849,2.589,22.5a14.074,14.074,0,0,1,16.36-18.295c.4.086.793.185,1.182.3a12.834,12.834,0,0,1,2.695,1.123C422.741,595.827,425.375,604.2,424.438,611.593Z" transform="translate(-336.549 -309.982)" fill="#f2f2f2"/>
    <path id="Path_6608" data-name="Path 6608" d="M398.738,626.785q1.575.723,3.2,1.321h-3.025c-.918-.409-1.823-.845-2.714-1.321a37.479,37.479,0,0,1-11.413-9.095,30.423,30.423,0,0,1-4.7-7.688,34.861,34.861,0,0,1-2.411-9.841,69.888,69.888,0,0,1,1.387-20.864,86.815,86.815,0,0,1,6.8-20.409c.37-.779.759-1.552,1.156-2.318a.441.441,0,0,1,.3-.258.493.493,0,0,1,.39.079.612.612,0,0,1,.245.813,85.66,85.66,0,0,0-7.219,19.675,75.527,75.527,0,0,0-2.146,20.475,32.591,32.591,0,0,0,5.753,17.919,36.193,36.193,0,0,0,13.533,11.109C398.162,626.521,398.446,626.653,398.738,626.785Z" transform="translate(-340.715 -310.069)" fill="#fff"/>
    <path id="Path_6609" data-name="Path 6609" d="M423.881,634.347c.291.449.6.892.938,1.321h-1.407c-.311-.429-.6-.872-.885-1.321A32.527,32.527,0,0,1,418.042,623a31.664,31.664,0,0,1,2.734-19.7,32.374,32.374,0,0,1,2.946-4.881c.4.086.793.185,1.182.3a31.116,31.116,0,0,0-5.806,13.315,30.64,30.64,0,0,0,2.7,18.7,29.216,29.216,0,0,0,2.081,3.606Z" transform="translate(-347.914 -317.631)" fill="#fff"/>
    <path id="Path_6610" data-name="Path 6610" d="M835.8,280.19H697.141a.82.82,0,1,1,0-1.641H835.8a.82.82,0,1,1,0,1.641Z" transform="translate(-482.653 -239.196)" fill="#3f3d56"/>
    <path id="Path_6611" data-name="Path 6611" d="M800.368,262.743H753.6a3.282,3.282,0,0,1,0-6.564h46.765a3.282,3.282,0,1,1,0,6.564Z" transform="translate(-492.349 -235.179)" fill="#ccc"/>
    <g transform="matrix(1, 0, 0, 1, 0, 21)" filter="url(#Path_6612)">
      <path id="Path_6612-2" data-name="Path 6612" d="M751.519,443.918a3.544,3.544,0,0,1-.662-3.04,83.953,83.953,0,0,0,0-38.992,3.545,3.545,0,0,1,.663-3.04,3.485,3.485,0,0,1,2.753-1.334h32.713a3.529,3.529,0,0,1,3.476,2.958,137.411,137.411,0,0,1,0,41.822,3.529,3.529,0,0,1-3.476,2.958H754.271a3.485,3.485,0,0,1-2.753-1.334Z" transform="translate(-492.43 -281.56)" fill="#e6e6e6"/>
    </g>
    <g transform="matrix(1, 0, 0, 1, 0, 21)" filter="url(#Path_6613)">
      <path id="Path_6613-2" data-name="Path 6613" d="M805.767,375.693a137.407,137.407,0,0,1,0-41.822,3.529,3.529,0,0,1,3.476-2.958h32.713a3.484,3.484,0,0,1,2.753,1.334,3.545,3.545,0,0,1,.662,3.039,83.951,83.951,0,0,0,0,38.992,3.543,3.543,0,0,1-.662,3.039,3.484,3.484,0,0,1-2.753,1.334H809.242A3.529,3.529,0,0,1,805.767,375.693Z" transform="translate(-502.02 -269.6)" fill="#6c63ff"/>
    </g>
    <g transform="matrix(1, 0, 0, 1, 0, 21)" filter="url(#Path_6614)">
      <path id="Path_6614-2" data-name="Path 6614" d="M715.885,360.063a3.6,3.6,0,0,1-.673-3.09,85.328,85.328,0,0,0,0-39.632,3.6,3.6,0,0,1,.674-3.09,3.542,3.542,0,0,1,2.8-1.356h33.25a3.588,3.588,0,0,1,3.534,3.007,139.676,139.676,0,0,1,0,42.509,3.587,3.587,0,0,1-3.533,3.007h-33.25A3.542,3.542,0,0,1,715.885,360.063Z" transform="translate(-486.03 -266.36)" fill="#6c63ff"/>
    </g>
    <path id="Path_6615" data-name="Path 6615" d="M747.8,333.411H730.284a2.464,2.464,0,0,1-2.461-2.461V329.9a2.464,2.464,0,0,1,2.461-2.461H747.8a2.464,2.464,0,0,1,2.461,2.461v1.045A2.464,2.464,0,0,1,747.8,333.411Z" transform="translate(-488.31 -247.975)" fill="#fff"/>
    <path id="Path_6616" data-name="Path 6616" d="M747.8,345.958H730.284a2.464,2.464,0,0,1-2.461-2.461v-1.045a2.464,2.464,0,0,1,2.461-2.461H747.8a2.464,2.464,0,0,1,2.461,2.461V343.5A2.464,2.464,0,0,1,747.8,345.958Z" transform="translate(-488.31 -250.228)" fill="#fff"/>
    <path id="Path_6617" data-name="Path 6617" d="M782.417,415.651H765.25a2.464,2.464,0,0,1-2.461-2.461v-.962a2.464,2.464,0,0,1,2.461-2.461h17.166a2.464,2.464,0,0,1,2.461,2.461v.962a2.464,2.464,0,0,1-2.461,2.461Z" transform="translate(-494.588 -262.757)" fill="#fff"/>
    <path id="Path_6618" data-name="Path 6618" d="M782.417,430.464H765.25A2.464,2.464,0,0,1,762.789,428v-.962a2.464,2.464,0,0,1,2.461-2.461h17.166a2.464,2.464,0,0,1,2.461,2.461V428a2.464,2.464,0,0,1-2.461,2.461Z" transform="translate(-494.588 -265.417)" fill="#fff"/>
    <path id="Path_6619" data-name="Path 6619" d="M782.417,445.278H765.25a2.464,2.464,0,0,1-2.461-2.461v-.962a2.464,2.464,0,0,1,2.461-2.461h17.166a2.464,2.464,0,0,1,2.461,2.461v.962a2.464,2.464,0,0,1-2.461,2.461Z" transform="translate(-494.588 -268.077)" fill="#fff"/>
    <path id="Path_6620" data-name="Path 6620" d="M834.388,355.536H817.221a2.464,2.464,0,0,1-2.461-2.461v-.962a2.464,2.464,0,0,1,2.461-2.461h17.167a2.464,2.464,0,0,1,2.461,2.461v.962A2.464,2.464,0,0,1,834.388,355.536Z" transform="translate(-503.92 -251.963)" fill="#fff"/>
    <path id="Path_6621" data-name="Path 6621" d="M474.415,540.862V542.5a10.264,10.264,0,0,0,10.256,10.255h73.84A10.259,10.259,0,0,0,568.766,542.5v-1.641a10.182,10.182,0,0,0-2.38-6.564,10.55,10.55,0,0,0-1.731-1.641s-40.6-.919-40.6-2.051H484.671A10.27,10.27,0,0,0,474.415,540.862Z" transform="translate(-358.129 -305.455)" fill="#ccc"/>
    <rect id="Rectangle_303" data-name="Rectangle 303" width="10.666" height="68.917" transform="translate(158.722 246.896)" fill="#ccc"/>
    <path id="Path_6622" data-name="Path 6622" d="M560.338,638.4c0,1.152-16.162.446-36.1.446s-36.1.707-36.1-.446,16.162-10.291,36.1-10.291S560.338,637.249,560.338,638.4Z" transform="translate(-360.594 -322.963)" fill="#ccc"/>
    <path id="Path_6623" data-name="Path 6623" d="M548.868,521.675a8.814,8.814,0,0,0-3.123-13.149L523.139,431.5l-17.214,8.431,27.633,73.064a8.861,8.861,0,0,0,15.309,8.681Z" transform="translate(-363.787 -287.66)" fill="#a0616a"/>
    <path id="Path_6624" data-name="Path 6624" d="M527.255,440.237l-19.266,5.215a3.952,3.952,0,0,1-4.957-3.352L500.7,422.338a10.975,10.975,0,0,1,21.2-5.674l7.937,18.177a3.952,3.952,0,0,1-2.59,5.395Z" transform="translate(-362.782 -283.534)" fill="#6c63ff"/>
    <path id="Path_6625" data-name="Path 6625" d="M231.724,368.92h10.058l4.786-26.087H231.722Z" transform="translate(-41.608 -61.559)" fill="#a0616a"/>
    <path id="Path_6626" data-name="Path 6626" d="M561.276,626.8h19.809a12.623,12.623,0,0,1,12.623,12.624v.41H561.276Z" transform="translate(-373.726 -322.728)" fill="#2f2e41"/>
    <path id="Path_6627" data-name="Path 6627" d="M563.759,592.969q-.176,0-.353-.017l-13.92-1.013a3.692,3.692,0,0,1-3.125-4.947l18.629-41.854a2.87,2.87,0,0,0-.161-2.3,2.831,2.831,0,0,0-1.814-1.444c-8.76-2.29-31.236-8.387-50.692-15.521-8.336-3.057-13.585-7.474-15.6-13.129-2.661-7.455,1.276-14.254,1.444-14.54l.132-.224,18.308,1.664,19.847,1.688,43.495,23.324a16.479,16.479,0,0,1,7.235,21.154l-20.052,44.966A3.69,3.69,0,0,1,563.759,592.969Z" transform="translate(-361.969 -299.598)" fill="#2f2e41"/>
    <circle id="Ellipse_23" data-name="Ellipse 23" cx="20.151" cy="20.151" r="20.151" transform="translate(137.667 76.943)" fill="#a0616a"/>
    <path id="Path_6628" data-name="Path 6628" d="M224.724,367.92h10.058l4.786-26.087H224.722Z" transform="translate(-40.351 -61.379)" fill="#a0616a"/>
    <path id="Path_6629" data-name="Path 6629" d="M554.276,625.8h19.809a12.624,12.624,0,0,1,12.623,12.624v.41H554.276Z" transform="translate(-372.469 -322.549)" fill="#2f2e41"/>
    <path id="Path_6630" data-name="Path 6630" d="M556.759,595.969q-.176,0-.353-.017l-13.92-1.013a3.692,3.692,0,0,1-3.125-4.947l18.629-41.854a2.87,2.87,0,0,0-.161-2.3,2.831,2.831,0,0,0-1.814-1.444c-8.76-2.29-31.236-8.387-50.692-15.521-8.336-3.057-13.586-7.474-15.6-13.129-2.661-7.455,1.276-14.254,1.444-14.54l.132-.223,18.308,1.664,19.847,1.688,43.495,23.324a16.479,16.479,0,0,1,7.235,21.154l-20.052,44.966A3.689,3.689,0,0,1,556.759,595.969Z" transform="translate(-360.712 -300.136)" fill="#2f2e41"/>
    <path id="Path_6631" data-name="Path 6631" d="M525.34,411.395l-21.331-7.384s-13.391,10.288-6.958,35.811a63.185,63.185,0,0,1-2.79,39.644A40.834,40.834,0,0,1,492.112,484s23.793,28.715,45.945,7.384l-8.615-41.432S542.979,422.471,525.34,411.395Z" transform="translate(-361.307 -282.724)" fill="#9456c8"/>
    <path id="Path_6632" data-name="Path 6632" d="M521.034,388.227c-2.868-4.293-5.131-10.245-1.974-14.33,3.117-4.032,9.264-3.438,14.038-5.222,6.649-2.485,10.505-10.3,9.3-17.291s-6.818-12.794-13.508-15.167-14.233-1.6-20.784,1.131c-8.064,3.364-14.982,9.87-17.883,18.112s-1.35,18.138,4.668,24.473c6.452,6.792,16.578,8.6,25.945,8.492" transform="translate(-360.714 -270.297)" fill="#2f2e41"/>
    <path id="Path_6633" data-name="Path 6633" d="M484.842,352.884c-3.614,2.942-9.128,1.635-13.007-.947s-7.027-6.259-11.224-8.283c-7.4-3.569-16.346-1.2-23.548,2.757s-13.586,9.415-21.193,12.517-17.314,3.256-23.075-2.6a21.112,21.112,0,0,0,30.939,24.918c8.335-5.077,12.939-15.723,22.288-18.525,5.173-1.551,10.728-.3,15.957,1.051s10.68,2.814,15.957,1.663,10.212-5.893,9.541-11.252Z" transform="translate(-343.266 -271.572)" fill="#2f2e41"/>
    <path id="Path_6634" data-name="Path 6634" d="M584.844,574.913a137.433,137.433,0,0,1,0-41.822,3.53,3.53,0,0,1,3.476-2.958h32.713a3.485,3.485,0,0,1,2.753,1.334,3.544,3.544,0,0,1,.662,3.039,83.955,83.955,0,0,0,0,38.992,3.542,3.542,0,0,1-.662,3.039,3.484,3.484,0,0,1-2.753,1.334H588.32a3.53,3.53,0,0,1-3.476-2.958Z" transform="translate(-377.671 -305.37)" fill="#ff6584"/>
    <path id="Path_6635" data-name="Path 6635" d="M612.737,553.521H595.571a2.464,2.464,0,0,1-2.461-2.461V550.1a2.464,2.464,0,0,1,2.461-2.461h17.167A2.464,2.464,0,0,1,615.2,550.1v.961A2.464,2.464,0,0,1,612.737,553.521Z" transform="translate(-379.442 -308.513)" fill="#fff"/>
    <path id="Path_6636" data-name="Path 6636" d="M612.737,565.866H595.571a2.464,2.464,0,0,1-2.461-2.461v-.962a2.464,2.464,0,0,1,2.461-2.461h17.167a2.464,2.464,0,0,1,2.461,2.461v.962A2.464,2.464,0,0,1,612.737,565.866Z" transform="translate(-379.442 -310.73)" fill="#fff"/>
    <path id="Path_6637" data-name="Path 6637" d="M582.109,519.208a8.814,8.814,0,0,0-6.31-11.952L534.666,438.32,520.1,450.784l45.011,63.843a8.861,8.861,0,0,0,16.993,4.581Z" transform="translate(-366.333 -288.884)" fill="#a0616a"/>
    <path id="Path_6638" data-name="Path 6638" d="M540.9,446.017l-17.352,9.863a3.952,3.952,0,0,1-5.638-2.007l-7.192-18.554a10.975,10.975,0,1,1,19.115-10.791l12.227,15.618a3.952,3.952,0,0,1-1.16,5.871Z" transform="translate(-364.393 -285.406)" fill="#9456c8"/>
    <path id="Path_6639" data-name="Path 6639" d="M646.908,641.641a.818.818,0,0,1-.82.82H333.5a.82.82,0,0,1,0-1.641H646.087a.818.818,0,0,1,.82.82Z" transform="translate(-332.679 -325.245)" fill="#fff"/>
  </g>
</svg>
