<svg xmlns="http://www.w3.org/2000/svg" width="314.987" height="231.294" viewBox="0 0 314.987 231.294">
  <g id="Group_11273" data-name="Group 11273" transform="translate(4.539 0)">
    <circle id="Ellipse_44" data-name="Ellipse 44" cx="7.33" cy="7.33" r="7.33" transform="translate(161.58 8.929)" fill="#6c63ff"/>
    <path id="Path_395" data-name="Path 395" d="M629.538,191.668a.76.76,0,0,1-.457-.152l-.008-.006-1.723-1.318a.766.766,0,0,1,.932-1.215l1.116.856,2.637-3.44a.765.765,0,0,1,1.073-.142h0l-.016.023.017-.023a.766.766,0,0,1,.142,1.073l-3.1,4.044a.766.766,0,0,1-.609.3Z" transform="translate(-461.354 -172.613)" fill="#fff"/>
    <circle id="Ellipse_44-2" data-name="Ellipse 44" cx="7.33" cy="7.33" r="7.33" transform="translate(161.58 58.482)" fill="#6c63ff"/>
    <path id="Path_395-2" data-name="Path 395" d="M629.538,319.668a.76.76,0,0,1-.457-.152l-.008-.006-1.723-1.318a.766.766,0,1,1,.932-1.215l1.116.856,2.637-3.44a.765.765,0,0,1,1.073-.142h0l-.016.023.017-.023a.766.766,0,0,1,.142,1.073l-3.1,4.044a.766.766,0,0,1-.609.3Z" transform="translate(-461.354 -251.06)" fill="#fff"/>
    <path id="Path_6662" data-name="Path 6662" d="M682.9,492.6a4.16,4.16,0,0,1,4.727-4.284l6.713-13.171,3.793,6.68-6.957,11.483a4.183,4.183,0,0,1-8.276-.709Z" transform="translate(-495.58 -349.762)" fill="#ffb7b7"/>
    <path id="Path_6663" data-name="Path 6663" d="M552.4,551.023h-5.268L544.627,530.7H552.4Z" transform="translate(-333.785 -325.251)" fill="#ffb7b7"/>
    <path id="Path_6664" data-name="Path 6664" d="M740.327,736.849H723.339v-.215a6.612,6.612,0,0,1,6.612-6.612h10.376Z" transform="translate(-520.367 -505.97)" fill="#2f2e41"/>
    <path id="Path_6665" data-name="Path 6665" d="M626.175,551.023h-5.268L618.4,530.7h7.776Z" transform="translate(-378.999 -325.251)" fill="#ffb7b7"/>
    <path id="Path_6666" data-name="Path 6666" d="M814.1,736.849H797.112v-.215a6.612,6.612,0,0,1,6.612-6.612H814.1Z" transform="translate(-565.58 -505.97)" fill="#2f2e41"/>
    <path id="Path_6667" data-name="Path 6667" d="M700.165,490.62l-2.3,3.833s3.833,0,4.6,5.75l3.067-3.833Z" transform="translate(-504.755 -359.248)" fill="#e5e5e5"/>
    <path id="Path_6668" data-name="Path 6668" d="M759.225,469.827s6.133,16.1,7.283,26.066,3.067,36.415,3.067,36.415l3.833,34.115-10.733,1.533-4.6-34.5-10.349-34.115-2.3,34.115-1.917,31.049-9.966.383-.767-32.2-4.216-41.015,2.3-19.549Z" transform="translate(-523.567 -346.505)" fill="#2f2e41"/>
    <circle id="Ellipse_51" data-name="Ellipse 51" cx="9.583" cy="9.583" r="9.583" transform="translate(208.827 55.518)" fill="#ffb7b7"/>
    <path id="Path_6669" data-name="Path 6669" d="M554.228,192.312l3.833,2.683,4.983,50.215L532,245.976l4.217-34.882,3.833-9.966,2.767-3.658Z" transform="translate(-326.044 -117.862)" fill="#e5e5e5"/>
    <path id="Path_6670" data-name="Path 6670" d="M790.444,381.764l1.173-34.674s2.277.176,3.044,1.326,13.416,3.45,13.416,3.45l-2.3,35.648s9.583,28.365,6.133,29.9-9.583,1.15-9.583,1.15Z" transform="translate(-561.493 -271.283)" fill="#2f2e41"/>
    <path id="Path_6671" data-name="Path 6671" d="M726.54,388.274l4.066-23.369-9.049,6.12,2.3,16.866-1.917,11.5s-7.283,31.815-4.983,32.965a6.608,6.608,0,0,0,4.983,0l4.6-32.2Z" transform="translate(-516.18 -282.201)" fill="#2f2e41"/>
    <path id="Path_6672" data-name="Path 6672" d="M712.814,378.733l-2.683.767-1.15,15.333-1.917,13.416-9.2,16.483s4.6-3.067,6.516,5.75l10.131-17.639Z" transform="translate(-504.755 -290.676)" fill="#2f2e41"/>
    <path id="Path_6673" data-name="Path 6673" d="M749.782,285.688l1.807-.723s-3.778-4.16-9.035-3.8l1.479-1.628s-3.614-1.447-6.9,2.351a32.067,32.067,0,0,0-4.971,6.987h-1.935l.808,1.778-2.827,1.778,2.9-.319a9.939,9.939,0,0,0-.079,2.95,3.817,3.817,0,0,0,1.4,2.5h0s2.241-4.639,2.241-5.362v1.809s1.807-1.628,1.807-2.713l.986,1.266.493-1.99,6.078,1.99-.986-1.628,3.778.543-1.479-1.99,5.85,8.215S754.546,288.4,749.782,285.688Z" transform="translate(-523.35 -229.717)" fill="#2f2e41"/>
    <path id="Path_6674" data-name="Path 6674" d="M790.251,488.519a4.16,4.16,0,0,1,5.468-3.285l9.142-11.617,2.424,7.29-9.053,9.914a4.183,4.183,0,0,1-7.982-2.3Z" transform="translate(-561.341 -348.827)" fill="#ffb7b7"/>
    <path id="Path_6675" data-name="Path 6675" d="M618.763,338.711l-3.45,4.217-4.6-8.05,1.916-3.45Z" transform="translate(-374.288 -203.122)" fill="#e5e5e5"/>
    <path id="Path_6676" data-name="Path 6676" d="M817.035,360.464l3.067-1.533s2.3,3.067,2.683,5.75,2.3,6.133,2.3,8.05,5.366,19.932,5.366,19.932l-12.266,24.916s-2.683-9.2-8.433-9.966l9.583-13.416-5.366-9.583Z" transform="translate(-573.326 -278.539)" fill="#2f2e41"/>
    <path id="Path_6677" data-name="Path 6677" d="M932.125,747.041H618.784c-.454,0-.822-.173-.822-.387s.368-.387.822-.387H932.125c.454,0,.823.173.823.387S932.58,747.041,932.125,747.041Z" transform="translate(-622.5 -515.926)" fill="#cbcbcb"/>
    <path id="Path_6678" data-name="Path 6678" d="M340.342,311.79h-141.3V279.271h141.3Z" transform="translate(-199.039 -229.719)" fill="#fff"/>
    <path id="Path_6679" data-name="Path 6679" d="M249.537,307.046a1.377,1.377,0,0,0,0,2.754H350.06a1.377,1.377,0,0,0,0-2.754Z" transform="translate(-229.144 -246.741)" fill="#6c63ff"/>
    <path id="Path_6680" data-name="Path 6680" d="M249.533,328.384a1.377,1.377,0,0,0-.006,2.754h63.551a1.377,1.377,0,1,0,0-2.754Z" transform="translate(-229.14 -259.818)" fill="#6c63ff"/>
    <path id="Path_6681" data-name="Path 6681" d="M340.342,311.79h-141.3V279.271h141.3Zm-138.98-2.323H338.019V281.594H201.362Z" transform="translate(-199.039 -229.719)" fill="#e5e5e5"/>
    <path id="Path_6682" data-name="Path 6682" d="M340.342,439.79h-141.3V407.271h141.3Z" transform="translate(-199.039 -308.166)" fill="#fff"/>
    <path id="Path_6683" data-name="Path 6683" d="M249.537,435.046a1.377,1.377,0,0,0,0,2.754H350.06a1.377,1.377,0,1,0,0-2.754Z" transform="translate(-229.144 -325.188)" fill="#e6e6e6"/>
    <path id="Path_6684" data-name="Path 6684" d="M249.533,456.384a1.377,1.377,0,1,0-.006,2.754h63.551a1.377,1.377,0,1,0,0-2.754Z" transform="translate(-229.14 -338.266)" fill="#e6e6e6"/>
    <path id="Path_6685" data-name="Path 6685" d="M340.342,439.79h-141.3V407.271h141.3Zm-138.98-2.323H338.019V409.594H201.362Z" transform="translate(-199.039 -308.166)" fill="#e5e5e5"/>
    <path id="Path_6686" data-name="Path 6686" d="M343.342,183.79h-141.3V151.271h141.3Z" transform="translate(-200.878 -151.271)" fill="#fff"/>
    <path id="Path_6687" data-name="Path 6687" d="M252.537,179.046a1.377,1.377,0,1,0,0,2.754H353.06a1.377,1.377,0,1,0,0-2.754Z" transform="translate(-230.983 -168.294)" fill="#6c63ff"/>
    <path id="Path_6688" data-name="Path 6688" d="M252.533,200.384a1.377,1.377,0,1,0-.006,2.754h63.551a1.377,1.377,0,1,0,0-2.754Z" transform="translate(-230.978 -181.371)" fill="#6c63ff"/>
    <path id="Path_6689" data-name="Path 6689" d="M343.342,183.79h-141.3V151.271h141.3Zm-138.98-2.323H341.019V153.594H204.362Z" transform="translate(-200.878 -151.271)" fill="#e5e5e5"/>
    <path id="Path_6690" data-name="Path 6690" d="M938.287,704.394V676.389S949.2,696.243,938.287,704.394Z" transform="translate(-652.102 -473.1)" fill="#f1f1f1"/>
    <path id="Path_6691" data-name="Path 6691" d="M907.369,718.734l-20.63-18.939S908.746,705.182,907.369,718.734Z" transform="translate(-620.51 -487.445)" fill="#f1f1f1"/>
    <circle id="Ellipse_44-3" data-name="Ellipse 44" cx="7.33" cy="7.33" r="7.33" transform="translate(180.163 127.332)" fill="#6c63ff"/>
    <path id="Path_395-3" data-name="Path 395" d="M677.538,497.514a.76.76,0,0,1-.457-.152l-.008-.006-1.723-1.318a.766.766,0,1,1,.932-1.215l1.116.856,2.637-3.44a.765.765,0,0,1,1.073-.142h0l-.016.023.017-.023a.766.766,0,0,1,.142,1.073l-3.1,4.044a.766.766,0,0,1-.609.3Z" transform="translate(-490.772 -360.057)" fill="#fff"/>
  </g>
</svg>
