<svg xmlns="http://www.w3.org/2000/svg" xmlns:xlink="http://www.w3.org/1999/xlink" width="85.595" height="84.901" viewBox="0 0 85.595 84.901">
  <defs>
    <clipPath id="clip-path">
      <path id="bgicon" d="M66.46,11.212C46.736-8.271,29.936.589,27.013,15.432S-3.067,33.239.286,50.771s39.875,7.122,39.875,23.011S82.389,89.123,82.389,68.3,86.183,30.694,66.46,11.212Z" fill="rgba(198,130,255,0.34)"/>
    </clipPath>
  </defs>
  <g id="Group_11277" data-name="Group 11277" transform="translate(-579.499 -5288.775)">
    <g id="Group_10445" data-name="Group 10445" transform="translate(3 1)">
      <g id="bgicon-2" data-name="bgicon" transform="translate(576.499 5287.775)" opacity="0.21">
        <path id="bgicon-3" data-name="bgicon" d="M66.46,11.212C46.736-8.271,29.936.589,27.013,15.432S-3.067,33.239.286,50.771s39.875,7.122,39.875,23.011S82.389,89.123,82.389,68.3,86.183,30.694,66.46,11.212Z" fill="rgba(198,130,255,0.34)"/>
        <g id="bgicon-4" data-name="bgicon" clip-path="url(#clip-path)">
          <g id="Color_Blue" data-name="Color/Blue" transform="translate(0 0)" opacity="0.2">
            <rect id="Rectangle" width="84" height="85" transform="translate(-0.499 0.225)" fill="rgba(198,130,255,0.34)"/>
          </g>
        </g>
      </g>
      <g id="icon_home_desktop" data-name="icon/home/desktop" transform="translate(599.231 5301.968)">
        <g id="Group_12" data-name="Group 12">
          <path id="Stroke_1" data-name="Stroke 1" d="M0,61.362H48.213V0H0Z" fill="none" stroke="#333" stroke-linecap="round" stroke-linejoin="round" stroke-miterlimit="10" stroke-width="3"/>
          <path id="Stroke_3" data-name="Stroke 3" d="M6.575,30.681,3.287,39.447,0,30.681V3.287a3.287,3.287,0,0,1,6.575,0Z" transform="translate(54.788)" fill="none" stroke="#333" stroke-linecap="round" stroke-linejoin="round" stroke-miterlimit="10" stroke-width="3"/>
          <path id="Stroke_4" data-name="Stroke 4" d="M0,1H6.575" transform="translate(54.788 8.19)" fill="none" stroke="#333" stroke-linecap="round" stroke-linejoin="round" stroke-miterlimit="10" stroke-width="3"/>
          <path id="Stroke_5" data-name="Stroke 5" d="M0,32.873V27.394a9.863,9.863,0,0,1,9.862-9.862A9.863,9.863,0,0,0,19.724,7.67V0" transform="translate(10.958 21.915)" fill="none" stroke="#459eff" stroke-linecap="round" stroke-linejoin="round" stroke-miterlimit="10" stroke-width="3"/>
          <path id="Stroke_6" data-name="Stroke 6" d="M0,6.575,6.575,0l6.575,6.575" transform="translate(24.107 21.915)" fill="none" stroke="#459eff" stroke-linecap="round" stroke-linejoin="round" stroke-miterlimit="10" stroke-width="3"/>
          <path id="Stroke_7" data-name="Stroke 7" d="M8.766,4.383A4.383,4.383,0,1,1,4.383,0,4.385,4.385,0,0,1,8.766,4.383Z" transform="translate(26.298 6.575)" fill="none" stroke="#459eff" stroke-linecap="round" stroke-linejoin="round" stroke-miterlimit="10" stroke-width="3"/>
          <path id="Stroke_8" data-name="Stroke 8" d="M0,0,8.766,8.766" transform="translate(26.298 46.022)" fill="none" stroke="#333" stroke-linecap="round" stroke-linejoin="round" stroke-miterlimit="10" stroke-width="3"/>
          <path id="Stroke_9" data-name="Stroke 9" d="M8.766,0,0,8.766" transform="translate(26.298 46.022)" fill="none" stroke="#333" stroke-linecap="round" stroke-linejoin="round" stroke-miterlimit="10" stroke-width="3"/>
          <path id="Stroke_10" data-name="Stroke 10" d="M0,0,8.766,8.766" transform="translate(8.766 24.107)" fill="none" stroke="#333" stroke-linecap="round" stroke-linejoin="round" stroke-miterlimit="10" stroke-width="3"/>
          <path id="Stroke_11" data-name="Stroke 11" d="M8.766,0,0,8.766" transform="translate(8.766 24.107)" fill="none" stroke="#333" stroke-linecap="round" stroke-linejoin="round" stroke-miterlimit="10" stroke-width="3"/>
        </g>
      </g>
    </g>
  </g>
</svg>
